<?xml version="1.0" encoding="UTF-8" standalone="no"?>
<svg width="119.239mm" height="116.769mm"
 viewBox="0 0 338 331"
 xmlns="http://www.w3.org/2000/svg" xmlns:xlink="http://www.w3.org/1999/xlink"  version="1.2" baseProfile="tiny">
<title>Qt SVG Document</title>
<desc>MATLAB, The MathWorks, Inc. Version 25.1.0.2973910 R2025a Update 1</desc>
<defs>
</defs>
<g fill="none" stroke="black" stroke-width="1" fill-rule="evenodd" stroke-linecap="square" stroke-linejoin="bevel" >

<g fill="#000000" fill-opacity="1" stroke="none" transform="matrix(0.757895,0,0,0.757895,-125.811,-22.3579)"
font-family="Sans Serif" font-size="9" font-weight="400" font-style="normal" 
>
<path vector-effect="none" fill-rule="evenodd" d="M165,28 L612,28 L612,466 L165,466 L165,28"/>
</g>

<g fill="#121212" fill-opacity="1" stroke="none" transform="matrix(7.57895e-05,0,0,7.57895e-05,-125.811,-22.3579)"
font-family="Sans Serif" font-size="9" font-weight="400" font-style="normal" 
>
<path vector-effect="none" fill-rule="evenodd" d="M2.16e+06,360000 L2.16e+06,4.26e+06 L6.06e+06,4.26e+06 L6.06e+06,360000 L2.16e+06,360000"/>
</g>

<g fill="#ffffff" fill-opacity="0.25098" stroke="#ffffff" stroke-opacity="0.25098" stroke-width="0.659722" stroke-linecap="butt" stroke-linejoin="round" transform="matrix(0.757895,0,0,0.757895,-125.811,-22.3579)"
font-family="Sans Serif" font-size="9" font-weight="400" font-style="normal" 
>
<polyline fill="none" vector-effect="none" points="216,36 216,426 " />
<polyline fill="none" vector-effect="none" points="281,36 281,426 " />
<polyline fill="none" vector-effect="none" points="346,36 346,426 " />
<polyline fill="none" vector-effect="none" points="411,36 411,426 " />
<polyline fill="none" vector-effect="none" points="476,36 476,426 " />
<polyline fill="none" vector-effect="none" points="541,36 541,426 " />
<polyline fill="none" vector-effect="none" points="606,36 606,426 " />
<polyline fill="none" vector-effect="none" points="216,426 606,426 " />
<polyline fill="none" vector-effect="none" points="216,387 606,387 " />
<polyline fill="none" vector-effect="none" points="216,348 606,348 " />
<polyline fill="none" vector-effect="none" points="216,309 606,309 " />
<polyline fill="none" vector-effect="none" points="216,270 606,270 " />
<polyline fill="none" vector-effect="none" points="216,231 606,231 " />
<polyline fill="none" vector-effect="none" points="216,192 606,192 " />
<polyline fill="none" vector-effect="none" points="216,153 606,153 " />
<polyline fill="none" vector-effect="none" points="216,114 606,114 " />
<polyline fill="none" vector-effect="none" points="216,75 606,75 " />
<polyline fill="none" vector-effect="none" points="216,36 606,36 " />
</g>

<g fill="#d9d9d9" fill-opacity="1" stroke="#d9d9d9" stroke-opacity="1" stroke-width="1" stroke-linecap="square" stroke-linejoin="bevel" transform="matrix(0.757895,0,0,0.757895,140.59,326.726)"
font-family="Helvetica" font-size="14" font-weight="400" font-style="normal" 
>
<text fill="#d9d9d9" fill-opacity="1" stroke="none" xml:space="preserve" x="0" y="0" font-family="Helvetica" font-size="14" font-weight="400" font-style="normal" 
 >spin velocity (cm/s)</text>
</g>

<g fill="#d9d9d9" fill-opacity="1" stroke="#d9d9d9" stroke-opacity="1" stroke-width="0.659722" stroke-linecap="square" stroke-linejoin="round" transform="matrix(0.757895,0,0,0.757895,-125.811,-22.3579)"
font-family="Helvetica" font-size="14" font-weight="400" font-style="normal" 
>
<polyline fill="none" vector-effect="none" points="216,426 606,426 " />
<polyline fill="none" vector-effect="none" points="216,36 606,36 " />
<polyline fill="none" vector-effect="none" points="216,426 216,422.1 " />
<polyline fill="none" vector-effect="none" points="216,39.9 216,36 " />
<polyline fill="none" vector-effect="none" points="281,426 281,422.1 " />
<polyline fill="none" vector-effect="none" points="281,39.9 281,36 " />
<polyline fill="none" vector-effect="none" points="346,426 346,422.1 " />
<polyline fill="none" vector-effect="none" points="346,39.9 346,36 " />
<polyline fill="none" vector-effect="none" points="411,426 411,422.1 " />
<polyline fill="none" vector-effect="none" points="411,39.9 411,36 " />
<polyline fill="none" vector-effect="none" points="476,426 476,422.1 " />
<polyline fill="none" vector-effect="none" points="476,39.9 476,36 " />
<polyline fill="none" vector-effect="none" points="541,426 541,422.1 " />
<polyline fill="none" vector-effect="none" points="541,39.9 541,36 " />
<polyline fill="none" vector-effect="none" points="606,426 606,422.1 " />
<polyline fill="none" vector-effect="none" points="606,39.9 606,36 " />
</g>

<g fill="#d9d9d9" fill-opacity="1" stroke="#d9d9d9" stroke-opacity="1" stroke-width="1" stroke-linecap="square" stroke-linejoin="bevel" transform="matrix(0.757895,0,0,0.757895,35.2421,313.6)"
font-family="Helvetica" font-size="13" font-weight="400" font-style="normal" 
>
<text fill="#d9d9d9" fill-opacity="1" stroke="none" xml:space="preserve" x="0" y="0" font-family="Helvetica" font-size="13" font-weight="400" font-style="normal" 
 >0</text>
</g>

<g fill="#d9d9d9" fill-opacity="1" stroke="#d9d9d9" stroke-opacity="1" stroke-width="1" stroke-linecap="square" stroke-linejoin="bevel" transform="matrix(0.757895,0,0,0.757895,84.5053,313.6)"
font-family="Helvetica" font-size="13" font-weight="400" font-style="normal" 
>
<text fill="#d9d9d9" fill-opacity="1" stroke="none" xml:space="preserve" x="0" y="0" font-family="Helvetica" font-size="13" font-weight="400" font-style="normal" 
 >1</text>
</g>

<g fill="#d9d9d9" fill-opacity="1" stroke="#d9d9d9" stroke-opacity="1" stroke-width="1" stroke-linecap="square" stroke-linejoin="bevel" transform="matrix(0.757895,0,0,0.757895,133.768,313.6)"
font-family="Helvetica" font-size="13" font-weight="400" font-style="normal" 
>
<text fill="#d9d9d9" fill-opacity="1" stroke="none" xml:space="preserve" x="0" y="0" font-family="Helvetica" font-size="13" font-weight="400" font-style="normal" 
 >2</text>
</g>

<g fill="#d9d9d9" fill-opacity="1" stroke="#d9d9d9" stroke-opacity="1" stroke-width="1" stroke-linecap="square" stroke-linejoin="bevel" transform="matrix(0.757895,0,0,0.757895,183.032,313.6)"
font-family="Helvetica" font-size="13" font-weight="400" font-style="normal" 
>
<text fill="#d9d9d9" fill-opacity="1" stroke="none" xml:space="preserve" x="0" y="0" font-family="Helvetica" font-size="13" font-weight="400" font-style="normal" 
 >3</text>
</g>

<g fill="#d9d9d9" fill-opacity="1" stroke="#d9d9d9" stroke-opacity="1" stroke-width="1" stroke-linecap="square" stroke-linejoin="bevel" transform="matrix(0.757895,0,0,0.757895,232.295,313.6)"
font-family="Helvetica" font-size="13" font-weight="400" font-style="normal" 
>
<text fill="#d9d9d9" fill-opacity="1" stroke="none" xml:space="preserve" x="0" y="0" font-family="Helvetica" font-size="13" font-weight="400" font-style="normal" 
 >4</text>
</g>

<g fill="#d9d9d9" fill-opacity="1" stroke="#d9d9d9" stroke-opacity="1" stroke-width="1" stroke-linecap="square" stroke-linejoin="bevel" transform="matrix(0.757895,0,0,0.757895,281.558,313.6)"
font-family="Helvetica" font-size="13" font-weight="400" font-style="normal" 
>
<text fill="#d9d9d9" fill-opacity="1" stroke="none" xml:space="preserve" x="0" y="0" font-family="Helvetica" font-size="13" font-weight="400" font-style="normal" 
 >5</text>
</g>

<g fill="#d9d9d9" fill-opacity="1" stroke="#d9d9d9" stroke-opacity="1" stroke-width="1" stroke-linecap="square" stroke-linejoin="bevel" transform="matrix(0.757895,0,0,0.757895,330.821,313.6)"
font-family="Helvetica" font-size="13" font-weight="400" font-style="normal" 
>
<text fill="#d9d9d9" fill-opacity="1" stroke="none" xml:space="preserve" x="0" y="0" font-family="Helvetica" font-size="13" font-weight="400" font-style="normal" 
 >6</text>
</g>

<g fill="#d9d9d9" fill-opacity="1" stroke="#d9d9d9" stroke-opacity="1" stroke-width="1" stroke-linecap="square" stroke-linejoin="bevel" transform="matrix(0,-0.757895,0.757895,0,9.09474,159.537)"
font-family="Helvetica" font-size="14" font-weight="400" font-style="normal" 
>
<text fill="#d9d9d9" fill-opacity="1" stroke="none" xml:space="preserve" x="0" y="0" font-family="Helvetica" font-size="14" font-weight="400" font-style="normal" 
 >M</text>
</g>

<g fill="#d9d9d9" fill-opacity="1" stroke="#d9d9d9" stroke-opacity="1" stroke-width="1" stroke-linecap="square" stroke-linejoin="bevel" transform="matrix(0,-0.757895,0.757895,0,14.4,150.442)"
font-family="Helvetica" font-size="11" font-weight="400" font-style="normal" 
>
<text fill="#d9d9d9" fill-opacity="1" stroke="none" xml:space="preserve" x="0" y="0" font-family="Helvetica" font-size="11" font-weight="400" font-style="normal" 
 >z</text>
</g>

<g fill="#d9d9d9" fill-opacity="1" stroke="#d9d9d9" stroke-opacity="1" stroke-width="0.659722" stroke-linecap="square" stroke-linejoin="round" transform="matrix(0.757895,0,0,0.757895,-125.811,-22.3579)"
font-family="Helvetica" font-size="11" font-weight="400" font-style="normal" 
>
<polyline fill="none" vector-effect="none" points="216,426 216,36 " />
<polyline fill="none" vector-effect="none" points="606,426 606,36 " />
<polyline fill="none" vector-effect="none" points="216,426 219.9,426 " />
<polyline fill="none" vector-effect="none" points="602.1,426 606,426 " />
<polyline fill="none" vector-effect="none" points="216,387 219.9,387 " />
<polyline fill="none" vector-effect="none" points="602.1,387 606,387 " />
<polyline fill="none" vector-effect="none" points="216,348 219.9,348 " />
<polyline fill="none" vector-effect="none" points="602.1,348 606,348 " />
<polyline fill="none" vector-effect="none" points="216,309 219.9,309 " />
<polyline fill="none" vector-effect="none" points="602.1,309 606,309 " />
<polyline fill="none" vector-effect="none" points="216,270 219.9,270 " />
<polyline fill="none" vector-effect="none" points="602.1,270 606,270 " />
<polyline fill="none" vector-effect="none" points="216,231 219.9,231 " />
<polyline fill="none" vector-effect="none" points="602.1,231 606,231 " />
<polyline fill="none" vector-effect="none" points="216,192 219.9,192 " />
<polyline fill="none" vector-effect="none" points="602.1,192 606,192 " />
<polyline fill="none" vector-effect="none" points="216,153 219.9,153 " />
<polyline fill="none" vector-effect="none" points="602.1,153 606,153 " />
<polyline fill="none" vector-effect="none" points="216,114 219.9,114 " />
<polyline fill="none" vector-effect="none" points="602.1,114 606,114 " />
<polyline fill="none" vector-effect="none" points="216,75 219.9,75 " />
<polyline fill="none" vector-effect="none" points="602.1,75 606,75 " />
<polyline fill="none" vector-effect="none" points="216,36 219.9,36 " />
<polyline fill="none" vector-effect="none" points="602.1,36 606,36 " />
</g>

<g fill="#d9d9d9" fill-opacity="1" stroke="#d9d9d9" stroke-opacity="1" stroke-width="1" stroke-linecap="square" stroke-linejoin="bevel" transform="matrix(0.757895,0,0,0.757895,28.5895,303.916)"
font-family="Helvetica" font-size="13" font-weight="400" font-style="normal" 
>
<text fill="#d9d9d9" fill-opacity="1" stroke="none" xml:space="preserve" x="0" y="0" font-family="Helvetica" font-size="13" font-weight="400" font-style="normal" 
 >0</text>
</g>

<g fill="#d9d9d9" fill-opacity="1" stroke="#d9d9d9" stroke-opacity="1" stroke-width="1" stroke-linecap="square" stroke-linejoin="bevel" transform="matrix(0.757895,0,0,0.757895,20.2526,274.358)"
font-family="Helvetica" font-size="13" font-weight="400" font-style="normal" 
>
<text fill="#d9d9d9" fill-opacity="1" stroke="none" xml:space="preserve" x="0" y="0" font-family="Helvetica" font-size="13" font-weight="400" font-style="normal" 
 >0.1</text>
</g>

<g fill="#d9d9d9" fill-opacity="1" stroke="#d9d9d9" stroke-opacity="1" stroke-width="1" stroke-linecap="square" stroke-linejoin="bevel" transform="matrix(0.757895,0,0,0.757895,20.2526,244.8)"
font-family="Helvetica" font-size="13" font-weight="400" font-style="normal" 
>
<text fill="#d9d9d9" fill-opacity="1" stroke="none" xml:space="preserve" x="0" y="0" font-family="Helvetica" font-size="13" font-weight="400" font-style="normal" 
 >0.2</text>
</g>

<g fill="#d9d9d9" fill-opacity="1" stroke="#d9d9d9" stroke-opacity="1" stroke-width="1" stroke-linecap="square" stroke-linejoin="bevel" transform="matrix(0.757895,0,0,0.757895,20.2526,215.242)"
font-family="Helvetica" font-size="13" font-weight="400" font-style="normal" 
>
<text fill="#d9d9d9" fill-opacity="1" stroke="none" xml:space="preserve" x="0" y="0" font-family="Helvetica" font-size="13" font-weight="400" font-style="normal" 
 >0.3</text>
</g>

<g fill="#d9d9d9" fill-opacity="1" stroke="#d9d9d9" stroke-opacity="1" stroke-width="1" stroke-linecap="square" stroke-linejoin="bevel" transform="matrix(0.757895,0,0,0.757895,20.2526,185.684)"
font-family="Helvetica" font-size="13" font-weight="400" font-style="normal" 
>
<text fill="#d9d9d9" fill-opacity="1" stroke="none" xml:space="preserve" x="0" y="0" font-family="Helvetica" font-size="13" font-weight="400" font-style="normal" 
 >0.4</text>
</g>

<g fill="#d9d9d9" fill-opacity="1" stroke="#d9d9d9" stroke-opacity="1" stroke-width="1" stroke-linecap="square" stroke-linejoin="bevel" transform="matrix(0.757895,0,0,0.757895,20.2526,156.126)"
font-family="Helvetica" font-size="13" font-weight="400" font-style="normal" 
>
<text fill="#d9d9d9" fill-opacity="1" stroke="none" xml:space="preserve" x="0" y="0" font-family="Helvetica" font-size="13" font-weight="400" font-style="normal" 
 >0.5</text>
</g>

<g fill="#d9d9d9" fill-opacity="1" stroke="#d9d9d9" stroke-opacity="1" stroke-width="1" stroke-linecap="square" stroke-linejoin="bevel" transform="matrix(0.757895,0,0,0.757895,20.2526,126.568)"
font-family="Helvetica" font-size="13" font-weight="400" font-style="normal" 
>
<text fill="#d9d9d9" fill-opacity="1" stroke="none" xml:space="preserve" x="0" y="0" font-family="Helvetica" font-size="13" font-weight="400" font-style="normal" 
 >0.6</text>
</g>

<g fill="#d9d9d9" fill-opacity="1" stroke="#d9d9d9" stroke-opacity="1" stroke-width="1" stroke-linecap="square" stroke-linejoin="bevel" transform="matrix(0.757895,0,0,0.757895,20.2526,97.0105)"
font-family="Helvetica" font-size="13" font-weight="400" font-style="normal" 
>
<text fill="#d9d9d9" fill-opacity="1" stroke="none" xml:space="preserve" x="0" y="0" font-family="Helvetica" font-size="13" font-weight="400" font-style="normal" 
 >0.7</text>
</g>

<g fill="#d9d9d9" fill-opacity="1" stroke="#d9d9d9" stroke-opacity="1" stroke-width="1" stroke-linecap="square" stroke-linejoin="bevel" transform="matrix(0.757895,0,0,0.757895,20.2526,67.4526)"
font-family="Helvetica" font-size="13" font-weight="400" font-style="normal" 
>
<text fill="#d9d9d9" fill-opacity="1" stroke="none" xml:space="preserve" x="0" y="0" font-family="Helvetica" font-size="13" font-weight="400" font-style="normal" 
 >0.8</text>
</g>

<g fill="#d9d9d9" fill-opacity="1" stroke="#d9d9d9" stroke-opacity="1" stroke-width="1" stroke-linecap="square" stroke-linejoin="bevel" transform="matrix(0.757895,0,0,0.757895,20.2526,37.8947)"
font-family="Helvetica" font-size="13" font-weight="400" font-style="normal" 
>
<text fill="#d9d9d9" fill-opacity="1" stroke="none" xml:space="preserve" x="0" y="0" font-family="Helvetica" font-size="13" font-weight="400" font-style="normal" 
 >0.9</text>
</g>

<g fill="#d9d9d9" fill-opacity="1" stroke="#d9d9d9" stroke-opacity="1" stroke-width="1" stroke-linecap="square" stroke-linejoin="bevel" transform="matrix(0.757895,0,0,0.757895,28.5895,8.33684)"
font-family="Helvetica" font-size="13" font-weight="400" font-style="normal" 
>
<text fill="#d9d9d9" fill-opacity="1" stroke="none" xml:space="preserve" x="0" y="0" font-family="Helvetica" font-size="13" font-weight="400" font-style="normal" 
 >1</text>
</g>

<g fill="none" stroke="#00ff00" stroke-opacity="1" stroke-width="0.659722" stroke-linecap="butt" stroke-linejoin="miter" stroke-miterlimit="2" transform="matrix(0.757895,0,0,0.757895,-125.811,-22.3579)"
font-family="Helvetica" font-size="13" font-weight="400" font-style="normal" 
>
<polyline fill="none" vector-effect="none" points="216,418.515 216.381,418.515 216.381,417.393 216.762,417.393 216.762,416.278 217.144,416.278 217.144,415.159 217.525,415.159 217.525,414.067 217.906,414.067 217.906,412.971 218.287,412.971 218.287,411.804 218.669,411.804 218.669,410.708 219.05,410.708 219.05,409.619 219.431,409.619 219.431,408.448 219.812,408.448 219.812,407.586 220.194,407.586 220.194,406.175 220.575,406.175 220.575,405.324 220.956,405.324 220.956,404.347 221.337,404.347 221.337,403.214 221.718,403.214 221.718,401.884 222.1,401.884 222.1,401.128 222.481,401.128 222.481,400.3 222.862,400.3 222.862,398.382 223.243,398.382 223.243,397.264 223.625,397.264 223.625,397.264 224.006,397.264 224.006,396.014 224.387,396.014 224.387,394.607 224.768,394.607 224.768,393.014 225.15,393.014 225.15,393.014 225.531,393.014 225.531,391.192 225.912,391.192 225.912,391.192 226.293,391.192 226.293,389.09 226.674,389.09 226.674,389.09 227.056,389.09 227.056,386.638 227.437,386.638 227.437,386.638 227.818,386.638 227.818,383.741 228.199,383.741 228.199,383.741 228.581,383.741 228.581,383.741 228.962,383.741 228.962,383.741 229.343,383.741 229.343,380.263 229.724,380.263 229.724,380.263 230.106,380.263 230.106,380.263 230.487,380.263 230.487,376.013 230.868,376.013 230.868,376.013 231.249,376.013 231.249,376.013 231.63,376.013 231.63,376.013 232.012,376.013 232.012,376.013 232.393,376.013 232.393,370.7 232.774,370.7 232.774,370.7 233.155,370.7 233.155,370.7 233.537,370.7 233.537,370.7 233.918,370.7 233.918,370.7 234.299,370.7 234.299,370.7 234.68,370.7 234.68,363.87 235.062,363.87 235.062,363.87 235.443,363.87 235.443,363.87 235.824,363.87 235.824,363.87 236.205,363.87 236.205,363.87 236.587,363.87 236.587,363.87 236.968,363.87 236.968,363.87 237.349,363.87 237.349,363.87 237.73,363.87 237.73,354.762 238.111,354.762 238.111,354.762 238.493,354.762 238.493,354.762 238.874,354.762 238.874,354.762 239.255,354.762 239.255,354.762 239.636,354.762 239.636,354.762 240.018,354.762 240.018,354.762 240.399,354.762 240.399,354.762 240.78,354.762 240.78,354.762 241.161,354.762 241.161,354.762 241.543,354.762 241.543,354.762 241.924,354.762 241.924,354.762 242.305,354.762 242.305,342.012 242.686,342.012 242.686,342.012 243.067,342.012 243.067,342.012 243.449,342.012 243.449,342.012 243.83,342.012 243.83,342.012 244.211,342.012 244.211,342.012 244.592,342.012 244.592,342.012 244.974,342.012 244.974,342.012 245.355,342.012 245.355,342.012 245.736,342.012 245.736,342.012 246.117,342.012 246.117,342.012 246.499,342.012 246.499,342.012 246.88,342.012 246.88,342.012 247.261,342.012 247.261,342.012 247.642,342.012 247.642,342.012 248.023,342.012 248.023,342.012 248.405,342.012 248.405,342.012 248.786,342.012 248.786,322.886 249.167,322.886 249.167,322.886 249.548,322.886 249.548,322.886 249.93,322.886 249.93,322.886 250.311,322.886 250.311,322.886 250.692,322.886 250.692,322.886 251.073,322.886 251.073,322.886 251.455,322.886 251.455,322.886 251.836,322.886 251.836,322.886 252.217,322.886 252.217,322.886 252.598,322.886 252.598,322.886 252.979,322.886 252.979,322.886 253.361,322.886 253.361,322.886 253.742,322.886 253.742,322.886 254.123,322.886 254.123,322.886 254.504,322.886 254.504,322.886 254.886,322.886 254.886,322.886 255.267,322.886 255.267,322.886 255.648,322.886 255.648,322.886 256.029,322.886 256.029,322.886 256.411,322.886 256.411,322.886 256.792,322.886 256.792,322.886 257.173,322.886 257.173,322.886 257.554,322.886 257.554,322.886 257.935,322.886 257.935,322.886 258.317,322.886 258.317,322.886 258.698,322.886 258.698,322.886 259.079,322.886 259.079,322.886 259.46,322.886 259.46,291.01 259.842,291.01 259.842,291.01 260.223,291.01 260.223,291.01 260.604,291.01 260.604,291.01 260.985,291.01 260.985,291.01 261.367,291.01 261.367,291.01 261.748,291.01 261.748,291.01 262.129,291.01 262.129,291.01 262.51,291.01 262.51,291.01 262.892,291.01 262.892,291.01 263.273,291.01 263.273,291.01 263.654,291.01 263.654,291.01 264.035,291.01 264.035,291.01 264.416,291.01 264.416,291.01 264.798,291.01 264.798,291.01 265.179,291.01 265.179,291.01 265.56,291.01 265.56,291.01 265.941,291.01 265.941,291.01 266.323,291.01 266.323,291.01 266.704,291.01 266.704,291.01 267.085,291.01 267.085,291.01 267.466,291.01 267.466,291.01 267.848,291.01 267.848,291.01 268.229,291.01 268.229,291.01 268.61,291.01 268.61,291.01 268.991,291.01 268.991,291.01 269.372,291.01 269.372,291.01 269.754,291.01 269.754,291.01 270.135,291.01 270.135,291.01 270.516,291.01 270.516,291.01 270.897,291.01 270.897,291.01 271.279,291.01 271.279,291.01 271.66,291.01 271.66,291.01 272.041,291.01 272.041,291.01 272.422,291.01 272.422,291.01 272.804,291.01 272.804,291.01 273.185,291.01 273.185,291.01 273.566,291.01 273.566,291.01 273.947,291.01 273.947,291.01 274.328,291.01 274.328,291.01 274.71,291.01 274.71,291.01 275.091,291.01 275.091,291.01 275.472,291.01 275.472,291.01 275.853,291.01 275.853,291.01 276.235,291.01 276.235,291.01 276.616,291.01 276.616,291.01 276.997,291.01 276.997,291.01 277.378,291.01 277.378,291.01 277.76,291.01 277.76,291.01 278.141,291.01 278.141,291.01 278.522,291.01 278.522,291.01 278.903,291.01 278.903,291.01 279.284,291.01 279.284,291.01 279.666,291.01 279.666,291.01 280.047,291.01 280.047,291.01 280.428,291.01 280.428,291.01 280.809,291.01 280.809,291.01 281.191,291.01 281.191,227.257 281.572,227.257 281.572,227.257 281.953,227.257 281.953,227.257 282.334,227.257 282.334,227.257 282.716,227.257 282.716,227.257 283.097,227.257 283.097,227.257 283.478,227.257 283.478,227.257 283.859,227.257 283.859,227.257 284.24,227.257 284.24,227.257 284.622,227.257 284.622,227.257 285.003,227.257 285.003,227.257 285.384,227.257 285.384,227.257 285.765,227.257 285.765,227.257 286.147,227.257 286.147,227.257 286.528,227.257 286.528,227.257 286.909,227.257 286.909,227.257 287.29,227.257 287.29,227.257 287.672,227.257 287.672,227.257 288.053,227.257 288.053,227.257 288.434,227.257 288.434,227.257 288.815,227.257 288.815,227.257 289.196,227.257 289.196,227.257 289.578,227.257 289.578,227.257 289.959,227.257 289.959,227.257 290.34,227.257 290.34,227.257 290.721,227.257 290.721,227.257 291.103,227.257 291.103,227.257 291.484,227.257 291.484,227.257 291.865,227.257 291.865,227.257 292.246,227.257 292.246,227.257 292.628,227.257 292.628,227.257 293.009,227.257 293.009,227.257 293.39,227.257 293.39,227.257 293.771,227.257 293.771,227.257 294.152,227.257 294.152,227.257 294.534,227.257 294.534,227.257 294.915,227.257 294.915,227.257 295.296,227.257 295.296,227.257 295.677,227.257 295.677,227.257 296.059,227.257 296.059,227.257 296.44,227.257 296.44,227.257 296.821,227.257 296.821,227.257 297.202,227.257 297.202,227.257 297.584,227.257 297.584,227.257 297.965,227.257 297.965,227.257 298.346,227.257 298.346,227.257 298.727,227.257 298.727,227.257 299.108,227.257 299.108,227.257 299.49,227.257 299.49,227.257 299.871,227.257 299.871,227.257 300.252,227.257 300.252,227.257 300.633,227.257 300.633,227.257 301.015,227.257 301.015,227.257 301.396,227.257 301.396,227.257 301.777,227.257 301.777,227.257 302.158,227.257 302.158,227.257 302.54,227.257 302.54,227.257 302.921,227.257 302.921,227.257 303.302,227.257 303.302,227.257 303.683,227.257 303.683,227.257 304.065,227.257 304.065,227.257 304.446,227.257 304.446,227.257 304.827,227.257 304.827,227.257 305.208,227.257 305.208,227.257 305.589,227.257 305.589,227.257 305.971,227.257 305.971,227.257 306.352,227.257 306.352,227.257 306.733,227.257 306.733,227.257 307.114,227.257 307.114,227.257 307.496,227.257 307.496,227.257 307.877,227.257 307.877,227.257 308.258,227.257 308.258,227.257 308.639,227.257 308.639,227.257 309.021,227.257 309.021,227.257 309.402,227.257 309.402,227.257 309.783,227.257 309.783,227.257 310.164,227.257 310.164,227.257 310.545,227.257 310.545,227.257 310.927,227.257 310.927,227.257 311.308,227.257 311.308,227.257 311.689,227.257 311.689,227.257 312.07,227.257 312.07,227.257 312.452,227.257 312.452,227.257 312.833,227.257 312.833,227.257 313.214,227.257 313.214,227.257 313.595,227.257 313.595,227.257 313.977,227.257 313.977,227.257 314.358,227.257 314.358,227.257 314.739,227.257 314.739,227.257 315.12,227.257 315.12,227.257 315.501,227.257 315.501,227.257 315.883,227.257 315.883,227.257 316.264,227.257 316.264,227.257 316.645,227.257 316.645,227.257 317.026,227.257 317.026,227.257 317.408,227.257 317.408,227.257 317.789,227.257 317.789,227.257 318.17,227.257 318.17,227.257 318.551,227.257 318.551,227.257 318.933,227.257 318.933,227.257 319.314,227.257 319.314,227.257 319.695,227.257 319.695,227.257 320.076,227.257 320.076,227.257 320.457,227.257 320.457,227.257 320.839,227.257 320.839,227.257 321.22,227.257 321.22,227.257 321.601,227.257 321.601,227.257 321.982,227.257 321.982,227.257 322.364,227.257 322.364,227.257 322.745,227.257 322.745,227.257 323.126,227.257 323.126,227.257 323.507,227.257 323.507,227.257 323.889,227.257 323.889,227.257 324.27,227.257 324.27,227.257 324.651,227.257 324.651,227.257 325.032,227.257 325.032,227.257 325.413,227.257 325.413,227.257 325.795,227.257 325.795,227.257 326.176,227.257 326.176,227.257 326.557,227.257 326.557,227.257 326.938,227.257 326.938,227.257 327.32,227.257 327.32,227.257 327.701,227.257 327.701,227.257 328.082,227.257 328.082,227.257 328.463,227.257 328.463,227.257 328.845,227.257 328.845,227.257 329.226,227.257 329.226,227.257 329.607,227.257 329.607,227.257 329.988,227.257 329.988,227.257 330.37,227.257 330.37,227.257 330.751,227.257 330.751,227.257 331.132,227.257 331.132,227.257 331.513,227.257 331.513,227.257 331.894,227.257 331.894,227.257 332.276,227.257 332.276,227.257 332.657,227.257 332.657,227.257 333.038,227.257 333.038,227.257 333.419,227.257 333.419,227.257 333.801,227.257 333.801,227.257 334.182,227.257 334.182,227.257 334.563,227.257 334.563,227.257 334.944,227.257 334.944,227.257 335.326,227.257 335.326,227.257 335.707,227.257 335.707,227.257 336.088,227.257 336.088,227.257 336.469,227.257 336.469,227.257 336.85,227.257 336.85,227.257 337.232,227.257 337.232,227.257 337.613,227.257 337.613,227.257 337.994,227.257 337.994,227.257 338.375,227.257 338.375,227.257 338.757,227.257 338.757,227.257 339.138,227.257 339.138,227.257 339.519,227.257 339.519,227.257 339.9,227.257 339.9,227.257 340.282,227.257 340.282,227.257 340.663,227.257 340.663,227.257 341.044,227.257 341.044,227.257 341.425,227.257 341.425,227.257 341.806,227.257 341.806,227.257 342.188,227.257 342.188,227.257 342.569,227.257 342.569,227.257 342.95,227.257 342.95,227.257 343.331,227.257 343.331,227.257 343.713,227.257 343.713,227.257 344.094,227.257 344.094,227.257 344.475,227.257 344.475,227.257 344.856,227.257 344.856,227.257 345.238,227.257 345.238,227.257 345.619,227.257 345.619,227.257 346,227.257 346,36 346.381,36 346.381,36 346.762,36 346.762,36 347.144,36 347.144,36 347.525,36 347.525,36 347.906,36 347.906,36 348.287,36 348.287,36 348.669,36 348.669,36 349.05,36 349.05,36 349.431,36 349.431,36 349.812,36 349.812,36 350.194,36 350.194,36 350.575,36 350.575,36 350.956,36 350.956,36 351.337,36 351.337,36 351.718,36 351.718,36 352.1,36 352.1,36 352.481,36 352.481,36 352.862,36 352.862,36 353.243,36 353.243,36 353.625,36 353.625,36 354.006,36 354.006,36 354.387,36 354.387,36 354.768,36 354.768,36 355.15,36 355.15,36 355.531,36 355.531,36 355.912,36 355.912,36 356.293,36 356.293,36 356.674,36 356.674,36 357.056,36 357.056,36 357.437,36 357.437,36 357.818,36 357.818,36 358.199,36 358.199,36 358.581,36 358.581,36 358.962,36 358.962,36 359.343,36 359.343,36 359.724,36 359.724,36 360.106,36 360.106,36 360.487,36 360.487,36 360.868,36 360.868,36 361.249,36 361.249,36 361.63,36 361.63,36 362.012,36 362.012,36 362.393,36 362.393,36 362.774,36 362.774,36 363.155,36 363.155,36 363.537,36 363.537,36 363.918,36 363.918,36 364.299,36 364.299,36 364.68,36 364.68,36 365.062,36 365.062,36 365.443,36 365.443,36 365.824,36 365.824,36 366.205,36 366.205,36 366.587,36 366.587,36 366.968,36 366.968,36 367.349,36 367.349,36 367.73,36 367.73,36 368.111,36 368.111,36 368.493,36 368.493,36 368.874,36 368.874,36 369.255,36 369.255,36 369.636,36 369.636,36 370.018,36 370.018,36 370.399,36 370.399,36 370.78,36 370.78,36 371.161,36 371.161,36 371.543,36 371.543,36 371.924,36 371.924,36 372.305,36 372.305,36 372.686,36 372.686,36 373.067,36 373.067,36 373.449,36 373.449,36 373.83,36 373.83,36 374.211,36 374.211,36 374.592,36 374.592,36 374.974,36 374.974,36 375.355,36 375.355,36 375.736,36 375.736,36 376.117,36 376.117,36 376.499,36 376.499,36 376.88,36 376.88,36 377.261,36 377.261,36 377.642,36 377.642,36 378.023,36 378.023,36 378.405,36 378.405,36 378.786,36 378.786,36 379.167,36 379.167,36 379.548,36 379.548,36 379.93,36 379.93,36 380.311,36 380.311,36 380.692,36 380.692,36 381.073,36 381.073,36 381.455,36 381.455,36 381.836,36 381.836,36 382.217,36 382.217,36 382.598,36 382.598,36 382.979,36 382.979,36 383.361,36 383.361,36 383.742,36 383.742,36 384.123,36 384.123,36 384.504,36 384.504,36 384.886,36 384.886,36 385.267,36 385.267,36 385.648,36 385.648,36 386.029,36 386.029,36 386.411,36 386.411,36 386.792,36 386.792,36 387.173,36 387.173,36 387.554,36 387.554,36 387.935,36 387.935,36 388.317,36 388.317,36 388.698,36 388.698,36 389.079,36 389.079,36 389.46,36 389.46,36 389.842,36 389.842,36 390.223,36 390.223,36 390.604,36 390.604,36 390.985,36 390.985,36 391.367,36 391.367,36 391.748,36 391.748,36 392.129,36 392.129,36 392.51,36 392.51,36 392.892,36 392.892,36 393.273,36 393.273,36 393.654,36 393.654,36 394.035,36 394.035,36 394.416,36 394.416,36 394.798,36 394.798,36 395.179,36 395.179,36 395.56,36 395.56,36 395.941,36 395.941,36 396.323,36 396.323,36 396.704,36 396.704,36 397.085,36 397.085,36 397.466,36 397.466,36 397.848,36 397.848,36 398.229,36 398.229,36 398.61,36 398.61,36 398.991,36 398.991,36 399.372,36 399.372,36 399.754,36 399.754,36 400.135,36 400.135,36 400.516,36 400.516,36 400.897,36 400.897,36 401.279,36 401.279,36 401.66,36 401.66,36 402.041,36 402.041,36 402.422,36 402.422,36 402.803,36 402.803,36 403.185,36 403.185,36 403.566,36 403.566,36 403.947,36 403.947,36 404.328,36 404.328,36 404.71,36 404.71,36 405.091,36 405.091,36 405.472,36 405.472,36 405.853,36 405.853,36 406.235,36 406.235,36 406.616,36 406.616,36 406.997,36 406.997,36 407.378,36 407.378,36 407.76,36 407.76,36 408.141,36 408.141,36 408.522,36 408.522,36 408.903,36 408.903,36 409.284,36 409.284,36 409.666,36 409.666,36 410.047,36 410.047,36 410.428,36 410.428,36 410.809,36 410.809,36 411.191,36 411.191,36 411.572,36 411.572,36 411.953,36 411.953,36 412.334,36 412.334,36 412.716,36 412.716,36 413.097,36 413.097,36 413.478,36 413.478,36 413.859,36 413.859,36 414.24,36 414.24,36 414.622,36 414.622,36 415.003,36 415.003,36 415.384,36 415.384,36 415.765,36 415.765,36 416.147,36 416.147,36 416.528,36 416.528,36 416.909,36 416.909,36 417.29,36 417.29,36 417.672,36 417.672,36 418.053,36 418.053,36 418.434,36 418.434,36 418.815,36 418.815,36 419.197,36 419.197,36 419.578,36 419.578,36 419.959,36 419.959,36 420.34,36 420.34,36 420.721,36 420.721,36 421.103,36 421.103,36 421.484,36 421.484,36 421.865,36 421.865,36 422.246,36 422.246,36 422.628,36 422.628,36 423.009,36 423.009,36 423.39,36 423.39,36 423.771,36 423.771,36 424.152,36 424.152,36 424.534,36 424.534,36 424.915,36 424.915,36 425.296,36 425.296,36 425.677,36 425.677,36 426.059,36 426.059,36 426.44,36 426.44,36 426.821,36 426.821,36 427.202,36 427.202,36 427.584,36 427.584,36 427.965,36 427.965,36 428.346,36 428.346,36 428.727,36 428.727,36 429.108,36 429.108,36 429.49,36 429.49,36 429.871,36 429.871,36 430.252,36 430.252,36 430.633,36 430.633,36 431.015,36 431.015,36 431.396,36 431.396,36 431.777,36 431.777,36 432.158,36 432.158,36 432.54,36 432.54,36 432.921,36 432.921,36 433.302,36 433.302,36 433.683,36 433.683,36 434.065,36 434.065,36 434.446,36 434.446,36 434.827,36 434.827,36 435.208,36 435.208,36 435.589,36 435.589,36 435.971,36 435.971,36 436.352,36 436.352,36 436.733,36 436.733,36 437.114,36 437.114,36 437.496,36 437.496,36 437.877,36 437.877,36 438.258,36 438.258,36 438.639,36 438.639,36 439.021,36 439.021,36 439.402,36 439.402,36 439.783,36 439.783,36 440.164,36 440.164,36 440.545,36 440.545,36 440.927,36 440.927,36 441.308,36 441.308,36 441.689,36 441.689,36 442.07,36 442.07,36 442.452,36 442.452,36 442.833,36 442.833,36 443.214,36 443.214,36 443.595,36 443.595,36 443.977,36 443.977,36 444.358,36 444.358,36 444.739,36 444.739,36 445.12,36 445.12,36 445.501,36 445.501,36 445.883,36 445.883,36 446.264,36 446.264,36 446.645,36 446.645,36 447.026,36 447.026,36 447.408,36 447.408,36 447.789,36 447.789,36 448.17,36 448.17,36 448.551,36 448.551,36 448.933,36 448.933,36 449.314,36 449.314,36 449.695,36 449.695,36 450.076,36 450.076,36 450.457,36 450.457,36 450.839,36 450.839,36 451.22,36 451.22,36 451.601,36 451.601,36 451.982,36 451.982,36 452.364,36 452.364,36 452.745,36 452.745,36 453.126,36 453.126,36 453.507,36 453.507,36 453.889,36 453.889,36 454.27,36 454.27,36 454.651,36 454.651,36 455.032,36 455.032,36 455.413,36 455.413,36 455.795,36 455.795,36 456.176,36 456.176,36 456.557,36 456.557,36 456.938,36 456.938,36 457.32,36 457.32,36 457.701,36 457.701,36 458.082,36 458.082,36 458.463,36 458.463,36 458.845,36 458.845,36 459.226,36 459.226,36 459.607,36 459.607,36 459.988,36 459.988,36 460.37,36 460.37,36 460.751,36 460.751,36 461.132,36 461.132,36 461.513,36 461.513,36 461.894,36 461.894,36 462.276,36 462.276,36 462.657,36 462.657,36 463.038,36 463.038,36 463.419,36 463.419,36 463.801,36 463.801,36 464.182,36 464.182,36 464.563,36 464.563,36 464.944,36 464.944,36 465.326,36 465.326,36 465.707,36 465.707,36 466.088,36 466.088,36 466.469,36 466.469,36 466.85,36 466.85,36 467.232,36 467.232,36 467.613,36 467.613,36 467.994,36 467.994,36 468.375,36 468.375,36 468.757,36 468.757,36 469.138,36 469.138,36 469.519,36 469.519,36 469.9,36 469.9,36 470.282,36 470.282,36 470.663,36 470.663,36 471.044,36 471.044,36 471.425,36 471.425,36 471.806,36 471.806,36 472.188,36 472.188,36 472.569,36 472.569,36 472.95,36 472.95,36 473.331,36 473.331,36 473.713,36 473.713,36 474.094,36 474.094,36 474.475,36 474.475,36 474.856,36 474.856,36 475.238,36 475.238,36 475.619,36 475.619,36 476,36 476,36 476.381,36 476.381,36 476.762,36 476.762,36 477.144,36 477.144,36 477.525,36 477.525,36 477.906,36 477.906,36 478.287,36 478.287,36 478.669,36 478.669,36 479.05,36 479.05,36 479.431,36 479.431,36 479.812,36 479.812,36 480.194,36 480.194,36 480.575,36 480.575,36 480.956,36 480.956,36 481.337,36 481.337,36 481.718,36 481.718,36 482.1,36 482.1,36 482.481,36 482.481,36 482.862,36 482.862,36 483.243,36 483.243,36 483.625,36 483.625,36 484.006,36 484.006,36 484.387,36 484.387,36 484.768,36 484.768,36 485.15,36 485.15,36 485.531,36 485.531,36 485.912,36 485.912,36 486.293,36 486.293,36 486.674,36 486.674,36 487.056,36 487.056,36 487.437,36 487.437,36 487.818,36 487.818,36 488.199,36 488.199,36 488.581,36 488.581,36 488.962,36 488.962,36 489.343,36 489.343,36 489.724,36 489.724,36 490.106,36 490.106,36 490.487,36 490.487,36 490.868,36 490.868,36 491.249,36 491.249,36 491.63,36 491.63,36 492.012,36 492.012,36 492.393,36 492.393,36 492.774,36 492.774,36 493.155,36 493.155,36 493.537,36 493.537,36 493.918,36 493.918,36 494.299,36 494.299,36 494.68,36 494.68,36 495.062,36 495.062,36 495.443,36 495.443,36 495.824,36 495.824,36 496.205,36 496.205,36 496.587,36 496.587,36 496.968,36 496.968,36 497.349,36 497.349,36 497.73,36 497.73,36 498.111,36 498.111,36 498.493,36 498.493,36 498.874,36 498.874,36 499.255,36 499.255,36 499.636,36 499.636,36 500.018,36 500.018,36 500.399,36 500.399,36 500.78,36 500.78,36 501.161,36 501.161,36 501.543,36 501.543,36 501.924,36 501.924,36 502.305,36 502.305,36 502.686,36 502.686,36 503.067,36 503.067,36 503.449,36 503.449,36 503.83,36 503.83,36 504.211,36 504.211,36 504.592,36 504.592,36 504.974,36 504.974,36 505.355,36 505.355,36 505.736,36 505.736,36 506.117,36 506.117,36 506.499,36 506.499,36 506.88,36 506.88,36 507.261,36 507.261,36 507.642,36 507.642,36 508.023,36 508.023,36 508.405,36 508.405,36 508.786,36 508.786,36 509.167,36 509.167,36 509.548,36 509.548,36 509.93,36 509.93,36 510.311,36 510.311,36 510.692,36 510.692,36 511.073,36 511.073,36 511.455,36 511.455,36 511.836,36 511.836,36 512.217,36 512.217,36 512.598,36 512.598,36 512.979,36 512.979,36 513.361,36 513.361,36 513.742,36 513.742,36 514.123,36 514.123,36 514.504,36 514.504,36 514.886,36 514.886,36 515.267,36 515.267,36 515.648,36 515.648,36 516.029,36 516.029,36 516.411,36 516.411,36 516.792,36 516.792,36 517.173,36 517.173,36 517.554,36 517.554,36 517.935,36 517.935,36 518.317,36 518.317,36 518.698,36 518.698,36 519.079,36 519.079,36 519.46,36 519.46,36 519.842,36 519.842,36 520.223,36 520.223,36 520.604,36 520.604,36 520.985,36 520.985,36 521.367,36 521.367,36 521.748,36 521.748,36 522.129,36 522.129,36 522.51,36 522.51,36 522.891,36 522.891,36 523.273,36 523.273,36 523.654,36 523.654,36 524.035,36 524.035,36 524.416,36 524.416,36 524.798,36 524.798,36 525.179,36 525.179,36 525.56,36 525.56,36 525.941,36 525.941,36 526.323,36 526.323,36 526.704,36 526.704,36 527.085,36 527.085,36 527.466,36 527.466,36 527.848,36 527.848,36 528.229,36 528.229,36 528.61,36 528.61,36 528.991,36 528.991,36 529.372,36 529.372,36 529.754,36 529.754,36 530.135,36 530.135,36 530.516,36 530.516,36 530.897,36 530.897,36 531.279,36 531.279,36 531.66,36 531.66,36 532.041,36 532.041,36 532.422,36 532.422,36 532.804,36 532.804,36 533.185,36 533.185,36 533.566,36 533.566,36 533.947,36 533.947,36 534.328,36 534.328,36 534.71,36 534.71,36 535.091,36 535.091,36 535.472,36 535.472,36 535.853,36 535.853,36 536.235,36 536.235,36 536.616,36 536.616,36 536.997,36 536.997,36 537.378,36 537.378,36 537.76,36 537.76,36 538.141,36 538.141,36 538.522,36 538.522,36 538.903,36 538.903,36 539.284,36 539.284,36 539.666,36 539.666,36 540.047,36 540.047,36 540.428,36 540.428,36 540.809,36 540.809,36 541.191,36 541.191,36 541.572,36 541.572,36 541.953,36 541.953,36 542.334,36 542.334,36 542.716,36 542.716,36 543.097,36 543.097,36 543.478,36 543.478,36 543.859,36 543.859,36 544.24,36 544.24,36 544.622,36 544.622,36 545.003,36 545.003,36 545.384,36 545.384,36 545.765,36 545.765,36 546.147,36 546.147,36 546.528,36 546.528,36 546.909,36 546.909,36 547.29,36 547.29,36 547.672,36 547.672,36 548.053,36 548.053,36 548.434,36 548.434,36 548.815,36 548.815,36 549.196,36 549.196,36 549.578,36 549.578,36 549.959,36 549.959,36 550.34,36 550.34,36 550.721,36 550.721,36 551.103,36 551.103,36 551.484,36 551.484,36 551.865,36 551.865,36 552.246,36 552.246,36 552.628,36 552.628,36 553.009,36 553.009,36 553.39,36 553.39,36 553.771,36 553.771,36 554.152,36 554.152,36 554.534,36 554.534,36 554.915,36 554.915,36 555.296,36 555.296,36 555.677,36 555.677,36 556.059,36 556.059,36 556.44,36 556.44,36 556.821,36 556.821,36 557.202,36 557.202,36 557.584,36 557.584,36 557.965,36 557.965,36 558.346,36 558.346,36 558.727,36 558.727,36 559.109,36 559.109,36 559.49,36 559.49,36 559.871,36 559.871,36 560.252,36 560.252,36 560.633,36 560.633,36 561.015,36 561.015,36 561.396,36 561.396,36 561.777,36 561.777,36 562.158,36 562.158,36 562.54,36 562.54,36 562.921,36 562.921,36 563.302,36 563.302,36 563.683,36 563.683,36 564.065,36 564.065,36 564.446,36 564.446,36 564.827,36 564.827,36 565.208,36 565.208,36 565.589,36 565.589,36 565.971,36 565.971,36 566.352,36 566.352,36 566.733,36 566.733,36 567.114,36 567.114,36 567.496,36 567.496,36 567.877,36 567.877,36 568.258,36 568.258,36 568.639,36 568.639,36 569.021,36 569.021,36 569.402,36 569.402,36 569.783,36 569.783,36 570.164,36 570.164,36 570.545,36 570.545,36 570.927,36 570.927,36 571.308,36 571.308,36 571.689,36 571.689,36 572.07,36 572.07,36 572.452,36 572.452,36 572.833,36 572.833,36 573.214,36 573.214,36 573.595,36 573.595,36 573.977,36 573.977,36 574.358,36 574.358,36 574.739,36 574.739,36 575.12,36 575.12,36 575.501,36 575.501,36 575.883,36 575.883,36 576.264,36 576.264,36 576.645,36 576.645,36 577.026,36 577.026,36 577.408,36 577.408,36 577.789,36 577.789,36 578.17,36 578.17,36 578.551,36 578.551,36 578.933,36 578.933,36 579.314,36 579.314,36 579.695,36 579.695,36 580.076,36 580.076,36 580.457,36 580.457,36 580.839,36 580.839,36 581.22,36 581.22,36 581.601,36 581.601,36 581.982,36 581.982,36 582.364,36 582.364,36 582.745,36 582.745,36 583.126,36 583.126,36 583.507,36 583.507,36 583.889,36 583.889,36 584.27,36 584.27,36 584.651,36 584.651,36 585.032,36 585.032,36 585.413,36 585.413,36 585.795,36 585.795,36 586.176,36 586.176,36 586.557,36 586.557,36 586.938,36 586.938,36 587.32,36 587.32,36 587.701,36 587.701,36 588.082,36 588.082,36 588.463,36 588.463,36 588.845,36 588.845,36 589.226,36 589.226,36 589.607,36 589.607,36 589.988,36 589.988,36 590.37,36 590.37,36 590.751,36 590.751,36 591.132,36 591.132,36 591.513,36 591.513,36 591.894,36 591.894,36 592.276,36 592.276,36 592.657,36 592.657,36 593.038,36 593.038,36 593.419,36 593.419,36 593.801,36 593.801,36 594.182,36 594.182,36 594.563,36 594.563,36 594.944,36 594.944,36 595.326,36 595.326,36 595.707,36 595.707,36 596.088,36 596.088,36 596.469,36 596.469,36 596.85,36 596.85,36 597.232,36 597.232,36 597.613,36 597.613,36 597.994,36 597.994,36 598.375,36 598.375,36 598.757,36 598.757,36 599.138,36 599.138,36 599.519,36 599.519,36 599.9,36 599.9,36 600.282,36 600.282,36 600.663,36 600.663,36 601.044,36 601.044,36 601.425,36 601.425,36 601.806,36 601.806,36 602.188,36 602.188,36 602.569,36 602.569,36 602.95,36 602.95,36 603.331,36 603.331,36 603.713,36 603.713,36 604.094,36 604.094,36 604.475,36 604.475,36 604.856,36 604.856,36 605.238,36 605.238,36 605.619,36 605.619,36 606,36 606,36 " />
</g>
</g>
</svg>
