<?xml version="1.0" encoding="UTF-8" standalone="no"?>
<svg width="176.742mm" height="115.711mm"
 viewBox="0 0 501 328"
 xmlns="http://www.w3.org/2000/svg" xmlns:xlink="http://www.w3.org/1999/xlink"  version="1.2" baseProfile="tiny">
<title>Qt SVG Document</title>
<desc>MATLAB, The MathWorks, Inc. Version 25.1.0.2973910 R2025a Update 1</desc>
<defs>
</defs>
<g fill="none" stroke="black" stroke-width="1" fill-rule="evenodd" stroke-linecap="square" stroke-linejoin="bevel" >

<g fill="#000000" fill-opacity="1" stroke="none" transform="matrix(0.757895,0,0,0.757895,-48.3263,-25.7684)"
font-family="Sans Serif" font-size="9" font-weight="400" font-style="normal" 
>
<path vector-effect="none" fill-rule="evenodd" d="M62,32 L724,32 L724,465 L62,465 L62,32"/>
</g>

<g fill="#121212" fill-opacity="1" stroke="none" transform="matrix(7.57895e-05,0,0,7.57895e-05,-48.3263,-25.7684)"
font-family="Sans Serif" font-size="9" font-weight="400" font-style="normal" 
>
<path vector-effect="none" fill-rule="evenodd" d="M1.03e+06,360000 L1.03e+06,4.26e+06 L7.19e+06,4.26e+06 L7.19e+06,360000 L1.03e+06,360000"/>
</g>

<g fill="#ffffff" fill-opacity="0.25098" stroke="#ffffff" stroke-opacity="0.25098" stroke-width="0.659722" stroke-linecap="butt" stroke-linejoin="round" transform="matrix(0.757895,0,0,0.757895,-48.3263,-25.7684)"
font-family="Sans Serif" font-size="9" font-weight="400" font-style="normal" 
>
<polyline fill="none" vector-effect="none" points="103,36 103,426 " />
<polyline fill="none" vector-effect="none" points="205.667,36 205.667,426 " />
<polyline fill="none" vector-effect="none" points="308.333,36 308.333,426 " />
<polyline fill="none" vector-effect="none" points="411,36 411,426 " />
<polyline fill="none" vector-effect="none" points="513.667,36 513.667,426 " />
<polyline fill="none" vector-effect="none" points="616.333,36 616.333,426 " />
<polyline fill="none" vector-effect="none" points="719,36 719,426 " />
<polyline fill="none" vector-effect="none" points="103,426 719,426 " />
<polyline fill="none" vector-effect="none" points="103,366.96 719,366.96 " />
<polyline fill="none" vector-effect="none" points="103,307.921 719,307.921 " />
<polyline fill="none" vector-effect="none" points="103,248.881 719,248.881 " />
<polyline fill="none" vector-effect="none" points="103,189.841 719,189.841 " />
<polyline fill="none" vector-effect="none" points="103,130.801 719,130.801 " />
<polyline fill="none" vector-effect="none" points="103,71.7617 719,71.7617 " />
</g>

<g fill="#d9d9d9" fill-opacity="1" stroke="#d9d9d9" stroke-opacity="1" stroke-width="1" stroke-linecap="square" stroke-linejoin="bevel" transform="matrix(0.757895,0,0,0.757895,229.442,323.316)"
font-family="Helvetica" font-size="14" font-weight="400" font-style="normal" 
>
<text fill="#d9d9d9" fill-opacity="1" stroke="none" xml:space="preserve" x="0" y="0" font-family="Helvetica" font-size="14" font-weight="400" font-style="normal" 
 >velocity (cm/s)</text>
</g>

<g fill="#d9d9d9" fill-opacity="1" stroke="#d9d9d9" stroke-opacity="1" stroke-width="0.659722" stroke-linecap="square" stroke-linejoin="round" transform="matrix(0.757895,0,0,0.757895,-48.3263,-25.7684)"
font-family="Helvetica" font-size="14" font-weight="400" font-style="normal" 
>
<polyline fill="none" vector-effect="none" points="103,426 719,426 " />
<polyline fill="none" vector-effect="none" points="103,36 719,36 " />
<polyline fill="none" vector-effect="none" points="103,426 103,419.84 " />
<polyline fill="none" vector-effect="none" points="103,42.16 103,36 " />
<polyline fill="none" vector-effect="none" points="205.667,426 205.667,419.84 " />
<polyline fill="none" vector-effect="none" points="205.667,42.16 205.667,36 " />
<polyline fill="none" vector-effect="none" points="308.333,426 308.333,419.84 " />
<polyline fill="none" vector-effect="none" points="308.333,42.16 308.333,36 " />
<polyline fill="none" vector-effect="none" points="411,426 411,419.84 " />
<polyline fill="none" vector-effect="none" points="411,42.16 411,36 " />
<polyline fill="none" vector-effect="none" points="513.667,426 513.667,419.84 " />
<polyline fill="none" vector-effect="none" points="513.667,42.16 513.667,36 " />
<polyline fill="none" vector-effect="none" points="616.333,426 616.333,419.84 " />
<polyline fill="none" vector-effect="none" points="616.333,42.16 616.333,36 " />
<polyline fill="none" vector-effect="none" points="719,426 719,419.84 " />
<polyline fill="none" vector-effect="none" points="719,42.16 719,36 " />
</g>

<g fill="#d9d9d9" fill-opacity="1" stroke="#d9d9d9" stroke-opacity="1" stroke-width="1" stroke-linecap="square" stroke-linejoin="bevel" transform="matrix(0.757895,0,0,0.757895,25.1895,310.189)"
font-family="Helvetica" font-size="13" font-weight="400" font-style="normal" 
>
<text fill="#d9d9d9" fill-opacity="1" stroke="none" xml:space="preserve" x="0" y="0" font-family="Helvetica" font-size="13" font-weight="400" font-style="normal" 
 >-6</text>
</g>

<g fill="#d9d9d9" fill-opacity="1" stroke="#d9d9d9" stroke-opacity="1" stroke-width="1" stroke-linecap="square" stroke-linejoin="bevel" transform="matrix(0.757895,0,0,0.757895,103,310.189)"
font-family="Helvetica" font-size="13" font-weight="400" font-style="normal" 
>
<text fill="#d9d9d9" fill-opacity="1" stroke="none" xml:space="preserve" x="0" y="0" font-family="Helvetica" font-size="13" font-weight="400" font-style="normal" 
 >-4</text>
</g>

<g fill="#d9d9d9" fill-opacity="1" stroke="#d9d9d9" stroke-opacity="1" stroke-width="1" stroke-linecap="square" stroke-linejoin="bevel" transform="matrix(0.757895,0,0,0.757895,180.811,310.189)"
font-family="Helvetica" font-size="13" font-weight="400" font-style="normal" 
>
<text fill="#d9d9d9" fill-opacity="1" stroke="none" xml:space="preserve" x="0" y="0" font-family="Helvetica" font-size="13" font-weight="400" font-style="normal" 
 >-2</text>
</g>

<g fill="#d9d9d9" fill-opacity="1" stroke="#d9d9d9" stroke-opacity="1" stroke-width="1" stroke-linecap="square" stroke-linejoin="bevel" transform="matrix(0.757895,0,0,0.757895,260.516,310.189)"
font-family="Helvetica" font-size="13" font-weight="400" font-style="normal" 
>
<text fill="#d9d9d9" fill-opacity="1" stroke="none" xml:space="preserve" x="0" y="0" font-family="Helvetica" font-size="13" font-weight="400" font-style="normal" 
 >0</text>
</g>

<g fill="#d9d9d9" fill-opacity="1" stroke="#d9d9d9" stroke-opacity="1" stroke-width="1" stroke-linecap="square" stroke-linejoin="bevel" transform="matrix(0.757895,0,0,0.757895,338.326,310.189)"
font-family="Helvetica" font-size="13" font-weight="400" font-style="normal" 
>
<text fill="#d9d9d9" fill-opacity="1" stroke="none" xml:space="preserve" x="0" y="0" font-family="Helvetica" font-size="13" font-weight="400" font-style="normal" 
 >2</text>
</g>

<g fill="#d9d9d9" fill-opacity="1" stroke="#d9d9d9" stroke-opacity="1" stroke-width="1" stroke-linecap="square" stroke-linejoin="bevel" transform="matrix(0.757895,0,0,0.757895,416.137,310.189)"
font-family="Helvetica" font-size="13" font-weight="400" font-style="normal" 
>
<text fill="#d9d9d9" fill-opacity="1" stroke="none" xml:space="preserve" x="0" y="0" font-family="Helvetica" font-size="13" font-weight="400" font-style="normal" 
 >4</text>
</g>

<g fill="#d9d9d9" fill-opacity="1" stroke="#d9d9d9" stroke-opacity="1" stroke-width="1" stroke-linecap="square" stroke-linejoin="bevel" transform="matrix(0.757895,0,0,0.757895,493.947,310.189)"
font-family="Helvetica" font-size="13" font-weight="400" font-style="normal" 
>
<text fill="#d9d9d9" fill-opacity="1" stroke="none" xml:space="preserve" x="0" y="0" font-family="Helvetica" font-size="13" font-weight="400" font-style="normal" 
 >6</text>
</g>

<g fill="#d9d9d9" fill-opacity="1" stroke="#d9d9d9" stroke-opacity="1" stroke-width="1" stroke-linecap="square" stroke-linejoin="bevel" transform="matrix(0,-0.757895,0.757895,0,9.09474,214.863)"
font-family="Helvetica" font-size="14" font-weight="400" font-style="normal" 
>
<text fill="#d9d9d9" fill-opacity="1" stroke="none" xml:space="preserve" x="0" y="0" font-family="Helvetica" font-size="14" font-weight="400" font-style="normal" 
 >velocity spectrum/histogram</text>
</g>

<g fill="#d9d9d9" fill-opacity="1" stroke="#d9d9d9" stroke-opacity="1" stroke-width="0.659722" stroke-linecap="square" stroke-linejoin="round" transform="matrix(0.757895,0,0,0.757895,-48.3263,-25.7684)"
font-family="Helvetica" font-size="14" font-weight="400" font-style="normal" 
>
<polyline fill="none" vector-effect="none" points="103,426 103,36 " />
<polyline fill="none" vector-effect="none" points="719,426 719,36 " />
<polyline fill="none" vector-effect="none" points="103,426 109.16,426 " />
<polyline fill="none" vector-effect="none" points="712.84,426 719,426 " />
<polyline fill="none" vector-effect="none" points="103,366.96 109.16,366.96 " />
<polyline fill="none" vector-effect="none" points="712.84,366.96 719,366.96 " />
<polyline fill="none" vector-effect="none" points="103,307.921 109.16,307.921 " />
<polyline fill="none" vector-effect="none" points="712.84,307.921 719,307.921 " />
<polyline fill="none" vector-effect="none" points="103,248.881 109.16,248.881 " />
<polyline fill="none" vector-effect="none" points="712.84,248.881 719,248.881 " />
<polyline fill="none" vector-effect="none" points="103,189.841 109.16,189.841 " />
<polyline fill="none" vector-effect="none" points="712.84,189.841 719,189.841 " />
<polyline fill="none" vector-effect="none" points="103,130.801 109.16,130.801 " />
<polyline fill="none" vector-effect="none" points="712.84,130.801 719,130.801 " />
<polyline fill="none" vector-effect="none" points="103,71.7617 109.16,71.7617 " />
<polyline fill="none" vector-effect="none" points="712.84,71.7617 719,71.7617 " />
</g>

<g fill="#d9d9d9" fill-opacity="1" stroke="#d9d9d9" stroke-opacity="1" stroke-width="1" stroke-linecap="square" stroke-linejoin="bevel" transform="matrix(0.757895,0,0,0.757895,20.4316,300.505)"
font-family="Helvetica" font-size="13" font-weight="400" font-style="normal" 
>
<text fill="#d9d9d9" fill-opacity="1" stroke="none" xml:space="preserve" x="0" y="0" font-family="Helvetica" font-size="13" font-weight="400" font-style="normal" 
 >0</text>
</g>

<g fill="#d9d9d9" fill-opacity="1" stroke="#d9d9d9" stroke-opacity="1" stroke-width="1" stroke-linecap="square" stroke-linejoin="bevel" transform="matrix(0.757895,0,0,0.757895,15.1263,255.759)"
font-family="Helvetica" font-size="13" font-weight="400" font-style="normal" 
>
<text fill="#d9d9d9" fill-opacity="1" stroke="none" xml:space="preserve" x="0" y="0" font-family="Helvetica" font-size="13" font-weight="400" font-style="normal" 
 >10</text>
</g>

<g fill="#d9d9d9" fill-opacity="1" stroke="#d9d9d9" stroke-opacity="1" stroke-width="1" stroke-linecap="square" stroke-linejoin="bevel" transform="matrix(0.757895,0,0,0.757895,15.1263,211.013)"
font-family="Helvetica" font-size="13" font-weight="400" font-style="normal" 
>
<text fill="#d9d9d9" fill-opacity="1" stroke="none" xml:space="preserve" x="0" y="0" font-family="Helvetica" font-size="13" font-weight="400" font-style="normal" 
 >20</text>
</g>

<g fill="#d9d9d9" fill-opacity="1" stroke="#d9d9d9" stroke-opacity="1" stroke-width="1" stroke-linecap="square" stroke-linejoin="bevel" transform="matrix(0.757895,0,0,0.757895,15.1263,166.268)"
font-family="Helvetica" font-size="13" font-weight="400" font-style="normal" 
>
<text fill="#d9d9d9" fill-opacity="1" stroke="none" xml:space="preserve" x="0" y="0" font-family="Helvetica" font-size="13" font-weight="400" font-style="normal" 
 >30</text>
</g>

<g fill="#d9d9d9" fill-opacity="1" stroke="#d9d9d9" stroke-opacity="1" stroke-width="1" stroke-linecap="square" stroke-linejoin="bevel" transform="matrix(0.757895,0,0,0.757895,15.1263,121.522)"
font-family="Helvetica" font-size="13" font-weight="400" font-style="normal" 
>
<text fill="#d9d9d9" fill-opacity="1" stroke="none" xml:space="preserve" x="0" y="0" font-family="Helvetica" font-size="13" font-weight="400" font-style="normal" 
 >40</text>
</g>

<g fill="#d9d9d9" fill-opacity="1" stroke="#d9d9d9" stroke-opacity="1" stroke-width="1" stroke-linecap="square" stroke-linejoin="bevel" transform="matrix(0.757895,0,0,0.757895,15.1263,76.7758)"
font-family="Helvetica" font-size="13" font-weight="400" font-style="normal" 
>
<text fill="#d9d9d9" fill-opacity="1" stroke="none" xml:space="preserve" x="0" y="0" font-family="Helvetica" font-size="13" font-weight="400" font-style="normal" 
 >50</text>
</g>

<g fill="#d9d9d9" fill-opacity="1" stroke="#d9d9d9" stroke-opacity="1" stroke-width="1" stroke-linecap="square" stroke-linejoin="bevel" transform="matrix(0.757895,0,0,0.757895,15.1263,32.03)"
font-family="Helvetica" font-size="13" font-weight="400" font-style="normal" 
>
<text fill="#d9d9d9" fill-opacity="1" stroke="none" xml:space="preserve" x="0" y="0" font-family="Helvetica" font-size="13" font-weight="400" font-style="normal" 
 >60</text>
</g>

<g fill="#808080" fill-opacity="0.6" stroke="none" transform="matrix(7.57895e-05,0,0,7.57895e-05,-48.3263,-25.7684)"
font-family="Helvetica" font-size="13" font-weight="400" font-style="normal" 
>
<path vector-effect="none" fill-rule="evenodd" d="M4.11e+06,359999 L4.11e+06,4.26e+06 L4.18751e+06,4.26e+06 L4.18751e+06,359999 L4.11e+06,359999"/>
</g>

<g fill="#808080" fill-opacity="0.6" stroke="none" transform="matrix(7.57895e-05,0,0,7.57895e-05,-48.3263,-25.7684)"
font-family="Helvetica" font-size="13" font-weight="400" font-style="normal" 
>
<path vector-effect="none" fill-rule="evenodd" d="M4.18751e+06,3.65446e+06 L4.18751e+06,4.26e+06 L4.26503e+06,4.26e+06 L4.26503e+06,3.65446e+06 L4.18751e+06,3.65446e+06"/>
</g>

<g fill="#808080" fill-opacity="0.6" stroke="none" transform="matrix(7.57895e-05,0,0,7.57895e-05,-48.3263,-25.7684)"
font-family="Helvetica" font-size="13" font-weight="400" font-style="normal" 
>
<path vector-effect="none" fill-rule="evenodd" d="M4.26503e+06,3.65237e+06 L4.26503e+06,4.26e+06 L4.34254e+06,4.26e+06 L4.42005e+06,4.26e+06 L4.42005e+06,3.65237e+06 L4.34254e+06,3.65237e+06 L4.26503e+06,3.65237e+06"/>
</g>

<g fill="#808080" fill-opacity="0.6" stroke="none" transform="matrix(7.57895e-05,0,0,7.57895e-05,-48.3263,-25.7684)"
font-family="Helvetica" font-size="13" font-weight="400" font-style="normal" 
>
<path vector-effect="none" fill-rule="evenodd" d="M4.42005e+06,3.65185e+06 L4.42005e+06,4.26e+06 L4.49757e+06,4.26e+06 L4.49757e+06,3.65185e+06 L4.42005e+06,3.65185e+06"/>
</g>

<g fill="#808080" fill-opacity="0.6" stroke="none" transform="matrix(7.57895e-05,0,0,7.57895e-05,-48.3263,-25.7684)"
font-family="Helvetica" font-size="13" font-weight="400" font-style="normal" 
>
<path vector-effect="none" fill-rule="evenodd" d="M4.49757e+06,3.65863e+06 L4.49757e+06,4.26e+06 L4.57508e+06,4.26e+06 L4.57508e+06,3.65863e+06 L4.49757e+06,3.65863e+06"/>
</g>

<g fill="#808080" fill-opacity="0.6" stroke="none" transform="matrix(7.57895e-05,0,0,7.57895e-05,-48.3263,-25.7684)"
font-family="Helvetica" font-size="13" font-weight="400" font-style="normal" 
>
<path vector-effect="none" fill-rule="evenodd" d="M4.57508e+06,3.64872e+06 L4.57508e+06,4.26e+06 L4.65259e+06,4.26e+06 L4.65259e+06,3.64872e+06 L4.57508e+06,3.64872e+06"/>
</g>

<g fill="#808080" fill-opacity="0.6" stroke="none" transform="matrix(7.57895e-05,0,0,7.57895e-05,-48.3263,-25.7684)"
font-family="Helvetica" font-size="13" font-weight="400" font-style="normal" 
>
<path vector-effect="none" fill-rule="evenodd" d="M4.65259e+06,3.65446e+06 L4.65259e+06,4.26e+06 L4.73011e+06,4.26e+06 L4.73011e+06,3.65446e+06 L4.65259e+06,3.65446e+06"/>
</g>

<g fill="#808080" fill-opacity="0.6" stroke="none" transform="matrix(7.57895e-05,0,0,7.57895e-05,-48.3263,-25.7684)"
font-family="Helvetica" font-size="13" font-weight="400" font-style="normal" 
>
<path vector-effect="none" fill-rule="evenodd" d="M4.73011e+06,3.65133e+06 L4.73011e+06,4.26e+06 L4.80762e+06,4.26e+06 L4.88513e+06,4.26e+06 L4.88513e+06,3.65133e+06 L4.80762e+06,3.65133e+06 L4.73011e+06,3.65133e+06"/>
</g>

<g fill="#808080" fill-opacity="0.6" stroke="none" transform="matrix(7.57895e-05,0,0,7.57895e-05,-48.3263,-25.7684)"
font-family="Helvetica" font-size="13" font-weight="400" font-style="normal" 
>
<path vector-effect="none" fill-rule="evenodd" d="M4.88513e+06,3.65863e+06 L4.88513e+06,4.26e+06 L4.96265e+06,4.26e+06 L4.96265e+06,3.65863e+06 L4.88513e+06,3.65863e+06"/>
</g>

<g fill="#808080" fill-opacity="0.6" stroke="none" transform="matrix(7.57895e-05,0,0,7.57895e-05,-48.3263,-25.7684)"
font-family="Helvetica" font-size="13" font-weight="400" font-style="normal" 
>
<path vector-effect="none" fill-rule="evenodd" d="M4.96265e+06,3.65028e+06 L4.96265e+06,4.26e+06 L5.04016e+06,4.26e+06 L5.04016e+06,3.65028e+06 L4.96265e+06,3.65028e+06"/>
</g>

<g fill="#808080" fill-opacity="0.6" stroke="none" transform="matrix(7.57895e-05,0,0,7.57895e-05,-48.3263,-25.7684)"
font-family="Helvetica" font-size="13" font-weight="400" font-style="normal" 
>
<path vector-effect="none" fill-rule="evenodd" d="M5.04016e+06,3.65133e+06 L5.04016e+06,4.26e+06 L5.11767e+06,4.26e+06 L5.11767e+06,3.65133e+06 L5.04016e+06,3.65133e+06"/>
</g>

<g fill="#808080" fill-opacity="0.6" stroke="none" transform="matrix(7.57895e-05,0,0,7.57895e-05,-48.3263,-25.7684)"
font-family="Helvetica" font-size="13" font-weight="400" font-style="normal" 
>
<path vector-effect="none" fill-rule="evenodd" d="M5.11767e+06,3.65707e+06 L5.11767e+06,4.26e+06 L5.19519e+06,4.26e+06 L5.19519e+06,3.65707e+06 L5.11767e+06,3.65707e+06"/>
</g>

<g fill="#808080" fill-opacity="0.6" stroke="none" transform="matrix(7.57895e-05,0,0,7.57895e-05,-48.3263,-25.7684)"
font-family="Helvetica" font-size="13" font-weight="400" font-style="normal" 
>
<path vector-effect="none" fill-rule="evenodd" d="M5.19519e+06,3.64924e+06 L5.19519e+06,4.26e+06 L5.2727e+06,4.26e+06 L5.2727e+06,3.64924e+06 L5.19519e+06,3.64924e+06"/>
</g>

<g fill="#808080" fill-opacity="0.6" stroke="none" transform="matrix(7.57895e-05,0,0,7.57895e-05,-48.3263,-25.7684)"
font-family="Helvetica" font-size="13" font-weight="400" font-style="normal" 
>
<path vector-effect="none" fill-rule="evenodd" d="M5.2727e+06,3.65759e+06 L5.2727e+06,4.26e+06 L5.35021e+06,4.26e+06 L5.35021e+06,3.65759e+06 L5.2727e+06,3.65759e+06"/>
</g>

<g fill="#808080" fill-opacity="0.6" stroke="none" transform="matrix(7.57895e-05,0,0,7.57895e-05,-48.3263,-25.7684)"
font-family="Helvetica" font-size="13" font-weight="400" font-style="normal" 
>
<path vector-effect="none" fill-rule="evenodd" d="M5.35021e+06,3.65394e+06 L5.35021e+06,4.26e+06 L5.42773e+06,4.26e+06 L5.42773e+06,3.65394e+06 L5.35021e+06,3.65394e+06"/>
</g>

<g fill="#808080" fill-opacity="0.6" stroke="none" transform="matrix(7.57895e-05,0,0,7.57895e-05,-48.3263,-25.7684)"
font-family="Helvetica" font-size="13" font-weight="400" font-style="normal" 
>
<path vector-effect="none" fill-rule="evenodd" d="M5.42773e+06,3.65133e+06 L5.42773e+06,4.26e+06 L5.50524e+06,4.26e+06 L5.58275e+06,4.26e+06 L5.58275e+06,3.65133e+06 L5.50524e+06,3.65133e+06 L5.42773e+06,3.65133e+06"/>
</g>

<g fill="#808080" fill-opacity="0.6" stroke="none" transform="matrix(7.57895e-05,0,0,7.57895e-05,-48.3263,-25.7684)"
font-family="Helvetica" font-size="13" font-weight="400" font-style="normal" 
>
<path vector-effect="none" fill-rule="evenodd" d="M5.58275e+06,3.73002e+06 L5.58275e+06,4.26e+06 L5.66027e+06,4.26e+06 L5.66027e+06,3.73002e+06 L5.58275e+06,3.73002e+06"/>
</g>

<g fill="none" stroke="#ffffff" stroke-opacity="1" stroke-width="0.659722" stroke-linecap="butt" stroke-linejoin="round" transform="matrix(0.757895,0,0,0.757895,-48.3263,-25.7684)"
font-family="Helvetica" font-size="13" font-weight="400" font-style="normal" 
>
<polyline fill="none" vector-effect="none" points="103,425.419 104.54,425.421 106.08,425.423 107.62,425.425 109.16,425.427 110.7,425.429 112.24,425.43 113.78,425.432 115.32,425.434 116.86,425.436 118.4,425.437 119.94,425.439 121.48,425.44 123.02,425.442 124.56,425.443 126.1,425.444 127.64,425.446 129.18,425.447 130.72,425.448 132.26,425.45 133.8,425.451 135.34,425.452 136.88,425.453 138.42,425.454 139.96,425.455 141.5,425.456 143.04,425.457 144.58,425.458 146.12,425.458 147.66,425.459 149.2,425.46 150.74,425.461 152.28,425.461 153.82,425.462 155.36,425.463 156.9,425.463 158.44,425.464 159.98,425.464 161.52,425.465 163.06,425.465 164.6,425.465 166.14,425.466 167.68,425.466 169.22,425.466 170.76,425.466 172.3,425.467 173.84,425.467 175.38,425.467 176.92,425.467 178.46,425.467 180,425.467 181.54,425.467 183.08,425.467 184.62,425.467 186.16,425.467 187.7,425.466 189.24,425.466 190.78,425.466 192.32,425.466 193.86,425.465 195.4,425.465 196.94,425.464 198.48,425.464 200.02,425.464 201.56,425.463 203.1,425.462 204.64,425.462 206.18,425.461 207.72,425.461 209.26,425.46 210.8,425.459 212.34,425.458 213.88,425.458 215.42,425.457 216.96,425.456 218.5,425.455 220.04,425.454 221.58,425.453 223.12,425.452 224.66,425.451 226.2,425.449 227.74,425.448 229.28,425.447 230.82,425.446 232.36,425.444 233.9,425.443 235.44,425.442 236.98,425.44 238.52,425.439 240.06,425.437 241.6,425.435 243.14,425.434 244.68,425.432 246.22,425.43 247.76,425.428 249.3,425.427 250.84,425.425 252.38,425.423 253.92,425.421 255.46,425.419 257,425.416 258.54,425.414 260.08,425.412 261.62,425.41 263.16,425.407 264.7,425.405 266.24,425.402 267.78,425.4 269.32,425.397 270.86,425.394 272.4,425.392 273.94,425.389 275.48,425.386 277.02,425.383 278.56,425.38 280.1,425.377 281.64,425.373 283.18,425.37 284.72,425.367 286.26,425.363 287.8,425.36 289.34,425.356 290.88,425.352 292.42,425.349 293.96,425.345 295.5,425.341 297.04,425.336 298.58,425.332 300.12,425.328 301.66,425.323 303.2,425.319 304.74,425.314 306.28,425.309 307.82,425.304 309.36,425.299 310.9,425.294 312.44,425.289 313.98,425.283 315.52,425.278 317.06,425.272 318.6,425.266 320.14,425.26 321.68,425.254 323.22,425.247 324.76,425.241 326.3,425.234 327.84,425.227 329.38,425.22 330.92,425.212 332.46,425.205 334,425.197 335.54,425.189 337.08,425.18 338.62,425.172 340.16,425.163 341.7,425.153 343.24,425.144 344.78,425.134 346.32,425.124 347.86,425.114 349.4,425.103 350.94,425.091 352.48,425.08 354.02,425.068 355.56,425.055 357.1,425.042 358.64,425.029 360.18,425.015 361.72,425 363.26,424.985 364.8,424.969 366.34,424.952 367.88,424.935 369.42,424.917 370.96,424.898 372.5,424.878 374.04,424.856 375.58,424.834 377.12,424.811 378.66,424.786 380.2,424.76 381.74,424.732 383.28,424.703 384.82,424.671 386.36,424.637 387.9,424.6 389.44,424.561 390.98,424.518 392.52,424.471 394.06,424.42 395.6,424.363 397.14,424.299 398.68,424.227 400.22,424.145 401.76,424.048 403.3,423.933 404.84,423.789 406.38,423.602 407.92,423.333 409.46,422.867 411,36 412.54,422.169 414.08,422.534 415.62,422.595 417.16,422.542 418.7,422.521 420.24,422.599 421.78,422.766 423.32,422.963 424.86,423.117 426.4,423.18 427.94,423.15 429.48,423.065 431.02,422.971 432.56,422.904 434.1,422.88 435.64,422.898 437.18,422.95 438.72,423.022 440.26,423.102 441.8,423.178 443.34,423.243 444.88,423.295 446.42,423.332 447.96,423.356 449.5,423.37 451.04,423.376 452.58,423.378 454.12,423.378 455.66,423.375 457.2,423.373 458.74,423.37 460.28,423.368 461.82,423.366 463.36,423.364 464.9,423.363 466.44,423.363 467.98,423.363 469.52,423.362 471.06,423.363 472.6,423.363 474.14,423.363 475.68,423.363 477.22,423.363 478.76,423.363 480.3,423.363 481.84,423.363 483.38,423.363 484.92,423.362 486.46,423.362 488,423.361 489.54,423.36 491.08,423.359 492.62,423.357 494.16,423.356 495.7,423.354 497.24,423.352 498.78,423.35 500.32,423.348 501.86,423.345 503.4,423.342 504.94,423.339 506.48,423.335 508.02,423.332 509.56,423.328 511.1,423.323 512.64,423.318 514.18,423.313 515.72,423.308 517.26,423.302 518.8,423.296 520.34,423.289 521.88,423.282 523.42,423.274 524.96,423.266 526.5,423.257 528.04,423.248 529.58,423.238 531.12,423.227 532.66,423.215 534.2,423.202 535.74,423.189 537.28,423.174 538.82,423.158 540.36,423.14 541.9,423.121 543.44,423.1 544.98,423.076 546.52,423.05 548.06,423.021 549.6,422.989 551.14,422.952 552.68,422.909 554.22,422.859 555.76,422.8 557.3,422.727 558.84,422.635 560.38,422.513 561.92,422.335 563.46,422.028 565,421.076 566.54,422.798 568.08,423.31 569.62,423.589 571.16,423.781 572.7,423.927 574.24,424.044 575.78,424.142 577.32,424.225 578.86,424.298 580.4,424.362 581.94,424.419 583.48,424.471 585.02,424.518 586.56,424.561 588.1,424.6 589.64,424.637 591.18,424.671 592.72,424.703 594.26,424.733 595.8,424.76 597.34,424.787 598.88,424.811 600.42,424.835 601.96,424.857 603.5,424.878 605.04,424.898 606.58,424.917 608.12,424.935 609.66,424.953 611.2,424.969 612.74,424.985 614.28,425.001 615.82,425.015 617.36,425.029 618.9,425.043 620.44,425.056 621.98,425.068 623.52,425.08 625.06,425.092 626.6,425.103 628.14,425.114 629.68,425.125 631.22,425.135 632.76,425.145 634.3,425.154 635.84,425.163 637.38,425.172 638.92,425.181 640.46,425.189 642,425.197 643.54,425.205 645.08,425.213 646.62,425.22 648.16,425.227 649.7,425.234 651.24,425.241 652.78,425.248 654.32,425.254 655.86,425.26 657.4,425.266 658.94,425.272 660.48,425.278 662.02,425.284 663.56,425.289 665.1,425.295 666.64,425.3 668.18,425.305 669.72,425.31 671.26,425.315 672.8,425.319 674.34,425.324 675.88,425.328 677.42,425.333 678.96,425.337 680.5,425.341 682.04,425.345 683.58,425.349 685.12,425.353 686.66,425.356 688.2,425.36 689.74,425.364 691.28,425.367 692.82,425.37 694.36,425.374 695.9,425.377 697.44,425.38 698.98,425.383 700.52,425.386 702.06,425.389 703.6,425.392 705.14,425.395 706.68,425.397 708.22,425.4 709.76,425.403 711.3,425.405 712.84,425.407 714.38,425.41 715.92,425.412 717.46,425.414 719,425.417 " />
</g>

<g fill="none" stroke="#00ff00" stroke-opacity="1" stroke-width="0.659722" stroke-linecap="butt" stroke-linejoin="round" transform="matrix(0.757895,0,0,0.757895,-48.3263,-25.7684)"
font-family="Helvetica" font-size="13" font-weight="400" font-style="normal" 
>
<polyline fill="none" vector-effect="none" points="103,425.302 104.54,425.306 106.08,425.309 107.62,425.312 109.16,425.315 110.7,425.318 112.24,425.321 113.78,425.324 115.32,425.327 116.86,425.329 118.4,425.332 119.94,425.335 121.48,425.337 123.02,425.34 124.56,425.342 126.1,425.344 127.64,425.347 129.18,425.349 130.72,425.351 132.26,425.353 133.8,425.355 135.34,425.357 136.88,425.359 138.42,425.361 139.96,425.363 141.5,425.364 143.04,425.366 144.58,425.368 146.12,425.369 147.66,425.371 149.2,425.373 150.74,425.374 152.28,425.375 153.82,425.377 155.36,425.378 156.9,425.379 158.44,425.381 159.98,425.382 161.52,425.383 163.06,425.384 164.6,425.385 166.14,425.386 167.68,425.387 169.22,425.388 170.76,425.389 172.3,425.39 173.84,425.39 175.38,425.391 176.92,425.392 178.46,425.392 180,425.393 181.54,425.394 183.08,425.394 184.62,425.395 186.16,425.395 187.7,425.396 189.24,425.396 190.78,425.396 192.32,425.397 193.86,425.397 195.4,425.397 196.94,425.397 198.48,425.397 200.02,425.397 201.56,425.397 203.1,425.397 204.64,425.397 206.18,425.397 207.72,425.397 209.26,425.397 210.8,425.397 212.34,425.397 213.88,425.396 215.42,425.396 216.96,425.396 218.5,425.395 220.04,425.395 221.58,425.394 223.12,425.394 224.66,425.393 226.2,425.393 227.74,425.392 229.28,425.391 230.82,425.391 232.36,425.39 233.9,425.389 235.44,425.388 236.98,425.387 238.52,425.387 240.06,425.385 241.6,425.384 243.14,425.383 244.68,425.382 246.22,425.381 247.76,425.38 249.3,425.379 250.84,425.377 252.38,425.376 253.92,425.375 255.46,425.373 257,425.372 258.54,425.37 260.08,425.368 261.62,425.367 263.16,425.365 264.7,425.363 266.24,425.362 267.78,425.36 269.32,425.358 270.86,425.356 272.4,425.354 273.94,425.352 275.48,425.35 277.02,425.347 278.56,425.345 280.1,425.343 281.64,425.34 283.18,425.338 284.72,425.335 286.26,425.333 287.8,425.33 289.34,425.327 290.88,425.325 292.42,425.322 293.96,425.319 295.5,425.316 297.04,425.313 298.58,425.31 300.12,425.306 301.66,425.303 303.2,425.299 304.74,425.296 306.28,425.292 307.82,425.289 309.36,425.285 310.9,425.281 312.44,425.277 313.98,425.273 315.52,425.269 317.06,425.265 318.6,425.26 320.14,425.256 321.68,425.251 323.22,425.246 324.76,425.242 326.3,425.237 327.84,425.232 329.38,425.226 330.92,425.221 332.46,425.216 334,425.21 335.54,425.204 337.08,425.198 338.62,425.192 340.16,425.186 341.7,425.179 343.24,425.173 344.78,425.166 346.32,425.159 347.86,425.152 349.4,425.144 350.94,425.137 352.48,425.129 354.02,425.121 355.56,425.113 357.1,425.104 358.64,425.095 360.18,425.086 361.72,425.077 363.26,425.067 364.8,425.057 366.34,425.047 367.88,425.036 369.42,425.025 370.96,425.014 372.5,425.002 374.04,424.99 375.58,424.977 377.12,424.964 378.66,424.95 380.2,424.935 381.74,424.92 383.28,424.905 384.82,424.888 386.36,424.871 387.9,424.853 389.44,424.834 390.98,424.815 392.52,424.794 394.06,424.771 395.6,424.748 397.14,424.722 398.68,424.695 400.22,424.666 401.76,424.634 403.3,424.599 404.84,424.56 406.38,424.515 407.92,424.462 409.46,424.392 411,37.1385 412.54,424.197 414.08,424.151 415.62,424.096 417.16,424.025 418.7,423.951 420.24,423.888 421.78,423.854 423.32,423.843 424.86,423.858 426.4,423.824 427.94,423.782 429.48,423.764 431.02,423.694 432.56,423.574 434.1,423.557 435.64,423.518 437.18,423.303 438.72,423.395 440.26,423.435 441.8,423.456 443.34,423.446 444.88,423.303 446.42,423.26 447.96,423.343 449.5,423.387 451.04,423.412 452.58,423.424 454.12,423.426 455.66,423.419 457.2,423.401 458.74,423.368 460.28,423.304 461.82,423.11 463.36,422.626 464.9,422.791 466.44,422.862 467.98,422.907 469.52,422.94 471.06,422.966 472.6,422.988 474.14,423.005 475.68,423.021 477.22,423.034 478.76,423.045 480.3,423.055 481.84,423.064 483.38,423.072 484.92,423.078 486.46,423.083 488,423.087 489.54,423.091 491.08,423.093 492.62,423.094 494.16,423.093 495.7,423.092 497.24,423.088 498.78,423.083 500.32,423.075 501.86,423.064 503.4,423.048 504.94,423.027 506.48,422.998 508.02,422.955 509.56,422.888 511.1,422.776 512.64,422.539 514.18,420.43 515.72,420.894 517.26,421.036 518.8,421.111 520.34,421.159 521.88,421.19 523.42,421.211 524.96,421.225 526.5,421.234 528.04,421.237 529.58,421.237 531.12,421.233 532.66,421.226 534.2,421.216 535.74,421.202 537.28,421.185 538.82,421.165 540.36,421.141 541.9,421.114 543.44,421.082 544.98,421.046 546.52,421.004 548.06,420.956 549.6,420.9 551.14,420.835 552.68,420.76 554.22,420.67 555.76,420.561 557.3,420.427 558.84,420.256 560.38,420.025 561.92,419.686 563.46,419.094 565,417.24 566.54,420.538 568.08,421.54 569.62,422.081 571.16,422.45 572.7,422.727 574.24,422.948 575.78,423.131 577.32,423.285 578.86,423.419 580.4,423.536 581.94,423.64 583.48,423.733 585.02,423.818 586.56,423.894 588.1,423.964 589.64,424.029 591.18,424.088 592.72,424.143 594.26,424.195 595.8,424.243 597.34,424.288 598.88,424.33 600.42,424.37 601.96,424.407 603.5,424.443 605.04,424.476 606.58,424.508 608.12,424.538 609.66,424.567 611.2,424.595 612.74,424.621 614.28,424.646 615.82,424.67 617.36,424.693 618.9,424.714 620.44,424.736 621.98,424.756 623.52,424.775 625.06,424.794 626.6,424.812 628.14,424.829 629.68,424.846 631.22,424.862 632.76,424.877 634.3,424.892 635.84,424.907 637.38,424.921 638.92,424.935 640.46,424.948 642,424.96 643.54,424.973 645.08,424.985 646.62,424.996 648.16,425.007 649.7,425.018 651.24,425.029 652.78,425.039 654.32,425.049 655.86,425.059 657.4,425.068 658.94,425.077 660.48,425.086 662.02,425.095 663.56,425.103 665.1,425.111 666.64,425.119 668.18,425.127 669.72,425.135 671.26,425.142 672.8,425.149 674.34,425.156 675.88,425.163 677.42,425.17 678.96,425.176 680.5,425.182 682.04,425.188 683.58,425.194 685.12,425.2 686.66,425.206 688.2,425.212 689.74,425.217 691.28,425.222 692.82,425.228 694.36,425.233 695.9,425.238 697.44,425.242 698.98,425.247 700.52,425.252 702.06,425.256 703.6,425.261 705.14,425.265 706.68,425.269 708.22,425.273 709.76,425.277 711.3,425.281 712.84,425.285 714.38,425.289 715.92,425.292 717.46,425.296 719,425.299 " />
</g>

<g fill="#ffffff" fill-opacity="1" stroke="#ffffff" stroke-opacity="1" stroke-width="0.659722" stroke-linecap="butt" stroke-linejoin="round" transform="matrix(0.757895,0,0,0.757895,-48.3263,-25.7684)"
font-family="Helvetica" font-size="13" font-weight="400" font-style="normal" 
>
<polyline fill="none" vector-effect="none" points="117.991,63 157.48,63 " />
</g>

<g fill="#d9d9d9" fill-opacity="1" stroke="#d9d9d9" stroke-opacity="1" stroke-width="1" stroke-linecap="square" stroke-linejoin="bevel" transform="matrix(0.757895,0,0,0.757895,73.2951,19.7053)"
font-family="Helvetica" font-size="11" font-weight="400" font-style="normal" 
>
<text fill="#d9d9d9" fill-opacity="1" stroke="none" xml:space="preserve" x="0" y="0" font-family="Helvetica" font-size="11" font-weight="400" font-style="normal" 
 >velocity spectrum from</text>
</g>

<g fill="#d9d9d9" fill-opacity="1" stroke="#d9d9d9" stroke-opacity="1" stroke-width="1" stroke-linecap="square" stroke-linejoin="bevel" transform="matrix(0.757895,0,0,0.757895,73.2951,29.5579)"
font-family="Helvetica" font-size="11" font-weight="400" font-style="normal" 
>
<text fill="#d9d9d9" fill-opacity="1" stroke="none" xml:space="preserve" x="0" y="0" font-family="Helvetica" font-size="11" font-weight="400" font-style="normal" 
 >flat magnitude profile</text>
</g>

<g fill="#00ff00" fill-opacity="1" stroke="#00ff00" stroke-opacity="1" stroke-width="0.659722" stroke-linecap="butt" stroke-linejoin="round" transform="matrix(0.757895,0,0,0.757895,-48.3263,-25.7684)"
font-family="Helvetica" font-size="11" font-weight="400" font-style="normal" 
>
<polyline fill="none" vector-effect="none" points="117.991,91.5 157.48,91.5 " />
</g>

<g fill="#d9d9d9" fill-opacity="1" stroke="#d9d9d9" stroke-opacity="1" stroke-width="1" stroke-linecap="square" stroke-linejoin="bevel" transform="matrix(0.757895,0,0,0.757895,73.2951,41.3053)"
font-family="Helvetica" font-size="11" font-weight="400" font-style="normal" 
>
<text fill="#d9d9d9" fill-opacity="1" stroke="none" xml:space="preserve" x="0" y="0" font-family="Helvetica" font-size="11" font-weight="400" font-style="normal" 
 >velocity spectrum from</text>
</g>

<g fill="#d9d9d9" fill-opacity="1" stroke="#d9d9d9" stroke-opacity="1" stroke-width="1" stroke-linecap="square" stroke-linejoin="bevel" transform="matrix(0.757895,0,0,0.757895,73.2951,51.1579)"
font-family="Helvetica" font-size="11" font-weight="400" font-style="normal" 
>
<text fill="#d9d9d9" fill-opacity="1" stroke="none" xml:space="preserve" x="0" y="0" font-family="Helvetica" font-size="11" font-weight="400" font-style="normal" 
 >velocity-dependent magnitude profile</text>
</g>

<g fill="#808080" fill-opacity="0.6" stroke="none" transform="matrix(7.57895e-05,0,0,7.57895e-05,-48.3263,-25.7684)"
font-family="Helvetica" font-size="11" font-weight="400" font-style="normal" 
>
<path vector-effect="none" fill-rule="evenodd" d="M1.17991e+06,1.0775e+06 L1.17991e+06,1.1825e+06 L1.5748e+06,1.1825e+06 L1.5748e+06,1.0775e+06 L1.17991e+06,1.0775e+06"/>
</g>

<g fill="#d9d9d9" fill-opacity="1" stroke="#d9d9d9" stroke-opacity="1" stroke-width="1" stroke-linecap="square" stroke-linejoin="bevel" transform="matrix(0.757895,0,0,0.757895,73.2951,62.5263)"
font-family="Helvetica" font-size="11" font-weight="400" font-style="normal" 
>
<text fill="#d9d9d9" fill-opacity="1" stroke="none" xml:space="preserve" x="0" y="0" font-family="Helvetica" font-size="11" font-weight="400" font-style="normal" 
 >normalized velocity histogram</text>
</g>
</g>
</svg>
