<?xml version="1.0" encoding="UTF-8" standalone="no"?>
<svg width="139.7mm" height="137.583mm"
 viewBox="0 0 396 390"
 xmlns="http://www.w3.org/2000/svg" xmlns:xlink="http://www.w3.org/1999/xlink"  version="1.2" baseProfile="tiny">
<title>Qt SVG Document</title>
<desc>MATLAB, The MathWorks, Inc. Version 25.1.0.2973910 R2025a Update 1</desc>
<defs>
</defs>
<g fill="none" stroke="black" stroke-width="1" fill-rule="evenodd" stroke-linecap="square" stroke-linejoin="bevel" >

<g fill="#000000" fill-opacity="1" stroke="none" transform="matrix(0.75,0,0,0.75,-20.25,-37.125)"
font-family="Sans Serif" font-size="9" font-weight="400" font-style="normal" 
>
<path vector-effect="none" fill-rule="evenodd" d="M26,48 L554,48 L554,569 L26,569 L26,48"/>
</g>

<g fill="#121212" fill-opacity="1" stroke="none" transform="matrix(7.5e-05,0,0,7.5e-05,-20.25,-37.125)"
font-family="Sans Serif" font-size="9" font-weight="400" font-style="normal" 
>
<path vector-effect="none" fill-rule="evenodd" d="M790000,570000 L790000,5.26e+06 L5.48e+06,5.26e+06 L5.48e+06,570000 L790000,570000"/>
</g>

<g fill="#ffffff" fill-opacity="0.25098" stroke="#ffffff" stroke-opacity="0.25098" stroke-width="0.666667" stroke-linecap="butt" stroke-linejoin="round" transform="matrix(0.75,0,0,0.75,-20.25,-37.125)"
font-family="Sans Serif" font-size="9" font-weight="400" font-style="normal" 
>
<polyline fill="none" vector-effect="none" points="79,57 79,526 " />
<polyline fill="none" vector-effect="none" points="157.167,57 157.167,526 " />
<polyline fill="none" vector-effect="none" points="235.333,57 235.333,526 " />
<polyline fill="none" vector-effect="none" points="313.5,57 313.5,526 " />
<polyline fill="none" vector-effect="none" points="391.667,57 391.667,526 " />
<polyline fill="none" vector-effect="none" points="469.833,57 469.833,526 " />
<polyline fill="none" vector-effect="none" points="548,57 548,526 " />
<polyline fill="none" vector-effect="none" points="79,526 548,526 " />
<polyline fill="none" vector-effect="none" points="79,479.1 548,479.1 " />
<polyline fill="none" vector-effect="none" points="79,432.2 548,432.2 " />
<polyline fill="none" vector-effect="none" points="79,385.3 548,385.3 " />
<polyline fill="none" vector-effect="none" points="79,338.4 548,338.4 " />
<polyline fill="none" vector-effect="none" points="79,291.5 548,291.5 " />
<polyline fill="none" vector-effect="none" points="79,244.6 548,244.6 " />
<polyline fill="none" vector-effect="none" points="79,197.7 548,197.7 " />
<polyline fill="none" vector-effect="none" points="79,150.8 548,150.8 " />
<polyline fill="none" vector-effect="none" points="79,103.9 548,103.9 " />
<polyline fill="none" vector-effect="none" points="79,57 548,57 " />
</g>

<g fill="#d9d9d9" fill-opacity="1" stroke="#d9d9d9" stroke-opacity="1" stroke-width="1" stroke-linecap="square" stroke-linejoin="bevel" transform="matrix(0.75,0,0,0.75,183,386.425)"
font-family="Helvetica" font-size="10" font-weight="400" font-style="normal" 
>
<text fill="#d9d9d9" fill-opacity="1" stroke="none" xml:space="preserve" x="0" y="0" font-family="Helvetica" font-size="10" font-weight="400" font-style="normal" 
 >spin velocity (cm/s)</text>
</g>

<g fill="#d9d9d9" fill-opacity="1" stroke="#d9d9d9" stroke-opacity="1" stroke-width="0.666667" stroke-linecap="square" stroke-linejoin="round" transform="matrix(0.75,0,0,0.75,-20.25,-37.125)"
font-family="Helvetica" font-size="10" font-weight="400" font-style="normal" 
>
<polyline fill="none" vector-effect="none" points="79,526 548,526 " />
<polyline fill="none" vector-effect="none" points="79,57 548,57 " />
<polyline fill="none" vector-effect="none" points="79,526 79,521.31 " />
<polyline fill="none" vector-effect="none" points="79,61.69 79,57 " />
<polyline fill="none" vector-effect="none" points="157.167,526 157.167,521.31 " />
<polyline fill="none" vector-effect="none" points="157.167,61.69 157.167,57 " />
<polyline fill="none" vector-effect="none" points="235.333,526 235.333,521.31 " />
<polyline fill="none" vector-effect="none" points="235.333,61.69 235.333,57 " />
<polyline fill="none" vector-effect="none" points="313.5,526 313.5,521.31 " />
<polyline fill="none" vector-effect="none" points="313.5,61.69 313.5,57 " />
<polyline fill="none" vector-effect="none" points="391.667,526 391.667,521.31 " />
<polyline fill="none" vector-effect="none" points="391.667,61.69 391.667,57 " />
<polyline fill="none" vector-effect="none" points="469.833,526 469.833,521.31 " />
<polyline fill="none" vector-effect="none" points="469.833,61.69 469.833,57 " />
<polyline fill="none" vector-effect="none" points="548,526 548,521.31 " />
<polyline fill="none" vector-effect="none" points="548,61.69 548,57 " />
</g>

<g fill="#d9d9d9" fill-opacity="1" stroke="#d9d9d9" stroke-opacity="1" stroke-width="1" stroke-linecap="square" stroke-linejoin="bevel" transform="matrix(0.75,0,0,0.75,35.25,374.925)"
font-family="Helvetica" font-size="18" font-weight="400" font-style="normal" 
>
<text fill="#d9d9d9" fill-opacity="1" stroke="none" xml:space="preserve" x="0" y="0" font-family="Helvetica" font-size="18" font-weight="400" font-style="normal" 
 >0</text>
</g>

<g fill="#d9d9d9" fill-opacity="1" stroke="#d9d9d9" stroke-opacity="1" stroke-width="1" stroke-linecap="square" stroke-linejoin="bevel" transform="matrix(0.75,0,0,0.75,93.875,374.925)"
font-family="Helvetica" font-size="18" font-weight="400" font-style="normal" 
>
<text fill="#d9d9d9" fill-opacity="1" stroke="none" xml:space="preserve" x="0" y="0" font-family="Helvetica" font-size="18" font-weight="400" font-style="normal" 
 >1</text>
</g>

<g fill="#d9d9d9" fill-opacity="1" stroke="#d9d9d9" stroke-opacity="1" stroke-width="1" stroke-linecap="square" stroke-linejoin="bevel" transform="matrix(0.75,0,0,0.75,152.5,374.925)"
font-family="Helvetica" font-size="18" font-weight="400" font-style="normal" 
>
<text fill="#d9d9d9" fill-opacity="1" stroke="none" xml:space="preserve" x="0" y="0" font-family="Helvetica" font-size="18" font-weight="400" font-style="normal" 
 >2</text>
</g>

<g fill="#d9d9d9" fill-opacity="1" stroke="#d9d9d9" stroke-opacity="1" stroke-width="1" stroke-linecap="square" stroke-linejoin="bevel" transform="matrix(0.75,0,0,0.75,211.125,374.925)"
font-family="Helvetica" font-size="18" font-weight="400" font-style="normal" 
>
<text fill="#d9d9d9" fill-opacity="1" stroke="none" xml:space="preserve" x="0" y="0" font-family="Helvetica" font-size="18" font-weight="400" font-style="normal" 
 >3</text>
</g>

<g fill="#d9d9d9" fill-opacity="1" stroke="#d9d9d9" stroke-opacity="1" stroke-width="1" stroke-linecap="square" stroke-linejoin="bevel" transform="matrix(0.75,0,0,0.75,269.75,374.925)"
font-family="Helvetica" font-size="18" font-weight="400" font-style="normal" 
>
<text fill="#d9d9d9" fill-opacity="1" stroke="none" xml:space="preserve" x="0" y="0" font-family="Helvetica" font-size="18" font-weight="400" font-style="normal" 
 >4</text>
</g>

<g fill="#d9d9d9" fill-opacity="1" stroke="#d9d9d9" stroke-opacity="1" stroke-width="1" stroke-linecap="square" stroke-linejoin="bevel" transform="matrix(0.75,0,0,0.75,328.375,374.925)"
font-family="Helvetica" font-size="18" font-weight="400" font-style="normal" 
>
<text fill="#d9d9d9" fill-opacity="1" stroke="none" xml:space="preserve" x="0" y="0" font-family="Helvetica" font-size="18" font-weight="400" font-style="normal" 
 >5</text>
</g>

<g fill="#d9d9d9" fill-opacity="1" stroke="#d9d9d9" stroke-opacity="1" stroke-width="1" stroke-linecap="square" stroke-linejoin="bevel" transform="matrix(0.75,0,0,0.75,387,374.925)"
font-family="Helvetica" font-size="18" font-weight="400" font-style="normal" 
>
<text fill="#d9d9d9" fill-opacity="1" stroke="none" xml:space="preserve" x="0" y="0" font-family="Helvetica" font-size="18" font-weight="400" font-style="normal" 
 >6</text>
</g>

<g fill="#d9d9d9" fill-opacity="1" stroke="#d9d9d9" stroke-opacity="1" stroke-width="1" stroke-linecap="square" stroke-linejoin="bevel" transform="matrix(0,-0.75,0.75,0,6.75,185.625)"
font-family="Helvetica" font-size="10" font-weight="400" font-style="normal" 
>
<text fill="#d9d9d9" fill-opacity="1" stroke="none" xml:space="preserve" x="0" y="0" font-family="Helvetica" font-size="10" font-weight="400" font-style="normal" 
 >M</text>
</g>

<g fill="#d9d9d9" fill-opacity="1" stroke="#d9d9d9" stroke-opacity="1" stroke-width="1" stroke-linecap="square" stroke-linejoin="bevel" transform="matrix(0,-0.75,0.75,0,10.5,179.625)"
font-family="Helvetica" font-size="8" font-weight="400" font-style="normal" 
>
<text fill="#d9d9d9" fill-opacity="1" stroke="none" xml:space="preserve" x="0" y="0" font-family="Helvetica" font-size="8" font-weight="400" font-style="normal" 
 >z</text>
</g>

<g fill="#d9d9d9" fill-opacity="1" stroke="#d9d9d9" stroke-opacity="1" stroke-width="0.666667" stroke-linecap="square" stroke-linejoin="round" transform="matrix(0.75,0,0,0.75,-20.25,-37.125)"
font-family="Helvetica" font-size="8" font-weight="400" font-style="normal" 
>
<polyline fill="none" vector-effect="none" points="79,526 79,57 " />
<polyline fill="none" vector-effect="none" points="548,526 548,57 " />
<polyline fill="none" vector-effect="none" points="79,526 83.69,526 " />
<polyline fill="none" vector-effect="none" points="543.31,526 548,526 " />
<polyline fill="none" vector-effect="none" points="79,479.1 83.69,479.1 " />
<polyline fill="none" vector-effect="none" points="543.31,479.1 548,479.1 " />
<polyline fill="none" vector-effect="none" points="79,432.2 83.69,432.2 " />
<polyline fill="none" vector-effect="none" points="543.31,432.2 548,432.2 " />
<polyline fill="none" vector-effect="none" points="79,385.3 83.69,385.3 " />
<polyline fill="none" vector-effect="none" points="543.31,385.3 548,385.3 " />
<polyline fill="none" vector-effect="none" points="79,338.4 83.69,338.4 " />
<polyline fill="none" vector-effect="none" points="543.31,338.4 548,338.4 " />
<polyline fill="none" vector-effect="none" points="79,291.5 83.69,291.5 " />
<polyline fill="none" vector-effect="none" points="543.31,291.5 548,291.5 " />
<polyline fill="none" vector-effect="none" points="79,244.6 83.69,244.6 " />
<polyline fill="none" vector-effect="none" points="543.31,244.6 548,244.6 " />
<polyline fill="none" vector-effect="none" points="79,197.7 83.69,197.7 " />
<polyline fill="none" vector-effect="none" points="543.31,197.7 548,197.7 " />
<polyline fill="none" vector-effect="none" points="79,150.8 83.69,150.8 " />
<polyline fill="none" vector-effect="none" points="543.31,150.8 548,150.8 " />
<polyline fill="none" vector-effect="none" points="79,103.9 83.69,103.9 " />
<polyline fill="none" vector-effect="none" points="543.31,103.9 548,103.9 " />
<polyline fill="none" vector-effect="none" points="79,57 83.69,57 " />
<polyline fill="none" vector-effect="none" points="543.31,57 548,57 " />
</g>

<g fill="#d9d9d9" fill-opacity="1" stroke="#d9d9d9" stroke-opacity="1" stroke-width="1" stroke-linecap="square" stroke-linejoin="bevel" transform="matrix(0.75,0,0,0.75,26.7,362.25)"
font-family="Helvetica" font-size="18" font-weight="400" font-style="normal" 
>
<text fill="#d9d9d9" fill-opacity="1" stroke="none" xml:space="preserve" x="0" y="0" font-family="Helvetica" font-size="18" font-weight="400" font-style="normal" 
 >0</text>
</g>

<g fill="#d9d9d9" fill-opacity="1" stroke="#d9d9d9" stroke-opacity="1" stroke-width="1" stroke-linecap="square" stroke-linejoin="bevel" transform="matrix(0.75,0,0,0.75,15.45,327.075)"
font-family="Helvetica" font-size="18" font-weight="400" font-style="normal" 
>
<text fill="#d9d9d9" fill-opacity="1" stroke="none" xml:space="preserve" x="0" y="0" font-family="Helvetica" font-size="18" font-weight="400" font-style="normal" 
 >0.1</text>
</g>

<g fill="#d9d9d9" fill-opacity="1" stroke="#d9d9d9" stroke-opacity="1" stroke-width="1" stroke-linecap="square" stroke-linejoin="bevel" transform="matrix(0.75,0,0,0.75,15.45,291.9)"
font-family="Helvetica" font-size="18" font-weight="400" font-style="normal" 
>
<text fill="#d9d9d9" fill-opacity="1" stroke="none" xml:space="preserve" x="0" y="0" font-family="Helvetica" font-size="18" font-weight="400" font-style="normal" 
 >0.2</text>
</g>

<g fill="#d9d9d9" fill-opacity="1" stroke="#d9d9d9" stroke-opacity="1" stroke-width="1" stroke-linecap="square" stroke-linejoin="bevel" transform="matrix(0.75,0,0,0.75,15.45,256.725)"
font-family="Helvetica" font-size="18" font-weight="400" font-style="normal" 
>
<text fill="#d9d9d9" fill-opacity="1" stroke="none" xml:space="preserve" x="0" y="0" font-family="Helvetica" font-size="18" font-weight="400" font-style="normal" 
 >0.3</text>
</g>

<g fill="#d9d9d9" fill-opacity="1" stroke="#d9d9d9" stroke-opacity="1" stroke-width="1" stroke-linecap="square" stroke-linejoin="bevel" transform="matrix(0.75,0,0,0.75,15.45,221.55)"
font-family="Helvetica" font-size="18" font-weight="400" font-style="normal" 
>
<text fill="#d9d9d9" fill-opacity="1" stroke="none" xml:space="preserve" x="0" y="0" font-family="Helvetica" font-size="18" font-weight="400" font-style="normal" 
 >0.4</text>
</g>

<g fill="#d9d9d9" fill-opacity="1" stroke="#d9d9d9" stroke-opacity="1" stroke-width="1" stroke-linecap="square" stroke-linejoin="bevel" transform="matrix(0.75,0,0,0.75,15.45,186.375)"
font-family="Helvetica" font-size="18" font-weight="400" font-style="normal" 
>
<text fill="#d9d9d9" fill-opacity="1" stroke="none" xml:space="preserve" x="0" y="0" font-family="Helvetica" font-size="18" font-weight="400" font-style="normal" 
 >0.5</text>
</g>

<g fill="#d9d9d9" fill-opacity="1" stroke="#d9d9d9" stroke-opacity="1" stroke-width="1" stroke-linecap="square" stroke-linejoin="bevel" transform="matrix(0.75,0,0,0.75,15.45,151.2)"
font-family="Helvetica" font-size="18" font-weight="400" font-style="normal" 
>
<text fill="#d9d9d9" fill-opacity="1" stroke="none" xml:space="preserve" x="0" y="0" font-family="Helvetica" font-size="18" font-weight="400" font-style="normal" 
 >0.6</text>
</g>

<g fill="#d9d9d9" fill-opacity="1" stroke="#d9d9d9" stroke-opacity="1" stroke-width="1" stroke-linecap="square" stroke-linejoin="bevel" transform="matrix(0.75,0,0,0.75,15.45,116.025)"
font-family="Helvetica" font-size="18" font-weight="400" font-style="normal" 
>
<text fill="#d9d9d9" fill-opacity="1" stroke="none" xml:space="preserve" x="0" y="0" font-family="Helvetica" font-size="18" font-weight="400" font-style="normal" 
 >0.7</text>
</g>

<g fill="#d9d9d9" fill-opacity="1" stroke="#d9d9d9" stroke-opacity="1" stroke-width="1" stroke-linecap="square" stroke-linejoin="bevel" transform="matrix(0.75,0,0,0.75,15.45,80.85)"
font-family="Helvetica" font-size="18" font-weight="400" font-style="normal" 
>
<text fill="#d9d9d9" fill-opacity="1" stroke="none" xml:space="preserve" x="0" y="0" font-family="Helvetica" font-size="18" font-weight="400" font-style="normal" 
 >0.8</text>
</g>

<g fill="#d9d9d9" fill-opacity="1" stroke="#d9d9d9" stroke-opacity="1" stroke-width="1" stroke-linecap="square" stroke-linejoin="bevel" transform="matrix(0.75,0,0,0.75,15.45,45.675)"
font-family="Helvetica" font-size="18" font-weight="400" font-style="normal" 
>
<text fill="#d9d9d9" fill-opacity="1" stroke="none" xml:space="preserve" x="0" y="0" font-family="Helvetica" font-size="18" font-weight="400" font-style="normal" 
 >0.9</text>
</g>

<g fill="#d9d9d9" fill-opacity="1" stroke="#d9d9d9" stroke-opacity="1" stroke-width="1" stroke-linecap="square" stroke-linejoin="bevel" transform="matrix(0.75,0,0,0.75,26.7,10.5)"
font-family="Helvetica" font-size="18" font-weight="400" font-style="normal" 
>
<text fill="#d9d9d9" fill-opacity="1" stroke="none" xml:space="preserve" x="0" y="0" font-family="Helvetica" font-size="18" font-weight="400" font-style="normal" 
 >1</text>
</g>

<g fill="none" stroke="#00ff00" stroke-opacity="1" stroke-width="0.666667" stroke-linecap="butt" stroke-linejoin="miter" stroke-miterlimit="2" transform="matrix(0.75,0,0,0.75,-20.25,-37.125)"
font-family="Helvetica" font-size="18" font-weight="400" font-style="normal" 
>
<polyline fill="none" vector-effect="none" points="79,516.998 79.4585,516.998 79.4585,515.649 79.9169,515.649 79.9169,514.308 80.3754,514.308 80.3754,512.963 80.8338,512.963 80.8338,511.65 81.2923,511.65 81.2923,510.332 81.7507,510.332 81.7507,508.928 82.2092,508.928 82.2092,507.611 82.6676,507.611 82.6676,506.301 83.1261,506.301 83.1261,504.893 83.5846,504.893 83.5846,503.856 84.043,503.856 84.043,502.16 84.5015,502.16 84.5015,501.136 84.9599,501.136 84.9599,499.961 85.4184,499.961 85.4184,498.598 85.8768,498.598 85.8768,496.998 86.3353,496.998 86.3353,496.089 86.7937,496.089 86.7937,495.094 87.2522,495.094 87.2522,492.788 87.7107,492.788 87.7107,491.443 88.1691,491.443 88.1691,491.443 88.6276,491.443 88.6276,489.94 89.086,489.94 89.086,488.248 89.5445,488.248 89.5445,486.332 90.0029,486.332 90.0029,486.332 90.4614,486.332 90.4614,484.141 90.9198,484.141 90.9198,484.141 91.3783,484.141 91.3783,481.614 91.8368,481.614 91.8368,481.614 92.2952,481.614 92.2952,478.665 92.7537,478.665 92.7537,478.665 93.2121,478.665 93.2121,475.18 93.6706,475.18 93.6706,475.18 94.129,475.18 94.129,475.18 94.5875,475.18 94.5875,475.18 95.0459,475.18 95.0459,470.999 95.5044,470.999 95.5044,470.999 95.9629,470.999 95.9629,470.999 96.4213,470.999 96.4213,465.887 96.8798,465.887 96.8798,465.887 97.3382,465.887 97.3382,465.887 97.7967,465.887 97.7967,465.887 98.2551,465.887 98.2551,465.887 98.7136,465.887 98.7136,459.499 99.172,459.499 99.172,459.499 99.6305,459.499 99.6305,459.499 100.089,459.499 100.089,459.499 100.547,459.499 100.547,459.499 101.006,459.499 101.006,459.499 101.464,459.499 101.464,451.284 101.923,451.284 101.923,451.284 102.381,451.284 102.381,451.284 102.84,451.284 102.84,451.284 103.298,451.284 103.298,451.284 103.757,451.284 103.757,451.284 104.215,451.284 104.215,451.284 104.674,451.284 104.674,451.284 105.132,451.284 105.132,440.332 105.59,440.332 105.59,440.332 106.049,440.332 106.049,440.332 106.507,440.332 106.507,440.332 106.966,440.332 106.966,440.332 107.424,440.332 107.424,440.332 107.883,440.332 107.883,440.332 108.341,440.332 108.341,440.332 108.8,440.332 108.8,440.332 109.258,440.332 109.258,440.332 109.717,440.332 109.717,440.332 110.175,440.332 110.175,440.332 110.633,440.332 110.633,424.999 111.092,424.999 111.092,424.999 111.55,424.999 111.55,424.999 112.009,424.999 112.009,424.999 112.467,424.999 112.467,424.999 112.926,424.999 112.926,424.999 113.384,424.999 113.384,424.999 113.843,424.999 113.843,424.999 114.301,424.999 114.301,424.999 114.76,424.999 114.76,424.999 115.218,424.999 115.218,424.999 115.676,424.999 115.676,424.999 116.135,424.999 116.135,424.999 116.593,424.999 116.593,424.999 117.052,424.999 117.052,424.999 117.51,424.999 117.51,424.999 117.969,424.999 117.969,424.999 118.427,424.999 118.427,401.999 118.886,401.999 118.886,401.999 119.344,401.999 119.344,401.999 119.803,401.999 119.803,401.999 120.261,401.999 120.261,401.999 120.719,401.999 120.719,401.999 121.178,401.999 121.178,401.999 121.636,401.999 121.636,401.999 122.095,401.999 122.095,401.999 122.553,401.999 122.553,401.999 123.012,401.999 123.012,401.999 123.47,401.999 123.47,401.999 123.929,401.999 123.929,401.999 124.387,401.999 124.387,401.999 124.846,401.999 124.846,401.999 125.304,401.999 125.304,401.999 125.762,401.999 125.762,401.999 126.221,401.999 126.221,401.999 126.679,401.999 126.679,401.999 127.138,401.999 127.138,401.999 127.596,401.999 127.596,401.999 128.055,401.999 128.055,401.999 128.513,401.999 128.513,401.999 128.972,401.999 128.972,401.999 129.43,401.999 129.43,401.999 129.889,401.999 129.889,401.999 130.347,401.999 130.347,401.999 130.805,401.999 130.805,401.999 131.264,401.999 131.264,363.666 131.722,363.666 131.722,363.666 132.181,363.666 132.181,363.666 132.639,363.666 132.639,363.666 133.098,363.666 133.098,363.666 133.556,363.666 133.556,363.666 134.015,363.666 134.015,363.666 134.473,363.666 134.473,363.666 134.932,363.666 134.932,363.666 135.39,363.666 135.39,363.666 135.848,363.666 135.848,363.666 136.307,363.666 136.307,363.666 136.765,363.666 136.765,363.666 137.224,363.666 137.224,363.666 137.682,363.666 137.682,363.666 138.141,363.666 138.141,363.666 138.599,363.666 138.599,363.666 139.058,363.666 139.058,363.666 139.516,363.666 139.516,363.666 139.975,363.666 139.975,363.666 140.433,363.666 140.433,363.666 140.891,363.666 140.891,363.666 141.35,363.666 141.35,363.666 141.808,363.666 141.808,363.666 142.267,363.666 142.267,363.666 142.725,363.666 142.725,363.666 143.184,363.666 143.184,363.666 143.642,363.666 143.642,363.666 144.101,363.666 144.101,363.666 144.559,363.666 144.559,363.666 145.018,363.666 145.018,363.666 145.476,363.666 145.476,363.666 145.935,363.666 145.935,363.666 146.393,363.666 146.393,363.666 146.851,363.666 146.851,363.666 147.31,363.666 147.31,363.666 147.768,363.666 147.768,363.666 148.227,363.666 148.227,363.666 148.685,363.666 148.685,363.666 149.144,363.666 149.144,363.666 149.602,363.666 149.602,363.666 150.061,363.666 150.061,363.666 150.519,363.666 150.519,363.666 150.978,363.666 150.978,363.666 151.436,363.666 151.436,363.666 151.894,363.666 151.894,363.666 152.353,363.666 152.353,363.666 152.811,363.666 152.811,363.666 153.27,363.666 153.27,363.666 153.728,363.666 153.728,363.666 154.187,363.666 154.187,363.666 154.645,363.666 154.645,363.666 155.104,363.666 155.104,363.666 155.562,363.666 155.562,363.666 156.021,363.666 156.021,363.666 156.479,363.666 156.479,363.666 156.937,363.666 156.937,363.666 157.396,363.666 157.396,286.999 157.854,286.999 157.854,286.999 158.313,286.999 158.313,286.999 158.771,286.999 158.771,286.999 159.23,286.999 159.23,286.999 159.688,286.999 159.688,286.999 160.147,286.999 160.147,286.999 160.605,286.999 160.605,286.999 161.064,286.999 161.064,286.999 161.522,286.999 161.522,286.999 161.98,286.999 161.98,286.999 162.439,286.999 162.439,286.999 162.897,286.999 162.897,286.999 163.356,286.999 163.356,286.999 163.814,286.999 163.814,286.999 164.273,286.999 164.273,286.999 164.731,286.999 164.731,286.999 165.19,286.999 165.19,286.999 165.648,286.999 165.648,286.999 166.107,286.999 166.107,286.999 166.565,286.999 166.565,286.999 167.023,286.999 167.023,286.999 167.482,286.999 167.482,286.999 167.94,286.999 167.94,286.999 168.399,286.999 168.399,286.999 168.857,286.999 168.857,286.999 169.316,286.999 169.316,286.999 169.774,286.999 169.774,286.999 170.233,286.999 170.233,286.999 170.691,286.999 170.691,286.999 171.15,286.999 171.15,286.999 171.608,286.999 171.608,286.999 172.066,286.999 172.066,286.999 172.525,286.999 172.525,286.999 172.983,286.999 172.983,286.999 173.442,286.999 173.442,286.999 173.9,286.999 173.9,286.999 174.359,286.999 174.359,286.999 174.817,286.999 174.817,286.999 175.276,286.999 175.276,286.999 175.734,286.999 175.734,286.999 176.193,286.999 176.193,286.999 176.651,286.999 176.651,286.999 177.109,286.999 177.109,286.999 177.568,286.999 177.568,286.999 178.026,286.999 178.026,286.999 178.485,286.999 178.485,286.999 178.943,286.999 178.943,286.999 179.402,286.999 179.402,286.999 179.86,286.999 179.86,286.999 180.319,286.999 180.319,286.999 180.777,286.999 180.777,286.999 181.236,286.999 181.236,286.999 181.694,286.999 181.694,286.999 182.152,286.999 182.152,286.999 182.611,286.999 182.611,286.999 183.069,286.999 183.069,286.999 183.528,286.999 183.528,286.999 183.986,286.999 183.986,286.999 184.445,286.999 184.445,286.999 184.903,286.999 184.903,286.999 185.362,286.999 185.362,286.999 185.82,286.999 185.82,286.999 186.279,286.999 186.279,286.999 186.737,286.999 186.737,286.999 187.195,286.999 187.195,286.999 187.654,286.999 187.654,286.999 188.112,286.999 188.112,286.999 188.571,286.999 188.571,286.999 189.029,286.999 189.029,286.999 189.488,286.999 189.488,286.999 189.946,286.999 189.946,286.999 190.405,286.999 190.405,286.999 190.863,286.999 190.863,286.999 191.322,286.999 191.322,286.999 191.78,286.999 191.78,286.999 192.239,286.999 192.239,286.999 192.697,286.999 192.697,286.999 193.155,286.999 193.155,286.999 193.614,286.999 193.614,286.999 194.072,286.999 194.072,286.999 194.531,286.999 194.531,286.999 194.989,286.999 194.989,286.999 195.448,286.999 195.448,286.999 195.906,286.999 195.906,286.999 196.365,286.999 196.365,286.999 196.823,286.999 196.823,286.999 197.282,286.999 197.282,286.999 197.74,286.999 197.74,286.999 198.198,286.999 198.198,286.999 198.657,286.999 198.657,286.999 199.115,286.999 199.115,286.999 199.574,286.999 199.574,286.999 200.032,286.999 200.032,286.999 200.491,286.999 200.491,286.999 200.949,286.999 200.949,286.999 201.408,286.999 201.408,286.999 201.866,286.999 201.866,286.999 202.325,286.999 202.325,286.999 202.783,286.999 202.783,286.999 203.241,286.999 203.241,286.999 203.7,286.999 203.7,286.999 204.158,286.999 204.158,286.999 204.617,286.999 204.617,286.999 205.075,286.999 205.075,286.999 205.534,286.999 205.534,286.999 205.992,286.999 205.992,286.999 206.451,286.999 206.451,286.999 206.909,286.999 206.909,286.999 207.368,286.999 207.368,286.999 207.826,286.999 207.826,286.999 208.284,286.999 208.284,286.999 208.743,286.999 208.743,286.999 209.201,286.999 209.201,286.999 209.66,286.999 209.66,286.999 210.118,286.999 210.118,286.999 210.577,286.999 210.577,286.999 211.035,286.999 211.035,286.999 211.494,286.999 211.494,286.999 211.952,286.999 211.952,286.999 212.411,286.999 212.411,286.999 212.869,286.999 212.869,286.999 213.327,286.999 213.327,286.999 213.786,286.999 213.786,286.999 214.244,286.999 214.244,286.999 214.703,286.999 214.703,286.999 215.161,286.999 215.161,286.999 215.62,286.999 215.62,286.999 216.078,286.999 216.078,286.999 216.537,286.999 216.537,286.999 216.995,286.999 216.995,286.999 217.454,286.999 217.454,286.999 217.912,286.999 217.912,286.999 218.37,286.999 218.37,286.999 218.829,286.999 218.829,286.999 219.287,286.999 219.287,286.999 219.746,286.999 219.746,286.999 220.204,286.999 220.204,286.999 220.663,286.999 220.663,286.999 221.121,286.999 221.121,286.999 221.58,286.999 221.58,286.999 222.038,286.999 222.038,286.999 222.497,286.999 222.497,286.999 222.955,286.999 222.955,286.999 223.413,286.999 223.413,286.999 223.872,286.999 223.872,286.999 224.33,286.999 224.33,286.999 224.789,286.999 224.789,286.999 225.247,286.999 225.247,286.999 225.706,286.999 225.706,286.999 226.164,286.999 226.164,286.999 226.623,286.999 226.623,286.999 227.081,286.999 227.081,286.999 227.54,286.999 227.54,286.999 227.998,286.999 227.998,286.999 228.456,286.999 228.456,286.999 228.915,286.999 228.915,286.999 229.373,286.999 229.373,286.999 229.832,286.999 229.832,286.999 230.29,286.999 230.29,286.999 230.749,286.999 230.749,286.999 231.207,286.999 231.207,286.999 231.666,286.999 231.666,286.999 232.124,286.999 232.124,286.999 232.583,286.999 232.583,286.999 233.041,286.999 233.041,286.999 233.5,286.999 233.5,286.999 233.958,286.999 233.958,286.999 234.416,286.999 234.416,286.999 234.875,286.999 234.875,286.999 235.333,286.999 235.333,57 235.792,57 235.792,57 236.25,57 236.25,57 236.709,57 236.709,57 237.167,57 237.167,57 237.626,57 237.626,57 238.084,57 238.084,57 238.543,57 238.543,57 239.001,57 239.001,57 239.459,57 239.459,57 239.918,57 239.918,57 240.376,57 240.376,57 240.835,57 240.835,57 241.293,57 241.293,57 241.752,57 241.752,57 242.21,57 242.21,57 242.669,57 242.669,57 243.127,57 243.127,57 243.586,57 243.586,57 244.044,57 244.044,57 244.502,57 244.502,57 244.961,57 244.961,57 245.419,57 245.419,57 245.878,57 245.878,57 246.336,57 246.336,57 246.795,57 246.795,57 247.253,57 247.253,57 247.712,57 247.712,57 248.17,57 248.17,57 248.629,57 248.629,57 249.087,57 249.087,57 249.545,57 249.545,57 250.004,57 250.004,57 250.462,57 250.462,57 250.921,57 250.921,57 251.379,57 251.379,57 251.838,57 251.838,57 252.296,57 252.296,57 252.755,57 252.755,57 253.213,57 253.213,57 253.672,57 253.672,57 254.13,57 254.13,57 254.588,57 254.588,57 255.047,57 255.047,57 255.505,57 255.505,57 255.964,57 255.964,57 256.422,57 256.422,57 256.881,57 256.881,57 257.339,57 257.339,57 257.798,57 257.798,57 258.256,57 258.256,57 258.715,57 258.715,57 259.173,57 259.173,57 259.631,57 259.631,57 260.09,57 260.09,57 260.548,57 260.548,57 261.007,57 261.007,57 261.465,57 261.465,57 261.924,57 261.924,57 262.382,57 262.382,57 262.841,57 262.841,57 263.299,57 263.299,57 263.758,57 263.758,57 264.216,57 264.216,57 264.674,57 264.674,57 265.133,57 265.133,57 265.591,57 265.591,57 266.05,57 266.05,57 266.508,57 266.508,57 266.967,57 266.967,57 267.425,57 267.425,57 267.884,57 267.884,57 268.342,57 268.342,57 268.801,57 268.801,57 269.259,57 269.259,57 269.717,57 269.717,57 270.176,57 270.176,57 270.634,57 270.634,57 271.093,57 271.093,57 271.551,57 271.551,57 272.01,57 272.01,57 272.468,57 272.468,57 272.927,57 272.927,57 273.385,57 273.385,57 273.844,57 273.844,57 274.302,57 274.302,57 274.76,57 274.76,57 275.219,57 275.219,57 275.677,57 275.677,57 276.136,57 276.136,57 276.594,57 276.594,57 277.053,57 277.053,57 277.511,57 277.511,57 277.97,57 277.97,57 278.428,57 278.428,57 278.887,57 278.887,57 279.345,57 279.345,57 279.804,57 279.804,57 280.262,57 280.262,57 280.72,57 280.72,57 281.179,57 281.179,57 281.637,57 281.637,57 282.096,57 282.096,57 282.554,57 282.554,57 283.013,57 283.013,57 283.471,57 283.471,57 283.93,57 283.93,57 284.388,57 284.388,57 284.847,57 284.847,57 285.305,57 285.305,57 285.763,57 285.763,57 286.222,57 286.222,57 286.68,57 286.68,57 287.139,57 287.139,57 287.597,57 287.597,57 288.056,57 288.056,57 288.514,57 288.514,57 288.973,57 288.973,57 289.431,57 289.431,57 289.89,57 289.89,57 290.348,57 290.348,57 290.806,57 290.806,57 291.265,57 291.265,57 291.723,57 291.723,57 292.182,57 292.182,57 292.64,57 292.64,57 293.099,57 293.099,57 293.557,57 293.557,57 294.016,57 294.016,57 294.474,57 294.474,57 294.933,57 294.933,57 295.391,57 295.391,57 295.849,57 295.849,57 296.308,57 296.308,57 296.766,57 296.766,57 297.225,57 297.225,57 297.683,57 297.683,57 298.142,57 298.142,57 298.6,57 298.6,57 299.059,57 299.059,57 299.517,57 299.517,57 299.976,57 299.976,57 300.434,57 300.434,57 300.892,57 300.892,57 301.351,57 301.351,57 301.809,57 301.809,57 302.268,57 302.268,57 302.726,57 302.726,57 303.185,57 303.185,57 303.643,57 303.643,57 304.102,57 304.102,57 304.56,57 304.56,57 305.019,57 305.019,57 305.477,57 305.477,57 305.935,57 305.935,57 306.394,57 306.394,57 306.852,57 306.852,57 307.311,57 307.311,57 307.769,57 307.769,57 308.228,57 308.228,57 308.686,57 308.686,57 309.145,57 309.145,57 309.603,57 309.603,57 310.062,57 310.062,57 310.52,57 310.52,57 310.978,57 310.978,57 311.437,57 311.437,57 311.895,57 311.895,57 312.354,57 312.354,57 312.812,57 312.812,57 313.271,57 313.271,57 313.729,57 313.729,57 314.188,57 314.188,57 314.646,57 314.646,57 315.105,57 315.105,57 315.563,57 315.563,57 316.022,57 316.022,57 316.48,57 316.48,57 316.938,57 316.938,57 317.397,57 317.397,57 317.855,57 317.855,57 318.314,57 318.314,57 318.772,57 318.772,57 319.231,57 319.231,57 319.689,57 319.689,57 320.148,57 320.148,57 320.606,57 320.606,57 321.065,57 321.065,57 321.523,57 321.523,57 321.981,57 321.981,57 322.44,57 322.44,57 322.898,57 322.898,57 323.357,57 323.357,57 323.815,57 323.815,57 324.274,57 324.274,57 324.732,57 324.732,57 325.191,57 325.191,57 325.649,57 325.649,57 326.108,57 326.108,57 326.566,57 326.566,57 327.024,57 327.024,57 327.483,57 327.483,57 327.941,57 327.941,57 328.4,57 328.4,57 328.858,57 328.858,57 329.317,57 329.317,57 329.775,57 329.775,57 330.234,57 330.234,57 330.692,57 330.692,57 331.151,57 331.151,57 331.609,57 331.609,57 332.067,57 332.067,57 332.526,57 332.526,57 332.984,57 332.984,57 333.443,57 333.443,57 333.901,57 333.901,57 334.36,57 334.36,57 334.818,57 334.818,57 335.277,57 335.277,57 335.735,57 335.735,57 336.194,57 336.194,57 336.652,57 336.652,57 337.11,57 337.11,57 337.569,57 337.569,57 338.027,57 338.027,57 338.486,57 338.486,57 338.944,57 338.944,57 339.403,57 339.403,57 339.861,57 339.861,57 340.32,57 340.32,57 340.778,57 340.778,57 341.237,57 341.237,57 341.695,57 341.695,57 342.153,57 342.153,57 342.612,57 342.612,57 343.07,57 343.07,57 343.529,57 343.529,57 343.987,57 343.987,57 344.446,57 344.446,57 344.904,57 344.904,57 345.363,57 345.363,57 345.821,57 345.821,57 346.28,57 346.28,57 346.738,57 346.738,57 347.196,57 347.196,57 347.655,57 347.655,57 348.113,57 348.113,57 348.572,57 348.572,57 349.03,57 349.03,57 349.489,57 349.489,57 349.947,57 349.947,57 350.406,57 350.406,57 350.864,57 350.864,57 351.323,57 351.323,57 351.781,57 351.781,57 352.24,57 352.24,57 352.698,57 352.698,57 353.156,57 353.156,57 353.615,57 353.615,57 354.073,57 354.073,57 354.532,57 354.532,57 354.99,57 354.99,57 355.449,57 355.449,57 355.907,57 355.907,57 356.366,57 356.366,57 356.824,57 356.824,57 357.283,57 357.283,57 357.741,57 357.741,57 358.199,57 358.199,57 358.658,57 358.658,57 359.116,57 359.116,57 359.575,57 359.575,57 360.033,57 360.033,57 360.492,57 360.492,57 360.95,57 360.95,57 361.409,57 361.409,57 361.867,57 361.867,57 362.326,57 362.326,57 362.784,57 362.784,57 363.242,57 363.242,57 363.701,57 363.701,57 364.159,57 364.159,57 364.618,57 364.618,57 365.076,57 365.076,57 365.535,57 365.535,57 365.993,57 365.993,57 366.452,57 366.452,57 366.91,57 366.91,57 367.369,57 367.369,57 367.827,57 367.827,57 368.285,57 368.285,57 368.744,57 368.744,57 369.202,57 369.202,57 369.661,57 369.661,57 370.119,57 370.119,57 370.578,57 370.578,57 371.036,57 371.036,57 371.495,57 371.495,57 371.953,57 371.953,57 372.412,57 372.412,57 372.87,57 372.87,57 373.328,57 373.328,57 373.787,57 373.787,57 374.245,57 374.245,57 374.704,57 374.704,57 375.162,57 375.162,57 375.621,57 375.621,57 376.079,57 376.079,57 376.538,57 376.538,57 376.996,57 376.996,57 377.455,57 377.455,57 377.913,57 377.913,57 378.371,57 378.371,57 378.83,57 378.83,57 379.288,57 379.288,57 379.747,57 379.747,57 380.205,57 380.205,57 380.664,57 380.664,57 381.122,57 381.122,57 381.581,57 381.581,57 382.039,57 382.039,57 382.498,57 382.498,57 382.956,57 382.956,57 383.414,57 383.414,57 383.873,57 383.873,57 384.331,57 384.331,57 384.79,57 384.79,57 385.248,57 385.248,57 385.707,57 385.707,57 386.165,57 386.165,57 386.624,57 386.624,57 387.082,57 387.082,57 387.541,57 387.541,57 387.999,57 387.999,57 388.457,57 388.457,57 388.916,57 388.916,57 389.374,57 389.374,57 389.833,57 389.833,57 390.291,57 390.291,57 390.75,57 390.75,57 391.208,57 391.208,57 391.667,57 391.667,57 392.125,57 392.125,57 392.584,57 392.584,57 393.042,57 393.042,57 393.5,57 393.5,57 393.959,57 393.959,57 394.417,57 394.417,57 394.876,57 394.876,57 395.334,57 395.334,57 395.793,57 395.793,57 396.251,57 396.251,57 396.71,57 396.71,57 397.168,57 397.168,57 397.627,57 397.627,57 398.085,57 398.085,57 398.543,57 398.543,57 399.002,57 399.002,57 399.46,57 399.46,57 399.919,57 399.919,57 400.377,57 400.377,57 400.836,57 400.836,57 401.294,57 401.294,57 401.753,57 401.753,57 402.211,57 402.211,57 402.67,57 402.67,57 403.128,57 403.128,57 403.586,57 403.586,57 404.045,57 404.045,57 404.503,57 404.503,57 404.962,57 404.962,57 405.42,57 405.42,57 405.879,57 405.879,57 406.337,57 406.337,57 406.796,57 406.796,57 407.254,57 407.254,57 407.713,57 407.713,57 408.171,57 408.171,57 408.63,57 408.63,57 409.088,57 409.088,57 409.546,57 409.546,57 410.005,57 410.005,57 410.463,57 410.463,57 410.922,57 410.922,57 411.38,57 411.38,57 411.839,57 411.839,57 412.297,57 412.297,57 412.756,57 412.756,57 413.214,57 413.214,57 413.673,57 413.673,57 414.131,57 414.131,57 414.589,57 414.589,57 415.048,57 415.048,57 415.506,57 415.506,57 415.965,57 415.965,57 416.423,57 416.423,57 416.882,57 416.882,57 417.34,57 417.34,57 417.799,57 417.799,57 418.257,57 418.257,57 418.716,57 418.716,57 419.174,57 419.174,57 419.632,57 419.632,57 420.091,57 420.091,57 420.549,57 420.549,57 421.008,57 421.008,57 421.466,57 421.466,57 421.925,57 421.925,57 422.383,57 422.383,57 422.842,57 422.842,57 423.3,57 423.3,57 423.759,57 423.759,57 424.217,57 424.217,57 424.675,57 424.675,57 425.134,57 425.134,57 425.592,57 425.592,57 426.051,57 426.051,57 426.509,57 426.509,57 426.968,57 426.968,57 427.426,57 427.426,57 427.885,57 427.885,57 428.343,57 428.343,57 428.802,57 428.802,57 429.26,57 429.26,57 429.718,57 429.718,57 430.177,57 430.177,57 430.635,57 430.635,57 431.094,57 431.094,57 431.552,57 431.552,57 432.011,57 432.011,57 432.469,57 432.469,57 432.928,57 432.928,57 433.386,57 433.386,57 433.845,57 433.845,57 434.303,57 434.303,57 434.761,57 434.761,57 435.22,57 435.22,57 435.678,57 435.678,57 436.137,57 436.137,57 436.595,57 436.595,57 437.054,57 437.054,57 437.512,57 437.512,57 437.971,57 437.971,57 438.429,57 438.429,57 438.888,57 438.888,57 439.346,57 439.346,57 439.804,57 439.804,57 440.263,57 440.263,57 440.721,57 440.721,57 441.18,57 441.18,57 441.638,57 441.638,57 442.097,57 442.097,57 442.555,57 442.555,57 443.014,57 443.014,57 443.472,57 443.472,57 443.931,57 443.931,57 444.389,57 444.389,57 444.848,57 444.848,57 445.306,57 445.306,57 445.764,57 445.764,57 446.223,57 446.223,57 446.681,57 446.681,57 447.14,57 447.14,57 447.598,57 447.598,57 448.057,57 448.057,57 448.515,57 448.515,57 448.974,57 448.974,57 449.432,57 449.432,57 449.891,57 449.891,57 450.349,57 450.349,57 450.807,57 450.807,57 451.266,57 451.266,57 451.724,57 451.724,57 452.183,57 452.183,57 452.641,57 452.641,57 453.1,57 453.1,57 453.558,57 453.558,57 454.017,57 454.017,57 454.475,57 454.475,57 454.934,57 454.934,57 455.392,57 455.392,57 455.85,57 455.85,57 456.309,57 456.309,57 456.767,57 456.767,57 457.226,57 457.226,57 457.684,57 457.684,57 458.143,57 458.143,57 458.601,57 458.601,57 459.06,57 459.06,57 459.518,57 459.518,57 459.977,57 459.977,57 460.435,57 460.435,57 460.893,57 460.893,57 461.352,57 461.352,57 461.81,57 461.81,57 462.269,57 462.269,57 462.727,57 462.727,57 463.186,57 463.186,57 463.644,57 463.644,57 464.103,57 464.103,57 464.561,57 464.561,57 465.02,57 465.02,57 465.478,57 465.478,57 465.936,57 465.936,57 466.395,57 466.395,57 466.853,57 466.853,57 467.312,57 467.312,57 467.77,57 467.77,57 468.229,57 468.229,57 468.687,57 468.687,57 469.146,57 469.146,57 469.604,57 469.604,57 470.063,57 470.063,57 470.521,57 470.521,57 470.979,57 470.979,57 471.438,57 471.438,57 471.896,57 471.896,57 472.355,57 472.355,57 472.813,57 472.813,57 473.272,57 473.272,57 473.73,57 473.73,57 474.189,57 474.189,57 474.647,57 474.647,57 475.106,57 475.106,57 475.564,57 475.564,57 476.022,57 476.022,57 476.481,57 476.481,57 476.939,57 476.939,57 477.398,57 477.398,57 477.856,57 477.856,57 478.315,57 478.315,57 478.773,57 478.773,57 479.232,57 479.232,57 479.69,57 479.69,57 480.149,57 480.149,57 480.607,57 480.607,57 481.065,57 481.065,57 481.524,57 481.524,57 481.982,57 481.982,57 482.441,57 482.441,57 482.899,57 482.899,57 483.358,57 483.358,57 483.816,57 483.816,57 484.275,57 484.275,57 484.733,57 484.733,57 485.192,57 485.192,57 485.65,57 485.65,57 486.108,57 486.108,57 486.567,57 486.567,57 487.025,57 487.025,57 487.484,57 487.484,57 487.942,57 487.942,57 488.401,57 488.401,57 488.859,57 488.859,57 489.318,57 489.318,57 489.776,57 489.776,57 490.235,57 490.235,57 490.693,57 490.693,57 491.152,57 491.152,57 491.61,57 491.61,57 492.068,57 492.068,57 492.527,57 492.527,57 492.985,57 492.985,57 493.444,57 493.444,57 493.902,57 493.902,57 494.361,57 494.361,57 494.819,57 494.819,57 495.278,57 495.278,57 495.736,57 495.736,57 496.195,57 496.195,57 496.653,57 496.653,57 497.111,57 497.111,57 497.57,57 497.57,57 498.028,57 498.028,57 498.487,57 498.487,57 498.945,57 498.945,57 499.404,57 499.404,57 499.862,57 499.862,57 500.321,57 500.321,57 500.779,57 500.779,57 501.238,57 501.238,57 501.696,57 501.696,57 502.154,57 502.154,57 502.613,57 502.613,57 503.071,57 503.071,57 503.53,57 503.53,57 503.988,57 503.988,57 504.447,57 504.447,57 504.905,57 504.905,57 505.364,57 505.364,57 505.822,57 505.822,57 506.281,57 506.281,57 506.739,57 506.739,57 507.197,57 507.197,57 507.656,57 507.656,57 508.114,57 508.114,57 508.573,57 508.573,57 509.031,57 509.031,57 509.49,57 509.49,57 509.948,57 509.948,57 510.407,57 510.407,57 510.865,57 510.865,57 511.324,57 511.324,57 511.782,57 511.782,57 512.24,57 512.24,57 512.699,57 512.699,57 513.157,57 513.157,57 513.616,57 513.616,57 514.074,57 514.074,57 514.533,57 514.533,57 514.991,57 514.991,57 515.45,57 515.45,57 515.908,57 515.908,57 516.367,57 516.367,57 516.825,57 516.825,57 517.283,57 517.283,57 517.742,57 517.742,57 518.2,57 518.2,57 518.659,57 518.659,57 519.117,57 519.117,57 519.576,57 519.576,57 520.034,57 520.034,57 520.493,57 520.493,57 520.951,57 520.951,57 521.41,57 521.41,57 521.868,57 521.868,57 522.326,57 522.326,57 522.785,57 522.785,57 523.243,57 523.243,57 523.702,57 523.702,57 524.16,57 524.16,57 524.619,57 524.619,57 525.077,57 525.077,57 525.536,57 525.536,57 525.994,57 525.994,57 526.453,57 526.453,57 526.911,57 526.911,57 527.37,57 527.37,57 527.828,57 527.828,57 528.286,57 528.286,57 528.745,57 528.745,57 529.203,57 529.203,57 529.662,57 529.662,57 530.12,57 530.12,57 530.579,57 530.579,57 531.037,57 531.037,57 531.496,57 531.496,57 531.954,57 531.954,57 532.413,57 532.413,57 532.871,57 532.871,57 533.329,57 533.329,57 533.788,57 533.788,57 534.246,57 534.246,57 534.705,57 534.705,57 535.163,57 535.163,57 535.622,57 535.622,57 536.08,57 536.08,57 536.539,57 536.539,57 536.997,57 536.997,57 537.456,57 537.456,57 537.914,57 537.914,57 538.372,57 538.372,57 538.831,57 538.831,57 539.289,57 539.289,57 539.748,57 539.748,57 540.206,57 540.206,57 540.665,57 540.665,57 541.123,57 541.123,57 541.582,57 541.582,57 542.04,57 542.04,57 542.499,57 542.499,57 542.957,57 542.957,57 543.415,57 543.415,57 543.874,57 543.874,57 544.332,57 544.332,57 544.791,57 544.791,57 545.249,57 545.249,57 545.708,57 545.708,57 546.166,57 546.166,57 546.625,57 546.625,57 547.083,57 547.083,57 547.542,57 547.542,57 548,57 548,57 " />
</g>
</g>
</svg>
