<?xml version="1.0" encoding="UTF-8" standalone="no"?>
<svg width="137.936mm" height="137.231mm"
 viewBox="0 0 391 389"
 xmlns="http://www.w3.org/2000/svg" xmlns:xlink="http://www.w3.org/1999/xlink"  version="1.2" baseProfile="tiny">
<title>Qt SVG Document</title>
<desc>MATLAB, The MathWorks, Inc. Version 25.1.0.2973910 R2025a Update 1</desc>
<defs>
</defs>
<g fill="none" stroke="black" stroke-width="1" fill-rule="evenodd" stroke-linecap="square" stroke-linejoin="bevel" >

<g fill="#000000" fill-opacity="1" stroke="none" transform="matrix(0.757895,0,0,0.757895,-21.4,-32.5895)"
font-family="Sans Serif" font-size="9" font-weight="400" font-style="normal" 
>
<path vector-effect="none" fill-rule="evenodd" d="M27,41 L543,41 L543,556 L27,556 L27,41"/>
</g>

<g fill="#000000" fill-opacity="1" stroke="none" transform="matrix(7.57895e-05,0,0,7.57895e-05,-21.4,-32.5895)"
font-family="Sans Serif" font-size="9" font-weight="400" font-style="normal" 
>
<path vector-effect="none" fill-rule="evenodd" d="M780000,570000 L780000,5.2e+06 L5.41e+06,5.2e+06 L5.41e+06,570000 L780000,570000"/>
</g>

<g fill="#d9d9d9" fill-opacity="1" stroke="none" transform="matrix(0.757895,0,0,0.757895,206.726,387.379)"
font-family="Sans Serif" font-size="9" font-weight="400" font-style="normal" 
>
<path vector-effect="none" fill-rule="evenodd" d="M0.6875,0 L0.6875,-4.04688 C0.6875,-4.42188 0.682292,-4.83333 0.671875,-5.28125 L1.5,-5.28125 C1.52083,-4.6875 1.53125,-4.32813 1.53125,-4.20313 L1.54688,-4.20313 C1.69271,-4.66146 1.85677,-4.97135 2.03906,-5.13281 C2.22135,-5.29427 2.47917,-5.375 2.8125,-5.375 C2.92708,-5.375 3.04688,-5.35938 3.17188,-5.32813 L3.17188,-4.53125 C3.04688,-4.5625 2.89063,-4.57813 2.70313,-4.57813 C2.33854,-4.57813 2.0599,-4.42188 1.86719,-4.10938 C1.67448,-3.79688 1.57813,-3.34375 1.57813,-2.75 L1.57813,0 L0.6875,0 M4.67188,-2.45313 C4.67188,-1.84896 4.79688,-1.38281 5.04688,-1.05469 C5.29688,-0.726563 5.66667,-0.5625 6.15625,-0.5625 C6.53125,-0.5625 6.83333,-0.638021 7.0625,-0.789063 C7.29167,-0.940104 7.44792,-1.13542 7.53125,-1.375 L8.29688,-1.15625 C7.98438,-0.322917 7.27083,0.09375 6.15625,0.09375 C5.375,0.09375 4.77865,-0.138021 4.36719,-0.601563 C3.95573,-1.0651 3.75,-1.75521 3.75,-2.67188 C3.75,-3.54688 3.95573,-4.21615 4.36719,-4.67969 C4.77865,-5.14323 5.35938,-5.375 6.10938,-5.375 C7.67188,-5.375 8.45313,-4.44271 8.45313,-2.57813 L8.45313,-2.45313 L4.67188,-2.45313 M7.53125,-3.125 C7.48958,-3.6875 7.35156,-4.09635 7.11719,-4.35156 C6.88281,-4.60677 6.54688,-4.73438 6.10938,-4.73438 C5.68229,-4.73438 5.34375,-4.59115 5.09375,-4.30469 C4.84375,-4.01823 4.70833,-3.625 4.6875,-3.125 L7.53125,-3.125 M10.8906,0.09375 C10.3594,0.09375 9.96094,-0.046875 9.69531,-0.328125 C9.42969,-0.609375 9.29688,-0.989583 9.29688,-1.46875 C9.29688,-2.02083 9.47656,-2.44271 9.83594,-2.73438 C10.1953,-3.02604 10.776,-3.18229 11.5781,-3.20313 L12.7656,-3.21875 L12.7656,-3.51563 C12.7656,-3.94271 12.6745,-4.25 12.4922,-4.4375 C12.3099,-4.625 12.026,-4.71875 11.6406,-4.71875 C11.2448,-4.71875 10.9557,-4.65104 10.7734,-4.51563 C10.5911,-4.38021 10.4844,-4.16667 10.4531,-3.875 L9.53125,-3.95313 C9.6875,-4.90104 10.3958,-5.375 11.6563,-5.375 C12.3229,-5.375 12.8229,-5.22396 13.1563,-4.92188 C13.4896,-4.61979 13.6563,-4.18229 13.6563,-3.60938 L13.6563,-1.32813 C13.6563,-1.06771 13.6901,-0.872396 13.7578,-0.742188 C13.8255,-0.611979 13.9583,-0.546875 14.1563,-0.546875 C14.2396,-0.546875 14.3333,-0.557292 14.4375,-0.578125 L14.4375,-0.03125 C14.2188,0.0208333 13.9948,0.046875 13.7656,0.046875 C13.4323,0.046875 13.1927,-0.0390625 13.0469,-0.210938 C12.901,-0.382813 12.8177,-0.651042 12.7969,-1.01563 L12.7656,-1.01563 C12.5469,-0.609375 12.2865,-0.322917 11.9844,-0.15625 C11.6823,0.0104167 11.3177,0.09375 10.8906,0.09375 M11.0938,-0.5625 C11.4167,-0.5625 11.7031,-0.635417 11.9531,-0.78125 C12.2031,-0.927083 12.401,-1.1276 12.5469,-1.38281 C12.6927,-1.63802 12.7656,-1.90104 12.7656,-2.17188 L12.7656,-2.60938 L11.8125,-2.59375 C11.3958,-2.58333 11.0807,-2.53906 10.8672,-2.46094 C10.6536,-2.38281 10.4896,-2.26302 10.375,-2.10156 C10.2604,-1.9401 10.2031,-1.72396 10.2031,-1.45313 C10.2031,-1.17188 10.2813,-0.953125 10.4375,-0.796875 C10.5938,-0.640625 10.8125,-0.5625 11.0938,-0.5625 M15.0938,0 L15.0938,-7.25 L15.9688,-7.25 L15.9688,0 L15.0938,0"/>
</g>

<g fill="#d9d9d9" fill-opacity="1" stroke="#d9d9d9" stroke-opacity="1" stroke-width="0.659722" stroke-linecap="square" stroke-linejoin="round" transform="matrix(0.757895,0,0,0.757895,-21.4,-32.5895)"
font-family="Sans Serif" font-size="9" font-weight="400" font-style="normal" 
>
<polyline fill="none" vector-effect="none" points="78,520 541,520 " />
<polyline fill="none" vector-effect="none" points="113.257,520 113.257,515.37 " />
<polyline fill="none" vector-effect="none" points="211.379,520 211.379,515.37 " />
<polyline fill="none" vector-effect="none" points="309.5,520 309.5,515.37 " />
<polyline fill="none" vector-effect="none" points="407.621,520 407.621,515.37 " />
<polyline fill="none" vector-effect="none" points="505.743,520 505.743,515.37 " />
</g>

<g fill="#d9d9d9" fill-opacity="1" stroke="none" transform="matrix(0.757895,0,0,0.757895,59.5106,376.526)"
font-family="Sans Serif" font-size="9" font-weight="400" font-style="normal" 
>
<path vector-effect="none" fill-rule="evenodd" d="M0.671875,-3.40625 L0.671875,-4.57813 L4.32813,-4.57813 L4.32813,-3.40625 L0.671875,-3.40625 M6.125,0 L6.125,-1.125 L8.75,-1.125 L8.75,-9.0625 L6.42188,-7.39063 L6.42188,-8.64063 L8.85938,-10.3125 L10.0781,-10.3125 L10.0781,-1.125 L12.5938,-1.125 L12.5938,0 L6.125,0"/>
</g>

<g fill="#d9d9d9" fill-opacity="1" stroke="none" transform="matrix(0.757895,0,0,0.757895,128.95,376.526)"
font-family="Sans Serif" font-size="9" font-weight="400" font-style="normal" 
>
<path vector-effect="none" fill-rule="evenodd" d="M0.671875,-3.40625 L0.671875,-4.57813 L4.32813,-4.57813 L4.32813,-3.40625 L0.671875,-3.40625 M12.7344,-5.15625 C12.7344,-3.4375 12.4323,-2.125 11.8281,-1.21875 C11.224,-0.3125 10.3281,0.140625 9.14063,0.140625 C7.95313,0.140625 7.0625,-0.309896 6.46875,-1.21094 C5.875,-2.11198 5.57813,-3.42708 5.57813,-5.15625 C5.57813,-6.9375 5.86719,-8.26823 6.44531,-9.14844 C7.02344,-10.0286 7.9375,-10.4688 9.1875,-10.4688 C10.3958,-10.4688 11.2891,-10.0234 11.8672,-9.13281 C12.4453,-8.24219 12.7344,-6.91667 12.7344,-5.15625 M11.4063,-5.15625 C11.4063,-6.64583 11.2344,-7.72656 10.8906,-8.39844 C10.5469,-9.07031 9.97917,-9.40625 9.1875,-9.40625 C8.375,-9.40625 7.79167,-9.07552 7.4375,-8.41406 C7.08333,-7.7526 6.90625,-6.66667 6.90625,-5.15625 C6.90625,-3.69792 7.08594,-2.63021 7.44531,-1.95313 C7.80469,-1.27604 8.375,-0.9375 9.15625,-0.9375 C9.92708,-0.9375 10.4948,-1.28385 10.8594,-1.97656 C11.224,-2.66927 11.4063,-3.72917 11.4063,-5.15625 M14.6875,0 L14.6875,-1.60938 L16.1094,-1.60938 L16.1094,0 L14.6875,0 M25.1875,-3.35938 C25.1875,-2.27604 24.862,-1.42188 24.2109,-0.796875 C23.5599,-0.171875 22.6615,0.140625 21.5156,0.140625 C20.5573,0.140625 19.7813,-0.0677083 19.1875,-0.484375 C18.5938,-0.901042 18.2188,-1.51042 18.0625,-2.3125 L19.4063,-2.46875 C19.6771,-1.44792 20.3906,-0.9375 21.5469,-0.9375 C22.2552,-0.9375 22.8099,-1.15104 23.2109,-1.57813 C23.612,-2.00521 23.8125,-2.58854 23.8125,-3.32813 C23.8125,-3.98438 23.612,-4.51302 23.2109,-4.91406 C22.8099,-5.3151 22.2656,-5.51563 21.5781,-5.51563 C21.224,-5.51563 20.8932,-5.45833 20.5859,-5.34375 C20.2786,-5.22917 19.9688,-5.03646 19.6563,-4.76563 L18.375,-4.76563 L18.7188,-10.3125 L24.5781,-10.3125 L24.5781,-9.20313 L19.9219,-9.20313 L19.7188,-5.92188 C20.2917,-6.35938 21,-6.57813 21.8438,-6.57813 C22.8646,-6.57813 23.6771,-6.28125 24.2813,-5.6875 C24.8854,-5.09375 25.1875,-4.31771 25.1875,-3.35938 "/>
</g>

<g fill="#d9d9d9" fill-opacity="1" stroke="none" transform="matrix(0.757895,0,0,0.757895,210.137,376.526)"
font-family="Sans Serif" font-size="9" font-weight="400" font-style="normal" 
>
<path vector-effect="none" fill-rule="evenodd" d="M7.75,-5.15625 C7.75,-3.4375 7.44792,-2.125 6.84375,-1.21875 C6.23958,-0.3125 5.34375,0.140625 4.15625,0.140625 C2.96875,0.140625 2.07813,-0.309896 1.48438,-1.21094 C0.890625,-2.11198 0.59375,-3.42708 0.59375,-5.15625 C0.59375,-6.9375 0.882813,-8.26823 1.46094,-9.14844 C2.03906,-10.0286 2.95313,-10.4688 4.20313,-10.4688 C5.41146,-10.4688 6.30469,-10.0234 6.88281,-9.13281 C7.46094,-8.24219 7.75,-6.91667 7.75,-5.15625 M6.42188,-5.15625 C6.42188,-6.64583 6.25,-7.72656 5.90625,-8.39844 C5.5625,-9.07031 4.99479,-9.40625 4.20313,-9.40625 C3.39063,-9.40625 2.80729,-9.07552 2.45313,-8.41406 C2.09896,-7.7526 1.92188,-6.66667 1.92188,-5.15625 C1.92188,-3.69792 2.10156,-2.63021 2.46094,-1.95313 C2.82031,-1.27604 3.39063,-0.9375 4.17188,-0.9375 C4.94271,-0.9375 5.51042,-1.28385 5.875,-1.97656 C6.23958,-2.66927 6.42188,-3.72917 6.42188,-5.15625 "/>
</g>

<g fill="#d9d9d9" fill-opacity="1" stroke="none" transform="matrix(0.757895,0,0,0.757895,279.576,376.526)"
font-family="Sans Serif" font-size="9" font-weight="400" font-style="normal" 
>
<path vector-effect="none" fill-rule="evenodd" d="M7.75,-5.15625 C7.75,-3.4375 7.44792,-2.125 6.84375,-1.21875 C6.23958,-0.3125 5.34375,0.140625 4.15625,0.140625 C2.96875,0.140625 2.07813,-0.309896 1.48438,-1.21094 C0.890625,-2.11198 0.59375,-3.42708 0.59375,-5.15625 C0.59375,-6.9375 0.882813,-8.26823 1.46094,-9.14844 C2.03906,-10.0286 2.95313,-10.4688 4.20313,-10.4688 C5.41146,-10.4688 6.30469,-10.0234 6.88281,-9.13281 C7.46094,-8.24219 7.75,-6.91667 7.75,-5.15625 M6.42188,-5.15625 C6.42188,-6.64583 6.25,-7.72656 5.90625,-8.39844 C5.5625,-9.07031 4.99479,-9.40625 4.20313,-9.40625 C3.39063,-9.40625 2.80729,-9.07552 2.45313,-8.41406 C2.09896,-7.7526 1.92188,-6.66667 1.92188,-5.15625 C1.92188,-3.69792 2.10156,-2.63021 2.46094,-1.95313 C2.82031,-1.27604 3.39063,-0.9375 4.17188,-0.9375 C4.94271,-0.9375 5.51042,-1.28385 5.875,-1.97656 C6.23958,-2.66927 6.42188,-3.72917 6.42188,-5.15625 M9.70313,0 L9.70313,-1.60938 L11.125,-1.60938 L11.125,0 L9.70313,0 M20.2031,-3.35938 C20.2031,-2.27604 19.8776,-1.42188 19.2266,-0.796875 C18.5755,-0.171875 17.6771,0.140625 16.5313,0.140625 C15.5729,0.140625 14.7969,-0.0677083 14.2031,-0.484375 C13.6094,-0.901042 13.2344,-1.51042 13.0781,-2.3125 L14.4219,-2.46875 C14.6927,-1.44792 15.4063,-0.9375 16.5625,-0.9375 C17.2708,-0.9375 17.8255,-1.15104 18.2266,-1.57813 C18.6276,-2.00521 18.8281,-2.58854 18.8281,-3.32813 C18.8281,-3.98438 18.6276,-4.51302 18.2266,-4.91406 C17.8255,-5.3151 17.2813,-5.51563 16.5938,-5.51563 C16.2396,-5.51563 15.9089,-5.45833 15.6016,-5.34375 C15.2943,-5.22917 14.9844,-5.03646 14.6719,-4.76563 L13.3906,-4.76563 L13.7344,-10.3125 L19.5938,-10.3125 L19.5938,-9.20313 L14.9375,-9.20313 L14.7344,-5.92188 C15.3073,-6.35938 16.0156,-6.57813 16.8594,-6.57813 C17.8802,-6.57813 18.6927,-6.28125 19.2969,-5.6875 C19.901,-5.09375 20.2031,-4.31771 20.2031,-3.35938 "/>
</g>

<g fill="#d9d9d9" fill-opacity="1" stroke="none" transform="matrix(0.757895,0,0,0.757895,358.868,376.526)"
font-family="Sans Serif" font-size="9" font-weight="400" font-style="normal" 
>
<path vector-effect="none" fill-rule="evenodd" d="M1.14063,0 L1.14063,-1.125 L3.76563,-1.125 L3.76563,-9.0625 L1.4375,-7.39063 L1.4375,-8.64063 L3.875,-10.3125 L5.09375,-10.3125 L5.09375,-1.125 L7.60938,-1.125 L7.60938,0 L1.14063,0"/>
</g>

<g fill="#d9d9d9" fill-opacity="1" stroke="none" transform="matrix(0,-0.757895,0.757895,0,6.82105,194.4)"
font-family="Sans Serif" font-size="9" font-weight="400" font-style="normal" 
>
<path vector-effect="none" fill-rule="evenodd" d="M0.671875,-6.40625 L0.671875,-7.25 L1.54688,-7.25 L1.54688,-6.40625 L0.671875,-6.40625 M0.671875,0 L0.671875,-5.28125 L1.54688,-5.28125 L1.54688,0 L0.671875,0 M5.96875,0 L5.96875,-3.34375 C5.96875,-3.85417 5.89844,-4.20833 5.75781,-4.40625 C5.61719,-4.60417 5.36458,-4.70313 5,-4.70313 C4.625,-4.70313 4.32813,-4.5599 4.10938,-4.27344 C3.89063,-3.98698 3.78125,-3.58333 3.78125,-3.0625 L3.78125,0 L2.90625,0 L2.90625,-4.15625 C2.90625,-4.77083 2.90104,-5.14583 2.89063,-5.28125 L3.71875,-5.28125 C3.71875,-5.27083 3.72135,-5.22917 3.72656,-5.15625 C3.73177,-5.08333 3.73698,-5 3.74219,-4.90625 C3.7474,-4.8125 3.75,-4.63542 3.75,-4.375 L3.76563,-4.375 C3.95313,-4.75 4.16927,-5.01042 4.41406,-5.15625 C4.65885,-5.30208 4.95833,-5.375 5.3125,-5.375 C5.70833,-5.375 6.02344,-5.29688 6.25781,-5.14063 C6.49219,-4.98438 6.65625,-4.72917 6.75,-4.375 L6.76563,-4.375 C6.94271,-4.72917 7.16146,-4.98438 7.42188,-5.14063 C7.68229,-5.29688 7.99479,-5.375 8.35938,-5.375 C8.89063,-5.375 9.27865,-5.23177 9.52344,-4.94531 C9.76823,-4.65885 9.89063,-4.18229 9.89063,-3.51563 L9.89063,0 L9.01563,0 L9.01563,-3.34375 C9.01563,-3.85417 8.94531,-4.20833 8.80469,-4.40625 C8.66406,-4.60417 8.41146,-4.70313 8.04688,-4.70313 C7.67188,-4.70313 7.3776,-4.5599 7.16406,-4.27344 C6.95052,-3.98698 6.84375,-3.58333 6.84375,-3.0625 L6.84375,0 L5.96875,0 M12.5625,0.09375 C12.0313,0.09375 11.6328,-0.046875 11.3672,-0.328125 C11.1016,-0.609375 10.9688,-0.989583 10.9688,-1.46875 C10.9688,-2.02083 11.1484,-2.44271 11.5078,-2.73438 C11.8672,-3.02604 12.4479,-3.18229 13.25,-3.20313 L14.4375,-3.21875 L14.4375,-3.51563 C14.4375,-3.94271 14.3464,-4.25 14.1641,-4.4375 C13.9818,-4.625 13.6979,-4.71875 13.3125,-4.71875 C12.9167,-4.71875 12.6276,-4.65104 12.4453,-4.51563 C12.263,-4.38021 12.1563,-4.16667 12.125,-3.875 L11.2031,-3.95313 C11.3594,-4.90104 12.0677,-5.375 13.3281,-5.375 C13.9948,-5.375 14.4948,-5.22396 14.8281,-4.92188 C15.1615,-4.61979 15.3281,-4.18229 15.3281,-3.60938 L15.3281,-1.32813 C15.3281,-1.06771 15.362,-0.872396 15.4297,-0.742188 C15.4974,-0.611979 15.6302,-0.546875 15.8281,-0.546875 C15.9115,-0.546875 16.0052,-0.557292 16.1094,-0.578125 L16.1094,-0.03125 C15.8906,0.0208333 15.6667,0.046875 15.4375,0.046875 C15.1042,0.046875 14.8646,-0.0390625 14.7188,-0.210938 C14.5729,-0.382813 14.4896,-0.651042 14.4688,-1.01563 L14.4375,-1.01563 C14.2188,-0.609375 13.9583,-0.322917 13.6563,-0.15625 C13.3542,0.0104167 12.9896,0.09375 12.5625,0.09375 M12.7656,-0.5625 C13.0885,-0.5625 13.375,-0.635417 13.625,-0.78125 C13.875,-0.927083 14.0729,-1.1276 14.2188,-1.38281 C14.3646,-1.63802 14.4375,-1.90104 14.4375,-2.17188 L14.4375,-2.60938 L13.4844,-2.59375 C13.0677,-2.58333 12.7526,-2.53906 12.5391,-2.46094 C12.3255,-2.38281 12.1615,-2.26302 12.0469,-2.10156 C11.9323,-1.9401 11.875,-1.72396 11.875,-1.45313 C11.875,-1.17188 11.9531,-0.953125 12.1094,-0.796875 C12.2656,-0.640625 12.4844,-0.5625 12.7656,-0.5625 M18.7656,2.07813 C18.1927,2.07813 17.7344,1.96354 17.3906,1.73438 C17.0469,1.50521 16.8281,1.18229 16.7344,0.765625 L17.625,0.640625 C17.6771,0.890625 17.8047,1.08073 18.0078,1.21094 C18.2109,1.34115 18.474,1.40625 18.7969,1.40625 C19.6719,1.40625 20.1094,0.895833 20.1094,-0.125 L20.1094,-0.984375 L20.0938,-0.984375 C19.9271,-0.640625 19.7005,-0.382813 19.4141,-0.210938 C19.1276,-0.0390625 18.7917,0.046875 18.4063,0.046875 C17.75,0.046875 17.2708,-0.169271 16.9688,-0.601563 C16.6667,-1.03385 16.5156,-1.70833 16.5156,-2.625 C16.5156,-3.5625 16.6797,-4.2526 17.0078,-4.69531 C17.3359,-5.13802 17.8333,-5.35938 18.5,-5.35938 C18.875,-5.35938 19.2005,-5.27604 19.4766,-5.10938 C19.7526,-4.94271 19.9635,-4.69792 20.1094,-4.375 L20.125,-4.375 C20.125,-4.47917 20.1302,-4.65104 20.1406,-4.89063 C20.151,-5.13021 20.1615,-5.26042 20.1719,-5.28125 L21.0156,-5.28125 C20.9948,-5.10417 20.9844,-4.73958 20.9844,-4.1875 L20.9844,-0.15625 C20.9844,1.33333 20.2448,2.07813 18.7656,2.07813 M20.1094,-2.64063 C20.1094,-3.06771 20.0495,-3.4375 19.9297,-3.75 C19.8099,-4.0625 19.6432,-4.30208 19.4297,-4.46875 C19.2161,-4.63542 18.9792,-4.71875 18.7188,-4.71875 C18.2604,-4.71875 17.9297,-4.55469 17.7266,-4.22656 C17.5234,-3.89844 17.4219,-3.36979 17.4219,-2.64063 C17.4219,-1.92188 17.5182,-1.40365 17.7109,-1.08594 C17.9036,-0.768229 18.2344,-0.609375 18.7031,-0.609375 C18.974,-0.609375 19.2161,-0.690104 19.4297,-0.851563 C19.6432,-1.01302 19.8099,-1.2474 19.9297,-1.55469 C20.0495,-1.86198 20.1094,-2.22396 20.1094,-2.64063 "/>
</g>

<g fill="#d9d9d9" fill-opacity="1" stroke="#d9d9d9" stroke-opacity="1" stroke-width="0.659722" stroke-linecap="square" stroke-linejoin="round" transform="matrix(0.757895,0,0,0.757895,-21.4,-32.5895)"
font-family="Sans Serif" font-size="9" font-weight="400" font-style="normal" 
>
<polyline fill="none" vector-effect="none" points="78,520 78,57 " />
<polyline fill="none" vector-effect="none" points="78,484.743 82.63,484.743 " />
<polyline fill="none" vector-effect="none" points="78,445.494 82.63,445.494 " />
<polyline fill="none" vector-effect="none" points="78,406.246 82.63,406.246 " />
<polyline fill="none" vector-effect="none" points="78,366.997 82.63,366.997 " />
<polyline fill="none" vector-effect="none" points="78,327.749 82.63,327.749 " />
<polyline fill="none" vector-effect="none" points="78,288.5 82.63,288.5 " />
<polyline fill="none" vector-effect="none" points="78,249.251 82.63,249.251 " />
<polyline fill="none" vector-effect="none" points="78,210.003 82.63,210.003 " />
<polyline fill="none" vector-effect="none" points="78,170.754 82.63,170.754 " />
<polyline fill="none" vector-effect="none" points="78,131.506 82.63,131.506 " />
<polyline fill="none" vector-effect="none" points="78,92.2571 82.63,92.2571 " />
</g>

<g fill="#d9d9d9" fill-opacity="1" stroke="none" transform="matrix(0.757895,0,0,0.757895,23.4631,338.584)"
font-family="Sans Serif" font-size="9" font-weight="400" font-style="normal" 
>
<path vector-effect="none" fill-rule="evenodd" d="M0.671875,-3.40625 L0.671875,-4.57813 L4.32813,-4.57813 L4.32813,-3.40625 L0.671875,-3.40625 M6.125,0 L6.125,-1.125 L8.75,-1.125 L8.75,-9.0625 L6.42188,-7.39063 L6.42188,-8.64063 L8.85938,-10.3125 L10.0781,-10.3125 L10.0781,-1.125 L12.5938,-1.125 L12.5938,0 L6.125,0"/>
</g>

<g fill="#d9d9d9" fill-opacity="1" stroke="none" transform="matrix(0.757895,0,0,0.757895,13.6105,308.838)"
font-family="Sans Serif" font-size="9" font-weight="400" font-style="normal" 
>
<path vector-effect="none" fill-rule="evenodd" d="M0.671875,-3.40625 L0.671875,-4.57813 L4.32813,-4.57813 L4.32813,-3.40625 L0.671875,-3.40625 M12.7344,-5.15625 C12.7344,-3.4375 12.4323,-2.125 11.8281,-1.21875 C11.224,-0.3125 10.3281,0.140625 9.14063,0.140625 C7.95313,0.140625 7.0625,-0.309896 6.46875,-1.21094 C5.875,-2.11198 5.57813,-3.42708 5.57813,-5.15625 C5.57813,-6.9375 5.86719,-8.26823 6.44531,-9.14844 C7.02344,-10.0286 7.9375,-10.4688 9.1875,-10.4688 C10.3958,-10.4688 11.2891,-10.0234 11.8672,-9.13281 C12.4453,-8.24219 12.7344,-6.91667 12.7344,-5.15625 M11.4063,-5.15625 C11.4063,-6.64583 11.2344,-7.72656 10.8906,-8.39844 C10.5469,-9.07031 9.97917,-9.40625 9.1875,-9.40625 C8.375,-9.40625 7.79167,-9.07552 7.4375,-8.41406 C7.08333,-7.7526 6.90625,-6.66667 6.90625,-5.15625 C6.90625,-3.69792 7.08594,-2.63021 7.44531,-1.95313 C7.80469,-1.27604 8.375,-0.9375 9.15625,-0.9375 C9.92708,-0.9375 10.4948,-1.28385 10.8594,-1.97656 C11.224,-2.66927 11.4063,-3.72917 11.4063,-5.15625 M14.6875,0 L14.6875,-1.60938 L16.1094,-1.60938 L16.1094,0 L14.6875,0 M25.1563,-2.875 C25.1563,-1.92708 24.8542,-1.1875 24.25,-0.65625 C23.6458,-0.125 22.776,0.140625 21.6406,0.140625 C20.5365,0.140625 19.6745,-0.119792 19.0547,-0.640625 C18.4349,-1.16146 18.125,-1.90104 18.125,-2.85938 C18.125,-3.53646 18.3177,-4.10417 18.7031,-4.5625 C19.0885,-5.02083 19.5781,-5.29688 20.1719,-5.39063 L20.1719,-5.42188 C19.6198,-5.55729 19.1797,-5.84375 18.8516,-6.28125 C18.5234,-6.71875 18.3594,-7.23438 18.3594,-7.82813 C18.3594,-8.61979 18.6536,-9.25781 19.2422,-9.74219 C19.8307,-10.2266 20.6198,-10.4688 21.6094,-10.4688 C22.6302,-10.4688 23.4349,-10.2292 24.0234,-9.75 C24.612,-9.27083 24.9063,-8.625 24.9063,-7.8125 C24.9063,-7.21875 24.7422,-6.70313 24.4141,-6.26563 C24.0859,-5.82813 23.6406,-5.55208 23.0781,-5.4375 L23.0781,-5.40625 C23.7344,-5.30208 24.2448,-5.02344 24.6094,-4.57031 C24.974,-4.11719 25.1563,-3.55208 25.1563,-2.875 M23.5313,-7.73438 C23.5313,-8.91146 22.8906,-9.5 21.6094,-9.5 C20.9948,-9.5 20.5234,-9.35156 20.1953,-9.05469 C19.8672,-8.75781 19.7031,-8.31771 19.7031,-7.73438 C19.7031,-7.15104 19.8724,-6.70313 20.2109,-6.39063 C20.5495,-6.07813 21.0208,-5.92188 21.625,-5.92188 C22.25,-5.92188 22.724,-6.0651 23.0469,-6.35156 C23.3698,-6.63802 23.5313,-7.09896 23.5313,-7.73438 M23.7969,-3 C23.7969,-3.64583 23.6042,-4.13021 23.2188,-4.45313 C22.8333,-4.77604 22.2969,-4.9375 21.6094,-4.9375 C20.9427,-4.9375 20.4219,-4.76302 20.0469,-4.41406 C19.6719,-4.0651 19.4844,-3.58333 19.4844,-2.96875 C19.4844,-1.55208 20.2083,-0.84375 21.6563,-0.84375 C22.375,-0.84375 22.9115,-1.01563 23.2656,-1.35938 C23.6198,-1.70313 23.7969,-2.25 23.7969,-3 "/>
</g>

<g fill="#d9d9d9" fill-opacity="1" stroke="none" transform="matrix(0.757895,0,0,0.757895,13.6105,279.092)"
font-family="Sans Serif" font-size="9" font-weight="400" font-style="normal" 
>
<path vector-effect="none" fill-rule="evenodd" d="M0.671875,-3.40625 L0.671875,-4.57813 L4.32813,-4.57813 L4.32813,-3.40625 L0.671875,-3.40625 M12.7344,-5.15625 C12.7344,-3.4375 12.4323,-2.125 11.8281,-1.21875 C11.224,-0.3125 10.3281,0.140625 9.14063,0.140625 C7.95313,0.140625 7.0625,-0.309896 6.46875,-1.21094 C5.875,-2.11198 5.57813,-3.42708 5.57813,-5.15625 C5.57813,-6.9375 5.86719,-8.26823 6.44531,-9.14844 C7.02344,-10.0286 7.9375,-10.4688 9.1875,-10.4688 C10.3958,-10.4688 11.2891,-10.0234 11.8672,-9.13281 C12.4453,-8.24219 12.7344,-6.91667 12.7344,-5.15625 M11.4063,-5.15625 C11.4063,-6.64583 11.2344,-7.72656 10.8906,-8.39844 C10.5469,-9.07031 9.97917,-9.40625 9.1875,-9.40625 C8.375,-9.40625 7.79167,-9.07552 7.4375,-8.41406 C7.08333,-7.7526 6.90625,-6.66667 6.90625,-5.15625 C6.90625,-3.69792 7.08594,-2.63021 7.44531,-1.95313 C7.80469,-1.27604 8.375,-0.9375 9.15625,-0.9375 C9.92708,-0.9375 10.4948,-1.28385 10.8594,-1.97656 C11.224,-2.66927 11.4063,-3.72917 11.4063,-5.15625 M14.6875,0 L14.6875,-1.60938 L16.1094,-1.60938 L16.1094,0 L14.6875,0 M25.1563,-3.375 C25.1563,-2.29167 24.8594,-1.4349 24.2656,-0.804688 C23.6719,-0.174479 22.8542,0.140625 21.8125,0.140625 C20.6563,0.140625 19.7708,-0.291667 19.1563,-1.15625 C18.5417,-2.02083 18.2344,-3.27604 18.2344,-4.92188 C18.2344,-6.71354 18.5547,-8.08594 19.1953,-9.03906 C19.8359,-9.99219 20.7448,-10.4688 21.9219,-10.4688 C23.4844,-10.4688 24.4635,-9.77083 24.8594,-8.375 L23.6094,-8.14063 C23.349,-8.98438 22.7813,-9.40625 21.9063,-9.40625 C21.1563,-9.40625 20.5755,-9.05469 20.1641,-8.35156 C19.7526,-7.64844 19.5469,-6.63542 19.5469,-5.3125 C19.7865,-5.76042 20.1224,-6.09896 20.5547,-6.32813 C20.987,-6.55729 21.4844,-6.67188 22.0469,-6.67188 C22.9948,-6.67188 23.75,-6.375 24.3125,-5.78125 C24.875,-5.1875 25.1563,-4.38542 25.1563,-3.375 M23.8125,-3.3125 C23.8125,-4.0625 23.6302,-4.64063 23.2656,-5.04688 C22.901,-5.45313 22.3906,-5.65625 21.7344,-5.65625 C21.1198,-5.65625 20.6224,-5.47656 20.2422,-5.11719 C19.862,-4.75781 19.6719,-4.26563 19.6719,-3.64063 C19.6719,-2.83854 19.8698,-2.1849 20.2656,-1.67969 C20.6615,-1.17448 21.1667,-0.921875 21.7813,-0.921875 C22.4167,-0.921875 22.9141,-1.13542 23.2734,-1.5625 C23.6328,-1.98958 23.8125,-2.57292 23.8125,-3.3125 "/>
</g>

<g fill="#d9d9d9" fill-opacity="1" stroke="none" transform="matrix(0.757895,0,0,0.757895,13.6105,249.345)"
font-family="Sans Serif" font-size="9" font-weight="400" font-style="normal" 
>
<path vector-effect="none" fill-rule="evenodd" d="M0.671875,-3.40625 L0.671875,-4.57813 L4.32813,-4.57813 L4.32813,-3.40625 L0.671875,-3.40625 M12.7344,-5.15625 C12.7344,-3.4375 12.4323,-2.125 11.8281,-1.21875 C11.224,-0.3125 10.3281,0.140625 9.14063,0.140625 C7.95313,0.140625 7.0625,-0.309896 6.46875,-1.21094 C5.875,-2.11198 5.57813,-3.42708 5.57813,-5.15625 C5.57813,-6.9375 5.86719,-8.26823 6.44531,-9.14844 C7.02344,-10.0286 7.9375,-10.4688 9.1875,-10.4688 C10.3958,-10.4688 11.2891,-10.0234 11.8672,-9.13281 C12.4453,-8.24219 12.7344,-6.91667 12.7344,-5.15625 M11.4063,-5.15625 C11.4063,-6.64583 11.2344,-7.72656 10.8906,-8.39844 C10.5469,-9.07031 9.97917,-9.40625 9.1875,-9.40625 C8.375,-9.40625 7.79167,-9.07552 7.4375,-8.41406 C7.08333,-7.7526 6.90625,-6.66667 6.90625,-5.15625 C6.90625,-3.69792 7.08594,-2.63021 7.44531,-1.95313 C7.80469,-1.27604 8.375,-0.9375 9.15625,-0.9375 C9.92708,-0.9375 10.4948,-1.28385 10.8594,-1.97656 C11.224,-2.66927 11.4063,-3.72917 11.4063,-5.15625 M14.6875,0 L14.6875,-1.60938 L16.1094,-1.60938 L16.1094,0 L14.6875,0 M23.9219,-2.34375 L23.9219,0 L22.6719,0 L22.6719,-2.34375 L17.8125,-2.34375 L17.8125,-3.35938 L22.5313,-10.3125 L23.9219,-10.3125 L23.9219,-3.375 L25.375,-3.375 L25.375,-2.34375 L23.9219,-2.34375 M22.6719,-8.82813 C22.6615,-8.80729 22.5938,-8.67969 22.4688,-8.44531 C22.3438,-8.21094 22.25,-8.05208 22.1875,-7.96875 L19.5469,-4.0625 L19.1406,-3.51563 L19.0313,-3.375 L22.6719,-3.375 L22.6719,-8.82813"/>
</g>

<g fill="#d9d9d9" fill-opacity="1" stroke="none" transform="matrix(0.757895,0,0,0.757895,13.6105,219.599)"
font-family="Sans Serif" font-size="9" font-weight="400" font-style="normal" 
>
<path vector-effect="none" fill-rule="evenodd" d="M0.671875,-3.40625 L0.671875,-4.57813 L4.32813,-4.57813 L4.32813,-3.40625 L0.671875,-3.40625 M12.7344,-5.15625 C12.7344,-3.4375 12.4323,-2.125 11.8281,-1.21875 C11.224,-0.3125 10.3281,0.140625 9.14063,0.140625 C7.95313,0.140625 7.0625,-0.309896 6.46875,-1.21094 C5.875,-2.11198 5.57813,-3.42708 5.57813,-5.15625 C5.57813,-6.9375 5.86719,-8.26823 6.44531,-9.14844 C7.02344,-10.0286 7.9375,-10.4688 9.1875,-10.4688 C10.3958,-10.4688 11.2891,-10.0234 11.8672,-9.13281 C12.4453,-8.24219 12.7344,-6.91667 12.7344,-5.15625 M11.4063,-5.15625 C11.4063,-6.64583 11.2344,-7.72656 10.8906,-8.39844 C10.5469,-9.07031 9.97917,-9.40625 9.1875,-9.40625 C8.375,-9.40625 7.79167,-9.07552 7.4375,-8.41406 C7.08333,-7.7526 6.90625,-6.66667 6.90625,-5.15625 C6.90625,-3.69792 7.08594,-2.63021 7.44531,-1.95313 C7.80469,-1.27604 8.375,-0.9375 9.15625,-0.9375 C9.92708,-0.9375 10.4948,-1.28385 10.8594,-1.97656 C11.224,-2.66927 11.4063,-3.72917 11.4063,-5.15625 M14.6875,0 L14.6875,-1.60938 L16.1094,-1.60938 L16.1094,0 L14.6875,0 M18.2188,0 L18.2188,-0.9375 C18.4688,-1.5 18.7734,-2 19.1328,-2.4375 C19.4922,-2.875 19.8698,-3.27083 20.2656,-3.625 C20.6615,-3.97917 21.0547,-4.30729 21.4453,-4.60938 C21.8359,-4.91146 22.1875,-5.21615 22.5,-5.52344 C22.8125,-5.83073 23.0651,-6.14844 23.2578,-6.47656 C23.4505,-6.80469 23.5469,-7.18229 23.5469,-7.60938 C23.5469,-8.17188 23.3802,-8.60938 23.0469,-8.92188 C22.7135,-9.23438 22.25,-9.39063 21.6563,-9.39063 C21.0938,-9.39063 20.6302,-9.23698 20.2656,-8.92969 C19.901,-8.6224 19.6875,-8.19271 19.625,-7.64063 L18.2813,-7.76563 C18.375,-8.59896 18.724,-9.25781 19.3281,-9.74219 C19.9323,-10.2266 20.7083,-10.4688 21.6563,-10.4688 C22.6979,-10.4688 23.4974,-10.224 24.0547,-9.73438 C24.612,-9.24479 24.8906,-8.54688 24.8906,-7.64063 C24.8906,-7.24479 24.7995,-6.84896 24.6172,-6.45313 C24.4349,-6.05729 24.1641,-5.66146 23.8047,-5.26563 C23.4453,-4.86979 22.7552,-4.25521 21.7344,-3.42188 C21.1719,-2.96354 20.724,-2.55208 20.3906,-2.1875 C20.0573,-1.82292 19.8177,-1.46875 19.6719,-1.125 L25.0625,-1.125 L25.0625,0 L18.2188,0"/>
</g>

<g fill="#d9d9d9" fill-opacity="1" stroke="none" transform="matrix(0.757895,0,0,0.757895,27.2526,189.853)"
font-family="Sans Serif" font-size="9" font-weight="400" font-style="normal" 
>
<path vector-effect="none" fill-rule="evenodd" d="M7.75,-5.15625 C7.75,-3.4375 7.44792,-2.125 6.84375,-1.21875 C6.23958,-0.3125 5.34375,0.140625 4.15625,0.140625 C2.96875,0.140625 2.07813,-0.309896 1.48438,-1.21094 C0.890625,-2.11198 0.59375,-3.42708 0.59375,-5.15625 C0.59375,-6.9375 0.882813,-8.26823 1.46094,-9.14844 C2.03906,-10.0286 2.95313,-10.4688 4.20313,-10.4688 C5.41146,-10.4688 6.30469,-10.0234 6.88281,-9.13281 C7.46094,-8.24219 7.75,-6.91667 7.75,-5.15625 M6.42188,-5.15625 C6.42188,-6.64583 6.25,-7.72656 5.90625,-8.39844 C5.5625,-9.07031 4.99479,-9.40625 4.20313,-9.40625 C3.39063,-9.40625 2.80729,-9.07552 2.45313,-8.41406 C2.09896,-7.7526 1.92188,-6.66667 1.92188,-5.15625 C1.92188,-3.69792 2.10156,-2.63021 2.46094,-1.95313 C2.82031,-1.27604 3.39063,-0.9375 4.17188,-0.9375 C4.94271,-0.9375 5.51042,-1.28385 5.875,-1.97656 C6.23958,-2.66927 6.42188,-3.72917 6.42188,-5.15625 "/>
</g>

<g fill="#d9d9d9" fill-opacity="1" stroke="none" transform="matrix(0.757895,0,0,0.757895,17.4,160.106)"
font-family="Sans Serif" font-size="9" font-weight="400" font-style="normal" 
>
<path vector-effect="none" fill-rule="evenodd" d="M7.75,-5.15625 C7.75,-3.4375 7.44792,-2.125 6.84375,-1.21875 C6.23958,-0.3125 5.34375,0.140625 4.15625,0.140625 C2.96875,0.140625 2.07813,-0.309896 1.48438,-1.21094 C0.890625,-2.11198 0.59375,-3.42708 0.59375,-5.15625 C0.59375,-6.9375 0.882813,-8.26823 1.46094,-9.14844 C2.03906,-10.0286 2.95313,-10.4688 4.20313,-10.4688 C5.41146,-10.4688 6.30469,-10.0234 6.88281,-9.13281 C7.46094,-8.24219 7.75,-6.91667 7.75,-5.15625 M6.42188,-5.15625 C6.42188,-6.64583 6.25,-7.72656 5.90625,-8.39844 C5.5625,-9.07031 4.99479,-9.40625 4.20313,-9.40625 C3.39063,-9.40625 2.80729,-9.07552 2.45313,-8.41406 C2.09896,-7.7526 1.92188,-6.66667 1.92188,-5.15625 C1.92188,-3.69792 2.10156,-2.63021 2.46094,-1.95313 C2.82031,-1.27604 3.39063,-0.9375 4.17188,-0.9375 C4.94271,-0.9375 5.51042,-1.28385 5.875,-1.97656 C6.23958,-2.66927 6.42188,-3.72917 6.42188,-5.15625 M9.70313,0 L9.70313,-1.60938 L11.125,-1.60938 L11.125,0 L9.70313,0 M13.2344,0 L13.2344,-0.9375 C13.4844,-1.5 13.7891,-2 14.1484,-2.4375 C14.5078,-2.875 14.8854,-3.27083 15.2813,-3.625 C15.6771,-3.97917 16.0703,-4.30729 16.4609,-4.60938 C16.8516,-4.91146 17.2031,-5.21615 17.5156,-5.52344 C17.8281,-5.83073 18.0807,-6.14844 18.2734,-6.47656 C18.4661,-6.80469 18.5625,-7.18229 18.5625,-7.60938 C18.5625,-8.17188 18.3958,-8.60938 18.0625,-8.92188 C17.7292,-9.23438 17.2656,-9.39063 16.6719,-9.39063 C16.1094,-9.39063 15.6458,-9.23698 15.2813,-8.92969 C14.9167,-8.6224 14.7031,-8.19271 14.6406,-7.64063 L13.2969,-7.76563 C13.3906,-8.59896 13.7396,-9.25781 14.3438,-9.74219 C14.9479,-10.2266 15.724,-10.4688 16.6719,-10.4688 C17.7135,-10.4688 18.513,-10.224 19.0703,-9.73438 C19.6276,-9.24479 19.9063,-8.54688 19.9063,-7.64063 C19.9063,-7.24479 19.8151,-6.84896 19.6328,-6.45313 C19.4505,-6.05729 19.1797,-5.66146 18.8203,-5.26563 C18.4609,-4.86979 17.7708,-4.25521 16.75,-3.42188 C16.1875,-2.96354 15.7396,-2.55208 15.4063,-2.1875 C15.0729,-1.82292 14.8333,-1.46875 14.6875,-1.125 L20.0781,-1.125 L20.0781,0 L13.2344,0"/>
</g>

<g fill="#d9d9d9" fill-opacity="1" stroke="none" transform="matrix(0.757895,0,0,0.757895,17.4,130.36)"
font-family="Sans Serif" font-size="9" font-weight="400" font-style="normal" 
>
<path vector-effect="none" fill-rule="evenodd" d="M7.75,-5.15625 C7.75,-3.4375 7.44792,-2.125 6.84375,-1.21875 C6.23958,-0.3125 5.34375,0.140625 4.15625,0.140625 C2.96875,0.140625 2.07813,-0.309896 1.48438,-1.21094 C0.890625,-2.11198 0.59375,-3.42708 0.59375,-5.15625 C0.59375,-6.9375 0.882813,-8.26823 1.46094,-9.14844 C2.03906,-10.0286 2.95313,-10.4688 4.20313,-10.4688 C5.41146,-10.4688 6.30469,-10.0234 6.88281,-9.13281 C7.46094,-8.24219 7.75,-6.91667 7.75,-5.15625 M6.42188,-5.15625 C6.42188,-6.64583 6.25,-7.72656 5.90625,-8.39844 C5.5625,-9.07031 4.99479,-9.40625 4.20313,-9.40625 C3.39063,-9.40625 2.80729,-9.07552 2.45313,-8.41406 C2.09896,-7.7526 1.92188,-6.66667 1.92188,-5.15625 C1.92188,-3.69792 2.10156,-2.63021 2.46094,-1.95313 C2.82031,-1.27604 3.39063,-0.9375 4.17188,-0.9375 C4.94271,-0.9375 5.51042,-1.28385 5.875,-1.97656 C6.23958,-2.66927 6.42188,-3.72917 6.42188,-5.15625 M9.70313,0 L9.70313,-1.60938 L11.125,-1.60938 L11.125,0 L9.70313,0 M18.9375,-2.34375 L18.9375,0 L17.6875,0 L17.6875,-2.34375 L12.8281,-2.34375 L12.8281,-3.35938 L17.5469,-10.3125 L18.9375,-10.3125 L18.9375,-3.375 L20.3906,-3.375 L20.3906,-2.34375 L18.9375,-2.34375 M17.6875,-8.82813 C17.6771,-8.80729 17.6094,-8.67969 17.4844,-8.44531 C17.3594,-8.21094 17.2656,-8.05208 17.2031,-7.96875 L14.5625,-4.0625 L14.1563,-3.51563 L14.0469,-3.375 L17.6875,-3.375 L17.6875,-8.82813"/>
</g>

<g fill="#d9d9d9" fill-opacity="1" stroke="none" transform="matrix(0.757895,0,0,0.757895,17.4,100.614)"
font-family="Sans Serif" font-size="9" font-weight="400" font-style="normal" 
>
<path vector-effect="none" fill-rule="evenodd" d="M7.75,-5.15625 C7.75,-3.4375 7.44792,-2.125 6.84375,-1.21875 C6.23958,-0.3125 5.34375,0.140625 4.15625,0.140625 C2.96875,0.140625 2.07813,-0.309896 1.48438,-1.21094 C0.890625,-2.11198 0.59375,-3.42708 0.59375,-5.15625 C0.59375,-6.9375 0.882813,-8.26823 1.46094,-9.14844 C2.03906,-10.0286 2.95313,-10.4688 4.20313,-10.4688 C5.41146,-10.4688 6.30469,-10.0234 6.88281,-9.13281 C7.46094,-8.24219 7.75,-6.91667 7.75,-5.15625 M6.42188,-5.15625 C6.42188,-6.64583 6.25,-7.72656 5.90625,-8.39844 C5.5625,-9.07031 4.99479,-9.40625 4.20313,-9.40625 C3.39063,-9.40625 2.80729,-9.07552 2.45313,-8.41406 C2.09896,-7.7526 1.92188,-6.66667 1.92188,-5.15625 C1.92188,-3.69792 2.10156,-2.63021 2.46094,-1.95313 C2.82031,-1.27604 3.39063,-0.9375 4.17188,-0.9375 C4.94271,-0.9375 5.51042,-1.28385 5.875,-1.97656 C6.23958,-2.66927 6.42188,-3.72917 6.42188,-5.15625 M9.70313,0 L9.70313,-1.60938 L11.125,-1.60938 L11.125,0 L9.70313,0 M20.1719,-3.375 C20.1719,-2.29167 19.875,-1.4349 19.2813,-0.804688 C18.6875,-0.174479 17.8698,0.140625 16.8281,0.140625 C15.6719,0.140625 14.7865,-0.291667 14.1719,-1.15625 C13.5573,-2.02083 13.25,-3.27604 13.25,-4.92188 C13.25,-6.71354 13.5703,-8.08594 14.2109,-9.03906 C14.8516,-9.99219 15.7604,-10.4688 16.9375,-10.4688 C18.5,-10.4688 19.4792,-9.77083 19.875,-8.375 L18.625,-8.14063 C18.3646,-8.98438 17.7969,-9.40625 16.9219,-9.40625 C16.1719,-9.40625 15.5911,-9.05469 15.1797,-8.35156 C14.7682,-7.64844 14.5625,-6.63542 14.5625,-5.3125 C14.8021,-5.76042 15.138,-6.09896 15.5703,-6.32813 C16.0026,-6.55729 16.5,-6.67188 17.0625,-6.67188 C18.0104,-6.67188 18.7656,-6.375 19.3281,-5.78125 C19.8906,-5.1875 20.1719,-4.38542 20.1719,-3.375 M18.8281,-3.3125 C18.8281,-4.0625 18.6458,-4.64063 18.2813,-5.04688 C17.9167,-5.45313 17.4063,-5.65625 16.75,-5.65625 C16.1354,-5.65625 15.638,-5.47656 15.2578,-5.11719 C14.8776,-4.75781 14.6875,-4.26563 14.6875,-3.64063 C14.6875,-2.83854 14.8854,-2.1849 15.2813,-1.67969 C15.6771,-1.17448 16.1823,-0.921875 16.7969,-0.921875 C17.4323,-0.921875 17.9297,-1.13542 18.2891,-1.5625 C18.6484,-1.98958 18.8281,-2.57292 18.8281,-3.3125 "/>
</g>

<g fill="#d9d9d9" fill-opacity="1" stroke="none" transform="matrix(0.757895,0,0,0.757895,17.4,70.8675)"
font-family="Sans Serif" font-size="9" font-weight="400" font-style="normal" 
>
<path vector-effect="none" fill-rule="evenodd" d="M7.75,-5.15625 C7.75,-3.4375 7.44792,-2.125 6.84375,-1.21875 C6.23958,-0.3125 5.34375,0.140625 4.15625,0.140625 C2.96875,0.140625 2.07813,-0.309896 1.48438,-1.21094 C0.890625,-2.11198 0.59375,-3.42708 0.59375,-5.15625 C0.59375,-6.9375 0.882813,-8.26823 1.46094,-9.14844 C2.03906,-10.0286 2.95313,-10.4688 4.20313,-10.4688 C5.41146,-10.4688 6.30469,-10.0234 6.88281,-9.13281 C7.46094,-8.24219 7.75,-6.91667 7.75,-5.15625 M6.42188,-5.15625 C6.42188,-6.64583 6.25,-7.72656 5.90625,-8.39844 C5.5625,-9.07031 4.99479,-9.40625 4.20313,-9.40625 C3.39063,-9.40625 2.80729,-9.07552 2.45313,-8.41406 C2.09896,-7.7526 1.92188,-6.66667 1.92188,-5.15625 C1.92188,-3.69792 2.10156,-2.63021 2.46094,-1.95313 C2.82031,-1.27604 3.39063,-0.9375 4.17188,-0.9375 C4.94271,-0.9375 5.51042,-1.28385 5.875,-1.97656 C6.23958,-2.66927 6.42188,-3.72917 6.42188,-5.15625 M9.70313,0 L9.70313,-1.60938 L11.125,-1.60938 L11.125,0 L9.70313,0 M20.1719,-2.875 C20.1719,-1.92708 19.8698,-1.1875 19.2656,-0.65625 C18.6615,-0.125 17.7917,0.140625 16.6563,0.140625 C15.5521,0.140625 14.6901,-0.119792 14.0703,-0.640625 C13.4505,-1.16146 13.1406,-1.90104 13.1406,-2.85938 C13.1406,-3.53646 13.3333,-4.10417 13.7188,-4.5625 C14.1042,-5.02083 14.5938,-5.29688 15.1875,-5.39063 L15.1875,-5.42188 C14.6354,-5.55729 14.1953,-5.84375 13.8672,-6.28125 C13.5391,-6.71875 13.375,-7.23438 13.375,-7.82813 C13.375,-8.61979 13.6693,-9.25781 14.2578,-9.74219 C14.8464,-10.2266 15.6354,-10.4688 16.625,-10.4688 C17.6458,-10.4688 18.4505,-10.2292 19.0391,-9.75 C19.6276,-9.27083 19.9219,-8.625 19.9219,-7.8125 C19.9219,-7.21875 19.7578,-6.70313 19.4297,-6.26563 C19.1016,-5.82813 18.6563,-5.55208 18.0938,-5.4375 L18.0938,-5.40625 C18.75,-5.30208 19.2604,-5.02344 19.625,-4.57031 C19.9896,-4.11719 20.1719,-3.55208 20.1719,-2.875 M18.5469,-7.73438 C18.5469,-8.91146 17.9063,-9.5 16.625,-9.5 C16.0104,-9.5 15.5391,-9.35156 15.2109,-9.05469 C14.8828,-8.75781 14.7188,-8.31771 14.7188,-7.73438 C14.7188,-7.15104 14.888,-6.70313 15.2266,-6.39063 C15.5651,-6.07813 16.0365,-5.92188 16.6406,-5.92188 C17.2656,-5.92188 17.7396,-6.0651 18.0625,-6.35156 C18.3854,-6.63802 18.5469,-7.09896 18.5469,-7.73438 M18.8125,-3 C18.8125,-3.64583 18.6198,-4.13021 18.2344,-4.45313 C17.849,-4.77604 17.3125,-4.9375 16.625,-4.9375 C15.9583,-4.9375 15.4375,-4.76302 15.0625,-4.41406 C14.6875,-4.0651 14.5,-3.58333 14.5,-2.96875 C14.5,-1.55208 15.224,-0.84375 16.6719,-0.84375 C17.3906,-0.84375 17.9271,-1.01563 18.2813,-1.35938 C18.6354,-1.70313 18.8125,-2.25 18.8125,-3 "/>
</g>

<g fill="#d9d9d9" fill-opacity="1" stroke="none" transform="matrix(0.757895,0,0,0.757895,27.2526,41.1212)"
font-family="Sans Serif" font-size="9" font-weight="400" font-style="normal" 
>
<path vector-effect="none" fill-rule="evenodd" d="M1.14063,0 L1.14063,-1.125 L3.76563,-1.125 L3.76563,-9.0625 L1.4375,-7.39063 L1.4375,-8.64063 L3.875,-10.3125 L5.09375,-10.3125 L5.09375,-1.125 L7.60938,-1.125 L7.60938,0 L1.14063,0"/>
</g>

<g fill="#d9d9d9" fill-opacity="1" stroke="none" transform="matrix(0.757895,0,0,0.757895,147.232,6.82105)"
font-family="Sans Serif" font-size="9" font-weight="400" font-style="normal" 
>
<path vector-effect="none" fill-rule="evenodd" d="M5.15625,-1.54688 C5.15625,-1.03646 4.94531,-0.635417 4.52344,-0.34375 C4.10156,-0.0520833 3.52083,0.09375 2.78125,0.09375 C2.0625,0.09375 1.51042,-0.0208333 1.125,-0.25 C0.739583,-0.479167 0.484375,-0.833333 0.359375,-1.3125 L1.5625,-1.5 C1.625,-1.25 1.73958,-1.07292 1.90625,-0.96875 C2.07292,-0.864583 2.36458,-0.8125 2.78125,-0.8125 C3.16667,-0.8125 3.44792,-0.861979 3.625,-0.960938 C3.80208,-1.0599 3.89063,-1.21354 3.89063,-1.42188 C3.89063,-1.58854 3.82031,-1.72135 3.67969,-1.82031 C3.53906,-1.91927 3.29688,-2.00521 2.95313,-2.07813 C2.18229,-2.22396 1.66146,-2.36458 1.39063,-2.5 C1.11979,-2.63542 0.914063,-2.80729 0.773438,-3.01563 C0.632813,-3.22396 0.5625,-3.47917 0.5625,-3.78125 C0.5625,-4.29167 0.757813,-4.6875 1.14844,-4.96875 C1.53906,-5.25 2.08854,-5.39063 2.79688,-5.39063 C3.42188,-5.39063 3.92708,-5.26823 4.3125,-5.02344 C4.69792,-4.77865 4.9375,-4.42188 5.03125,-3.95313 L3.8125,-3.82813 C3.77083,-4.04688 3.67448,-4.20833 3.52344,-4.3125 C3.3724,-4.41667 3.13021,-4.46875 2.79688,-4.46875 C2.47396,-4.46875 2.23177,-4.42708 2.07031,-4.34375 C1.90885,-4.26042 1.82813,-4.125 1.82813,-3.9375 C1.82813,-3.78125 1.89063,-3.65885 2.01563,-3.57031 C2.14063,-3.48177 2.34896,-3.40625 2.64063,-3.34375 C3.05729,-3.26042 3.42448,-3.17448 3.74219,-3.08594 C4.0599,-2.9974 4.31771,-2.89063 4.51563,-2.76563 C4.71354,-2.64063 4.86979,-2.48177 4.98438,-2.28906 C5.09896,-2.09635 5.15625,-1.84896 5.15625,-1.54688 M7.54688,-5.28125 L7.54688,-2.3125 C7.54688,-1.38542 7.85938,-0.921875 8.48438,-0.921875 C8.80729,-0.921875 9.07031,-1.0651 9.27344,-1.35156 C9.47656,-1.63802 9.57813,-2.00521 9.57813,-2.45313 L9.57813,-5.28125 L10.9531,-5.28125 L10.9531,-1.1875 C10.9531,-0.739583 10.9688,-0.34375 11,0 L9.6875,0 C9.64583,-0.46875 9.625,-0.817708 9.625,-1.04688 L9.60938,-1.04688 C9.42188,-0.651042 9.1875,-0.361979 8.90625,-0.179688 C8.625,0.00260417 8.29167,0.09375 7.90625,0.09375 C7.34375,0.09375 6.91406,-0.078125 6.61719,-0.421875 C6.32031,-0.765625 6.17188,-1.26563 6.17188,-1.92188 L6.17188,-5.28125 L7.54688,-5.28125 M17.3438,-2.65625 C17.3438,-1.79167 17.1693,-1.11719 16.8203,-0.632813 C16.4714,-0.148438 15.9688,0.09375 15.3125,0.09375 C14.9375,0.09375 14.6146,0.0130208 14.3438,-0.148438 C14.0729,-0.309896 13.8646,-0.541667 13.7188,-0.84375 L13.7031,-0.84375 C13.7031,-0.729167 13.6953,-0.572917 13.6797,-0.375 C13.6641,-0.177083 13.651,-0.0520833 13.6406,0 L12.2969,0 C12.3281,-0.302083 12.3438,-0.703125 12.3438,-1.20313 L12.3438,-7.25 L13.7188,-7.25 L13.7188,-5.21875 L13.6875,-4.35938 L13.7188,-4.35938 C14.0208,-5.03646 14.5833,-5.375 15.4063,-5.375 C16.0313,-5.375 16.5104,-5.13802 16.8438,-4.66406 C17.1771,-4.1901 17.3438,-3.52083 17.3438,-2.65625 M15.9063,-2.65625 C15.9063,-3.26042 15.8177,-3.70573 15.6406,-3.99219 C15.4635,-4.27865 15.1927,-4.42188 14.8281,-4.42188 C14.4531,-4.42188 14.1693,-4.26823 13.9766,-3.96094 C13.7839,-3.65365 13.6875,-3.20833 13.6875,-2.625 C13.6875,-2.0625 13.7839,-1.625 13.9766,-1.3125 C14.1693,-1 14.4479,-0.84375 14.8125,-0.84375 C15.5417,-0.84375 15.9063,-1.44792 15.9063,-2.65625 M18.125,-2 L18.125,-3.1875 L20.6719,-3.1875 L20.6719,-2 L18.125,-2 M26.2188,-3.4375 C26.2188,-2.28125 26.0182,-1.40365 25.6172,-0.804688 C25.2161,-0.205729 24.6198,0.09375 23.8281,0.09375 C22.2448,0.09375 21.4531,-1.08333 21.4531,-3.4375 C21.4531,-4.26042 21.5391,-4.93229 21.7109,-5.45313 C21.8828,-5.97396 22.1432,-6.35938 22.4922,-6.60938 C22.8411,-6.85938 23.2969,-6.98438 23.8594,-6.98438 C24.6719,-6.98438 25.2682,-6.6901 25.6484,-6.10156 C26.0286,-5.51302 26.2188,-4.625 26.2188,-3.4375 M24.8438,-3.4375 C24.8438,-4.07292 24.8125,-4.56771 24.75,-4.92188 C24.6875,-5.27604 24.5859,-5.52865 24.4453,-5.67969 C24.3047,-5.83073 24.1042,-5.90625 23.8438,-5.90625 C23.5729,-5.90625 23.3672,-5.82813 23.2266,-5.67188 C23.0859,-5.51563 22.9844,-5.26302 22.9219,-4.91406 C22.8594,-4.5651 22.8281,-4.07292 22.8281,-3.4375 C22.8281,-2.8125 22.8594,-2.32292 22.9219,-1.96875 C22.9844,-1.61458 23.0859,-1.36198 23.2266,-1.21094 C23.3672,-1.0599 23.5677,-0.984375 23.8281,-0.984375 C24.0885,-0.984375 24.2891,-1.0651 24.4297,-1.22656 C24.5703,-1.38802 24.6745,-1.64583 24.7422,-2 C24.8099,-2.35417 24.8438,-2.83333 24.8438,-3.4375 M26.9531,0 L26.9531,-0.953125 C27.1302,-1.34896 27.3854,-1.73438 27.7188,-2.10938 C28.0521,-2.48438 28.4688,-2.875 28.9688,-3.28125 C29.4479,-3.66667 29.7839,-3.98698 29.9766,-4.24219 C30.1693,-4.4974 30.2656,-4.74479 30.2656,-4.98438 C30.2656,-5.58854 29.9688,-5.89063 29.375,-5.89063 C29.0729,-5.89063 28.8464,-5.8125 28.6953,-5.65625 C28.5443,-5.5 28.4427,-5.26042 28.3906,-4.9375 L27.0156,-5.01563 C27.0885,-5.66146 27.3255,-6.15104 27.7266,-6.48438 C28.1276,-6.81771 28.6719,-6.98438 29.3594,-6.98438 C30.099,-6.98438 30.6667,-6.8151 31.0625,-6.47656 C31.4583,-6.13802 31.6563,-5.66146 31.6563,-5.04688 C31.6563,-4.72396 31.5938,-4.43229 31.4688,-4.17188 C31.3438,-3.91146 31.1823,-3.67188 30.9844,-3.45313 C30.7865,-3.23438 30.5651,-3.02865 30.3203,-2.83594 C30.0755,-2.64323 29.8411,-2.45573 29.6172,-2.27344 C29.3932,-2.09115 29.1875,-1.90885 29,-1.72656 C28.8125,-1.54427 28.6719,-1.34375 28.5781,-1.125 L31.7656,-1.125 L31.7656,0 L26.9531,0 M38.4844,0 L36.8438,0 L34.9688,-5.28125 L36.4063,-5.28125 L37.3281,-2.32813 C37.3802,-2.16146 37.5,-1.75521 37.6875,-1.10938 C37.7188,-1.24479 37.7839,-1.47917 37.8828,-1.8125 C37.9818,-2.14583 38.3542,-3.30208 39,-5.28125 L40.4375,-5.28125 L38.4844,0 M43.3281,0.09375 C42.5365,0.09375 41.9271,-0.140625 41.5,-0.609375 C41.0729,-1.07813 40.8594,-1.76563 40.8594,-2.67188 C40.8594,-3.53646 41.0755,-4.20313 41.5078,-4.67188 C41.9401,-5.14063 42.5521,-5.375 43.3438,-5.375 C44.1042,-5.375 44.6849,-5.125 45.0859,-4.625 C45.487,-4.125 45.6875,-3.39063 45.6875,-2.42188 L45.6875,-2.375 L42.2969,-2.375 C42.2969,-1.86458 42.3932,-1.47917 42.5859,-1.21875 C42.7786,-0.958333 43.0521,-0.828125 43.4063,-0.828125 C43.8854,-0.828125 44.1875,-1.03646 44.3125,-1.45313 L45.6094,-1.34375 C45.2344,-0.385417 44.474,0.09375 43.3281,0.09375 M43.3281,-4.51563 C43.0052,-4.51563 42.7578,-4.40365 42.5859,-4.17969 C42.4141,-3.95573 42.3229,-3.64063 42.3125,-3.23438 L44.3594,-3.23438 C44.3385,-3.66146 44.237,-3.98177 44.0547,-4.19531 C43.8724,-4.40885 43.6302,-4.51563 43.3281,-4.51563 M51.1719,-1.54688 C51.1719,-1.03646 50.9609,-0.635417 50.5391,-0.34375 C50.1172,-0.0520833 49.5365,0.09375 48.7969,0.09375 C48.0781,0.09375 47.526,-0.0208333 47.1406,-0.25 C46.7552,-0.479167 46.5,-0.833333 46.375,-1.3125 L47.5781,-1.5 C47.6406,-1.25 47.7552,-1.07292 47.9219,-0.96875 C48.0885,-0.864583 48.3802,-0.8125 48.7969,-0.8125 C49.1823,-0.8125 49.4635,-0.861979 49.6406,-0.960938 C49.8177,-1.0599 49.9063,-1.21354 49.9063,-1.42188 C49.9063,-1.58854 49.8359,-1.72135 49.6953,-1.82031 C49.5547,-1.91927 49.3125,-2.00521 48.9688,-2.07813 C48.1979,-2.22396 47.6771,-2.36458 47.4063,-2.5 C47.1354,-2.63542 46.9297,-2.80729 46.7891,-3.01563 C46.6484,-3.22396 46.5781,-3.47917 46.5781,-3.78125 C46.5781,-4.29167 46.7734,-4.6875 47.1641,-4.96875 C47.5547,-5.25 48.1042,-5.39063 48.8125,-5.39063 C49.4375,-5.39063 49.9427,-5.26823 50.3281,-5.02344 C50.7135,-4.77865 50.9531,-4.42188 51.0469,-3.95313 L49.8281,-3.82813 C49.7865,-4.04688 49.6901,-4.20833 49.5391,-4.3125 C49.388,-4.41667 49.1458,-4.46875 48.8125,-4.46875 C48.4896,-4.46875 48.2474,-4.42708 48.0859,-4.34375 C47.9245,-4.26042 47.8438,-4.125 47.8438,-3.9375 C47.8438,-3.78125 47.9063,-3.65885 48.0313,-3.57031 C48.1563,-3.48177 48.3646,-3.40625 48.6563,-3.34375 C49.0729,-3.26042 49.4401,-3.17448 49.7578,-3.08594 C50.0755,-2.9974 50.3333,-2.89063 50.5313,-2.76563 C50.7292,-2.64063 50.8854,-2.48177 51,-2.28906 C51.1146,-2.09635 51.1719,-1.84896 51.1719,-1.54688 M56.7188,-1.54688 C56.7188,-1.03646 56.5078,-0.635417 56.0859,-0.34375 C55.6641,-0.0520833 55.0833,0.09375 54.3438,0.09375 C53.625,0.09375 53.0729,-0.0208333 52.6875,-0.25 C52.3021,-0.479167 52.0469,-0.833333 51.9219,-1.3125 L53.125,-1.5 C53.1875,-1.25 53.3021,-1.07292 53.4688,-0.96875 C53.6354,-0.864583 53.9271,-0.8125 54.3438,-0.8125 C54.7292,-0.8125 55.0104,-0.861979 55.1875,-0.960938 C55.3646,-1.0599 55.4531,-1.21354 55.4531,-1.42188 C55.4531,-1.58854 55.3828,-1.72135 55.2422,-1.82031 C55.1016,-1.91927 54.8594,-2.00521 54.5156,-2.07813 C53.7448,-2.22396 53.224,-2.36458 52.9531,-2.5 C52.6823,-2.63542 52.4766,-2.80729 52.3359,-3.01563 C52.1953,-3.22396 52.125,-3.47917 52.125,-3.78125 C52.125,-4.29167 52.3203,-4.6875 52.7109,-4.96875 C53.1016,-5.25 53.651,-5.39063 54.3594,-5.39063 C54.9844,-5.39063 55.4896,-5.26823 55.875,-5.02344 C56.2604,-4.77865 56.5,-4.42188 56.5938,-3.95313 L55.375,-3.82813 C55.3333,-4.04688 55.237,-4.20833 55.0859,-4.3125 C54.9349,-4.41667 54.6927,-4.46875 54.3594,-4.46875 C54.0365,-4.46875 53.7943,-4.42708 53.6328,-4.34375 C53.4714,-4.26042 53.3906,-4.125 53.3906,-3.9375 C53.3906,-3.78125 53.4531,-3.65885 53.5781,-3.57031 C53.7031,-3.48177 53.9115,-3.40625 54.2031,-3.34375 C54.6198,-3.26042 54.987,-3.17448 55.3047,-3.08594 C55.6224,-2.9974 55.8802,-2.89063 56.0781,-2.76563 C56.276,-2.64063 56.4323,-2.48177 56.5469,-2.28906 C56.6615,-2.09635 56.7188,-1.84896 56.7188,-1.54688 M59.9688,0.09375 C59.1771,0.09375 58.5677,-0.140625 58.1406,-0.609375 C57.7135,-1.07813 57.5,-1.76563 57.5,-2.67188 C57.5,-3.53646 57.7161,-4.20313 58.1484,-4.67188 C58.5807,-5.14063 59.1927,-5.375 59.9844,-5.375 C60.7448,-5.375 61.3255,-5.125 61.7266,-4.625 C62.1276,-4.125 62.3281,-3.39063 62.3281,-2.42188 L62.3281,-2.375 L58.9375,-2.375 C58.9375,-1.86458 59.0339,-1.47917 59.2266,-1.21875 C59.4193,-0.958333 59.6927,-0.828125 60.0469,-0.828125 C60.526,-0.828125 60.8281,-1.03646 60.9531,-1.45313 L62.25,-1.34375 C61.875,-0.385417 61.1146,0.09375 59.9688,0.09375 M59.9688,-4.51563 C59.6458,-4.51563 59.3984,-4.40365 59.2266,-4.17969 C59.0547,-3.95573 58.9635,-3.64063 58.9531,-3.23438 L61,-3.23438 C60.9792,-3.66146 60.8776,-3.98177 60.6953,-4.19531 C60.513,-4.40885 60.2708,-4.51563 59.9688,-4.51563 M63.3594,0 L63.3594,-7.25 L64.7344,-7.25 L64.7344,0 L63.3594,0 M65.8125,-2 L65.8125,-3.1875 L68.3594,-3.1875 L68.3594,-2 L65.8125,-2 M73.9063,-3.4375 C73.9063,-2.28125 73.7057,-1.40365 73.3047,-0.804688 C72.9036,-0.205729 72.3073,0.09375 71.5156,0.09375 C69.9323,0.09375 69.1406,-1.08333 69.1406,-3.4375 C69.1406,-4.26042 69.2266,-4.93229 69.3984,-5.45313 C69.5703,-5.97396 69.8307,-6.35938 70.1797,-6.60938 C70.5286,-6.85938 70.9844,-6.98438 71.5469,-6.98438 C72.3594,-6.98438 72.9557,-6.6901 73.3359,-6.10156 C73.7161,-5.51302 73.9063,-4.625 73.9063,-3.4375 M72.5313,-3.4375 C72.5313,-4.07292 72.5,-4.56771 72.4375,-4.92188 C72.375,-5.27604 72.2734,-5.52865 72.1328,-5.67969 C71.9922,-5.83073 71.7917,-5.90625 71.5313,-5.90625 C71.2604,-5.90625 71.0547,-5.82813 70.9141,-5.67188 C70.7734,-5.51563 70.6719,-5.26302 70.6094,-4.91406 C70.5469,-4.5651 70.5156,-4.07292 70.5156,-3.4375 C70.5156,-2.8125 70.5469,-2.32292 70.6094,-1.96875 C70.6719,-1.61458 70.7734,-1.36198 70.9141,-1.21094 C71.0547,-1.0599 71.2552,-0.984375 71.5156,-0.984375 C71.776,-0.984375 71.9766,-1.0651 72.1172,-1.22656 C72.2578,-1.38802 72.362,-1.64583 72.4297,-2 C72.4974,-2.35417 72.5313,-2.83333 72.5313,-3.4375 M78.8906,-1.40625 L78.8906,0 L77.5781,0 L77.5781,-1.40625 L74.4531,-1.40625 L74.4531,-2.4375 L77.3594,-6.875 L78.8906,-6.875 L78.8906,-2.42188 L79.8125,-2.42188 L79.8125,-1.40625 L78.8906,-1.40625 M77.5781,-4.67188 C77.5781,-4.84896 77.5833,-5.03906 77.5938,-5.24219 C77.6042,-5.44531 77.6146,-5.57813 77.625,-5.64063 C77.5417,-5.45313 77.3854,-5.1875 77.1563,-4.84375 L75.5625,-2.42188 L77.5781,-2.42188 L77.5781,-4.67188 M82.6094,-2.1875 L82.6094,-3.17188 L92.6094,-3.17188 L92.6094,-2.1875 L82.6094,-2.1875 M98.2813,0.09375 C97.4792,0.09375 96.8594,-0.143229 96.4219,-0.617188 C95.9844,-1.09115 95.7656,-1.75521 95.7656,-2.60938 C95.7656,-3.48438 95.9844,-4.16406 96.4219,-4.64844 C96.8594,-5.13281 97.4844,-5.375 98.2969,-5.375 C98.9219,-5.375 99.4375,-5.21875 99.8438,-4.90625 C100.25,-4.59375 100.505,-4.16667 100.609,-3.625 L99.2188,-3.54688 C99.1875,-3.81771 99.0938,-4.03385 98.9375,-4.19531 C98.7813,-4.35677 98.5573,-4.4375 98.2656,-4.4375 C97.5573,-4.4375 97.2031,-3.84896 97.2031,-2.67188 C97.2031,-1.45313 97.5625,-0.84375 98.2813,-0.84375 C98.5417,-0.84375 98.7604,-0.924479 98.9375,-1.08594 C99.1146,-1.2474 99.224,-1.49479 99.2656,-1.82813 L100.641,-1.76563 C100.599,-1.40104 100.471,-1.07552 100.258,-0.789063 C100.044,-0.502604 99.7682,-0.283854 99.4297,-0.132813 C99.0911,0.0182292 98.7083,0.09375 98.2813,0.09375 M106.641,-2.64063 C106.641,-1.78646 106.404,-1.11719 105.93,-0.632813 C105.456,-0.148438 104.797,0.09375 103.953,0.09375 C103.13,0.09375 102.484,-0.151042 102.016,-0.640625 C101.547,-1.13021 101.313,-1.79688 101.313,-2.64063 C101.313,-3.49479 101.547,-4.16406 102.016,-4.64844 C102.484,-5.13281 103.141,-5.375 103.984,-5.375 C104.849,-5.375 105.508,-5.14063 105.961,-4.67188 C106.414,-4.20313 106.641,-3.52604 106.641,-2.64063 M105.203,-2.64063 C105.203,-3.27604 105.102,-3.73438 104.898,-4.01563 C104.695,-4.29688 104.396,-4.4375 104,-4.4375 C103.167,-4.4375 102.75,-3.83854 102.75,-2.64063 C102.75,-2.05729 102.852,-1.61198 103.055,-1.30469 C103.258,-0.997396 103.552,-0.84375 103.938,-0.84375 C104.781,-0.84375 105.203,-1.44271 105.203,-2.64063 M110.828,0 L110.828,-2.96875 C110.828,-3.89583 110.563,-4.35938 110.031,-4.35938 C109.75,-4.35938 109.523,-4.21615 109.352,-3.92969 C109.18,-3.64323 109.094,-3.27604 109.094,-2.82813 L109.094,0 L107.719,0 L107.719,-4.10938 C107.719,-4.39063 107.714,-4.61979 107.703,-4.79688 C107.693,-4.97396 107.682,-5.13542 107.672,-5.28125 L108.984,-5.28125 C108.995,-5.21875 109.008,-5.05469 109.023,-4.78906 C109.039,-4.52344 109.047,-4.33854 109.047,-4.23438 L109.063,-4.23438 C109.24,-4.64063 109.453,-4.9349 109.703,-5.11719 C109.953,-5.29948 110.255,-5.39063 110.609,-5.39063 C111.411,-5.39063 111.901,-5.00521 112.078,-4.23438 L112.109,-4.23438 C112.286,-4.64063 112.5,-4.9349 112.75,-5.11719 C113,-5.29948 113.318,-5.39063 113.703,-5.39063 C114.224,-5.39063 114.617,-5.21615 114.883,-4.86719 C115.148,-4.51823 115.281,-4.01563 115.281,-3.35938 L115.281,0 L113.922,0 L113.922,-2.96875 C113.922,-3.89583 113.656,-4.35938 113.125,-4.35938 C112.854,-4.35938 112.635,-4.22917 112.469,-3.96875 C112.302,-3.70833 112.208,-3.34896 112.188,-2.89063 L112.188,0 L110.828,0 M121.609,-2.67188 C121.609,-1.78646 121.432,-1.10417 121.078,-0.625 C120.724,-0.145833 120.224,0.09375 119.578,0.09375 C119.203,0.09375 118.88,0.0130208 118.609,-0.148438 C118.339,-0.309896 118.13,-0.541667 117.984,-0.84375 L117.953,-0.84375 C117.974,-0.739583 117.984,-0.442708 117.984,0.046875 L117.984,2.07813 L116.609,2.07813 L116.609,-4.0625 C116.609,-4.5625 116.594,-4.96875 116.563,-5.28125 L117.906,-5.28125 C117.917,-5.22917 117.927,-5.11458 117.938,-4.9375 C117.948,-4.76042 117.953,-4.58854 117.953,-4.42188 L117.984,-4.42188 C118.286,-5.06771 118.849,-5.39063 119.672,-5.39063 C120.286,-5.39063 120.763,-5.15365 121.102,-4.67969 C121.44,-4.20573 121.609,-3.53646 121.609,-2.67188 M120.172,-2.67188 C120.172,-3.84896 119.807,-4.4375 119.078,-4.4375 C118.714,-4.4375 118.435,-4.27865 118.242,-3.96094 C118.049,-3.64323 117.953,-3.19792 117.953,-2.625 C117.953,-2.05208 118.049,-1.61198 118.242,-1.30469 C118.435,-0.997396 118.714,-0.84375 119.078,-0.84375 C119.807,-0.84375 120.172,-1.45313 120.172,-2.67188 M122.703,0 L122.703,-7.25 L124.078,-7.25 L124.078,0 L122.703,0 M127.625,0.09375 C126.833,0.09375 126.224,-0.140625 125.797,-0.609375 C125.37,-1.07813 125.156,-1.76563 125.156,-2.67188 C125.156,-3.53646 125.372,-4.20313 125.805,-4.67188 C126.237,-5.14063 126.849,-5.375 127.641,-5.375 C128.401,-5.375 128.982,-5.125 129.383,-4.625 C129.784,-4.125 129.984,-3.39063 129.984,-2.42188 L129.984,-2.375 L126.594,-2.375 C126.594,-1.86458 126.69,-1.47917 126.883,-1.21875 C127.076,-0.958333 127.349,-0.828125 127.703,-0.828125 C128.182,-0.828125 128.484,-1.03646 128.609,-1.45313 L129.906,-1.34375 C129.531,-0.385417 128.771,0.09375 127.625,0.09375 M127.625,-4.51563 C127.302,-4.51563 127.055,-4.40365 126.883,-4.17969 C126.711,-3.95573 126.62,-3.64063 126.609,-3.23438 L128.656,-3.23438 C128.635,-3.66146 128.534,-3.98177 128.352,-4.19531 C128.169,-4.40885 127.927,-4.51563 127.625,-4.51563 M134.313,0 L133.078,-1.92188 L131.844,0 L130.375,0 L132.313,-2.73438 L130.469,-5.28125 L131.953,-5.28125 L133.078,-3.5625 L134.203,-5.28125 L135.688,-5.28125 L133.859,-2.75 L135.797,0 L134.313,0 M142.75,0 C142.74,-0.0520833 142.724,-0.177083 142.703,-0.375 C142.682,-0.572917 142.672,-0.734375 142.672,-0.859375 L142.656,-0.859375 C142.354,-0.223958 141.792,0.09375 140.969,0.09375 C140.354,0.09375 139.878,-0.145833 139.539,-0.625 C139.201,-1.10417 139.031,-1.77604 139.031,-2.64063 C139.031,-3.51563 139.208,-4.1901 139.563,-4.66406 C139.917,-5.13802 140.417,-5.375 141.063,-5.375 C141.438,-5.375 141.76,-5.29688 142.031,-5.14063 C142.302,-4.98438 142.51,-4.75521 142.656,-4.45313 L142.672,-4.45313 L142.656,-5.3125 L142.656,-7.25 L144.031,-7.25 L144.031,-1.15625 C144.031,-0.833333 144.047,-0.447917 144.078,0 L142.75,0 M142.688,-2.67188 C142.688,-3.24479 142.591,-3.6849 142.398,-3.99219 C142.206,-4.29948 141.927,-4.45313 141.563,-4.45313 C141.188,-4.45313 140.911,-4.30469 140.734,-4.00781 C140.557,-3.71094 140.469,-3.25521 140.469,-2.64063 C140.469,-1.44271 140.828,-0.84375 141.547,-0.84375 C141.911,-0.84375 142.193,-1.0026 142.391,-1.32031 C142.589,-1.63802 142.688,-2.08854 142.688,-2.67188 M150.438,-2.64063 C150.438,-1.78646 150.201,-1.11719 149.727,-0.632813 C149.253,-0.148438 148.594,0.09375 147.75,0.09375 C146.927,0.09375 146.281,-0.151042 145.813,-0.640625 C145.344,-1.13021 145.109,-1.79688 145.109,-2.64063 C145.109,-3.49479 145.344,-4.16406 145.813,-4.64844 C146.281,-5.13281 146.938,-5.375 147.781,-5.375 C148.646,-5.375 149.305,-5.14063 149.758,-4.67188 C150.211,-4.20313 150.438,-3.52604 150.438,-2.64063 M149,-2.64063 C149,-3.27604 148.898,-3.73438 148.695,-4.01563 C148.492,-4.29688 148.193,-4.4375 147.797,-4.4375 C146.964,-4.4375 146.547,-3.83854 146.547,-2.64063 C146.547,-2.05729 146.648,-1.61198 146.852,-1.30469 C147.055,-0.997396 147.349,-0.84375 147.734,-0.84375 C148.578,-0.84375 149,-1.44271 149,-2.64063 M154.625,0 L154.625,-2.96875 C154.625,-3.89583 154.359,-4.35938 153.828,-4.35938 C153.547,-4.35938 153.32,-4.21615 153.148,-3.92969 C152.977,-3.64323 152.891,-3.27604 152.891,-2.82813 L152.891,0 L151.516,0 L151.516,-4.10938 C151.516,-4.39063 151.51,-4.61979 151.5,-4.79688 C151.49,-4.97396 151.479,-5.13542 151.469,-5.28125 L152.781,-5.28125 C152.792,-5.21875 152.805,-5.05469 152.82,-4.78906 C152.836,-4.52344 152.844,-4.33854 152.844,-4.23438 L152.859,-4.23438 C153.036,-4.64063 153.25,-4.9349 153.5,-5.11719 C153.75,-5.29948 154.052,-5.39063 154.406,-5.39063 C155.208,-5.39063 155.698,-5.00521 155.875,-4.23438 L155.906,-4.23438 C156.083,-4.64063 156.297,-4.9349 156.547,-5.11719 C156.797,-5.29948 157.115,-5.39063 157.5,-5.39063 C158.021,-5.39063 158.414,-5.21615 158.68,-4.86719 C158.945,-4.51823 159.078,-4.01563 159.078,-3.35938 L159.078,0 L157.719,0 L157.719,-2.96875 C157.719,-3.89583 157.453,-4.35938 156.922,-4.35938 C156.651,-4.35938 156.432,-4.22917 156.266,-3.96875 C156.099,-3.70833 156.005,-3.34896 155.984,-2.89063 L155.984,0 L154.625,0 M161.625,0.09375 C161.115,0.09375 160.716,-0.0442708 160.43,-0.320313 C160.143,-0.596354 160,-0.989583 160,-1.5 C160,-2.04167 160.177,-2.45573 160.531,-2.74219 C160.885,-3.02865 161.401,-3.17708 162.078,-3.1875 L163.219,-3.20313 L163.219,-3.46875 C163.219,-3.8125 163.159,-4.07031 163.039,-4.24219 C162.919,-4.41406 162.724,-4.5 162.453,-4.5 C162.193,-4.5 162.003,-4.4401 161.883,-4.32031 C161.763,-4.20052 161.693,-4.01042 161.672,-3.75 L160.234,-3.8125 C160.328,-4.32292 160.565,-4.71094 160.945,-4.97656 C161.326,-5.24219 161.844,-5.375 162.5,-5.375 C163.167,-5.375 163.682,-5.21094 164.047,-4.88281 C164.411,-4.55469 164.594,-4.08854 164.594,-3.48438 L164.594,-1.5625 C164.594,-1.27083 164.628,-1.06771 164.695,-0.953125 C164.763,-0.838542 164.875,-0.78125 165.031,-0.78125 C165.135,-0.78125 165.234,-0.791667 165.328,-0.8125 L165.328,-0.0625 C165.245,-0.0520833 165.172,-0.0364583 165.109,-0.015625 C165.047,0.00520833 164.982,0.0208333 164.914,0.03125 C164.846,0.0416667 164.776,0.0494792 164.703,0.0546875 C164.63,0.0598958 164.547,0.0625 164.453,0.0625 C164.109,0.0625 163.854,-0.0234375 163.688,-0.195313 C163.521,-0.367188 163.422,-0.614583 163.391,-0.9375 L163.359,-0.9375 C162.974,-0.25 162.396,0.09375 161.625,0.09375 M163.219,-2.45313 L162.516,-2.4375 C162.193,-2.42708 161.966,-2.39323 161.836,-2.33594 C161.706,-2.27865 161.604,-2.1901 161.531,-2.07031 C161.458,-1.95052 161.422,-1.79688 161.422,-1.60938 C161.422,-1.34896 161.482,-1.15885 161.602,-1.03906 C161.721,-0.919271 161.875,-0.859375 162.063,-0.859375 C162.281,-0.859375 162.479,-0.919271 162.656,-1.03906 C162.833,-1.15885 162.971,-1.32031 163.07,-1.52344 C163.169,-1.72656 163.219,-1.94271 163.219,-2.17188 L163.219,-2.45313 M165.953,-6.23438 L165.953,-7.25 L167.328,-7.25 L167.328,-6.23438 L165.953,-6.23438 M165.953,0 L165.953,-5.28125 L167.328,-5.28125 L167.328,0 L165.953,0 M172.141,0 L172.141,-2.96875 C172.141,-3.89583 171.823,-4.35938 171.188,-4.35938 C170.865,-4.35938 170.602,-4.21615 170.398,-3.92969 C170.195,-3.64323 170.094,-3.27604 170.094,-2.82813 L170.094,0 L168.719,0 L168.719,-4.10938 C168.719,-4.39063 168.714,-4.61979 168.703,-4.79688 C168.693,-4.97396 168.682,-5.13542 168.672,-5.28125 L169.984,-5.28125 C169.995,-5.21875 170.008,-5.05469 170.023,-4.78906 C170.039,-4.52344 170.047,-4.33854 170.047,-4.23438 L170.063,-4.23438 C170.25,-4.64063 170.484,-4.9349 170.766,-5.11719 C171.047,-5.29948 171.38,-5.39063 171.766,-5.39063 C172.328,-5.39063 172.758,-5.21615 173.055,-4.86719 C173.352,-4.51823 173.5,-4.01563 173.5,-3.35938 L173.5,0 L172.141,0"/>
</g>

<g fill="#ffffff" fill-opacity="1" stroke="#ffffff" stroke-opacity="1" stroke-dasharray="1,3" stroke-dashoffset="0" stroke-width="0.659722" stroke-linecap="butt" stroke-linejoin="round" transform="matrix(0.757895,0,0,0.757895,-21.4,-32.5895)"
font-family="Sans Serif" font-size="9" font-weight="400" font-style="normal" 
>
<polyline fill="none" vector-effect="none" points="309.5,520 309.5,57 " />
<polyline fill="none" vector-effect="none" points="78,288.5 541,288.5 " />
</g>

<g fill="none" stroke="#ffffff" stroke-opacity="1" stroke-dasharray="1,3" stroke-dashoffset="0" stroke-width="1.05556" stroke-linecap="butt" stroke-linejoin="round" transform="matrix(0.757895,0,0,0.757895,-21.4,-32.5895)"
font-family="Sans Serif" font-size="9" font-weight="400" font-style="normal" 
>
<polyline fill="none" vector-effect="none" points="488.153,288.5 488.126,285.373 488.044,282.248 487.907,279.124 487.716,276.003 487.47,272.886 487.169,269.774 486.814,266.667 486.405,263.567 485.941,260.475 485.424,257.392 484.853,254.318 484.227,251.254 483.549,248.202 482.817,245.162 482.032,242.135 481.194,239.123 480.304,236.126 479.361,233.144 478.366,230.18 477.32,227.234 476.222,224.306 475.073,221.398 473.873,218.511 472.623,215.645 471.323,212.801 469.973,209.981 468.574,207.184 467.127,204.413 465.631,201.667 464.088,198.948 462.497,196.256 460.859,193.593 459.175,190.958 457.445,188.354 455.669,185.78 453.849,183.238 451.985,180.727 450.077,178.25 448.126,175.807 446.133,173.398 444.097,171.024 442.021,168.687 439.904,166.386 437.747,164.122 435.55,161.897 433.315,159.71 431.042,157.563 428.732,155.456 426.385,153.39 424.003,151.365 421.585,149.382 419.134,147.442 416.648,145.545 414.13,143.691 411.58,141.882 408.998,140.118 406.386,138.4 403.744,136.727 401.074,135.101 398.375,133.522 395.649,131.99 392.897,130.507 390.119,129.071 387.316,127.685 384.49,126.348 381.641,125.06 378.769,123.822 375.877,122.635 372.964,121.499 370.031,120.414 367.08,119.38 364.112,118.399 361.126,117.469 358.125,116.592 355.109,115.767 352.079,114.995 349.036,114.277 345.981,113.611 342.915,113 339.838,112.442 336.752,111.938 333.658,111.488 330.557,111.092 327.449,110.751 324.335,110.464 321.217,110.232 318.095,110.054 314.971,109.931 311.845,109.862 308.718,109.849 305.592,109.89 302.467,109.985 299.343,110.136 296.223,110.341 293.108,110.601 289.997,110.915 286.892,111.283 283.794,111.706 280.704,112.183 277.622,112.714 274.551,113.299 271.49,113.937 268.441,114.629 265.404,115.374 262.381,116.173 259.372,117.024 256.379,117.927 253.402,118.883 250.442,119.891 247.5,120.95 244.577,122.061 241.674,123.223 238.792,124.435 235.932,125.697 233.094,127.01 230.279,128.372 227.489,129.783 224.724,131.242 221.985,132.75 219.272,134.306 216.588,135.908 213.931,137.558 211.304,139.253 208.707,140.995 206.141,142.781 203.607,144.613 201.105,146.488 198.636,148.407 196.201,150.368 193.801,152.372 191.437,154.418 189.108,156.505 186.817,158.632 184.563,160.799 182.347,163.005 180.17,165.25 178.033,167.532 175.936,169.851 173.88,172.207 171.865,174.598 169.893,177.024 167.963,179.485 166.077,181.978 164.235,184.505 162.437,187.063 160.684,189.652 158.977,192.272 157.316,194.921 155.702,197.599 154.135,200.304 152.615,203.037 151.143,205.795 149.72,208.579 148.346,211.388 147.021,214.22 145.746,217.075 144.521,219.952 143.347,222.85 142.223,225.768 141.151,228.705 140.13,231.66 139.161,234.633 138.245,237.622 137.38,240.627 136.569,243.647 135.81,246.68 135.105,249.726 134.453,252.784 133.855,255.853 133.311,258.932 132.82,262.02 132.384,265.117 132.002,268.22 131.674,271.329 131.401,274.444 131.182,277.563 131.018,280.686 130.908,283.81 130.854,286.937 130.854,290.063 130.908,293.19 131.018,296.314 131.182,299.437 131.401,302.556 131.674,305.671 132.002,308.78 132.384,311.883 132.82,314.98 133.311,318.068 133.855,321.147 134.453,324.216 135.105,327.274 135.81,330.32 136.569,333.353 137.38,336.373 138.245,339.378 139.161,342.367 140.13,345.34 141.151,348.295 142.223,351.232 143.347,354.15 144.521,357.048 145.746,359.925 147.021,362.78 148.346,365.612 149.72,368.421 151.143,371.205 152.615,373.963 154.135,376.696 155.702,379.401 157.316,382.079 158.977,384.728 160.684,387.348 162.437,389.937 164.235,392.495 166.077,395.022 167.963,397.515 169.893,399.976 171.865,402.402 173.88,404.793 175.936,407.149 178.033,409.468 180.17,411.75 182.347,413.995 184.563,416.201 186.817,418.368 189.108,420.495 191.437,422.582 193.801,424.628 196.201,426.632 198.636,428.593 201.105,430.512 203.607,432.387 206.141,434.219 208.707,436.005 211.304,437.747 213.931,439.442 216.588,441.092 219.272,442.694 221.985,444.25 224.724,445.758 227.489,447.217 230.279,448.628 233.094,449.99 235.932,451.303 238.792,452.565 241.674,453.777 244.577,454.939 247.5,456.05 250.442,457.109 253.402,458.117 256.379,459.073 259.372,459.976 262.381,460.827 265.404,461.626 268.441,462.371 271.49,463.063 274.551,463.701 277.622,464.286 280.704,464.817 283.794,465.294 286.892,465.717 289.997,466.085 293.108,466.399 296.223,466.659 299.343,466.864 302.467,467.015 305.592,467.11 308.718,467.151 311.845,467.138 314.971,467.069 318.095,466.946 321.217,466.768 324.335,466.536 327.449,466.249 330.557,465.908 333.658,465.512 336.752,465.062 339.838,464.558 342.915,464 345.981,463.389 349.036,462.723 352.079,462.005 355.109,461.233 358.125,460.408 361.126,459.531 364.112,458.601 367.08,457.62 370.031,456.586 372.964,455.501 375.877,454.365 378.769,453.178 381.641,451.94 384.49,450.652 387.316,449.315 390.119,447.929 392.897,446.493 395.649,445.01 398.375,443.478 401.074,441.899 403.744,440.273 406.386,438.6 408.998,436.882 411.58,435.118 414.13,433.309 416.648,431.455 419.134,429.558 421.585,427.618 424.003,425.635 426.385,423.61 428.732,421.544 431.042,419.437 433.315,417.29 435.55,415.103 437.747,412.878 439.904,410.614 442.021,408.313 444.097,405.976 446.133,403.602 448.126,401.193 450.077,398.75 451.985,396.273 453.849,393.762 455.669,391.22 457.445,388.646 459.175,386.042 460.859,383.407 462.497,380.744 464.088,378.052 465.631,375.333 467.127,372.587 468.574,369.816 469.973,367.019 471.323,364.199 472.623,361.355 473.873,358.489 475.073,355.602 476.222,352.694 477.32,349.766 478.366,346.82 479.361,343.856 480.304,340.874 481.194,337.877 482.032,334.865 482.817,331.838 483.549,328.798 484.227,325.746 484.853,322.682 485.424,319.608 485.941,316.525 486.405,313.433 486.814,310.333 487.169,307.226 487.47,304.114 487.716,300.997 487.907,297.876 488.044,294.752 488.126,291.627 488.153,288.5 " />
</g>

<g fill="#00ff00" fill-opacity="1" stroke="none" transform="matrix(0.757895,0,0,0.757895,-21.4,-32.5895)"
font-family="Sans Serif" font-size="9" font-weight="400" font-style="normal" 
>
<circle cx="488.153" cy="288.969" r="1.75926"/>
</g>

<g fill="none" stroke="#00ff00" stroke-opacity="1" stroke-width="1.31944" stroke-linecap="butt" stroke-linejoin="miter" stroke-miterlimit="2" transform="matrix(0.757895,0,0,0.757895,-21.4,-32.5895)"
font-family="Sans Serif" font-size="9" font-weight="400" font-style="normal" 
>
<path vector-effect="none" fill-rule="evenodd" d="M489.912,288.969 C489.912,287.997 489.124,287.21 488.153,287.21 C487.181,287.21 486.393,287.997 486.393,288.969 C486.393,289.94 487.181,290.728 488.153,290.728 C489.124,290.728 489.912,289.94 489.912,288.969 "/>
</g>

<g fill="#00ff00" fill-opacity="1" stroke="none" transform="matrix(0.757895,0,0,0.757895,-21.4,-32.5895)"
font-family="Sans Serif" font-size="9" font-weight="400" font-style="normal" 
>
<circle cx="527.896" cy="283.515" r="1.75926"/>
</g>

<g fill="none" stroke="#00ff00" stroke-opacity="1" stroke-width="1.31944" stroke-linecap="butt" stroke-linejoin="miter" stroke-miterlimit="2" transform="matrix(0.757895,0,0,0.757895,-21.4,-32.5895)"
font-family="Sans Serif" font-size="9" font-weight="400" font-style="normal" 
>
<path vector-effect="none" fill-rule="evenodd" d="M529.655,283.515 C529.655,282.544 528.868,281.756 527.896,281.756 C526.925,281.756 526.137,282.544 526.137,283.515 C526.137,284.487 526.925,285.275 527.896,285.275 C528.868,285.275 529.655,284.487 529.655,283.515 "/>
</g>

<g fill="#00ff00" fill-opacity="1" stroke="none" transform="matrix(0.757895,0,0,0.757895,-21.4,-32.5895)"
font-family="Sans Serif" font-size="9" font-weight="400" font-style="normal" 
>
<circle cx="450.602" cy="339.348" r="1.75926"/>
</g>

<g fill="none" stroke="#00ff00" stroke-opacity="1" stroke-width="1.31944" stroke-linecap="butt" stroke-linejoin="miter" stroke-miterlimit="2" transform="matrix(0.757895,0,0,0.757895,-21.4,-32.5895)"
font-family="Sans Serif" font-size="9" font-weight="400" font-style="normal" 
>
<path vector-effect="none" fill-rule="evenodd" d="M452.361,339.348 C452.361,338.376 451.573,337.589 450.602,337.589 C449.63,337.589 448.842,338.376 448.842,339.348 C448.842,340.319 449.63,341.107 450.602,341.107 C451.573,341.107 452.361,340.319 452.361,339.348 "/>
</g>

<g fill="#00ff00" fill-opacity="1" stroke="none" transform="matrix(0.757895,0,0,0.757895,-21.4,-32.5895)"
font-family="Sans Serif" font-size="9" font-weight="400" font-style="normal" 
>
<circle cx="526.948" cy="347.342" r="1.75926"/>
</g>

<g fill="none" stroke="#00ff00" stroke-opacity="1" stroke-width="1.31944" stroke-linecap="butt" stroke-linejoin="miter" stroke-miterlimit="2" transform="matrix(0.757895,0,0,0.757895,-21.4,-32.5895)"
font-family="Sans Serif" font-size="9" font-weight="400" font-style="normal" 
>
<path vector-effect="none" fill-rule="evenodd" d="M528.707,347.342 C528.707,346.37 527.92,345.582 526.948,345.582 C525.977,345.582 525.189,346.37 525.189,347.342 C525.189,348.313 525.977,349.101 526.948,349.101 C527.92,349.101 528.707,348.313 528.707,347.342 "/>
</g>

<g fill="#00ff00" fill-opacity="1" stroke="none" transform="matrix(0.757895,0,0,0.757895,-21.4,-32.5895)"
font-family="Sans Serif" font-size="9" font-weight="400" font-style="normal" 
>
<circle cx="453.4" cy="369.747" r="1.75926"/>
</g>

<g fill="none" stroke="#00ff00" stroke-opacity="1" stroke-width="1.31944" stroke-linecap="butt" stroke-linejoin="miter" stroke-miterlimit="2" transform="matrix(0.757895,0,0,0.757895,-21.4,-32.5895)"
font-family="Sans Serif" font-size="9" font-weight="400" font-style="normal" 
>
<path vector-effect="none" fill-rule="evenodd" d="M455.159,369.747 C455.159,368.775 454.371,367.987 453.4,367.987 C452.428,367.987 451.64,368.775 451.64,369.747 C451.64,370.718 452.428,371.506 453.4,371.506 C454.371,371.506 455.159,370.718 455.159,369.747 "/>
</g>

<g fill="#00ff00" fill-opacity="1" stroke="none" transform="matrix(0.757895,0,0,0.757895,-21.4,-32.5895)"
font-family="Sans Serif" font-size="9" font-weight="400" font-style="normal" 
>
<circle cx="455.416" cy="288.222" r="1.75926"/>
</g>

<g fill="none" stroke="#00ff00" stroke-opacity="1" stroke-width="1.31944" stroke-linecap="butt" stroke-linejoin="miter" stroke-miterlimit="2" transform="matrix(0.757895,0,0,0.757895,-21.4,-32.5895)"
font-family="Sans Serif" font-size="9" font-weight="400" font-style="normal" 
>
<path vector-effect="none" fill-rule="evenodd" d="M457.176,288.222 C457.176,287.25 456.388,286.463 455.416,286.463 C454.445,286.463 453.657,287.25 453.657,288.222 C453.657,289.193 454.445,289.981 455.416,289.981 C456.388,289.981 457.176,289.193 457.176,288.222 "/>
</g>

<g fill="#00ff00" fill-opacity="1" stroke="none" transform="matrix(0.757895,0,0,0.757895,-21.4,-32.5895)"
font-family="Sans Serif" font-size="9" font-weight="400" font-style="normal" 
>
<circle cx="431.061" cy="329.963" r="1.75926"/>
</g>

<g fill="none" stroke="#00ff00" stroke-opacity="1" stroke-width="1.31944" stroke-linecap="butt" stroke-linejoin="miter" stroke-miterlimit="2" transform="matrix(0.757895,0,0,0.757895,-21.4,-32.5895)"
font-family="Sans Serif" font-size="9" font-weight="400" font-style="normal" 
>
<path vector-effect="none" fill-rule="evenodd" d="M432.82,329.963 C432.82,328.991 432.033,328.203 431.061,328.203 C430.089,328.203 429.302,328.991 429.302,329.963 C429.302,330.934 430.089,331.722 431.061,331.722 C432.033,331.722 432.82,330.934 432.82,329.963 "/>
</g>

<g fill="#00ff00" fill-opacity="1" stroke="none" transform="matrix(0.757895,0,0,0.757895,-21.4,-32.5895)"
font-family="Sans Serif" font-size="9" font-weight="400" font-style="normal" 
>
<circle cx="446.332" cy="374.975" r="1.75926"/>
</g>

<g fill="none" stroke="#00ff00" stroke-opacity="1" stroke-width="1.31944" stroke-linecap="butt" stroke-linejoin="miter" stroke-miterlimit="2" transform="matrix(0.757895,0,0,0.757895,-21.4,-32.5895)"
font-family="Sans Serif" font-size="9" font-weight="400" font-style="normal" 
>
<path vector-effect="none" fill-rule="evenodd" d="M448.092,374.975 C448.092,374.003 447.304,373.216 446.332,373.216 C445.361,373.216 444.573,374.003 444.573,374.975 C444.573,375.947 445.361,376.734 446.332,376.734 C447.304,376.734 448.092,375.947 448.092,374.975 "/>
</g>

<g fill="#00ff00" fill-opacity="1" stroke="none" transform="matrix(0.757895,0,0,0.757895,-21.4,-32.5895)"
font-family="Sans Serif" font-size="9" font-weight="400" font-style="normal" 
>
<circle cx="439.187" cy="310.167" r="1.75926"/>
</g>

<g fill="none" stroke="#00ff00" stroke-opacity="1" stroke-width="1.31944" stroke-linecap="butt" stroke-linejoin="miter" stroke-miterlimit="2" transform="matrix(0.757895,0,0,0.757895,-21.4,-32.5895)"
font-family="Sans Serif" font-size="9" font-weight="400" font-style="normal" 
>
<path vector-effect="none" fill-rule="evenodd" d="M440.946,310.167 C440.946,309.196 440.158,308.408 439.187,308.408 C438.215,308.408 437.428,309.196 437.428,310.167 C437.428,311.139 438.215,311.927 439.187,311.927 C440.158,311.927 440.946,311.139 440.946,310.167 "/>
</g>

<g fill="#00ff00" fill-opacity="1" stroke="none" transform="matrix(0.757895,0,0,0.757895,-21.4,-32.5895)"
font-family="Sans Serif" font-size="9" font-weight="400" font-style="normal" 
>
<circle cx="450.134" cy="367.797" r="1.75926"/>
</g>

<g fill="none" stroke="#00ff00" stroke-opacity="1" stroke-width="1.31944" stroke-linecap="butt" stroke-linejoin="miter" stroke-miterlimit="2" transform="matrix(0.757895,0,0,0.757895,-21.4,-32.5895)"
font-family="Sans Serif" font-size="9" font-weight="400" font-style="normal" 
>
<path vector-effect="none" fill-rule="evenodd" d="M451.893,367.797 C451.893,366.825 451.105,366.038 450.134,366.038 C449.162,366.038 448.374,366.825 448.374,367.797 C448.374,368.768 449.162,369.556 450.134,369.556 C451.105,369.556 451.893,368.768 451.893,367.797 "/>
</g>

<g fill="none" stroke="#ff00ff" stroke-opacity="1" stroke-width="1.97917" stroke-linecap="butt" stroke-linejoin="round" transform="matrix(0.757895,0,0,0.757895,-21.4,-32.5895)"
font-family="Sans Serif" font-size="9" font-weight="400" font-style="normal" 
>
<polyline fill="none" vector-effect="none" points="505.743,288.5 505.743,288.5 505.743,288.5 505.743,288.5 505.743,288.5 505.743,288.5 505.743,288.5 505.743,288.5 505.743,288.5 505.743,288.5 505.743,288.5 505.743,288.5 505.743,288.5 505.743,288.5 505.743,288.5 505.743,288.5 505.743,288.5 505.743,288.5 505.743,288.5 505.743,288.5 505.743,288.5 505.743,288.5 505.743,288.5 505.743,288.5 505.743,288.5 505.743,288.5 505.743,288.5 505.743,288.5 505.743,288.5 505.743,288.5 505.743,288.5 505.743,288.5 505.743,288.5 505.743,288.5 505.743,288.5 505.743,288.5 505.743,288.5 505.743,288.5 505.743,288.5 505.743,288.5 505.743,288.5 505.743,288.5 505.743,288.5 505.743,288.5 505.743,288.5 505.743,288.5 505.743,288.5 505.743,288.5 505.743,288.5 505.743,288.5 505.743,288.5 505.743,288.5 505.743,288.5 505.743,288.5 505.743,288.5 505.743,288.5 505.743,288.5 505.743,288.5 505.743,288.5 505.743,288.5 505.743,288.5 505.743,288.5 505.743,288.5 505.743,288.5 505.743,288.5 505.743,288.5 505.743,288.5 505.743,288.5 505.743,288.5 505.743,288.5 505.743,288.5 505.743,288.5 505.743,288.5 505.743,288.5 505.743,288.5 505.743,288.5 505.743,288.5 505.743,288.5 505.743,288.5 505.743,288.5 505.743,288.5 505.743,288.5 505.743,288.5 505.743,288.5 505.743,288.5 505.743,288.5 505.743,288.5 505.743,288.5 505.743,288.5 505.743,288.5 505.743,288.5 505.743,288.5 505.743,288.5 505.743,288.5 505.743,288.5 505.743,288.5 505.743,288.5 505.743,288.5 505.743,288.5 505.743,288.5 505.743,288.5 " />
</g>

<g fill="#000000" fill-opacity="1" stroke="none" transform="matrix(7.57895e-05,0,0,7.57895e-05,-21.4,-32.5895)"
font-family="Sans Serif" font-size="9" font-weight="400" font-style="normal" 
>
<path vector-effect="none" fill-rule="evenodd" d="M4.06e+06,530000 L4.06e+06,900000 L5.22e+06,900000 L5.22e+06,530000 L4.06e+06,530000"/>
</g>

<g fill="#ffffff" fill-opacity="1" stroke="#ffffff" stroke-opacity="1" stroke-dasharray="1,3" stroke-dashoffset="0" stroke-width="0.659722" stroke-linecap="butt" stroke-linejoin="round" transform="matrix(0.757895,0,0,0.757895,-21.4,-32.5895)"
font-family="Sans Serif" font-size="9" font-weight="400" font-style="normal" 
>
<polyline fill="none" vector-effect="none" points="410.014,63.137 449.74,63.137 " />
<polyline fill="none" vector-effect="none" points="410.014,79.863 449.74,79.863 " />
</g>

<g fill="#ffffff" fill-opacity="1" stroke="none" transform="matrix(0.757895,0,0,0.757895,321.738,19.0512)"
font-family="Sans Serif" font-size="9" font-weight="400" font-style="normal" 
>
<path vector-effect="none" fill-rule="evenodd" d="M0.9375,-8.96875 L0.9375,-10.1406 L2.17188,-10.1406 L2.17188,-8.96875 L0.9375,-8.96875 M0.9375,0 L0.9375,-7.39063 L2.17188,-7.39063 L2.17188,0 L0.9375,0 M8.75,0 L8.75,-4.6875 C8.75,-5.17708 8.70313,-5.55729 8.60938,-5.82813 C8.51563,-6.09896 8.36198,-6.29167 8.14844,-6.40625 C7.9349,-6.52083 7.625,-6.57813 7.21875,-6.57813 C6.63542,-6.57813 6.17188,-6.375 5.82813,-5.96875 C5.48438,-5.5625 5.3125,-5 5.3125,-4.28125 L5.3125,0 L4.07813,0 L4.07813,-5.8125 C4.07813,-6.67708 4.06771,-7.20313 4.04688,-7.39063 L5.20313,-7.39063 C5.20313,-7.36979 5.20573,-7.3099 5.21094,-7.21094 C5.21615,-7.11198 5.22396,-6.9974 5.23438,-6.86719 C5.24479,-6.73698 5.25,-6.48958 5.25,-6.125 L5.28125,-6.125 C5.5625,-6.63542 5.88802,-6.9974 6.25781,-7.21094 C6.6276,-7.42448 7.08854,-7.53125 7.64063,-7.53125 C8.45313,-7.53125 9.04688,-7.33073 9.42188,-6.92969 C9.79688,-6.52865 9.98438,-5.85938 9.98438,-4.92188 L9.98438,0 L8.75,0 M18.9531,0 L17.5,0 L14.8125,-7.39063 L16.125,-7.39063 L17.75,-2.57813 C17.8125,-2.40104 17.9688,-1.86458 18.2188,-0.96875 L18.4688,-1.76563 L18.7344,-2.57813 L20.4063,-7.39063 L21.7188,-7.39063 L18.9531,0 M22.7031,-8.96875 L22.7031,-10.1406 L23.9375,-10.1406 L23.9375,-8.96875 L22.7031,-8.96875 M22.7031,0 L22.7031,-7.39063 L23.9375,-7.39063 L23.9375,0 L22.7031,0 M29.0625,0 L27.6094,0 L24.9219,-7.39063 L26.2344,-7.39063 L27.8594,-2.57813 C27.9219,-2.40104 28.0781,-1.86458 28.3281,-0.96875 L28.5781,-1.76563 L28.8438,-2.57813 L30.5156,-7.39063 L31.8281,-7.39063 L29.0625,0 M39.0781,-3.70313 C39.0781,-2.41146 38.7917,-1.44792 38.2188,-0.8125 C37.6458,-0.177083 36.8177,0.140625 35.7344,0.140625 C34.6615,0.140625 33.849,-0.190104 33.2969,-0.851563 C32.7448,-1.51302 32.4688,-2.46354 32.4688,-3.70313 C32.4688,-6.25521 33.5729,-7.53125 35.7813,-7.53125 C36.9063,-7.53125 37.737,-7.22135 38.2734,-6.60156 C38.8099,-5.98177 39.0781,-5.01563 39.0781,-3.70313 M37.7813,-3.70313 C37.7813,-4.72396 37.6302,-5.46615 37.3281,-5.92969 C37.026,-6.39323 36.5156,-6.625 35.7969,-6.625 C35.0781,-6.625 34.5573,-6.38802 34.2344,-5.91406 C33.9115,-5.4401 33.75,-4.70313 33.75,-3.70313 C33.75,-2.73438 33.9089,-2.0026 34.2266,-1.50781 C34.5443,-1.01302 35.0417,-0.765625 35.7188,-0.765625 C36.4583,-0.765625 36.987,-1.0026 37.3047,-1.47656 C37.6224,-1.95052 37.7813,-2.69271 37.7813,-3.70313 "/>
</g>

<g fill="#ffffff" fill-opacity="1" stroke="none" transform="matrix(0.757895,0,0,0.757895,321.738,31.7278)"
font-family="Sans Serif" font-size="9" font-weight="400" font-style="normal" 
>
<path vector-effect="none" fill-rule="evenodd" d="M6.5,-2.04688 C6.5,-1.34896 6.23698,-0.809896 5.71094,-0.429688 C5.1849,-0.0494792 4.44792,0.140625 3.5,0.140625 C2.57292,0.140625 1.85938,-0.0104167 1.35938,-0.3125 C0.859375,-0.614583 0.536458,-1.08854 0.390625,-1.73438 L1.48438,-1.95313 C1.58854,-1.55729 1.80469,-1.26563 2.13281,-1.07813 C2.46094,-0.890625 2.91667,-0.796875 3.5,-0.796875 C4.125,-0.796875 4.58073,-0.893229 4.86719,-1.08594 C5.15365,-1.27865 5.29688,-1.56771 5.29688,-1.95313 C5.29688,-2.24479 5.19792,-2.48177 5,-2.66406 C4.80208,-2.84635 4.47917,-2.99479 4.03125,-3.10938 L3.14063,-3.34375 C2.43229,-3.52083 1.92969,-3.69792 1.63281,-3.875 C1.33594,-4.05208 1.10417,-4.26563 0.9375,-4.51563 C0.770833,-4.76563 0.6875,-5.07292 0.6875,-5.4375 C0.6875,-6.11458 0.927083,-6.63021 1.40625,-6.98438 C1.88542,-7.33854 2.58333,-7.51563 3.5,-7.51563 C4.32292,-7.51563 4.97396,-7.3724 5.45313,-7.08594 C5.93229,-6.79948 6.23438,-6.33854 6.35938,-5.70313 L5.25,-5.5625 C5.1875,-5.89583 5.00781,-6.14844 4.71094,-6.32031 C4.41406,-6.49219 4.01042,-6.57813 3.5,-6.57813 C2.94792,-6.57813 2.53906,-6.49479 2.27344,-6.32813 C2.00781,-6.16146 1.875,-5.90625 1.875,-5.5625 C1.875,-5.35417 1.92969,-5.18229 2.03906,-5.04688 C2.14844,-4.91146 2.3099,-4.79427 2.52344,-4.69531 C2.73698,-4.59635 3.19271,-4.46354 3.89063,-4.29688 C4.53646,-4.13021 5.0026,-3.97917 5.28906,-3.84375 C5.57552,-3.70833 5.80208,-3.55469 5.96875,-3.38281 C6.13542,-3.21094 6.26563,-3.01563 6.35938,-2.79688 C6.45313,-2.57813 6.5,-2.32813 6.5,-2.04688 M7.9375,-8.96875 L7.9375,-10.1406 L9.17188,-10.1406 L9.17188,-8.96875 L7.9375,-8.96875 M7.9375,0 L7.9375,-7.39063 L9.17188,-7.39063 L9.17188,0 L7.9375,0 M15.3594,0 L15.3594,-4.6875 C15.3594,-5.40625 15.2604,-5.90104 15.0625,-6.17188 C14.8646,-6.44271 14.5104,-6.57813 14,-6.57813 C13.4792,-6.57813 13.0651,-6.3776 12.7578,-5.97656 C12.4505,-5.57552 12.2969,-5.01042 12.2969,-4.28125 L12.2969,0 L11.0781,0 L11.0781,-5.8125 C11.0781,-6.67708 11.0677,-7.20313 11.0469,-7.39063 L12.2031,-7.39063 C12.2031,-7.36979 12.2057,-7.3099 12.2109,-7.21094 C12.2161,-7.11198 12.224,-6.9974 12.2344,-6.86719 C12.2448,-6.73698 12.25,-6.48958 12.25,-6.125 L12.2813,-6.125 C12.5417,-6.65625 12.8438,-7.02344 13.1875,-7.22656 C13.5313,-7.42969 13.9479,-7.53125 14.4375,-7.53125 C15,-7.53125 15.4427,-7.41927 15.7656,-7.19531 C16.0885,-6.97135 16.3177,-6.61458 16.4531,-6.125 L16.4688,-6.125 C16.7188,-6.625 17.026,-6.98438 17.3906,-7.20313 C17.7552,-7.42188 18.1927,-7.53125 18.7031,-7.53125 C19.4531,-7.53125 19.9974,-7.32813 20.3359,-6.92188 C20.6745,-6.51563 20.8438,-5.84896 20.8438,-4.92188 L20.8438,0 L19.625,0 L19.625,-4.6875 C19.625,-5.40625 19.5286,-5.90104 19.3359,-6.17188 C19.1432,-6.44271 18.7917,-6.57813 18.2813,-6.57813 C17.7396,-6.57813 17.3203,-6.38021 17.0234,-5.98438 C16.7266,-5.58854 16.5781,-5.02083 16.5781,-4.28125 L16.5781,0 L15.3594,0 M23.9063,-7.39063 L23.9063,-2.70313 C23.9063,-2.21354 23.9557,-1.83594 24.0547,-1.57031 C24.1536,-1.30469 24.3073,-1.11198 24.5156,-0.992188 C24.724,-0.872396 25.0313,-0.8125 25.4375,-0.8125 C26.0313,-0.8125 26.4974,-1.01563 26.8359,-1.42188 C27.1745,-1.82813 27.3438,-2.39063 27.3438,-3.10938 L27.3438,-7.39063 L28.5781,-7.39063 L28.5781,-1.57813 C28.5781,-0.713542 28.5938,-0.1875 28.625,0 L27.4531,0 C27.4531,-0.0208333 27.4505,-0.0807292 27.4453,-0.179688 C27.4401,-0.278646 27.4349,-0.393229 27.4297,-0.523438 C27.4245,-0.653646 27.4167,-0.901042 27.4063,-1.26563 L27.3906,-1.26563 C27.1094,-0.755208 26.7813,-0.393229 26.4063,-0.179688 C26.0313,0.0338542 25.5677,0.140625 25.0156,0.140625 C24.2031,0.140625 23.6094,-0.0625 23.2344,-0.46875 C22.8594,-0.875 22.6719,-1.54167 22.6719,-2.46875 L22.6719,-7.39063 L23.9063,-7.39063 M30.4844,0 L30.4844,-10.1406 L31.7188,-10.1406 L31.7188,0 L30.4844,0 M35.4844,0.140625 C34.7448,0.140625 34.1875,-0.0572917 33.8125,-0.453125 C33.4375,-0.848958 33.25,-1.38542 33.25,-2.0625 C33.25,-2.83333 33.5026,-3.42188 34.0078,-3.82813 C34.513,-4.23438 35.3229,-4.45313 36.4375,-4.48438 L38.1094,-4.51563 L38.1094,-4.92188 C38.1094,-5.51563 37.9818,-5.94271 37.7266,-6.20313 C37.4714,-6.46354 37.0677,-6.59375 36.5156,-6.59375 C35.9635,-6.59375 35.5625,-6.5 35.3125,-6.3125 C35.0625,-6.125 34.9115,-5.82813 34.8594,-5.42188 L33.5781,-5.53125 C33.7865,-6.86458 34.776,-7.53125 36.5469,-7.53125 C37.474,-7.53125 38.1719,-7.31771 38.6406,-6.89063 C39.1094,-6.46354 39.3438,-5.84896 39.3438,-5.04688 L39.3438,-1.85938 C39.3438,-1.49479 39.3932,-1.22135 39.4922,-1.03906 C39.5911,-0.856771 39.776,-0.765625 40.0469,-0.765625 C40.1615,-0.765625 40.2917,-0.78125 40.4375,-0.8125 L40.4375,-0.046875 C40.1354,0.0260417 39.8229,0.0625 39.5,0.0625 C39.0417,0.0625 38.7083,-0.0572917 38.5,-0.296875 C38.2917,-0.536458 38.1719,-0.911458 38.1406,-1.42188 L38.1094,-1.42188 C37.7969,-0.848958 37.4297,-0.445313 37.0078,-0.210938 C36.5859,0.0234375 36.0781,0.140625 35.4844,0.140625 M35.7656,-0.78125 C36.2135,-0.78125 36.6146,-0.885417 36.9688,-1.09375 C37.3229,-1.30208 37.6016,-1.58333 37.8047,-1.9375 C38.0078,-2.29167 38.1094,-2.66146 38.1094,-3.04688 L38.1094,-3.65625 L36.7656,-3.625 C36.1823,-3.61458 35.7422,-3.55469 35.4453,-3.44531 C35.1484,-3.33594 34.9193,-3.16667 34.7578,-2.9375 C34.5964,-2.70833 34.5156,-2.41146 34.5156,-2.04688 C34.5156,-1.64063 34.625,-1.32813 34.8438,-1.10938 C35.0625,-0.890625 35.3698,-0.78125 35.7656,-0.78125 M44.2188,-0.0625 C43.8125,0.0520833 43.401,0.109375 42.9844,0.109375 C41.9948,0.109375 41.5,-0.447917 41.5,-1.5625 L41.5,-6.5 L40.6563,-6.5 L40.6563,-7.39063 L41.5469,-7.39063 L41.9219,-9.04688 L42.7344,-9.04688 L42.7344,-7.39063 L44.1094,-7.39063 L44.1094,-6.5 L42.7344,-6.5 L42.7344,-1.82813 C42.7344,-1.47396 42.7917,-1.22656 42.9063,-1.08594 C43.0208,-0.945313 43.224,-0.875 43.5156,-0.875 C43.6823,-0.875 43.9167,-0.90625 44.2188,-0.96875 L44.2188,-0.0625 M45.25,-8.96875 L45.25,-10.1406 L46.4844,-10.1406 L46.4844,-8.96875 L45.25,-8.96875 M45.25,0 L45.25,-7.39063 L46.4844,-7.39063 L46.4844,0 L45.25,0 M54.625,-3.70313 C54.625,-2.41146 54.3385,-1.44792 53.7656,-0.8125 C53.1927,-0.177083 52.3646,0.140625 51.2813,0.140625 C50.2083,0.140625 49.3958,-0.190104 48.8438,-0.851563 C48.2917,-1.51302 48.0156,-2.46354 48.0156,-3.70313 C48.0156,-6.25521 49.1198,-7.53125 51.3281,-7.53125 C52.4531,-7.53125 53.2839,-7.22135 53.8203,-6.60156 C54.3568,-5.98177 54.625,-5.01563 54.625,-3.70313 M53.3281,-3.70313 C53.3281,-4.72396 53.1771,-5.46615 52.875,-5.92969 C52.5729,-6.39323 52.0625,-6.625 51.3438,-6.625 C50.625,-6.625 50.1042,-6.38802 49.7813,-5.91406 C49.4583,-5.4401 49.2969,-4.70313 49.2969,-3.70313 C49.2969,-2.73438 49.4557,-2.0026 49.7734,-1.50781 C50.0911,-1.01302 50.5885,-0.765625 51.2656,-0.765625 C52.0052,-0.765625 52.5339,-1.0026 52.8516,-1.47656 C53.1693,-1.95052 53.3281,-2.69271 53.3281,-3.70313 M60.8438,0 L60.8438,-4.6875 C60.8438,-5.17708 60.7969,-5.55729 60.7031,-5.82813 C60.6094,-6.09896 60.4557,-6.29167 60.2422,-6.40625 C60.0286,-6.52083 59.7188,-6.57813 59.3125,-6.57813 C58.7292,-6.57813 58.2656,-6.375 57.9219,-5.96875 C57.5781,-5.5625 57.4063,-5 57.4063,-4.28125 L57.4063,0 L56.1719,0 L56.1719,-5.8125 C56.1719,-6.67708 56.1615,-7.20313 56.1406,-7.39063 L57.2969,-7.39063 C57.2969,-7.36979 57.2995,-7.3099 57.3047,-7.21094 C57.3099,-7.11198 57.3177,-6.9974 57.3281,-6.86719 C57.3385,-6.73698 57.3438,-6.48958 57.3438,-6.125 L57.375,-6.125 C57.6563,-6.63542 57.9818,-6.9974 58.3516,-7.21094 C58.7214,-7.42448 59.1823,-7.53125 59.7344,-7.53125 C60.5469,-7.53125 61.1406,-7.33073 61.5156,-6.92969 C61.8906,-6.52865 62.0781,-5.85938 62.0781,-4.92188 L62.0781,0 L60.8438,0"/>
</g>

<g fill="none" stroke="#d9d9d9" stroke-opacity="1" stroke-width="0.659722" stroke-linecap="butt" stroke-linejoin="miter" stroke-miterlimit="2" transform="matrix(0.757895,0,0,0.757895,-21.4,-32.5895)"
font-family="Sans Serif" font-size="9" font-weight="400" font-style="normal" 
>
<path vector-effect="none" fill-rule="evenodd" d="M406,90 L406,53 L522,53 L522,90 L406,90"/>
</g>
</g>
</svg>
