<?xml version="1.0" encoding="UTF-8" standalone="no"?>
<svg width="165.806mm" height="163.336mm"
 viewBox="0 0 470 463"
 xmlns="http://www.w3.org/2000/svg" xmlns:xlink="http://www.w3.org/1999/xlink"  version="1.2" baseProfile="tiny">
<title>Qt SVG Document</title>
<desc>MATLAB, The MathWorks, Inc. Version 25.1.0.2973910 R2025a Update 1</desc>
<defs>
</defs>
<g fill="none" stroke="black" stroke-width="1" fill-rule="evenodd" stroke-linecap="square" stroke-linejoin="bevel" >

<g fill="#000000" fill-opacity="1" stroke="none" transform="matrix(0.5,0,0,0.5,-262.5,-33.5)"
font-family=".AppleSystemUIFont" font-size="13" font-weight="400" font-style="normal" 
>
<path vector-effect="none" fill-rule="evenodd" d="M524,66 L1464,66 L1464,992 L524,992 L524,66"/>
</g>

<g fill="#121212" fill-opacity="1" stroke="none" transform="matrix(5e-05,0,0,5e-05,-262.5,-33.5)"
font-family=".AppleSystemUIFont" font-size="13" font-weight="400" font-style="normal" 
>
<path vector-effect="none" fill-rule="evenodd" d="M6.01e+06,790000 L6.01e+06,9.34e+06 L1.456e+07,9.34e+06 L1.456e+07,790000 L6.01e+06,790000"/>
</g>

<g fill="#ffffff" fill-opacity="0.25098" stroke="#ffffff" stroke-opacity="0.25098" stroke-width="1" stroke-linecap="butt" stroke-linejoin="round" transform="matrix(0.5,0,0,0.5,-262.5,-33.5)"
font-family=".AppleSystemUIFont" font-size="13" font-weight="400" font-style="normal" 
>
<polyline fill="none" vector-effect="none" points="601,79 601,934 " />
<polyline fill="none" vector-effect="none" points="743.5,79 743.5,934 " />
<polyline fill="none" vector-effect="none" points="886,79 886,934 " />
<polyline fill="none" vector-effect="none" points="1028.5,79 1028.5,934 " />
<polyline fill="none" vector-effect="none" points="1171,79 1171,934 " />
<polyline fill="none" vector-effect="none" points="1313.5,79 1313.5,934 " />
<polyline fill="none" vector-effect="none" points="1456,79 1456,934 " />
<polyline fill="none" vector-effect="none" points="601,934 1456,934 " />
<polyline fill="none" vector-effect="none" points="601,848.5 1456,848.5 " />
<polyline fill="none" vector-effect="none" points="601,763 1456,763 " />
<polyline fill="none" vector-effect="none" points="601,677.5 1456,677.5 " />
<polyline fill="none" vector-effect="none" points="601,592 1456,592 " />
<polyline fill="none" vector-effect="none" points="601,506.5 1456,506.5 " />
<polyline fill="none" vector-effect="none" points="601,421 1456,421 " />
<polyline fill="none" vector-effect="none" points="601,335.5 1456,335.5 " />
<polyline fill="none" vector-effect="none" points="601,250 1456,250 " />
<polyline fill="none" vector-effect="none" points="601,164.5 1456,164.5 " />
<polyline fill="none" vector-effect="none" points="601,79 1456,79 " />
</g>

<g fill="#d9d9d9" fill-opacity="1" stroke="#d9d9d9" stroke-opacity="1" stroke-width="1" stroke-linecap="square" stroke-linejoin="bevel" transform="matrix(0.5,0,0,0.5,205,458.5)"
font-family="Helvetica" font-size="22" font-weight="400" font-style="normal" 
>
<text fill="#d9d9d9" fill-opacity="1" stroke="none" xml:space="preserve" x="0" y="-0.0625" font-family="Helvetica" font-size="22" font-weight="400" font-style="normal" 
 >spin velocity (cm/s)</text>
</g>

<g fill="#d9d9d9" fill-opacity="1" stroke="#d9d9d9" stroke-opacity="1" stroke-width="1" stroke-linecap="square" stroke-linejoin="round" transform="matrix(0.5,0,0,0.5,-262.5,-33.5)"
font-family="Helvetica" font-size="22" font-weight="400" font-style="normal" 
>
<polyline fill="none" vector-effect="none" points="601,934 1456,934 " />
<polyline fill="none" vector-effect="none" points="601,79 1456,79 " />
<polyline fill="none" vector-effect="none" points="601,934 601,925.45 " />
<polyline fill="none" vector-effect="none" points="601,87.55 601,79 " />
<polyline fill="none" vector-effect="none" points="743.5,934 743.5,925.45 " />
<polyline fill="none" vector-effect="none" points="743.5,87.55 743.5,79 " />
<polyline fill="none" vector-effect="none" points="886,934 886,925.45 " />
<polyline fill="none" vector-effect="none" points="886,87.55 886,79 " />
<polyline fill="none" vector-effect="none" points="1028.5,934 1028.5,925.45 " />
<polyline fill="none" vector-effect="none" points="1028.5,87.55 1028.5,79 " />
<polyline fill="none" vector-effect="none" points="1171,934 1171,925.45 " />
<polyline fill="none" vector-effect="none" points="1171,87.55 1171,79 " />
<polyline fill="none" vector-effect="none" points="1313.5,934 1313.5,925.45 " />
<polyline fill="none" vector-effect="none" points="1313.5,87.55 1313.5,79 " />
<polyline fill="none" vector-effect="none" points="1456,934 1456,925.45 " />
<polyline fill="none" vector-effect="none" points="1456,87.55 1456,79 " />
</g>

<g fill="#d9d9d9" fill-opacity="1" stroke="#d9d9d9" stroke-opacity="1" stroke-width="1" stroke-linecap="square" stroke-linejoin="bevel" transform="matrix(0.5,0,0,0.5,35.25,445)"
font-family="Helvetica" font-size="20" font-weight="400" font-style="normal" 
>
<text fill="#d9d9d9" fill-opacity="1" stroke="none" xml:space="preserve" x="0" y="0.390625" font-family="Helvetica" font-size="20" font-weight="400" font-style="normal" 
 >0</text>
</g>

<g fill="#d9d9d9" fill-opacity="1" stroke="#d9d9d9" stroke-opacity="1" stroke-width="1" stroke-linecap="square" stroke-linejoin="bevel" transform="matrix(0.5,0,0,0.5,106.5,445)"
font-family="Helvetica" font-size="20" font-weight="400" font-style="normal" 
>
<text fill="#d9d9d9" fill-opacity="1" stroke="none" xml:space="preserve" x="0" y="0.390625" font-family="Helvetica" font-size="20" font-weight="400" font-style="normal" 
 >1</text>
</g>

<g fill="#d9d9d9" fill-opacity="1" stroke="#d9d9d9" stroke-opacity="1" stroke-width="1" stroke-linecap="square" stroke-linejoin="bevel" transform="matrix(0.5,0,0,0.5,177.75,445)"
font-family="Helvetica" font-size="20" font-weight="400" font-style="normal" 
>
<text fill="#d9d9d9" fill-opacity="1" stroke="none" xml:space="preserve" x="0" y="0.390625" font-family="Helvetica" font-size="20" font-weight="400" font-style="normal" 
 >2</text>
</g>

<g fill="#d9d9d9" fill-opacity="1" stroke="#d9d9d9" stroke-opacity="1" stroke-width="1" stroke-linecap="square" stroke-linejoin="bevel" transform="matrix(0.5,0,0,0.5,249,445)"
font-family="Helvetica" font-size="20" font-weight="400" font-style="normal" 
>
<text fill="#d9d9d9" fill-opacity="1" stroke="none" xml:space="preserve" x="0" y="0.390625" font-family="Helvetica" font-size="20" font-weight="400" font-style="normal" 
 >3</text>
</g>

<g fill="#d9d9d9" fill-opacity="1" stroke="#d9d9d9" stroke-opacity="1" stroke-width="1" stroke-linecap="square" stroke-linejoin="bevel" transform="matrix(0.5,0,0,0.5,320.25,445)"
font-family="Helvetica" font-size="20" font-weight="400" font-style="normal" 
>
<text fill="#d9d9d9" fill-opacity="1" stroke="none" xml:space="preserve" x="0" y="0.390625" font-family="Helvetica" font-size="20" font-weight="400" font-style="normal" 
 >4</text>
</g>

<g fill="#d9d9d9" fill-opacity="1" stroke="#d9d9d9" stroke-opacity="1" stroke-width="1" stroke-linecap="square" stroke-linejoin="bevel" transform="matrix(0.5,0,0,0.5,391.5,445)"
font-family="Helvetica" font-size="20" font-weight="400" font-style="normal" 
>
<text fill="#d9d9d9" fill-opacity="1" stroke="none" xml:space="preserve" x="0" y="0.390625" font-family="Helvetica" font-size="20" font-weight="400" font-style="normal" 
 >5</text>
</g>

<g fill="#d9d9d9" fill-opacity="1" stroke="#d9d9d9" stroke-opacity="1" stroke-width="1" stroke-linecap="square" stroke-linejoin="bevel" transform="matrix(0.5,0,0,0.5,462.75,445)"
font-family="Helvetica" font-size="20" font-weight="400" font-style="normal" 
>
<text fill="#d9d9d9" fill-opacity="1" stroke="none" xml:space="preserve" x="0" y="0.390625" font-family="Helvetica" font-size="20" font-weight="400" font-style="normal" 
 >6</text>
</g>

<g fill="#d9d9d9" fill-opacity="1" stroke="#d9d9d9" stroke-opacity="1" stroke-width="1" stroke-linecap="square" stroke-linejoin="bevel" transform="matrix(0,-0.5,0.5,0,9.5,227)"
font-family="Helvetica" font-size="22" font-weight="400" font-style="normal" 
>
<text fill="#d9d9d9" fill-opacity="1" stroke="none" xml:space="preserve" x="0" y="-0.0625" font-family="Helvetica" font-size="22" font-weight="400" font-style="normal" 
 >M</text>
</g>

<g fill="#d9d9d9" fill-opacity="1" stroke="#d9d9d9" stroke-opacity="1" stroke-width="1" stroke-linecap="square" stroke-linejoin="bevel" transform="matrix(0,-0.5,0.5,0,15,218)"
font-family="Helvetica" font-size="17" font-weight="400" font-style="normal" 
>
<text fill="#d9d9d9" fill-opacity="1" stroke="none" xml:space="preserve" x="0" y="0.078125" font-family="Helvetica" font-size="17" font-weight="400" font-style="normal" 
 >z</text>
</g>

<g fill="#d9d9d9" fill-opacity="1" stroke="#d9d9d9" stroke-opacity="1" stroke-width="1" stroke-linecap="square" stroke-linejoin="round" transform="matrix(0.5,0,0,0.5,-262.5,-33.5)"
font-family="Helvetica" font-size="17" font-weight="400" font-style="normal" 
>
<polyline fill="none" vector-effect="none" points="601,934 601,79 " />
<polyline fill="none" vector-effect="none" points="1456,934 1456,79 " />
<polyline fill="none" vector-effect="none" points="601,934 609.55,934 " />
<polyline fill="none" vector-effect="none" points="1447.45,934 1456,934 " />
<polyline fill="none" vector-effect="none" points="601,848.5 609.55,848.5 " />
<polyline fill="none" vector-effect="none" points="1447.45,848.5 1456,848.5 " />
<polyline fill="none" vector-effect="none" points="601,763 609.55,763 " />
<polyline fill="none" vector-effect="none" points="1447.45,763 1456,763 " />
<polyline fill="none" vector-effect="none" points="601,677.5 609.55,677.5 " />
<polyline fill="none" vector-effect="none" points="1447.45,677.5 1456,677.5 " />
<polyline fill="none" vector-effect="none" points="601,592 609.55,592 " />
<polyline fill="none" vector-effect="none" points="1447.45,592 1456,592 " />
<polyline fill="none" vector-effect="none" points="601,506.5 609.55,506.5 " />
<polyline fill="none" vector-effect="none" points="1447.45,506.5 1456,506.5 " />
<polyline fill="none" vector-effect="none" points="601,421 609.55,421 " />
<polyline fill="none" vector-effect="none" points="1447.45,421 1456,421 " />
<polyline fill="none" vector-effect="none" points="601,335.5 609.55,335.5 " />
<polyline fill="none" vector-effect="none" points="1447.45,335.5 1456,335.5 " />
<polyline fill="none" vector-effect="none" points="601,250 609.55,250 " />
<polyline fill="none" vector-effect="none" points="1447.45,250 1456,250 " />
<polyline fill="none" vector-effect="none" points="601,164.5 609.55,164.5 " />
<polyline fill="none" vector-effect="none" points="1447.45,164.5 1456,164.5 " />
<polyline fill="none" vector-effect="none" points="601,79 609.55,79 " />
<polyline fill="none" vector-effect="none" points="1447.45,79 1456,79 " />
</g>

<g fill="#d9d9d9" fill-opacity="1" stroke="#d9d9d9" stroke-opacity="1" stroke-width="1" stroke-linecap="square" stroke-linejoin="bevel" transform="matrix(0.5,0,0,0.5,28.5,436)"
font-family="Helvetica" font-size="20" font-weight="400" font-style="normal" 
>
<text fill="#d9d9d9" fill-opacity="1" stroke="none" xml:space="preserve" x="0" y="0.390625" font-family="Helvetica" font-size="20" font-weight="400" font-style="normal" 
 >0</text>
</g>

<g fill="#d9d9d9" fill-opacity="1" stroke="#d9d9d9" stroke-opacity="1" stroke-width="1" stroke-linecap="square" stroke-linejoin="bevel" transform="matrix(0.5,0,0,0.5,20,393.25)"
font-family="Helvetica" font-size="20" font-weight="400" font-style="normal" 
>
<text fill="#d9d9d9" fill-opacity="1" stroke="none" xml:space="preserve" x="0" y="0.390625" font-family="Helvetica" font-size="20" font-weight="400" font-style="normal" 
 >0.1</text>
</g>

<g fill="#d9d9d9" fill-opacity="1" stroke="#d9d9d9" stroke-opacity="1" stroke-width="1" stroke-linecap="square" stroke-linejoin="bevel" transform="matrix(0.5,0,0,0.5,20,350.5)"
font-family="Helvetica" font-size="20" font-weight="400" font-style="normal" 
>
<text fill="#d9d9d9" fill-opacity="1" stroke="none" xml:space="preserve" x="0" y="0.390625" font-family="Helvetica" font-size="20" font-weight="400" font-style="normal" 
 >0.2</text>
</g>

<g fill="#d9d9d9" fill-opacity="1" stroke="#d9d9d9" stroke-opacity="1" stroke-width="1" stroke-linecap="square" stroke-linejoin="bevel" transform="matrix(0.5,0,0,0.5,20,307.75)"
font-family="Helvetica" font-size="20" font-weight="400" font-style="normal" 
>
<text fill="#d9d9d9" fill-opacity="1" stroke="none" xml:space="preserve" x="0" y="0.390625" font-family="Helvetica" font-size="20" font-weight="400" font-style="normal" 
 >0.3</text>
</g>

<g fill="#d9d9d9" fill-opacity="1" stroke="#d9d9d9" stroke-opacity="1" stroke-width="1" stroke-linecap="square" stroke-linejoin="bevel" transform="matrix(0.5,0,0,0.5,20,265)"
font-family="Helvetica" font-size="20" font-weight="400" font-style="normal" 
>
<text fill="#d9d9d9" fill-opacity="1" stroke="none" xml:space="preserve" x="0" y="0.390625" font-family="Helvetica" font-size="20" font-weight="400" font-style="normal" 
 >0.4</text>
</g>

<g fill="#d9d9d9" fill-opacity="1" stroke="#d9d9d9" stroke-opacity="1" stroke-width="1" stroke-linecap="square" stroke-linejoin="bevel" transform="matrix(0.5,0,0,0.5,20,222.25)"
font-family="Helvetica" font-size="20" font-weight="400" font-style="normal" 
>
<text fill="#d9d9d9" fill-opacity="1" stroke="none" xml:space="preserve" x="0" y="0.390625" font-family="Helvetica" font-size="20" font-weight="400" font-style="normal" 
 >0.5</text>
</g>

<g fill="#d9d9d9" fill-opacity="1" stroke="#d9d9d9" stroke-opacity="1" stroke-width="1" stroke-linecap="square" stroke-linejoin="bevel" transform="matrix(0.5,0,0,0.5,20,179.5)"
font-family="Helvetica" font-size="20" font-weight="400" font-style="normal" 
>
<text fill="#d9d9d9" fill-opacity="1" stroke="none" xml:space="preserve" x="0" y="0.390625" font-family="Helvetica" font-size="20" font-weight="400" font-style="normal" 
 >0.6</text>
</g>

<g fill="#d9d9d9" fill-opacity="1" stroke="#d9d9d9" stroke-opacity="1" stroke-width="1" stroke-linecap="square" stroke-linejoin="bevel" transform="matrix(0.5,0,0,0.5,20,136.75)"
font-family="Helvetica" font-size="20" font-weight="400" font-style="normal" 
>
<text fill="#d9d9d9" fill-opacity="1" stroke="none" xml:space="preserve" x="0" y="0.390625" font-family="Helvetica" font-size="20" font-weight="400" font-style="normal" 
 >0.7</text>
</g>

<g fill="#d9d9d9" fill-opacity="1" stroke="#d9d9d9" stroke-opacity="1" stroke-width="1" stroke-linecap="square" stroke-linejoin="bevel" transform="matrix(0.5,0,0,0.5,20,94)"
font-family="Helvetica" font-size="20" font-weight="400" font-style="normal" 
>
<text fill="#d9d9d9" fill-opacity="1" stroke="none" xml:space="preserve" x="0" y="0.390625" font-family="Helvetica" font-size="20" font-weight="400" font-style="normal" 
 >0.8</text>
</g>

<g fill="#d9d9d9" fill-opacity="1" stroke="#d9d9d9" stroke-opacity="1" stroke-width="1" stroke-linecap="square" stroke-linejoin="bevel" transform="matrix(0.5,0,0,0.5,20,51.25)"
font-family="Helvetica" font-size="20" font-weight="400" font-style="normal" 
>
<text fill="#d9d9d9" fill-opacity="1" stroke="none" xml:space="preserve" x="0" y="0.390625" font-family="Helvetica" font-size="20" font-weight="400" font-style="normal" 
 >0.9</text>
</g>

<g fill="#d9d9d9" fill-opacity="1" stroke="#d9d9d9" stroke-opacity="1" stroke-width="1" stroke-linecap="square" stroke-linejoin="bevel" transform="matrix(0.5,0,0,0.5,28.5,8.5)"
font-family="Helvetica" font-size="20" font-weight="400" font-style="normal" 
>
<text fill="#d9d9d9" fill-opacity="1" stroke="none" xml:space="preserve" x="0" y="0.390625" font-family="Helvetica" font-size="20" font-weight="400" font-style="normal" 
 >1</text>
</g>

<g fill="none" stroke="#00ff00" stroke-opacity="1" stroke-width="1" stroke-linecap="butt" stroke-linejoin="miter" stroke-miterlimit="2" transform="matrix(0.5,0,0,0.5,-262.5,-33.5)"
font-family="Helvetica" font-size="20" font-weight="400" font-style="normal" 
>
<polyline fill="none" vector-effect="none" points="601,917.59 601.836,917.59 601.836,915.131 602.672,915.131 602.672,912.686 603.507,912.686 603.507,910.234 604.343,910.234 604.343,907.839 605.179,907.839 605.179,905.436 606.015,905.436 606.015,902.878 606.85,902.878 606.85,900.476 607.686,900.476 607.686,898.088 608.522,898.088 608.522,895.522 609.358,895.522 609.358,893.63 610.194,893.63 610.194,890.538 611.029,890.538 611.029,888.673 611.865,888.673 611.865,886.531 612.701,886.531 612.701,884.046 613.537,884.046 613.537,881.129 614.372,881.129 614.372,879.472 615.208,879.472 615.208,877.657 616.044,877.657 616.044,873.453 616.88,873.453 616.88,871.001 617.716,871.001 617.716,871.001 618.551,871.001 618.551,868.261 619.387,868.261 619.387,865.178 620.223,865.178 620.223,861.684 621.059,861.684 621.059,861.684 621.894,861.684 621.894,857.69 622.73,857.69 622.73,857.69 623.566,857.69 623.566,853.083 624.402,853.083 624.402,853.083 625.238,853.083 625.238,847.707 626.073,847.707 626.073,847.707 626.909,847.707 626.909,841.354 627.745,841.354 627.745,841.354 628.581,841.354 628.581,841.354 629.416,841.354 629.416,841.354 630.252,841.354 630.252,833.731 631.088,833.731 631.088,833.731 631.924,833.731 631.924,833.731 632.76,833.731 632.76,824.413 633.595,824.413 633.595,824.413 634.431,824.413 634.431,824.413 635.267,824.413 635.267,824.413 636.103,824.413 636.103,824.413 636.938,824.413 636.938,812.766 637.774,812.766 637.774,812.766 638.61,812.766 638.61,812.766 639.446,812.766 639.446,812.766 640.282,812.766 640.282,812.766 641.117,812.766 641.117,812.766 641.953,812.766 641.953,797.791 642.789,797.791 642.789,797.791 643.625,797.791 643.625,797.791 644.46,797.791 644.46,797.791 645.296,797.791 645.296,797.791 646.132,797.791 646.132,797.791 646.968,797.791 646.968,797.791 647.804,797.791 647.804,797.791 648.639,797.791 648.639,777.825 649.475,777.825 649.475,777.825 650.311,777.825 650.311,777.825 651.147,777.825 651.147,777.825 651.982,777.825 651.982,777.825 652.818,777.825 652.818,777.825 653.654,777.825 653.654,777.825 654.49,777.825 654.49,777.825 655.326,777.825 655.326,777.825 656.161,777.825 656.161,777.825 656.997,777.825 656.997,777.825 657.833,777.825 657.833,777.825 658.669,777.825 658.669,749.872 659.504,749.872 659.504,749.872 660.34,749.872 660.34,749.872 661.176,749.872 661.176,749.872 662.012,749.872 662.012,749.872 662.848,749.872 662.848,749.872 663.683,749.872 663.683,749.872 664.519,749.872 664.519,749.872 665.355,749.872 665.355,749.872 666.191,749.872 666.191,749.872 667.026,749.872 667.026,749.872 667.862,749.872 667.862,749.872 668.698,749.872 668.698,749.872 669.534,749.872 669.534,749.872 670.37,749.872 670.37,749.872 671.205,749.872 671.205,749.872 672.041,749.872 672.041,749.872 672.877,749.872 672.877,707.942 673.713,707.942 673.713,707.942 674.548,707.942 674.548,707.942 675.384,707.942 675.384,707.942 676.22,707.942 676.22,707.942 677.056,707.942 677.056,707.942 677.891,707.942 677.891,707.942 678.727,707.942 678.727,707.942 679.563,707.942 679.563,707.942 680.399,707.942 680.399,707.942 681.235,707.942 681.235,707.942 682.07,707.942 682.07,707.942 682.906,707.942 682.906,707.942 683.742,707.942 683.742,707.942 684.578,707.942 684.578,707.942 685.414,707.942 685.414,707.942 686.249,707.942 686.249,707.942 687.085,707.942 687.085,707.942 687.921,707.942 687.921,707.942 688.757,707.942 688.757,707.942 689.592,707.942 689.592,707.942 690.428,707.942 690.428,707.942 691.264,707.942 691.264,707.942 692.1,707.942 692.1,707.942 692.935,707.942 692.935,707.942 693.771,707.942 693.771,707.942 694.607,707.942 694.607,707.942 695.443,707.942 695.443,707.942 696.279,707.942 696.279,638.06 697.114,638.06 697.114,638.06 697.95,638.06 697.95,638.06 698.786,638.06 698.786,638.06 699.622,638.06 699.622,638.06 700.457,638.06 700.457,638.06 701.293,638.06 701.293,638.06 702.129,638.06 702.129,638.06 702.965,638.06 702.965,638.06 703.801,638.06 703.801,638.06 704.636,638.06 704.636,638.06 705.472,638.06 705.472,638.06 706.308,638.06 706.308,638.06 707.144,638.06 707.144,638.06 707.979,638.06 707.979,638.06 708.815,638.06 708.815,638.06 709.651,638.06 709.651,638.06 710.487,638.06 710.487,638.06 711.323,638.06 711.323,638.06 712.158,638.06 712.158,638.06 712.994,638.06 712.994,638.06 713.83,638.06 713.83,638.06 714.666,638.06 714.666,638.06 715.501,638.06 715.501,638.06 716.337,638.06 716.337,638.06 717.173,638.06 717.173,638.06 718.009,638.06 718.009,638.06 718.845,638.06 718.845,638.06 719.68,638.06 719.68,638.06 720.516,638.06 720.516,638.06 721.352,638.06 721.352,638.06 722.188,638.06 722.188,638.06 723.023,638.06 723.023,638.06 723.859,638.06 723.859,638.06 724.695,638.06 724.695,638.06 725.531,638.06 725.531,638.06 726.367,638.06 726.367,638.06 727.202,638.06 727.202,638.06 728.038,638.06 728.038,638.06 728.874,638.06 728.874,638.06 729.71,638.06 729.71,638.06 730.545,638.06 730.545,638.06 731.381,638.06 731.381,638.06 732.217,638.06 732.217,638.06 733.053,638.06 733.053,638.06 733.889,638.06 733.889,638.06 734.724,638.06 734.724,638.06 735.56,638.06 735.56,638.06 736.396,638.06 736.396,638.06 737.232,638.06 737.232,638.06 738.067,638.06 738.067,638.06 738.903,638.06 738.903,638.06 739.739,638.06 739.739,638.06 740.575,638.06 740.575,638.06 741.411,638.06 741.411,638.06 742.246,638.06 742.246,638.06 743.082,638.06 743.082,638.06 743.918,638.06 743.918,498.295 744.754,498.295 744.754,498.295 745.589,498.295 745.589,498.295 746.425,498.295 746.425,498.295 747.261,498.295 747.261,498.295 748.097,498.295 748.097,498.295 748.933,498.295 748.933,498.295 749.768,498.295 749.768,498.295 750.604,498.295 750.604,498.295 751.44,498.295 751.44,498.295 752.276,498.295 752.276,498.295 753.111,498.295 753.111,498.295 753.947,498.295 753.947,498.295 754.783,498.295 754.783,498.295 755.619,498.295 755.619,498.295 756.455,498.295 756.455,498.295 757.29,498.295 757.29,498.295 758.126,498.295 758.126,498.295 758.962,498.295 758.962,498.295 759.798,498.295 759.798,498.295 760.633,498.295 760.633,498.295 761.469,498.295 761.469,498.295 762.305,498.295 762.305,498.295 763.141,498.295 763.141,498.295 763.977,498.295 763.977,498.295 764.812,498.295 764.812,498.295 765.648,498.295 765.648,498.295 766.484,498.295 766.484,498.295 767.32,498.295 767.32,498.295 768.155,498.295 768.155,498.295 768.991,498.295 768.991,498.295 769.827,498.295 769.827,498.295 770.663,498.295 770.663,498.295 771.499,498.295 771.499,498.295 772.334,498.295 772.334,498.295 773.17,498.295 773.17,498.295 774.006,498.295 774.006,498.295 774.842,498.295 774.842,498.295 775.677,498.295 775.677,498.295 776.513,498.295 776.513,498.295 777.349,498.295 777.349,498.295 778.185,498.295 778.185,498.295 779.021,498.295 779.021,498.295 779.856,498.295 779.856,498.295 780.692,498.295 780.692,498.295 781.528,498.295 781.528,498.295 782.364,498.295 782.364,498.295 783.199,498.295 783.199,498.295 784.035,498.295 784.035,498.295 784.871,498.295 784.871,498.295 785.707,498.295 785.707,498.295 786.543,498.295 786.543,498.295 787.378,498.295 787.378,498.295 788.214,498.295 788.214,498.295 789.05,498.295 789.05,498.295 789.886,498.295 789.886,498.295 790.721,498.295 790.721,498.295 791.557,498.295 791.557,498.295 792.393,498.295 792.393,498.295 793.229,498.295 793.229,498.295 794.065,498.295 794.065,498.295 794.9,498.295 794.9,498.295 795.736,498.295 795.736,498.295 796.572,498.295 796.572,498.295 797.408,498.295 797.408,498.295 798.243,498.295 798.243,498.295 799.079,498.295 799.079,498.295 799.915,498.295 799.915,498.295 800.751,498.295 800.751,498.295 801.586,498.295 801.586,498.295 802.422,498.295 802.422,498.295 803.258,498.295 803.258,498.295 804.094,498.295 804.094,498.295 804.93,498.295 804.93,498.295 805.765,498.295 805.765,498.295 806.601,498.295 806.601,498.295 807.437,498.295 807.437,498.295 808.273,498.295 808.273,498.295 809.109,498.295 809.109,498.295 809.944,498.295 809.944,498.295 810.78,498.295 810.78,498.295 811.616,498.295 811.616,498.295 812.452,498.295 812.452,498.295 813.287,498.295 813.287,498.295 814.123,498.295 814.123,498.295 814.959,498.295 814.959,498.295 815.795,498.295 815.795,498.295 816.63,498.295 816.63,498.295 817.466,498.295 817.466,498.295 818.302,498.295 818.302,498.295 819.138,498.295 819.138,498.295 819.974,498.295 819.974,498.295 820.809,498.295 820.809,498.295 821.645,498.295 821.645,498.295 822.481,498.295 822.481,498.295 823.317,498.295 823.317,498.295 824.153,498.295 824.153,498.295 824.988,498.295 824.988,498.295 825.824,498.295 825.824,498.295 826.66,498.295 826.66,498.295 827.496,498.295 827.496,498.295 828.331,498.295 828.331,498.295 829.167,498.295 829.167,498.295 830.003,498.295 830.003,498.295 830.839,498.295 830.839,498.295 831.674,498.295 831.674,498.295 832.51,498.295 832.51,498.295 833.346,498.295 833.346,498.295 834.182,498.295 834.182,498.295 835.018,498.295 835.018,498.295 835.853,498.295 835.853,498.295 836.689,498.295 836.689,498.295 837.525,498.295 837.525,498.295 838.361,498.295 838.361,498.295 839.196,498.295 839.196,498.295 840.032,498.295 840.032,498.295 840.868,498.295 840.868,498.295 841.704,498.295 841.704,498.295 842.54,498.295 842.54,498.295 843.375,498.295 843.375,498.295 844.211,498.295 844.211,498.295 845.047,498.295 845.047,498.295 845.883,498.295 845.883,498.295 846.719,498.295 846.719,498.295 847.554,498.295 847.554,498.295 848.39,498.295 848.39,498.295 849.226,498.295 849.226,498.295 850.062,498.295 850.062,498.295 850.897,498.295 850.897,498.295 851.733,498.295 851.733,498.295 852.569,498.295 852.569,498.295 853.405,498.295 853.405,498.295 854.24,498.295 854.24,498.295 855.076,498.295 855.076,498.295 855.912,498.295 855.912,498.295 856.748,498.295 856.748,498.295 857.584,498.295 857.584,498.295 858.419,498.295 858.419,498.295 859.255,498.295 859.255,498.295 860.091,498.295 860.091,498.295 860.927,498.295 860.927,498.295 861.762,498.295 861.762,498.295 862.598,498.295 862.598,498.295 863.434,498.295 863.434,498.295 864.27,498.295 864.27,498.295 865.106,498.295 865.106,498.295 865.941,498.295 865.941,498.295 866.777,498.295 866.777,498.295 867.613,498.295 867.613,498.295 868.449,498.295 868.449,498.295 869.284,498.295 869.284,498.295 870.12,498.295 870.12,498.295 870.956,498.295 870.956,498.295 871.792,498.295 871.792,498.295 872.628,498.295 872.628,498.295 873.463,498.295 873.463,498.295 874.299,498.295 874.299,498.295 875.135,498.295 875.135,498.295 875.971,498.295 875.971,498.295 876.806,498.295 876.806,498.295 877.642,498.295 877.642,498.295 878.478,498.295 878.478,498.295 879.314,498.295 879.314,498.295 880.15,498.295 880.15,498.295 880.985,498.295 880.985,498.295 881.821,498.295 881.821,498.295 882.657,498.295 882.657,498.295 883.493,498.295 883.493,498.295 884.328,498.295 884.328,498.295 885.164,498.295 885.164,498.295 886,498.295 886,79 886.836,79 886.836,79 887.672,79 887.672,79 888.507,79 888.507,79 889.343,79 889.343,79 890.179,79 890.179,79 891.015,79 891.015,79 891.85,79 891.85,79 892.686,79 892.686,79 893.522,79 893.522,79 894.358,79 894.358,79 895.194,79 895.194,79 896.029,79 896.029,79 896.865,79 896.865,79 897.701,79 897.701,79 898.537,79 898.537,79 899.372,79 899.372,79 900.208,79 900.208,79 901.044,79 901.044,79 901.88,79 901.88,79 902.716,79 902.716,79 903.551,79 903.551,79 904.387,79 904.387,79 905.223,79 905.223,79 906.059,79 906.059,79 906.894,79 906.894,79 907.73,79 907.73,79 908.566,79 908.566,79 909.402,79 909.402,79 910.238,79 910.238,79 911.073,79 911.073,79 911.909,79 911.909,79 912.745,79 912.745,79 913.581,79 913.581,79 914.416,79 914.416,79 915.252,79 915.252,79 916.088,79 916.088,79 916.924,79 916.924,79 917.76,79 917.76,79 918.595,79 918.595,79 919.431,79 919.431,79 920.267,79 920.267,79 921.103,79 921.103,79 921.938,79 921.938,79 922.774,79 922.774,79 923.61,79 923.61,79 924.446,79 924.446,79 925.281,79 925.281,79 926.117,79 926.117,79 926.953,79 926.953,79 927.789,79 927.789,79 928.625,79 928.625,79 929.46,79 929.46,79 930.296,79 930.296,79 931.132,79 931.132,79 931.968,79 931.968,79 932.804,79 932.804,79 933.639,79 933.639,79 934.475,79 934.475,79 935.311,79 935.311,79 936.147,79 936.147,79 936.982,79 936.982,79 937.818,79 937.818,79 938.654,79 938.654,79 939.49,79 939.49,79 940.326,79 940.326,79 941.161,79 941.161,79 941.997,79 941.997,79 942.833,79 942.833,79 943.669,79 943.669,79 944.504,79 944.504,79 945.34,79 945.34,79 946.176,79 946.176,79 947.012,79 947.012,79 947.848,79 947.848,79 948.683,79 948.683,79 949.519,79 949.519,79 950.355,79 950.355,79 951.191,79 951.191,79 952.026,79 952.026,79 952.862,79 952.862,79 953.698,79 953.698,79 954.534,79 954.534,79 955.37,79 955.37,79 956.205,79 956.205,79 957.041,79 957.041,79 957.877,79 957.877,79 958.713,79 958.713,79 959.548,79 959.548,79 960.384,79 960.384,79 961.22,79 961.22,79 962.056,79 962.056,79 962.891,79 962.891,79 963.727,79 963.727,79 964.563,79 964.563,79 965.399,79 965.399,79 966.235,79 966.235,79 967.07,79 967.07,79 967.906,79 967.906,79 968.742,79 968.742,79 969.578,79 969.578,79 970.413,79 970.413,79 971.249,79 971.249,79 972.085,79 972.085,79 972.921,79 972.921,79 973.757,79 973.757,79 974.592,79 974.592,79 975.428,79 975.428,79 976.264,79 976.264,79 977.1,79 977.1,79 977.935,79 977.935,79 978.771,79 978.771,79 979.607,79 979.607,79 980.443,79 980.443,79 981.279,79 981.279,79 982.114,79 982.114,79 982.95,79 982.95,79 983.786,79 983.786,79 984.622,79 984.622,79 985.457,79 985.457,79 986.293,79 986.293,79 987.129,79 987.129,79 987.965,79 987.965,79 988.801,79 988.801,79 989.636,79 989.636,79 990.472,79 990.472,79 991.308,79 991.308,79 992.144,79 992.144,79 992.979,79 992.979,79 993.815,79 993.815,79 994.651,79 994.651,79 995.487,79 995.487,79 996.323,79 996.323,79 997.158,79 997.158,79 997.994,79 997.994,79 998.83,79 998.83,79 999.666,79 999.666,79 1000.5,79 1000.5,79 1001.34,79 1001.34,79 1002.17,79 1002.17,79 1003.01,79 1003.01,79 1003.84,79 1003.84,79 1004.68,79 1004.68,79 1005.52,79 1005.52,79 1006.35,79 1006.35,79 1007.19,79 1007.19,79 1008.02,79 1008.02,79 1008.86,79 1008.86,79 1009.7,79 1009.7,79 1010.53,79 1010.53,79 1011.37,79 1011.37,79 1012.2,79 1012.2,79 1013.04,79 1013.04,79 1013.87,79 1013.87,79 1014.71,79 1014.71,79 1015.55,79 1015.55,79 1016.38,79 1016.38,79 1017.22,79 1017.22,79 1018.05,79 1018.05,79 1018.89,79 1018.89,79 1019.72,79 1019.72,79 1020.56,79 1020.56,79 1021.4,79 1021.4,79 1022.23,79 1022.23,79 1023.07,79 1023.07,79 1023.9,79 1023.9,79 1024.74,79 1024.74,79 1025.57,79 1025.57,79 1026.41,79 1026.41,79 1027.25,79 1027.25,79 1028.08,79 1028.08,79 1028.92,79 1028.92,79 1029.75,79 1029.75,79 1030.59,79 1030.59,79 1031.43,79 1031.43,79 1032.26,79 1032.26,79 1033.1,79 1033.1,79 1033.93,79 1033.93,79 1034.77,79 1034.77,79 1035.6,79 1035.6,79 1036.44,79 1036.44,79 1037.28,79 1037.28,79 1038.11,79 1038.11,79 1038.95,79 1038.95,79 1039.78,79 1039.78,79 1040.62,79 1040.62,79 1041.45,79 1041.45,79 1042.29,79 1042.29,79 1043.13,79 1043.13,79 1043.96,79 1043.96,79 1044.8,79 1044.8,79 1045.63,79 1045.63,79 1046.47,79 1046.47,79 1047.31,79 1047.31,79 1048.14,79 1048.14,79 1048.98,79 1048.98,79 1049.81,79 1049.81,79 1050.65,79 1050.65,79 1051.48,79 1051.48,79 1052.32,79 1052.32,79 1053.16,79 1053.16,79 1053.99,79 1053.99,79 1054.83,79 1054.83,79 1055.66,79 1055.66,79 1056.5,79 1056.5,79 1057.33,79 1057.33,79 1058.17,79 1058.17,79 1059.01,79 1059.01,79 1059.84,79 1059.84,79 1060.68,79 1060.68,79 1061.51,79 1061.51,79 1062.35,79 1062.35,79 1063.18,79 1063.18,79 1064.02,79 1064.02,79 1064.86,79 1064.86,79 1065.69,79 1065.69,79 1066.53,79 1066.53,79 1067.36,79 1067.36,79 1068.2,79 1068.2,79 1069.04,79 1069.04,79 1069.87,79 1069.87,79 1070.71,79 1070.71,79 1071.54,79 1071.54,79 1072.38,79 1072.38,79 1073.21,79 1073.21,79 1074.05,79 1074.05,79 1074.89,79 1074.89,79 1075.72,79 1075.72,79 1076.56,79 1076.56,79 1077.39,79 1077.39,79 1078.23,79 1078.23,79 1079.06,79 1079.06,79 1079.9,79 1079.9,79 1080.74,79 1080.74,79 1081.57,79 1081.57,79 1082.41,79 1082.41,79 1083.24,79 1083.24,79 1084.08,79 1084.08,79 1084.91,79 1084.91,79 1085.75,79 1085.75,79 1086.59,79 1086.59,79 1087.42,79 1087.42,79 1088.26,79 1088.26,79 1089.09,79 1089.09,79 1089.93,79 1089.93,79 1090.77,79 1090.77,79 1091.6,79 1091.6,79 1092.44,79 1092.44,79 1093.27,79 1093.27,79 1094.11,79 1094.11,79 1094.94,79 1094.94,79 1095.78,79 1095.78,79 1096.62,79 1096.62,79 1097.45,79 1097.45,79 1098.29,79 1098.29,79 1099.12,79 1099.12,79 1099.96,79 1099.96,79 1100.79,79 1100.79,79 1101.63,79 1101.63,79 1102.47,79 1102.47,79 1103.3,79 1103.3,79 1104.14,79 1104.14,79 1104.97,79 1104.97,79 1105.81,79 1105.81,79 1106.65,79 1106.65,79 1107.48,79 1107.48,79 1108.32,79 1108.32,79 1109.15,79 1109.15,79 1109.99,79 1109.99,79 1110.82,79 1110.82,79 1111.66,79 1111.66,79 1112.5,79 1112.5,79 1113.33,79 1113.33,79 1114.17,79 1114.17,79 1115,79 1115,79 1115.84,79 1115.84,79 1116.67,79 1116.67,79 1117.51,79 1117.51,79 1118.35,79 1118.35,79 1119.18,79 1119.18,79 1120.02,79 1120.02,79 1120.85,79 1120.85,79 1121.69,79 1121.69,79 1122.52,79 1122.52,79 1123.36,79 1123.36,79 1124.2,79 1124.2,79 1125.03,79 1125.03,79 1125.87,79 1125.87,79 1126.7,79 1126.7,79 1127.54,79 1127.54,79 1128.38,79 1128.38,79 1129.21,79 1129.21,79 1130.05,79 1130.05,79 1130.88,79 1130.88,79 1131.72,79 1131.72,79 1132.55,79 1132.55,79 1133.39,79 1133.39,79 1134.23,79 1134.23,79 1135.06,79 1135.06,79 1135.9,79 1135.9,79 1136.73,79 1136.73,79 1137.57,79 1137.57,79 1138.4,79 1138.4,79 1139.24,79 1139.24,79 1140.08,79 1140.08,79 1140.91,79 1140.91,79 1141.75,79 1141.75,79 1142.58,79 1142.58,79 1143.42,79 1143.42,79 1144.26,79 1144.26,79 1145.09,79 1145.09,79 1145.93,79 1145.93,79 1146.76,79 1146.76,79 1147.6,79 1147.6,79 1148.43,79 1148.43,79 1149.27,79 1149.27,79 1150.11,79 1150.11,79 1150.94,79 1150.94,79 1151.78,79 1151.78,79 1152.61,79 1152.61,79 1153.45,79 1153.45,79 1154.28,79 1154.28,79 1155.12,79 1155.12,79 1155.96,79 1155.96,79 1156.79,79 1156.79,79 1157.63,79 1157.63,79 1158.46,79 1158.46,79 1159.3,79 1159.3,79 1160.13,79 1160.13,79 1160.97,79 1160.97,79 1161.81,79 1161.81,79 1162.64,79 1162.64,79 1163.48,79 1163.48,79 1164.31,79 1164.31,79 1165.15,79 1165.15,79 1165.99,79 1165.99,79 1166.82,79 1166.82,79 1167.66,79 1167.66,79 1168.49,79 1168.49,79 1169.33,79 1169.33,79 1170.16,79 1170.16,79 1171,79 1171,79 1171.84,79 1171.84,79 1172.67,79 1172.67,79 1173.51,79 1173.51,79 1174.34,79 1174.34,79 1175.18,79 1175.18,79 1176.01,79 1176.01,79 1176.85,79 1176.85,79 1177.69,79 1177.69,79 1178.52,79 1178.52,79 1179.36,79 1179.36,79 1180.19,79 1180.19,79 1181.03,79 1181.03,79 1181.87,79 1181.87,79 1182.7,79 1182.7,79 1183.54,79 1183.54,79 1184.37,79 1184.37,79 1185.21,79 1185.21,79 1186.04,79 1186.04,79 1186.88,79 1186.88,79 1187.72,79 1187.72,79 1188.55,79 1188.55,79 1189.39,79 1189.39,79 1190.22,79 1190.22,79 1191.06,79 1191.06,79 1191.89,79 1191.89,79 1192.73,79 1192.73,79 1193.57,79 1193.57,79 1194.4,79 1194.4,79 1195.24,79 1195.24,79 1196.07,79 1196.07,79 1196.91,79 1196.91,79 1197.74,79 1197.74,79 1198.58,79 1198.58,79 1199.42,79 1199.42,79 1200.25,79 1200.25,79 1201.09,79 1201.09,79 1201.92,79 1201.92,79 1202.76,79 1202.76,79 1203.6,79 1203.6,79 1204.43,79 1204.43,79 1205.27,79 1205.27,79 1206.1,79 1206.1,79 1206.94,79 1206.94,79 1207.77,79 1207.77,79 1208.61,79 1208.61,79 1209.45,79 1209.45,79 1210.28,79 1210.28,79 1211.12,79 1211.12,79 1211.95,79 1211.95,79 1212.79,79 1212.79,79 1213.62,79 1213.62,79 1214.46,79 1214.46,79 1215.3,79 1215.3,79 1216.13,79 1216.13,79 1216.97,79 1216.97,79 1217.8,79 1217.8,79 1218.64,79 1218.64,79 1219.48,79 1219.48,79 1220.31,79 1220.31,79 1221.15,79 1221.15,79 1221.98,79 1221.98,79 1222.82,79 1222.82,79 1223.65,79 1223.65,79 1224.49,79 1224.49,79 1225.33,79 1225.33,79 1226.16,79 1226.16,79 1227,79 1227,79 1227.83,79 1227.83,79 1228.67,79 1228.67,79 1229.5,79 1229.5,79 1230.34,79 1230.34,79 1231.18,79 1231.18,79 1232.01,79 1232.01,79 1232.85,79 1232.85,79 1233.68,79 1233.68,79 1234.52,79 1234.52,79 1235.35,79 1235.35,79 1236.19,79 1236.19,79 1237.03,79 1237.03,79 1237.86,79 1237.86,79 1238.7,79 1238.7,79 1239.53,79 1239.53,79 1240.37,79 1240.37,79 1241.21,79 1241.21,79 1242.04,79 1242.04,79 1242.88,79 1242.88,79 1243.71,79 1243.71,79 1244.55,79 1244.55,79 1245.38,79 1245.38,79 1246.22,79 1246.22,79 1247.06,79 1247.06,79 1247.89,79 1247.89,79 1248.73,79 1248.73,79 1249.56,79 1249.56,79 1250.4,79 1250.4,79 1251.23,79 1251.23,79 1252.07,79 1252.07,79 1252.91,79 1252.91,79 1253.74,79 1253.74,79 1254.58,79 1254.58,79 1255.41,79 1255.41,79 1256.25,79 1256.25,79 1257.09,79 1257.09,79 1257.92,79 1257.92,79 1258.76,79 1258.76,79 1259.59,79 1259.59,79 1260.43,79 1260.43,79 1261.26,79 1261.26,79 1262.1,79 1262.1,79 1262.94,79 1262.94,79 1263.77,79 1263.77,79 1264.61,79 1264.61,79 1265.44,79 1265.44,79 1266.28,79 1266.28,79 1267.11,79 1267.11,79 1267.95,79 1267.95,79 1268.79,79 1268.79,79 1269.62,79 1269.62,79 1270.46,79 1270.46,79 1271.29,79 1271.29,79 1272.13,79 1272.13,79 1272.96,79 1272.96,79 1273.8,79 1273.8,79 1274.64,79 1274.64,79 1275.47,79 1275.47,79 1276.31,79 1276.31,79 1277.14,79 1277.14,79 1277.98,79 1277.98,79 1278.82,79 1278.82,79 1279.65,79 1279.65,79 1280.49,79 1280.49,79 1281.32,79 1281.32,79 1282.16,79 1282.16,79 1282.99,79 1282.99,79 1283.83,79 1283.83,79 1284.67,79 1284.67,79 1285.5,79 1285.5,79 1286.34,79 1286.34,79 1287.17,79 1287.17,79 1288.01,79 1288.01,79 1288.84,79 1288.84,79 1289.68,79 1289.68,79 1290.52,79 1290.52,79 1291.35,79 1291.35,79 1292.19,79 1292.19,79 1293.02,79 1293.02,79 1293.86,79 1293.86,79 1294.7,79 1294.7,79 1295.53,79 1295.53,79 1296.37,79 1296.37,79 1297.2,79 1297.2,79 1298.04,79 1298.04,79 1298.87,79 1298.87,79 1299.71,79 1299.71,79 1300.55,79 1300.55,79 1301.38,79 1301.38,79 1302.22,79 1302.22,79 1303.05,79 1303.05,79 1303.89,79 1303.89,79 1304.72,79 1304.72,79 1305.56,79 1305.56,79 1306.4,79 1306.4,79 1307.23,79 1307.23,79 1308.07,79 1308.07,79 1308.9,79 1308.9,79 1309.74,79 1309.74,79 1310.57,79 1310.57,79 1311.41,79 1311.41,79 1312.25,79 1312.25,79 1313.08,79 1313.08,79 1313.92,79 1313.92,79 1314.75,79 1314.75,79 1315.59,79 1315.59,79 1316.43,79 1316.43,79 1317.26,79 1317.26,79 1318.1,79 1318.1,79 1318.93,79 1318.93,79 1319.77,79 1319.77,79 1320.6,79 1320.6,79 1321.44,79 1321.44,79 1322.28,79 1322.28,79 1323.11,79 1323.11,79 1323.95,79 1323.95,79 1324.78,79 1324.78,79 1325.62,79 1325.62,79 1326.45,79 1326.45,79 1327.29,79 1327.29,79 1328.13,79 1328.13,79 1328.96,79 1328.96,79 1329.8,79 1329.8,79 1330.63,79 1330.63,79 1331.47,79 1331.47,79 1332.3,79 1332.3,79 1333.14,79 1333.14,79 1333.98,79 1333.98,79 1334.81,79 1334.81,79 1335.65,79 1335.65,79 1336.48,79 1336.48,79 1337.32,79 1337.32,79 1338.16,79 1338.16,79 1338.99,79 1338.99,79 1339.83,79 1339.83,79 1340.66,79 1340.66,79 1341.5,79 1341.5,79 1342.33,79 1342.33,79 1343.17,79 1343.17,79 1344.01,79 1344.01,79 1344.84,79 1344.84,79 1345.68,79 1345.68,79 1346.51,79 1346.51,79 1347.35,79 1347.35,79 1348.18,79 1348.18,79 1349.02,79 1349.02,79 1349.86,79 1349.86,79 1350.69,79 1350.69,79 1351.53,79 1351.53,79 1352.36,79 1352.36,79 1353.2,79 1353.2,79 1354.04,79 1354.04,79 1354.87,79 1354.87,79 1355.71,79 1355.71,79 1356.54,79 1356.54,79 1357.38,79 1357.38,79 1358.21,79 1358.21,79 1359.05,79 1359.05,79 1359.89,79 1359.89,79 1360.72,79 1360.72,79 1361.56,79 1361.56,79 1362.39,79 1362.39,79 1363.23,79 1363.23,79 1364.06,79 1364.06,79 1364.9,79 1364.9,79 1365.74,79 1365.74,79 1366.57,79 1366.57,79 1367.41,79 1367.41,79 1368.24,79 1368.24,79 1369.08,79 1369.08,79 1369.91,79 1369.91,79 1370.75,79 1370.75,79 1371.59,79 1371.59,79 1372.42,79 1372.42,79 1373.26,79 1373.26,79 1374.09,79 1374.09,79 1374.93,79 1374.93,79 1375.77,79 1375.77,79 1376.6,79 1376.6,79 1377.44,79 1377.44,79 1378.27,79 1378.27,79 1379.11,79 1379.11,79 1379.94,79 1379.94,79 1380.78,79 1380.78,79 1381.62,79 1381.62,79 1382.45,79 1382.45,79 1383.29,79 1383.29,79 1384.12,79 1384.12,79 1384.96,79 1384.96,79 1385.79,79 1385.79,79 1386.63,79 1386.63,79 1387.47,79 1387.47,79 1388.3,79 1388.3,79 1389.14,79 1389.14,79 1389.97,79 1389.97,79 1390.81,79 1390.81,79 1391.65,79 1391.65,79 1392.48,79 1392.48,79 1393.32,79 1393.32,79 1394.15,79 1394.15,79 1394.99,79 1394.99,79 1395.82,79 1395.82,79 1396.66,79 1396.66,79 1397.5,79 1397.5,79 1398.33,79 1398.33,79 1399.17,79 1399.17,79 1400,79 1400,79 1400.84,79 1400.84,79 1401.67,79 1401.67,79 1402.51,79 1402.51,79 1403.35,79 1403.35,79 1404.18,79 1404.18,79 1405.02,79 1405.02,79 1405.85,79 1405.85,79 1406.69,79 1406.69,79 1407.52,79 1407.52,79 1408.36,79 1408.36,79 1409.2,79 1409.2,79 1410.03,79 1410.03,79 1410.87,79 1410.87,79 1411.7,79 1411.7,79 1412.54,79 1412.54,79 1413.38,79 1413.38,79 1414.21,79 1414.21,79 1415.05,79 1415.05,79 1415.88,79 1415.88,79 1416.72,79 1416.72,79 1417.55,79 1417.55,79 1418.39,79 1418.39,79 1419.23,79 1419.23,79 1420.06,79 1420.06,79 1420.9,79 1420.9,79 1421.73,79 1421.73,79 1422.57,79 1422.57,79 1423.4,79 1423.4,79 1424.24,79 1424.24,79 1425.08,79 1425.08,79 1425.91,79 1425.91,79 1426.75,79 1426.75,79 1427.58,79 1427.58,79 1428.42,79 1428.42,79 1429.26,79 1429.26,79 1430.09,79 1430.09,79 1430.93,79 1430.93,79 1431.76,79 1431.76,79 1432.6,79 1432.6,79 1433.43,79 1433.43,79 1434.27,79 1434.27,79 1435.11,79 1435.11,79 1435.94,79 1435.94,79 1436.78,79 1436.78,79 1437.61,79 1437.61,79 1438.45,79 1438.45,79 1439.28,79 1439.28,79 1440.12,79 1440.12,79 1440.96,79 1440.96,79 1441.79,79 1441.79,79 1442.63,79 1442.63,79 1443.46,79 1443.46,79 1444.3,79 1444.3,79 1445.13,79 1445.13,79 1445.97,79 1445.97,79 1446.81,79 1446.81,79 1447.64,79 1447.64,79 1448.48,79 1448.48,79 1449.31,79 1449.31,79 1450.15,79 1450.15,79 1450.99,79 1450.99,79 1451.82,79 1451.82,79 1452.66,79 1452.66,79 1453.49,79 1453.49,79 1454.33,79 1454.33,79 1455.16,79 1455.16,79 1456,79 1456,79 " />
</g>
</g>
</svg>
