<?xml version="1.0" encoding="UTF-8" standalone="no"?>
<svg width="129.117mm" height="126.647mm"
 viewBox="0 0 366 359"
 xmlns="http://www.w3.org/2000/svg" xmlns:xlink="http://www.w3.org/1999/xlink"  version="1.2" baseProfile="tiny">
<title>Qt SVG Document</title>
<desc>MATLAB, The MathWorks, Inc. Version 25.1.0.2973910 R2025a Update 1</desc>
<defs>
</defs>
<g fill="none" stroke="black" stroke-width="1" fill-rule="evenodd" stroke-linecap="square" stroke-linejoin="bevel" >

<g fill="#000000" fill-opacity="1" stroke="none" transform="matrix(0.757895,0,0,0.757895,-25.5895,-28.8)"
font-family="Sans Serif" font-size="9" font-weight="400" font-style="normal" 
>
<path vector-effect="none" fill-rule="evenodd" d="M32,36 L516,36 L516,511 L32,511 L32,36"/>
</g>

<g fill="#121212" fill-opacity="1" stroke="none" transform="matrix(7.57895e-05,0,0,7.57895e-05,-25.5895,-28.8)"
font-family="Sans Serif" font-size="9" font-weight="400" font-style="normal" 
>
<path vector-effect="none" fill-rule="evenodd" d="M730000,400000 L730000,4.72e+06 L5.11e+06,4.72e+06 L5.11e+06,400000 L730000,400000"/>
</g>

<g fill="#ffffff" fill-opacity="0.25098" stroke="#ffffff" stroke-opacity="0.25098" stroke-width="0.659722" stroke-linecap="butt" stroke-linejoin="round" transform="matrix(0.757895,0,0,0.757895,-25.5895,-28.8)"
font-family="Sans Serif" font-size="9" font-weight="400" font-style="normal" 
>
<polyline fill="none" vector-effect="none" points="73,40 73,472 " />
<polyline fill="none" vector-effect="none" points="146,40 146,472 " />
<polyline fill="none" vector-effect="none" points="219,40 219,472 " />
<polyline fill="none" vector-effect="none" points="292,40 292,472 " />
<polyline fill="none" vector-effect="none" points="365,40 365,472 " />
<polyline fill="none" vector-effect="none" points="438,40 438,472 " />
<polyline fill="none" vector-effect="none" points="511,40 511,472 " />
<polyline fill="none" vector-effect="none" points="73,472 511,472 " />
<polyline fill="none" vector-effect="none" points="73,406.602 511,406.602 " />
<polyline fill="none" vector-effect="none" points="73,341.204 511,341.204 " />
<polyline fill="none" vector-effect="none" points="73,275.806 511,275.806 " />
<polyline fill="none" vector-effect="none" points="73,210.409 511,210.409 " />
<polyline fill="none" vector-effect="none" points="73,145.011 511,145.011 " />
<polyline fill="none" vector-effect="none" points="73,79.613 511,79.613 " />
</g>

<g fill="#d9d9d9" fill-opacity="1" stroke="#d9d9d9" stroke-opacity="1" stroke-width="1" stroke-linecap="square" stroke-linejoin="bevel" transform="matrix(0.757895,0,0,0.757895,161.989,355.147)"
font-family="Helvetica" font-size="14" font-weight="400" font-style="normal" 
>
<text fill="#d9d9d9" fill-opacity="1" stroke="none" xml:space="preserve" x="0" y="0" font-family="Helvetica" font-size="14" font-weight="400" font-style="normal" 
 >velocity (cm/s)</text>
</g>

<g fill="#d9d9d9" fill-opacity="1" stroke="#d9d9d9" stroke-opacity="1" stroke-width="0.659722" stroke-linecap="square" stroke-linejoin="round" transform="matrix(0.757895,0,0,0.757895,-25.5895,-28.8)"
font-family="Helvetica" font-size="14" font-weight="400" font-style="normal" 
>
<polyline fill="none" vector-effect="none" points="73,472 511,472 " />
<polyline fill="none" vector-effect="none" points="73,40 511,40 " />
<polyline fill="none" vector-effect="none" points="73,472 73,467.62 " />
<polyline fill="none" vector-effect="none" points="73,44.38 73,40 " />
<polyline fill="none" vector-effect="none" points="146,472 146,467.62 " />
<polyline fill="none" vector-effect="none" points="146,44.38 146,40 " />
<polyline fill="none" vector-effect="none" points="219,472 219,467.62 " />
<polyline fill="none" vector-effect="none" points="219,44.38 219,40 " />
<polyline fill="none" vector-effect="none" points="292,472 292,467.62 " />
<polyline fill="none" vector-effect="none" points="292,44.38 292,40 " />
<polyline fill="none" vector-effect="none" points="365,472 365,467.62 " />
<polyline fill="none" vector-effect="none" points="365,44.38 365,40 " />
<polyline fill="none" vector-effect="none" points="438,472 438,467.62 " />
<polyline fill="none" vector-effect="none" points="438,44.38 438,40 " />
<polyline fill="none" vector-effect="none" points="511,472 511,467.62 " />
<polyline fill="none" vector-effect="none" points="511,44.38 511,40 " />
</g>

<g fill="#d9d9d9" fill-opacity="1" stroke="#d9d9d9" stroke-opacity="1" stroke-width="1" stroke-linecap="square" stroke-linejoin="bevel" transform="matrix(0.757895,0,0,0.757895,25.1895,342.021)"
font-family="Helvetica" font-size="13" font-weight="400" font-style="normal" 
>
<text fill="#d9d9d9" fill-opacity="1" stroke="none" xml:space="preserve" x="0" y="0" font-family="Helvetica" font-size="13" font-weight="400" font-style="normal" 
 >-6</text>
</g>

<g fill="#d9d9d9" fill-opacity="1" stroke="#d9d9d9" stroke-opacity="1" stroke-width="1" stroke-linecap="square" stroke-linejoin="bevel" transform="matrix(0.757895,0,0,0.757895,80.5158,342.021)"
font-family="Helvetica" font-size="13" font-weight="400" font-style="normal" 
>
<text fill="#d9d9d9" fill-opacity="1" stroke="none" xml:space="preserve" x="0" y="0" font-family="Helvetica" font-size="13" font-weight="400" font-style="normal" 
 >-4</text>
</g>

<g fill="#d9d9d9" fill-opacity="1" stroke="#d9d9d9" stroke-opacity="1" stroke-width="1" stroke-linecap="square" stroke-linejoin="bevel" transform="matrix(0.757895,0,0,0.757895,135.842,342.021)"
font-family="Helvetica" font-size="13" font-weight="400" font-style="normal" 
>
<text fill="#d9d9d9" fill-opacity="1" stroke="none" xml:space="preserve" x="0" y="0" font-family="Helvetica" font-size="13" font-weight="400" font-style="normal" 
 >-2</text>
</g>

<g fill="#d9d9d9" fill-opacity="1" stroke="#d9d9d9" stroke-opacity="1" stroke-width="1" stroke-linecap="square" stroke-linejoin="bevel" transform="matrix(0.757895,0,0,0.757895,193.063,342.021)"
font-family="Helvetica" font-size="13" font-weight="400" font-style="normal" 
>
<text fill="#d9d9d9" fill-opacity="1" stroke="none" xml:space="preserve" x="0" y="0" font-family="Helvetica" font-size="13" font-weight="400" font-style="normal" 
 >0</text>
</g>

<g fill="#d9d9d9" fill-opacity="1" stroke="#d9d9d9" stroke-opacity="1" stroke-width="1" stroke-linecap="square" stroke-linejoin="bevel" transform="matrix(0.757895,0,0,0.757895,248.389,342.021)"
font-family="Helvetica" font-size="13" font-weight="400" font-style="normal" 
>
<text fill="#d9d9d9" fill-opacity="1" stroke="none" xml:space="preserve" x="0" y="0" font-family="Helvetica" font-size="13" font-weight="400" font-style="normal" 
 >2</text>
</g>

<g fill="#d9d9d9" fill-opacity="1" stroke="#d9d9d9" stroke-opacity="1" stroke-width="1" stroke-linecap="square" stroke-linejoin="bevel" transform="matrix(0.757895,0,0,0.757895,303.716,342.021)"
font-family="Helvetica" font-size="13" font-weight="400" font-style="normal" 
>
<text fill="#d9d9d9" fill-opacity="1" stroke="none" xml:space="preserve" x="0" y="0" font-family="Helvetica" font-size="13" font-weight="400" font-style="normal" 
 >4</text>
</g>

<g fill="#d9d9d9" fill-opacity="1" stroke="#d9d9d9" stroke-opacity="1" stroke-width="1" stroke-linecap="square" stroke-linejoin="bevel" transform="matrix(0.757895,0,0,0.757895,359.042,342.021)"
font-family="Helvetica" font-size="13" font-weight="400" font-style="normal" 
>
<text fill="#d9d9d9" fill-opacity="1" stroke="none" xml:space="preserve" x="0" y="0" font-family="Helvetica" font-size="13" font-weight="400" font-style="normal" 
 >6</text>
</g>

<g fill="#d9d9d9" fill-opacity="1" stroke="#d9d9d9" stroke-opacity="1" stroke-width="1" stroke-linecap="square" stroke-linejoin="bevel" transform="matrix(0,-0.757895,0.757895,0,9.09474,230.779)"
font-family="Helvetica" font-size="14" font-weight="400" font-style="normal" 
>
<text fill="#d9d9d9" fill-opacity="1" stroke="none" xml:space="preserve" x="0" y="0" font-family="Helvetica" font-size="14" font-weight="400" font-style="normal" 
 >velocity spectrum/histogram</text>
</g>

<g fill="#d9d9d9" fill-opacity="1" stroke="#d9d9d9" stroke-opacity="1" stroke-width="0.659722" stroke-linecap="square" stroke-linejoin="round" transform="matrix(0.757895,0,0,0.757895,-25.5895,-28.8)"
font-family="Helvetica" font-size="14" font-weight="400" font-style="normal" 
>
<polyline fill="none" vector-effect="none" points="73,472 73,40 " />
<polyline fill="none" vector-effect="none" points="511,472 511,40 " />
<polyline fill="none" vector-effect="none" points="73,472 77.38,472 " />
<polyline fill="none" vector-effect="none" points="506.62,472 511,472 " />
<polyline fill="none" vector-effect="none" points="73,406.602 77.38,406.602 " />
<polyline fill="none" vector-effect="none" points="506.62,406.602 511,406.602 " />
<polyline fill="none" vector-effect="none" points="73,341.204 77.38,341.204 " />
<polyline fill="none" vector-effect="none" points="506.62,341.204 511,341.204 " />
<polyline fill="none" vector-effect="none" points="73,275.806 77.38,275.806 " />
<polyline fill="none" vector-effect="none" points="506.62,275.806 511,275.806 " />
<polyline fill="none" vector-effect="none" points="73,210.409 77.38,210.409 " />
<polyline fill="none" vector-effect="none" points="506.62,210.409 511,210.409 " />
<polyline fill="none" vector-effect="none" points="73,145.011 77.38,145.011 " />
<polyline fill="none" vector-effect="none" points="506.62,145.011 511,145.011 " />
<polyline fill="none" vector-effect="none" points="73,79.613 77.38,79.613 " />
<polyline fill="none" vector-effect="none" points="506.62,79.613 511,79.613 " />
</g>

<g fill="#d9d9d9" fill-opacity="1" stroke="#d9d9d9" stroke-opacity="1" stroke-width="1" stroke-linecap="square" stroke-linejoin="bevel" transform="matrix(0.757895,0,0,0.757895,20.4316,332.337)"
font-family="Helvetica" font-size="13" font-weight="400" font-style="normal" 
>
<text fill="#d9d9d9" fill-opacity="1" stroke="none" xml:space="preserve" x="0" y="0" font-family="Helvetica" font-size="13" font-weight="400" font-style="normal" 
 >0</text>
</g>

<g fill="#d9d9d9" fill-opacity="1" stroke="#d9d9d9" stroke-opacity="1" stroke-width="1" stroke-linecap="square" stroke-linejoin="bevel" transform="matrix(0.757895,0,0,0.757895,15.1263,282.772)"
font-family="Helvetica" font-size="13" font-weight="400" font-style="normal" 
>
<text fill="#d9d9d9" fill-opacity="1" stroke="none" xml:space="preserve" x="0" y="0" font-family="Helvetica" font-size="13" font-weight="400" font-style="normal" 
 >10</text>
</g>

<g fill="#d9d9d9" fill-opacity="1" stroke="#d9d9d9" stroke-opacity="1" stroke-width="1" stroke-linecap="square" stroke-linejoin="bevel" transform="matrix(0.757895,0,0,0.757895,15.1263,233.207)"
font-family="Helvetica" font-size="13" font-weight="400" font-style="normal" 
>
<text fill="#d9d9d9" fill-opacity="1" stroke="none" xml:space="preserve" x="0" y="0" font-family="Helvetica" font-size="13" font-weight="400" font-style="normal" 
 >20</text>
</g>

<g fill="#d9d9d9" fill-opacity="1" stroke="#d9d9d9" stroke-opacity="1" stroke-width="1" stroke-linecap="square" stroke-linejoin="bevel" transform="matrix(0.757895,0,0,0.757895,15.1263,183.643)"
font-family="Helvetica" font-size="13" font-weight="400" font-style="normal" 
>
<text fill="#d9d9d9" fill-opacity="1" stroke="none" xml:space="preserve" x="0" y="0" font-family="Helvetica" font-size="13" font-weight="400" font-style="normal" 
 >30</text>
</g>

<g fill="#d9d9d9" fill-opacity="1" stroke="#d9d9d9" stroke-opacity="1" stroke-width="1" stroke-linecap="square" stroke-linejoin="bevel" transform="matrix(0.757895,0,0,0.757895,15.1263,134.078)"
font-family="Helvetica" font-size="13" font-weight="400" font-style="normal" 
>
<text fill="#d9d9d9" fill-opacity="1" stroke="none" xml:space="preserve" x="0" y="0" font-family="Helvetica" font-size="13" font-weight="400" font-style="normal" 
 >40</text>
</g>

<g fill="#d9d9d9" fill-opacity="1" stroke="#d9d9d9" stroke-opacity="1" stroke-width="1" stroke-linecap="square" stroke-linejoin="bevel" transform="matrix(0.757895,0,0,0.757895,15.1263,84.5135)"
font-family="Helvetica" font-size="13" font-weight="400" font-style="normal" 
>
<text fill="#d9d9d9" fill-opacity="1" stroke="none" xml:space="preserve" x="0" y="0" font-family="Helvetica" font-size="13" font-weight="400" font-style="normal" 
 >50</text>
</g>

<g fill="#d9d9d9" fill-opacity="1" stroke="#d9d9d9" stroke-opacity="1" stroke-width="1" stroke-linecap="square" stroke-linejoin="bevel" transform="matrix(0.757895,0,0,0.757895,15.1263,34.9488)"
font-family="Helvetica" font-size="13" font-weight="400" font-style="normal" 
>
<text fill="#d9d9d9" fill-opacity="1" stroke="none" xml:space="preserve" x="0" y="0" font-family="Helvetica" font-size="13" font-weight="400" font-style="normal" 
 >60</text>
</g>

<g fill="#808080" fill-opacity="0.6" stroke="none" transform="matrix(7.57895e-05,0,0,7.57895e-05,-25.5895,-28.8)"
font-family="Helvetica" font-size="13" font-weight="400" font-style="normal" 
>
<path vector-effect="none" fill-rule="evenodd" d="M2.92e+06,399999 L2.92e+06,4.72e+06 L2.97512e+06,4.72e+06 L2.97512e+06,399999 L2.92e+06,399999"/>
</g>

<g fill="#808080" fill-opacity="0.6" stroke="none" transform="matrix(7.57895e-05,0,0,7.57895e-05,-25.5895,-28.8)"
font-family="Helvetica" font-size="13" font-weight="400" font-style="normal" 
>
<path vector-effect="none" fill-rule="evenodd" d="M2.97512e+06,4.04925e+06 L2.97512e+06,4.72e+06 L3.03023e+06,4.72e+06 L3.03023e+06,4.04925e+06 L2.97512e+06,4.04925e+06"/>
</g>

<g fill="#808080" fill-opacity="0.6" stroke="none" transform="matrix(7.57895e-05,0,0,7.57895e-05,-25.5895,-28.8)"
font-family="Helvetica" font-size="13" font-weight="400" font-style="normal" 
>
<path vector-effect="none" fill-rule="evenodd" d="M3.03023e+06,4.04693e+06 L3.03023e+06,4.72e+06 L3.08535e+06,4.72e+06 L3.14046e+06,4.72e+06 L3.14046e+06,4.04693e+06 L3.08535e+06,4.04693e+06 L3.03023e+06,4.04693e+06"/>
</g>

<g fill="#808080" fill-opacity="0.6" stroke="none" transform="matrix(7.57895e-05,0,0,7.57895e-05,-25.5895,-28.8)"
font-family="Helvetica" font-size="13" font-weight="400" font-style="normal" 
>
<path vector-effect="none" fill-rule="evenodd" d="M3.14046e+06,4.04636e+06 L3.14046e+06,4.72e+06 L3.19558e+06,4.72e+06 L3.19558e+06,4.04636e+06 L3.14046e+06,4.04636e+06"/>
</g>

<g fill="#808080" fill-opacity="0.6" stroke="none" transform="matrix(7.57895e-05,0,0,7.57895e-05,-25.5895,-28.8)"
font-family="Helvetica" font-size="13" font-weight="400" font-style="normal" 
>
<path vector-effect="none" fill-rule="evenodd" d="M3.19558e+06,4.05387e+06 L3.19558e+06,4.72e+06 L3.25069e+06,4.72e+06 L3.25069e+06,4.05387e+06 L3.19558e+06,4.05387e+06"/>
</g>

<g fill="#808080" fill-opacity="0.6" stroke="none" transform="matrix(7.57895e-05,0,0,7.57895e-05,-25.5895,-28.8)"
font-family="Helvetica" font-size="13" font-weight="400" font-style="normal" 
>
<path vector-effect="none" fill-rule="evenodd" d="M3.25069e+06,4.04289e+06 L3.25069e+06,4.72e+06 L3.30581e+06,4.72e+06 L3.30581e+06,4.04289e+06 L3.25069e+06,4.04289e+06"/>
</g>

<g fill="#808080" fill-opacity="0.6" stroke="none" transform="matrix(7.57895e-05,0,0,7.57895e-05,-25.5895,-28.8)"
font-family="Helvetica" font-size="13" font-weight="400" font-style="normal" 
>
<path vector-effect="none" fill-rule="evenodd" d="M3.30581e+06,4.04925e+06 L3.30581e+06,4.72e+06 L3.36092e+06,4.72e+06 L3.36092e+06,4.04925e+06 L3.30581e+06,4.04925e+06"/>
</g>

<g fill="#808080" fill-opacity="0.6" stroke="none" transform="matrix(7.57895e-05,0,0,7.57895e-05,-25.5895,-28.8)"
font-family="Helvetica" font-size="13" font-weight="400" font-style="normal" 
>
<path vector-effect="none" fill-rule="evenodd" d="M3.36092e+06,4.04578e+06 L3.36092e+06,4.72e+06 L3.41604e+06,4.72e+06 L3.47115e+06,4.72e+06 L3.47115e+06,4.04578e+06 L3.41604e+06,4.04578e+06 L3.36092e+06,4.04578e+06"/>
</g>

<g fill="#808080" fill-opacity="0.6" stroke="none" transform="matrix(7.57895e-05,0,0,7.57895e-05,-25.5895,-28.8)"
font-family="Helvetica" font-size="13" font-weight="400" font-style="normal" 
>
<path vector-effect="none" fill-rule="evenodd" d="M3.47115e+06,4.05387e+06 L3.47115e+06,4.72e+06 L3.52627e+06,4.72e+06 L3.52627e+06,4.05387e+06 L3.47115e+06,4.05387e+06"/>
</g>

<g fill="#808080" fill-opacity="0.6" stroke="none" transform="matrix(7.57895e-05,0,0,7.57895e-05,-25.5895,-28.8)"
font-family="Helvetica" font-size="13" font-weight="400" font-style="normal" 
>
<path vector-effect="none" fill-rule="evenodd" d="M3.52627e+06,4.04462e+06 L3.52627e+06,4.72e+06 L3.58138e+06,4.72e+06 L3.58138e+06,4.04462e+06 L3.52627e+06,4.04462e+06"/>
</g>

<g fill="#808080" fill-opacity="0.6" stroke="none" transform="matrix(7.57895e-05,0,0,7.57895e-05,-25.5895,-28.8)"
font-family="Helvetica" font-size="13" font-weight="400" font-style="normal" 
>
<path vector-effect="none" fill-rule="evenodd" d="M3.58138e+06,4.04578e+06 L3.58138e+06,4.72e+06 L3.6365e+06,4.72e+06 L3.6365e+06,4.04578e+06 L3.58138e+06,4.04578e+06"/>
</g>

<g fill="#808080" fill-opacity="0.6" stroke="none" transform="matrix(7.57895e-05,0,0,7.57895e-05,-25.5895,-28.8)"
font-family="Helvetica" font-size="13" font-weight="400" font-style="normal" 
>
<path vector-effect="none" fill-rule="evenodd" d="M3.6365e+06,4.05214e+06 L3.6365e+06,4.72e+06 L3.69161e+06,4.72e+06 L3.69161e+06,4.05214e+06 L3.6365e+06,4.05214e+06"/>
</g>

<g fill="#808080" fill-opacity="0.6" stroke="none" transform="matrix(7.57895e-05,0,0,7.57895e-05,-25.5895,-28.8)"
font-family="Helvetica" font-size="13" font-weight="400" font-style="normal" 
>
<path vector-effect="none" fill-rule="evenodd" d="M3.69161e+06,4.04346e+06 L3.69161e+06,4.72e+06 L3.74673e+06,4.72e+06 L3.74673e+06,4.04346e+06 L3.69161e+06,4.04346e+06"/>
</g>

<g fill="#808080" fill-opacity="0.6" stroke="none" transform="matrix(7.57895e-05,0,0,7.57895e-05,-25.5895,-28.8)"
font-family="Helvetica" font-size="13" font-weight="400" font-style="normal" 
>
<path vector-effect="none" fill-rule="evenodd" d="M3.74673e+06,4.05272e+06 L3.74673e+06,4.72e+06 L3.80184e+06,4.72e+06 L3.80184e+06,4.05272e+06 L3.74673e+06,4.05272e+06"/>
</g>

<g fill="#808080" fill-opacity="0.6" stroke="none" transform="matrix(7.57895e-05,0,0,7.57895e-05,-25.5895,-28.8)"
font-family="Helvetica" font-size="13" font-weight="400" font-style="normal" 
>
<path vector-effect="none" fill-rule="evenodd" d="M3.80184e+06,4.04867e+06 L3.80184e+06,4.72e+06 L3.85696e+06,4.72e+06 L3.85696e+06,4.04867e+06 L3.80184e+06,4.04867e+06"/>
</g>

<g fill="#808080" fill-opacity="0.6" stroke="none" transform="matrix(7.57895e-05,0,0,7.57895e-05,-25.5895,-28.8)"
font-family="Helvetica" font-size="13" font-weight="400" font-style="normal" 
>
<path vector-effect="none" fill-rule="evenodd" d="M3.85696e+06,4.04578e+06 L3.85696e+06,4.72e+06 L3.91207e+06,4.72e+06 L3.96719e+06,4.72e+06 L3.96719e+06,4.04578e+06 L3.91207e+06,4.04578e+06 L3.85696e+06,4.04578e+06"/>
</g>

<g fill="#808080" fill-opacity="0.6" stroke="none" transform="matrix(7.57895e-05,0,0,7.57895e-05,-25.5895,-28.8)"
font-family="Helvetica" font-size="13" font-weight="400" font-style="normal" 
>
<path vector-effect="none" fill-rule="evenodd" d="M3.96719e+06,4.13295e+06 L3.96719e+06,4.72e+06 L4.0223e+06,4.72e+06 L4.0223e+06,4.13295e+06 L3.96719e+06,4.13295e+06"/>
</g>

<g fill="none" stroke="#ffffff" stroke-opacity="1" stroke-width="0.659722" stroke-linecap="butt" stroke-linejoin="round" transform="matrix(0.757895,0,0,0.757895,-25.5895,-28.8)"
font-family="Helvetica" font-size="13" font-weight="400" font-style="normal" 
>
<polyline fill="none" vector-effect="none" points="73,471.356 74.095,471.358 75.19,471.361 76.285,471.363 77.38,471.365 78.475,471.367 79.57,471.369 80.665,471.371 81.76,471.373 82.855,471.375 83.95,471.377 85.045,471.378 86.14,471.38 87.235,471.382 88.33,471.383 89.425,471.385 90.52,471.386 91.615,471.388 92.71,471.389 93.805,471.39 94.9,471.392 95.995,471.393 97.09,471.394 98.185,471.395 99.28,471.396 100.375,471.397 101.47,471.398 102.565,471.399 103.66,471.4 104.755,471.401 105.85,471.402 106.945,471.403 108.04,471.403 109.135,471.404 110.23,471.405 111.325,471.405 112.42,471.406 113.515,471.406 114.61,471.407 115.705,471.407 116.8,471.408 117.895,471.408 118.99,471.408 120.085,471.409 121.18,471.409 122.275,471.409 123.37,471.409 124.465,471.409 125.56,471.409 126.655,471.409 127.75,471.409 128.845,471.409 129.94,471.409 131.035,471.409 132.13,471.409 133.225,471.409 134.32,471.409 135.415,471.408 136.51,471.408 137.605,471.408 138.7,471.407 139.795,471.407 140.89,471.406 141.985,471.406 143.08,471.405 144.175,471.405 145.27,471.404 146.365,471.403 147.46,471.402 148.555,471.402 149.65,471.401 150.745,471.4 151.84,471.399 152.935,471.398 154.03,471.397 155.125,471.396 156.22,471.395 157.315,471.394 158.41,471.393 159.505,471.391 160.6,471.39 161.695,471.389 162.79,471.387 163.885,471.386 164.98,471.385 166.075,471.383 167.17,471.381 168.265,471.38 169.36,471.378 170.455,471.376 171.55,471.375 172.645,471.373 173.74,471.371 174.835,471.369 175.93,471.367 177.025,471.365 178.12,471.363 179.215,471.361 180.31,471.358 181.405,471.356 182.5,471.354 183.595,471.351 184.69,471.349 185.785,471.346 186.88,471.343 187.975,471.341 189.07,471.338 190.165,471.335 191.26,471.332 192.355,471.329 193.45,471.326 194.545,471.323 195.64,471.32 196.735,471.316 197.83,471.313 198.925,471.31 200.02,471.306 201.115,471.302 202.21,471.299 203.305,471.295 204.4,471.291 205.495,471.287 206.59,471.283 207.685,471.278 208.78,471.274 209.875,471.27 210.97,471.265 212.065,471.26 213.16,471.256 214.255,471.251 215.35,471.246 216.445,471.24 217.54,471.235 218.635,471.23 219.73,471.224 220.825,471.218 221.92,471.212 223.015,471.206 224.11,471.2 225.205,471.194 226.3,471.187 227.395,471.18 228.49,471.173 229.585,471.166 230.68,471.159 231.775,471.151 232.87,471.144 233.965,471.136 235.06,471.127 236.155,471.119 237.25,471.11 238.345,471.101 239.44,471.092 240.535,471.082 241.63,471.072 242.725,471.062 243.82,471.052 244.915,471.041 246.01,471.03 247.105,471.018 248.2,471.006 249.295,470.994 250.39,470.981 251.485,470.967 252.58,470.953 253.675,470.939 254.77,470.924 255.865,470.908 256.96,470.892 258.055,470.875 259.15,470.858 260.245,470.839 261.34,470.82 262.435,470.8 263.53,470.779 264.625,470.757 265.72,470.733 266.815,470.709 267.91,470.683 269.005,470.655 270.1,470.626 271.195,470.596 272.29,470.563 273.385,470.528 274.48,470.49 275.575,470.45 276.67,470.406 277.765,470.359 278.86,470.307 279.955,470.25 281.05,470.187 282.145,470.116 283.24,470.036 284.335,469.945 285.43,469.838 286.525,469.71 287.62,469.551 288.715,469.343 289.81,469.046 290.905,468.529 292,40 293.095,467.757 294.19,468.161 295.285,468.229 296.38,468.169 297.475,468.147 298.57,468.233 299.665,468.418 300.76,468.636 301.855,468.807 302.95,468.877 304.045,468.843 305.14,468.748 306.235,468.645 307.33,468.571 308.425,468.544 309.52,468.564 310.615,468.621 311.71,468.701 312.805,468.79 313.9,468.874 314.995,468.947 316.09,469.003 317.185,469.044 318.28,469.071 319.375,469.086 320.47,469.094 321.565,469.096 322.66,469.095 323.755,469.093 324.85,469.09 325.945,469.087 327.04,469.084 328.135,469.082 329.23,469.081 330.325,469.079 331.42,469.079 332.515,469.079 333.61,469.078 334.705,469.078 335.8,469.079 336.895,469.079 337.99,469.079 339.085,469.079 340.18,469.079 341.275,469.079 342.37,469.079 343.465,469.079 344.56,469.078 345.655,469.077 346.75,469.077 347.845,469.076 348.94,469.074 350.035,469.073 351.13,469.071 352.225,469.069 353.32,469.067 354.415,469.065 355.51,469.062 356.605,469.059 357.7,469.056 358.795,469.052 359.89,469.048 360.985,469.044 362.08,469.04 363.175,469.035 364.27,469.03 365.365,469.024 366.46,469.018 367.555,469.012 368.65,469.005 369.745,468.997 370.84,468.989 371.935,468.981 373.03,468.972 374.125,468.962 375.22,468.952 376.315,468.94 377.41,468.928 378.505,468.915 379.6,468.901 380.695,468.886 381.79,468.869 382.885,468.851 383.98,468.832 385.075,468.811 386.17,468.787 387.265,468.761 388.36,468.733 389.455,468.701 390.55,468.664 391.645,468.623 392.74,468.576 393.835,468.521 394.93,468.455 396.025,468.375 397.12,468.273 398.215,468.138 399.31,467.941 400.405,467.6 401.5,466.546 402.595,468.453 403.69,469.02 404.785,469.329 405.88,469.542 406.975,469.704 408.07,469.834 409.165,469.942 410.26,470.034 411.355,470.115 412.45,470.186 413.545,470.249 414.64,470.306 415.735,470.358 416.83,470.406 417.925,470.45 419.02,470.49 420.115,470.528 421.21,470.563 422.305,470.596 423.4,470.627 424.495,470.656 425.59,470.683 426.685,470.709 427.78,470.734 428.875,470.757 429.97,470.779 431.065,470.801 432.16,470.821 433.255,470.84 434.35,470.858 435.445,470.876 436.54,470.893 437.635,470.909 438.73,470.925 439.825,470.94 440.92,470.954 442.015,470.968 443.11,470.981 444.205,470.994 445.3,471.007 446.395,471.019 447.49,471.03 448.585,471.042 449.68,471.052 450.775,471.063 451.87,471.073 452.965,471.083 454.06,471.092 455.155,471.102 456.25,471.111 457.345,471.119 458.44,471.128 459.535,471.136 460.63,471.144 461.725,471.152 462.82,471.159 463.915,471.167 465.01,471.174 466.105,471.181 467.2,471.188 468.295,471.194 469.39,471.2 470.485,471.207 471.58,471.213 472.675,471.219 473.77,471.224 474.865,471.23 475.96,471.235 477.055,471.241 478.15,471.246 479.245,471.251 480.34,471.256 481.435,471.261 482.53,471.265 483.625,471.27 484.72,471.274 485.815,471.279 486.91,471.283 488.005,471.287 489.1,471.291 490.195,471.295 491.29,471.299 492.385,471.303 493.48,471.306 494.575,471.31 495.67,471.313 496.765,471.317 497.86,471.32 498.955,471.323 500.05,471.326 501.145,471.329 502.24,471.332 503.335,471.335 504.43,471.338 505.525,471.341 506.62,471.344 507.715,471.346 508.81,471.349 509.905,471.351 511,471.354 " />
</g>

<g fill="none" stroke="#00ff00" stroke-opacity="1" stroke-width="0.659722" stroke-linecap="butt" stroke-linejoin="round" transform="matrix(0.757895,0,0,0.757895,-25.5895,-28.8)"
font-family="Helvetica" font-size="13" font-weight="400" font-style="normal" 
>
<polyline fill="none" vector-effect="none" points="73,471.227 74.095,471.231 75.19,471.235 76.285,471.238 77.38,471.241 78.475,471.245 79.57,471.248 80.665,471.251 81.76,471.254 82.855,471.257 83.95,471.26 85.045,471.263 86.14,471.266 87.235,471.269 88.33,471.271 89.425,471.274 90.52,471.276 91.615,471.279 92.71,471.281 93.805,471.283 94.9,471.286 95.995,471.288 97.09,471.29 98.185,471.292 99.28,471.294 100.375,471.296 101.47,471.298 102.565,471.3 103.66,471.302 104.755,471.303 105.85,471.305 106.945,471.307 108.04,471.308 109.135,471.31 110.23,471.311 111.325,471.313 112.42,471.314 113.515,471.315 114.61,471.316 115.705,471.318 116.8,471.319 117.895,471.32 118.99,471.321 120.085,471.322 121.18,471.323 122.275,471.324 123.37,471.325 124.465,471.326 125.56,471.326 126.655,471.327 127.75,471.328 128.845,471.328 129.94,471.329 131.035,471.33 132.13,471.33 133.225,471.33 134.32,471.331 135.415,471.331 136.51,471.332 137.605,471.332 138.7,471.332 139.795,471.332 140.89,471.332 141.985,471.333 143.08,471.333 144.175,471.333 145.27,471.333 146.365,471.332 147.46,471.332 148.555,471.332 149.65,471.332 150.745,471.332 151.84,471.331 152.935,471.331 154.03,471.331 155.125,471.33 156.22,471.33 157.315,471.329 158.41,471.329 159.505,471.328 160.6,471.327 161.695,471.327 162.79,471.326 163.885,471.325 164.98,471.324 166.075,471.323 167.17,471.322 168.265,471.321 169.36,471.32 170.455,471.319 171.55,471.318 172.645,471.317 173.74,471.316 174.835,471.314 175.93,471.313 177.025,471.312 178.12,471.31 179.215,471.309 180.31,471.307 181.405,471.306 182.5,471.304 183.595,471.302 184.69,471.3 185.785,471.299 186.88,471.297 187.975,471.295 189.07,471.293 190.165,471.291 191.26,471.289 192.355,471.286 193.45,471.284 194.545,471.282 195.64,471.28 196.735,471.277 197.83,471.275 198.925,471.272 200.02,471.269 201.115,471.267 202.21,471.264 203.305,471.261 204.4,471.258 205.495,471.255 206.59,471.252 207.685,471.249 208.78,471.245 209.875,471.242 210.97,471.239 212.065,471.235 213.16,471.232 214.255,471.228 215.35,471.224 216.445,471.22 217.54,471.216 218.635,471.212 219.73,471.208 220.825,471.204 221.92,471.199 223.015,471.195 224.11,471.19 225.205,471.185 226.3,471.181 227.395,471.176 228.49,471.171 229.585,471.165 230.68,471.16 231.775,471.154 232.87,471.149 233.965,471.143 235.06,471.137 236.155,471.131 237.25,471.125 238.345,471.118 239.44,471.112 240.535,471.105 241.63,471.098 242.725,471.091 243.82,471.084 244.915,471.076 246.01,471.068 247.105,471.061 248.2,471.052 249.295,471.044 250.39,471.035 251.485,471.026 252.58,471.017 253.675,471.008 254.77,470.998 255.865,470.988 256.96,470.978 258.055,470.967 259.15,470.956 260.245,470.944 261.34,470.932 262.435,470.92 263.53,470.908 264.625,470.894 265.72,470.881 266.815,470.867 267.91,470.852 269.005,470.837 270.1,470.821 271.195,470.804 272.29,470.787 273.385,470.769 274.48,470.75 275.575,470.73 276.67,470.709 277.765,470.687 278.86,470.664 279.955,470.639 281.05,470.613 282.145,470.585 283.24,470.555 284.335,470.522 285.43,470.487 286.525,470.448 287.62,470.405 288.715,470.355 289.81,470.296 290.905,470.219 292,41.2611 293.095,470.003 294.19,469.952 295.285,469.891 296.38,469.812 297.475,469.73 298.57,469.66 299.665,469.623 300.76,469.611 301.855,469.627 302.95,469.59 304.045,469.543 305.14,469.523 306.235,469.445 307.33,469.313 308.425,469.294 309.52,469.25 310.615,469.013 311.71,469.114 312.805,469.159 313.9,469.182 314.995,469.171 316.09,469.012 317.185,468.965 318.28,469.057 319.375,469.106 320.47,469.133 321.565,469.147 322.66,469.149 323.755,469.141 324.85,469.121 325.945,469.084 327.04,469.013 328.135,468.799 329.23,468.263 330.325,468.445 331.42,468.524 332.515,468.574 333.61,468.611 334.705,468.639 335.8,468.663 336.895,468.683 337.99,468.7 339.085,468.715 340.18,468.727 341.275,468.738 342.37,468.748 343.465,468.756 344.56,468.763 345.655,468.769 346.75,468.774 347.845,468.777 348.94,468.78 350.035,468.781 351.13,468.78 352.225,468.778 353.32,468.775 354.415,468.768 355.51,468.76 356.605,468.747 357.7,468.731 358.795,468.707 359.89,468.674 360.985,468.627 362.08,468.553 363.175,468.429 364.27,468.166 365.365,465.83 366.46,466.345 367.555,466.501 368.65,466.585 369.745,466.637 370.84,466.672 371.935,466.696 373.03,466.711 374.125,466.72 375.22,466.724 376.315,466.724 377.41,466.72 378.505,466.712 379.6,466.7 380.695,466.685 381.79,466.667 382.885,466.644 383.98,466.618 385.075,466.588 386.17,466.552 387.265,466.512 388.36,466.466 389.455,466.412 390.55,466.351 391.645,466.279 392.74,466.195 393.835,466.096 394.93,465.976 396.025,465.827 397.12,465.637 398.215,465.382 399.31,465.006 400.405,464.351 401.5,462.297 402.595,465.949 403.69,467.06 404.785,467.659 405.88,468.068 406.975,468.375 408.07,468.62 409.165,468.822 410.26,468.993 411.355,469.141 412.45,469.271 413.545,469.386 414.64,469.489 415.735,469.582 416.83,469.667 417.925,469.745 419.02,469.816 420.115,469.882 421.21,469.943 422.305,470 423.4,470.053 424.495,470.103 425.59,470.15 426.685,470.194 427.78,470.236 428.875,470.275 429.97,470.312 431.065,470.347 432.16,470.381 433.255,470.413 434.35,470.443 435.445,470.472 436.54,470.5 437.635,470.526 438.73,470.552 439.825,470.576 440.92,470.599 442.015,470.622 443.11,470.643 444.205,470.664 445.3,470.684 446.395,470.703 447.49,470.722 448.585,470.739 449.68,470.757 450.775,470.773 451.87,470.789 452.965,470.805 454.06,470.82 455.155,470.834 456.25,470.848 457.345,470.862 458.44,470.875 459.535,470.888 460.63,470.9 461.725,470.912 462.82,470.924 463.915,470.935 465.01,470.947 466.105,470.957 467.2,470.968 468.295,470.978 469.39,470.988 470.485,470.997 471.58,471.007 472.675,471.016 473.77,471.024 474.865,471.033 475.96,471.041 477.055,471.049 478.15,471.057 479.245,471.065 480.34,471.073 481.435,471.08 482.53,471.087 483.625,471.094 484.72,471.101 485.815,471.108 486.91,471.114 488.005,471.121 489.1,471.127 490.195,471.133 491.29,471.139 492.385,471.144 493.48,471.15 494.575,471.155 495.67,471.161 496.765,471.166 497.86,471.171 498.955,471.176 500.05,471.181 501.145,471.186 502.24,471.19 503.335,471.195 504.43,471.199 505.525,471.204 506.62,471.208 507.715,471.212 508.81,471.216 509.905,471.22 511,471.224 " />
</g>

<g fill="#ffffff" fill-opacity="1" stroke="#ffffff" stroke-opacity="1" stroke-width="0.659722" stroke-linecap="butt" stroke-linejoin="round" transform="matrix(0.757895,0,0,0.757895,-25.5895,-28.8)"
font-family="Helvetica" font-size="13" font-weight="400" font-style="normal" 
>
<polyline fill="none" vector-effect="none" points="87.9905,67 127.48,67 " />
</g>

<g fill="#d9d9d9" fill-opacity="1" stroke="#d9d9d9" stroke-opacity="1" stroke-width="1" stroke-linecap="square" stroke-linejoin="bevel" transform="matrix(0.757895,0,0,0.757895,73.2951,19.7053)"
font-family="Helvetica" font-size="11" font-weight="400" font-style="normal" 
>
<text fill="#d9d9d9" fill-opacity="1" stroke="none" xml:space="preserve" x="0" y="0" font-family="Helvetica" font-size="11" font-weight="400" font-style="normal" 
 >velocity spectrum from</text>
</g>

<g fill="#d9d9d9" fill-opacity="1" stroke="#d9d9d9" stroke-opacity="1" stroke-width="1" stroke-linecap="square" stroke-linejoin="bevel" transform="matrix(0.757895,0,0,0.757895,73.2951,29.5579)"
font-family="Helvetica" font-size="11" font-weight="400" font-style="normal" 
>
<text fill="#d9d9d9" fill-opacity="1" stroke="none" xml:space="preserve" x="0" y="0" font-family="Helvetica" font-size="11" font-weight="400" font-style="normal" 
 >flat magnitude profile</text>
</g>

<g fill="#00ff00" fill-opacity="1" stroke="#00ff00" stroke-opacity="1" stroke-width="0.659722" stroke-linecap="butt" stroke-linejoin="round" transform="matrix(0.757895,0,0,0.757895,-25.5895,-28.8)"
font-family="Helvetica" font-size="11" font-weight="400" font-style="normal" 
>
<polyline fill="none" vector-effect="none" points="87.9905,95.5 127.48,95.5 " />
</g>

<g fill="#d9d9d9" fill-opacity="1" stroke="#d9d9d9" stroke-opacity="1" stroke-width="1" stroke-linecap="square" stroke-linejoin="bevel" transform="matrix(0.757895,0,0,0.757895,73.2951,41.3053)"
font-family="Helvetica" font-size="11" font-weight="400" font-style="normal" 
>
<text fill="#d9d9d9" fill-opacity="1" stroke="none" xml:space="preserve" x="0" y="0" font-family="Helvetica" font-size="11" font-weight="400" font-style="normal" 
 >velocity spectrum from</text>
</g>

<g fill="#d9d9d9" fill-opacity="1" stroke="#d9d9d9" stroke-opacity="1" stroke-width="1" stroke-linecap="square" stroke-linejoin="bevel" transform="matrix(0.757895,0,0,0.757895,73.2951,51.1579)"
font-family="Helvetica" font-size="11" font-weight="400" font-style="normal" 
>
<text fill="#d9d9d9" fill-opacity="1" stroke="none" xml:space="preserve" x="0" y="0" font-family="Helvetica" font-size="11" font-weight="400" font-style="normal" 
 >velocity-dependent magnitude profile</text>
</g>

<g fill="#808080" fill-opacity="0.6" stroke="none" transform="matrix(7.57895e-05,0,0,7.57895e-05,-25.5895,-28.8)"
font-family="Helvetica" font-size="11" font-weight="400" font-style="normal" 
>
<path vector-effect="none" fill-rule="evenodd" d="M879905,1.1175e+06 L879905,1.2225e+06 L1.2748e+06,1.2225e+06 L1.2748e+06,1.1175e+06 L879905,1.1175e+06"/>
</g>

<g fill="#d9d9d9" fill-opacity="1" stroke="#d9d9d9" stroke-opacity="1" stroke-width="1" stroke-linecap="square" stroke-linejoin="bevel" transform="matrix(0.757895,0,0,0.757895,73.2951,62.5263)"
font-family="Helvetica" font-size="11" font-weight="400" font-style="normal" 
>
<text fill="#d9d9d9" fill-opacity="1" stroke="none" xml:space="preserve" x="0" y="0" font-family="Helvetica" font-size="11" font-weight="400" font-style="normal" 
 >normalized velocity histogram</text>
</g>
</g>
</svg>
