<?xml version="1.0" encoding="UTF-8" standalone="no"?>
<svg width="286.808mm" height="161.925mm"
 viewBox="0 0 813 459"
 xmlns="http://www.w3.org/2000/svg" xmlns:xlink="http://www.w3.org/1999/xlink"  version="1.2" baseProfile="tiny">
<title>Qt SVG Document</title>
<desc>MATLAB, The MathWorks, Inc. Version 25.1.0.2973910 R2025a Update 1</desc>
<defs>
</defs>
<g fill="none" stroke="black" stroke-width="1" fill-rule="evenodd" stroke-linecap="square" stroke-linejoin="bevel" >

<g fill="#000000" fill-opacity="1" stroke="none" transform="matrix(0.5,0,0,0.5,-90.5,-38)"
font-family=".AppleSystemUIFont" font-size="13" font-weight="400" font-style="normal" 
>
<path vector-effect="none" fill-rule="evenodd" d="M179,74 L1806,74 L1806,992 L179,992 L179,74"/>
</g>

<g fill="#121212" fill-opacity="1" stroke="none" transform="matrix(5e-05,0,0,5e-05,-90.5,-38)"
font-family=".AppleSystemUIFont" font-size="13" font-weight="400" font-style="normal" 
>
<path vector-effect="none" fill-rule="evenodd" d="M2.58e+06,790000 L2.58e+06,9.34e+06 L1.799e+07,9.34e+06 L1.799e+07,790000 L2.58e+06,790000"/>
</g>

<g fill="#ffffff" fill-opacity="0.25098" stroke="#ffffff" stroke-opacity="0.25098" stroke-width="1" stroke-linecap="butt" stroke-linejoin="round" transform="matrix(0.5,0,0,0.5,-90.5,-38)"
font-family=".AppleSystemUIFont" font-size="13" font-weight="400" font-style="normal" 
>
<polyline fill="none" vector-effect="none" points="258,79 258,934 " />
<polyline fill="none" vector-effect="none" points="514.833,79 514.833,934 " />
<polyline fill="none" vector-effect="none" points="771.667,79 771.667,934 " />
<polyline fill="none" vector-effect="none" points="1028.5,79 1028.5,934 " />
<polyline fill="none" vector-effect="none" points="1285.33,79 1285.33,934 " />
<polyline fill="none" vector-effect="none" points="1542.17,79 1542.17,934 " />
<polyline fill="none" vector-effect="none" points="1799,79 1799,934 " />
<polyline fill="none" vector-effect="none" points="258,934 1799,934 " />
<polyline fill="none" vector-effect="none" points="258,750.954 1799,750.954 " />
<polyline fill="none" vector-effect="none" points="258,567.908 1799,567.908 " />
<polyline fill="none" vector-effect="none" points="258,384.862 1799,384.862 " />
<polyline fill="none" vector-effect="none" points="258,201.816 1799,201.816 " />
</g>

<g fill="#d9d9d9" fill-opacity="1" stroke="#d9d9d9" stroke-opacity="1" stroke-width="1" stroke-linecap="square" stroke-linejoin="bevel" transform="matrix(0.5,0,0,0.5,388.75,454)"
font-family="Helvetica" font-size="22" font-weight="400" font-style="normal" 
>
<text fill="#d9d9d9" fill-opacity="1" stroke="none" xml:space="preserve" x="0" y="-0.0625" font-family="Helvetica" font-size="22" font-weight="400" font-style="normal" 
 >velocity (cm/s)</text>
</g>

<g fill="#d9d9d9" fill-opacity="1" stroke="#d9d9d9" stroke-opacity="1" stroke-width="1" stroke-linecap="square" stroke-linejoin="round" transform="matrix(0.5,0,0,0.5,-90.5,-38)"
font-family="Helvetica" font-size="22" font-weight="400" font-style="normal" 
>
<polyline fill="none" vector-effect="none" points="258,934 1799,934 " />
<polyline fill="none" vector-effect="none" points="258,79 1799,79 " />
<polyline fill="none" vector-effect="none" points="258,934 258,918.59 " />
<polyline fill="none" vector-effect="none" points="258,94.41 258,79 " />
<polyline fill="none" vector-effect="none" points="514.833,934 514.833,918.59 " />
<polyline fill="none" vector-effect="none" points="514.833,94.41 514.833,79 " />
<polyline fill="none" vector-effect="none" points="771.667,934 771.667,918.59 " />
<polyline fill="none" vector-effect="none" points="771.667,94.41 771.667,79 " />
<polyline fill="none" vector-effect="none" points="1028.5,934 1028.5,918.59 " />
<polyline fill="none" vector-effect="none" points="1028.5,94.41 1028.5,79 " />
<polyline fill="none" vector-effect="none" points="1285.33,934 1285.33,918.59 " />
<polyline fill="none" vector-effect="none" points="1285.33,94.41 1285.33,79 " />
<polyline fill="none" vector-effect="none" points="1542.17,934 1542.17,918.59 " />
<polyline fill="none" vector-effect="none" points="1542.17,94.41 1542.17,79 " />
<polyline fill="none" vector-effect="none" points="1799,934 1799,918.59 " />
<polyline fill="none" vector-effect="none" points="1799,94.41 1799,79 " />
</g>

<g fill="#d9d9d9" fill-opacity="1" stroke="#d9d9d9" stroke-opacity="1" stroke-width="1" stroke-linecap="square" stroke-linejoin="bevel" transform="matrix(0.5,0,0,0.5,34,440.5)"
font-family="Helvetica" font-size="20" font-weight="400" font-style="normal" 
>
<text fill="#d9d9d9" fill-opacity="1" stroke="none" xml:space="preserve" x="0" y="0.390625" font-family="Helvetica" font-size="20" font-weight="400" font-style="normal" 
 >-6</text>
</g>

<g fill="#d9d9d9" fill-opacity="1" stroke="#d9d9d9" stroke-opacity="1" stroke-width="1" stroke-linecap="square" stroke-linejoin="bevel" transform="matrix(0.5,0,0,0.5,162.417,440.5)"
font-family="Helvetica" font-size="20" font-weight="400" font-style="normal" 
>
<text fill="#d9d9d9" fill-opacity="1" stroke="none" xml:space="preserve" x="0" y="0.390625" font-family="Helvetica" font-size="20" font-weight="400" font-style="normal" 
 >-4</text>
</g>

<g fill="#d9d9d9" fill-opacity="1" stroke="#d9d9d9" stroke-opacity="1" stroke-width="1" stroke-linecap="square" stroke-linejoin="bevel" transform="matrix(0.5,0,0,0.5,290.833,440.5)"
font-family="Helvetica" font-size="20" font-weight="400" font-style="normal" 
>
<text fill="#d9d9d9" fill-opacity="1" stroke="none" xml:space="preserve" x="0" y="0.390625" font-family="Helvetica" font-size="20" font-weight="400" font-style="normal" 
 >-2</text>
</g>

<g fill="#d9d9d9" fill-opacity="1" stroke="#d9d9d9" stroke-opacity="1" stroke-width="1" stroke-linecap="square" stroke-linejoin="bevel" transform="matrix(0.5,0,0,0.5,421,440.5)"
font-family="Helvetica" font-size="20" font-weight="400" font-style="normal" 
>
<text fill="#d9d9d9" fill-opacity="1" stroke="none" xml:space="preserve" x="0" y="0.390625" font-family="Helvetica" font-size="20" font-weight="400" font-style="normal" 
 >0</text>
</g>

<g fill="#d9d9d9" fill-opacity="1" stroke="#d9d9d9" stroke-opacity="1" stroke-width="1" stroke-linecap="square" stroke-linejoin="bevel" transform="matrix(0.5,0,0,0.5,549.417,440.5)"
font-family="Helvetica" font-size="20" font-weight="400" font-style="normal" 
>
<text fill="#d9d9d9" fill-opacity="1" stroke="none" xml:space="preserve" x="0" y="0.390625" font-family="Helvetica" font-size="20" font-weight="400" font-style="normal" 
 >2</text>
</g>

<g fill="#d9d9d9" fill-opacity="1" stroke="#d9d9d9" stroke-opacity="1" stroke-width="1" stroke-linecap="square" stroke-linejoin="bevel" transform="matrix(0.5,0,0,0.5,677.833,440.5)"
font-family="Helvetica" font-size="20" font-weight="400" font-style="normal" 
>
<text fill="#d9d9d9" fill-opacity="1" stroke="none" xml:space="preserve" x="0" y="0.390625" font-family="Helvetica" font-size="20" font-weight="400" font-style="normal" 
 >4</text>
</g>

<g fill="#d9d9d9" fill-opacity="1" stroke="#d9d9d9" stroke-opacity="1" stroke-width="1" stroke-linecap="square" stroke-linejoin="bevel" transform="matrix(0.5,0,0,0.5,806.25,440.5)"
font-family="Helvetica" font-size="20" font-weight="400" font-style="normal" 
>
<text fill="#d9d9d9" fill-opacity="1" stroke="none" xml:space="preserve" x="0" y="0.390625" font-family="Helvetica" font-size="20" font-weight="400" font-style="normal" 
 >6</text>
</g>

<g fill="#d9d9d9" fill-opacity="1" stroke="#d9d9d9" stroke-opacity="1" stroke-width="1" stroke-linecap="square" stroke-linejoin="bevel" transform="matrix(0,-0.5,0.5,0,9.5,283.5)"
font-family="Helvetica" font-size="22" font-weight="400" font-style="normal" 
>
<text fill="#d9d9d9" fill-opacity="1" stroke="none" xml:space="preserve" x="0" y="-0.0625" font-family="Helvetica" font-size="22" font-weight="400" font-style="normal" 
 >velocity spectrum/histogram</text>
</g>

<g fill="#d9d9d9" fill-opacity="1" stroke="#d9d9d9" stroke-opacity="1" stroke-width="1" stroke-linecap="square" stroke-linejoin="round" transform="matrix(0.5,0,0,0.5,-90.5,-38)"
font-family="Helvetica" font-size="22" font-weight="400" font-style="normal" 
>
<polyline fill="none" vector-effect="none" points="258,934 258,79 " />
<polyline fill="none" vector-effect="none" points="1799,934 1799,79 " />
<polyline fill="none" vector-effect="none" points="258,934 273.41,934 " />
<polyline fill="none" vector-effect="none" points="1783.59,934 1799,934 " />
<polyline fill="none" vector-effect="none" points="258,750.954 273.41,750.954 " />
<polyline fill="none" vector-effect="none" points="1783.59,750.954 1799,750.954 " />
<polyline fill="none" vector-effect="none" points="258,567.908 273.41,567.908 " />
<polyline fill="none" vector-effect="none" points="1783.59,567.908 1799,567.908 " />
<polyline fill="none" vector-effect="none" points="258,384.862 273.41,384.862 " />
<polyline fill="none" vector-effect="none" points="1783.59,384.862 1799,384.862 " />
<polyline fill="none" vector-effect="none" points="258,201.816 273.41,201.816 " />
<polyline fill="none" vector-effect="none" points="1783.59,201.816 1799,201.816 " />
</g>

<g fill="#d9d9d9" fill-opacity="1" stroke="#d9d9d9" stroke-opacity="1" stroke-width="1" stroke-linecap="square" stroke-linejoin="bevel" transform="matrix(0.5,0,0,0.5,29,431.5)"
font-family="Helvetica" font-size="20" font-weight="400" font-style="normal" 
>
<text fill="#d9d9d9" fill-opacity="1" stroke="none" xml:space="preserve" x="0" y="0.390625" font-family="Helvetica" font-size="20" font-weight="400" font-style="normal" 
 >0</text>
</g>

<g fill="#d9d9d9" fill-opacity="1" stroke="#d9d9d9" stroke-opacity="1" stroke-width="1" stroke-linecap="square" stroke-linejoin="bevel" transform="matrix(0.5,0,0,0.5,15,339.977)"
font-family="Helvetica" font-size="20" font-weight="400" font-style="normal" 
>
<text fill="#d9d9d9" fill-opacity="1" stroke="none" xml:space="preserve" x="0" y="0.390625" font-family="Helvetica" font-size="20" font-weight="400" font-style="normal" 
 >0.05</text>
</g>

<g fill="#d9d9d9" fill-opacity="1" stroke="#d9d9d9" stroke-opacity="1" stroke-width="1" stroke-linecap="square" stroke-linejoin="bevel" transform="matrix(0.5,0,0,0.5,20.5,248.454)"
font-family="Helvetica" font-size="20" font-weight="400" font-style="normal" 
>
<text fill="#d9d9d9" fill-opacity="1" stroke="none" xml:space="preserve" x="0" y="0.390625" font-family="Helvetica" font-size="20" font-weight="400" font-style="normal" 
 >0.1</text>
</g>

<g fill="#d9d9d9" fill-opacity="1" stroke="#d9d9d9" stroke-opacity="1" stroke-width="1" stroke-linecap="square" stroke-linejoin="bevel" transform="matrix(0.5,0,0,0.5,15,156.931)"
font-family="Helvetica" font-size="20" font-weight="400" font-style="normal" 
>
<text fill="#d9d9d9" fill-opacity="1" stroke="none" xml:space="preserve" x="0" y="0.390625" font-family="Helvetica" font-size="20" font-weight="400" font-style="normal" 
 >0.15</text>
</g>

<g fill="#d9d9d9" fill-opacity="1" stroke="#d9d9d9" stroke-opacity="1" stroke-width="1" stroke-linecap="square" stroke-linejoin="bevel" transform="matrix(0.5,0,0,0.5,20.5,65.4081)"
font-family="Helvetica" font-size="20" font-weight="400" font-style="normal" 
>
<text fill="#d9d9d9" fill-opacity="1" stroke="none" xml:space="preserve" x="0" y="0.390625" font-family="Helvetica" font-size="20" font-weight="400" font-style="normal" 
 >0.2</text>
</g>

<g fill="#808080" fill-opacity="0.6" stroke="none" transform="matrix(5e-05,0,0,5e-05,-90.5,-38)"
font-family="Helvetica" font-size="20" font-weight="400" font-style="normal" 
>
<path vector-effect="none" fill-rule="evenodd" d="M1.0285e+07,789999 L1.0285e+07,9.34e+06 L1.04776e+07,9.34e+06 L1.04776e+07,789999 L1.0285e+07,789999"/>
</g>

<g fill="#808080" fill-opacity="0.6" stroke="none" transform="matrix(5e-05,0,0,5e-05,-90.5,-38)"
font-family="Helvetica" font-size="20" font-weight="400" font-style="normal" 
>
<path vector-effect="none" fill-rule="evenodd" d="M1.04776e+07,7.98219e+06 L1.04776e+07,9.34e+06 L1.06703e+07,9.34e+06 L1.06703e+07,7.98219e+06 L1.04776e+07,7.98219e+06"/>
</g>

<g fill="#808080" fill-opacity="0.6" stroke="none" transform="matrix(5e-05,0,0,5e-05,-90.5,-38)"
font-family="Helvetica" font-size="20" font-weight="400" font-style="normal" 
>
<path vector-effect="none" fill-rule="evenodd" d="M1.06703e+07,8.0114e+06 L1.06703e+07,9.34e+06 L1.08629e+07,9.34e+06 L1.08629e+07,8.0114e+06 L1.06703e+07,8.0114e+06"/>
</g>

<g fill="#808080" fill-opacity="0.6" stroke="none" transform="matrix(5e-05,0,0,5e-05,-90.5,-38)"
font-family="Helvetica" font-size="20" font-weight="400" font-style="normal" 
>
<path vector-effect="none" fill-rule="evenodd" d="M1.08629e+07,8.00205e+06 L1.08629e+07,9.34e+06 L1.10555e+07,9.34e+06 L1.10555e+07,8.00205e+06 L1.08629e+07,8.00205e+06"/>
</g>

<g fill="#808080" fill-opacity="0.6" stroke="none" transform="matrix(5e-05,0,0,5e-05,-90.5,-38)"
font-family="Helvetica" font-size="20" font-weight="400" font-style="normal" 
>
<path vector-effect="none" fill-rule="evenodd" d="M1.10555e+07,8.00089e+06 L1.10555e+07,9.34e+06 L1.12481e+07,9.34e+06 L1.12481e+07,8.00089e+06 L1.10555e+07,8.00089e+06"/>
</g>

<g fill="#808080" fill-opacity="0.6" stroke="none" transform="matrix(5e-05,0,0,5e-05,-90.5,-38)"
font-family="Helvetica" font-size="20" font-weight="400" font-style="normal" 
>
<path vector-effect="none" fill-rule="evenodd" d="M1.12481e+07,7.99738e+06 L1.12481e+07,9.34e+06 L1.14408e+07,9.34e+06 L1.14408e+07,7.99738e+06 L1.12481e+07,7.99738e+06"/>
</g>

<g fill="#808080" fill-opacity="0.6" stroke="none" transform="matrix(5e-05,0,0,5e-05,-90.5,-38)"
font-family="Helvetica" font-size="20" font-weight="400" font-style="normal" 
>
<path vector-effect="none" fill-rule="evenodd" d="M1.14408e+07,8.01491e+06 L1.14408e+07,9.34e+06 L1.16334e+07,9.34e+06 L1.16334e+07,8.01491e+06 L1.14408e+07,8.01491e+06"/>
</g>

<g fill="#808080" fill-opacity="0.6" stroke="none" transform="matrix(5e-05,0,0,5e-05,-90.5,-38)"
font-family="Helvetica" font-size="20" font-weight="400" font-style="normal" 
>
<path vector-effect="none" fill-rule="evenodd" d="M1.16334e+07,8.00439e+06 L1.16334e+07,9.34e+06 L1.1826e+07,9.34e+06 L1.1826e+07,8.00439e+06 L1.16334e+07,8.00439e+06"/>
</g>

<g fill="#808080" fill-opacity="0.6" stroke="none" transform="matrix(5e-05,0,0,5e-05,-90.5,-38)"
font-family="Helvetica" font-size="20" font-weight="400" font-style="normal" 
>
<path vector-effect="none" fill-rule="evenodd" d="M1.1826e+07,8.00322e+06 L1.1826e+07,9.34e+06 L1.20186e+07,9.34e+06 L1.20186e+07,8.00322e+06 L1.1826e+07,8.00322e+06"/>
</g>

<g fill="#808080" fill-opacity="0.6" stroke="none" transform="matrix(5e-05,0,0,5e-05,-90.5,-38)"
font-family="Helvetica" font-size="20" font-weight="400" font-style="normal" 
>
<path vector-effect="none" fill-rule="evenodd" d="M1.20186e+07,7.99387e+06 L1.20186e+07,9.34e+06 L1.22113e+07,9.34e+06 L1.22113e+07,7.99387e+06 L1.20186e+07,7.99387e+06"/>
</g>

<g fill="#808080" fill-opacity="0.6" stroke="none" transform="matrix(5e-05,0,0,5e-05,-90.5,-38)"
font-family="Helvetica" font-size="20" font-weight="400" font-style="normal" 
>
<path vector-effect="none" fill-rule="evenodd" d="M1.22113e+07,8.00205e+06 L1.22113e+07,9.34e+06 L1.24039e+07,9.34e+06 L1.24039e+07,8.00205e+06 L1.22113e+07,8.00205e+06"/>
</g>

<g fill="#808080" fill-opacity="0.6" stroke="none" transform="matrix(5e-05,0,0,5e-05,-90.5,-38)"
font-family="Helvetica" font-size="20" font-weight="400" font-style="normal" 
>
<path vector-effect="none" fill-rule="evenodd" d="M1.24039e+07,8.00673e+06 L1.24039e+07,9.34e+06 L1.25965e+07,9.34e+06 L1.25965e+07,8.00673e+06 L1.24039e+07,8.00673e+06"/>
</g>

<g fill="#808080" fill-opacity="0.6" stroke="none" transform="matrix(5e-05,0,0,5e-05,-90.5,-38)"
font-family="Helvetica" font-size="20" font-weight="400" font-style="normal" 
>
<path vector-effect="none" fill-rule="evenodd" d="M1.25965e+07,7.99154e+06 L1.25965e+07,9.34e+06 L1.27891e+07,9.34e+06 L1.27891e+07,7.99154e+06 L1.25965e+07,7.99154e+06"/>
</g>

<g fill="#808080" fill-opacity="0.6" stroke="none" transform="matrix(5e-05,0,0,5e-05,-90.5,-38)"
font-family="Helvetica" font-size="20" font-weight="400" font-style="normal" 
>
<path vector-effect="none" fill-rule="evenodd" d="M1.27891e+07,8.01725e+06 L1.27891e+07,9.34e+06 L1.29818e+07,9.34e+06 L1.29818e+07,8.01725e+06 L1.27891e+07,8.01725e+06"/>
</g>

<g fill="#808080" fill-opacity="0.6" stroke="none" transform="matrix(5e-05,0,0,5e-05,-90.5,-38)"
font-family="Helvetica" font-size="20" font-weight="400" font-style="normal" 
>
<path vector-effect="none" fill-rule="evenodd" d="M1.29818e+07,7.99621e+06 L1.29818e+07,9.34e+06 L1.31744e+07,9.34e+06 L1.31744e+07,7.99621e+06 L1.29818e+07,7.99621e+06"/>
</g>

<g fill="#808080" fill-opacity="0.6" stroke="none" transform="matrix(5e-05,0,0,5e-05,-90.5,-38)"
font-family="Helvetica" font-size="20" font-weight="400" font-style="normal" 
>
<path vector-effect="none" fill-rule="evenodd" d="M1.31744e+07,8.0079e+06 L1.31744e+07,9.34e+06 L1.3367e+07,9.34e+06 L1.3367e+07,8.0079e+06 L1.31744e+07,8.0079e+06"/>
</g>

<g fill="#808080" fill-opacity="0.6" stroke="none" transform="matrix(5e-05,0,0,5e-05,-90.5,-38)"
font-family="Helvetica" font-size="20" font-weight="400" font-style="normal" 
>
<path vector-effect="none" fill-rule="evenodd" d="M1.3367e+07,8.00205e+06 L1.3367e+07,9.34e+06 L1.35596e+07,9.34e+06 L1.35596e+07,8.00205e+06 L1.3367e+07,8.00205e+06"/>
</g>

<g fill="#808080" fill-opacity="0.6" stroke="none" transform="matrix(5e-05,0,0,5e-05,-90.5,-38)"
font-family="Helvetica" font-size="20" font-weight="400" font-style="normal" 
>
<path vector-effect="none" fill-rule="evenodd" d="M1.35596e+07,7.99738e+06 L1.35596e+07,9.34e+06 L1.37523e+07,9.34e+06 L1.37523e+07,7.99738e+06 L1.35596e+07,7.99738e+06"/>
</g>

<g fill="#808080" fill-opacity="0.6" stroke="none" transform="matrix(5e-05,0,0,5e-05,-90.5,-38)"
font-family="Helvetica" font-size="20" font-weight="400" font-style="normal" 
>
<path vector-effect="none" fill-rule="evenodd" d="M1.37523e+07,8.00673e+06 L1.37523e+07,9.34e+06 L1.39449e+07,9.34e+06 L1.39449e+07,8.00673e+06 L1.37523e+07,8.00673e+06"/>
</g>

<g fill="#808080" fill-opacity="0.6" stroke="none" transform="matrix(5e-05,0,0,5e-05,-90.5,-38)"
font-family="Helvetica" font-size="20" font-weight="400" font-style="normal" 
>
<path vector-effect="none" fill-rule="evenodd" d="M1.39449e+07,8.00293e+06 L1.39449e+07,9.34e+06 L1.41375e+07,9.34e+06 L1.41375e+07,8.00293e+06 L1.39449e+07,8.00293e+06"/>
</g>

<g fill="none" stroke="#ffffff" stroke-opacity="1" stroke-width="1" stroke-linecap="butt" stroke-linejoin="round" transform="matrix(0.5,0,0,0.5,-90.5,-38)"
font-family="Helvetica" font-size="20" font-weight="400" font-style="normal" 
>
<polyline fill="none" vector-effect="none" points="258,894.168 261.853,894.311 265.705,894.449 269.558,894.584 273.41,894.716 277.263,894.844 281.115,894.968 284.967,895.088 288.82,895.205 292.672,895.319 296.525,895.429 300.378,895.536 304.23,895.64 308.082,895.741 311.935,895.838 315.787,895.932 319.64,896.023 323.493,896.112 327.345,896.197 331.198,896.279 335.05,896.358 338.903,896.434 342.755,896.507 346.608,896.578 350.46,896.645 354.313,896.71 358.165,896.772 362.017,896.831 365.87,896.888 369.722,896.941 373.575,896.993 377.427,897.041 381.28,897.087 385.132,897.13 388.985,897.17 392.838,897.208 396.69,897.243 400.543,897.276 404.395,897.306 408.247,897.334 412.1,897.359 415.953,897.381 419.805,897.401 423.658,897.419 427.51,897.434 431.362,897.446 435.215,897.456 439.067,897.464 442.92,897.469 446.772,897.471 450.625,897.471 454.478,897.468 458.33,897.463 462.183,897.456 466.035,897.446 469.888,897.433 473.74,897.418 477.592,897.401 481.445,897.381 485.297,897.358 489.15,897.333 493.003,897.305 496.855,897.275 500.707,897.242 504.56,897.207 508.412,897.169 512.265,897.128 516.117,897.085 519.97,897.039 523.823,896.991 527.675,896.94 531.528,896.886 535.38,896.829 539.232,896.77 543.085,896.708 546.938,896.643 550.79,896.575 554.643,896.505 558.495,896.431 562.347,896.355 566.2,896.276 570.052,896.194 573.905,896.108 577.758,896.02 581.61,895.929 585.462,895.835 589.315,895.737 593.167,895.637 597.02,895.533 600.872,895.426 604.725,895.315 608.578,895.201 612.43,895.084 616.282,894.963 620.135,894.839 623.987,894.711 627.84,894.58 631.693,894.445 635.545,894.306 639.398,894.163 643.25,894.017 647.102,893.866 650.955,893.711 654.807,893.553 658.66,893.39 662.513,893.223 666.365,893.051 670.218,892.875 674.07,892.695 677.922,892.51 681.775,892.32 685.628,892.125 689.48,891.925 693.333,891.721 697.185,891.511 701.038,891.296 704.89,891.075 708.742,890.849 712.595,890.617 716.448,890.38 720.3,890.136 724.153,889.887 728.005,889.631 731.857,889.368 735.71,889.099 739.563,888.824 743.415,888.541 747.268,888.251 751.12,887.953 754.972,887.648 758.825,887.336 762.677,887.015 766.53,886.686 770.383,886.348 774.235,886.001 778.087,885.645 781.94,885.28 785.792,884.905 789.645,884.52 793.497,884.125 797.35,883.719 801.203,883.301 805.055,882.872 808.907,882.431 812.76,881.977 816.612,881.511 820.465,881.031 824.318,880.537 828.17,880.029 832.023,879.505 835.875,878.966 839.727,878.41 843.58,877.837 847.432,877.246 851.285,876.636 855.138,876.007 858.99,875.357 862.843,874.685 866.695,873.991 870.547,873.273 874.4,872.53 878.253,871.76 882.105,870.963 885.958,870.136 889.81,869.278 893.663,868.387 897.515,867.461 901.367,866.499 905.22,865.496 909.073,864.452 912.925,863.362 916.778,862.224 920.63,861.035 924.482,859.79 928.335,858.485 932.188,857.115 936.04,855.675 939.893,854.158 943.745,852.558 947.597,850.867 951.45,849.075 955.302,847.171 959.155,845.145 963.008,842.98 966.86,840.66 970.713,838.165 974.565,835.47 978.417,832.545 982.27,829.353 986.122,825.846 989.975,821.964 993.828,817.628 997.68,812.728 1001.53,807.113 1005.39,800.561 1009.24,792.728 1013.09,783.036 1016.94,770.402 1020.79,752.405 1024.65,721.445 1028.5,79 1032.35,670.919 1036.2,680.512 1040.06,682.315 1043.91,689.282 1047.76,703.224 1051.61,719.671 1055.47,731.978 1059.32,735.763 1063.17,731.824 1067.03,724.712 1070.88,719.069 1074.73,717.538 1078.58,720.621 1082.44,727.31 1086.29,735.818 1090.14,744.23 1093.99,751.012 1097.84,755.335 1101.7,757.127 1105.55,756.883 1109.4,755.333 1113.26,753.183 1117.11,750.962 1120.96,748.996 1124.81,747.441 1128.67,746.334 1132.52,745.64 1136.37,745.291 1140.22,745.21 1144.07,745.323 1147.93,745.568 1151.78,745.895 1155.63,746.269 1159.48,746.661 1163.34,747.055 1167.19,747.438 1171.04,747.802 1174.9,748.143 1178.75,748.459 1182.6,748.748 1186.45,749.011 1190.31,749.248 1194.16,749.46 1198.01,749.647 1201.86,749.811 1205.71,749.951 1209.57,750.069 1213.42,750.166 1217.27,750.241 1221.13,750.296 1224.98,750.331 1228.83,750.346 1232.68,750.341 1236.54,750.316 1240.39,750.272 1244.24,750.208 1248.09,750.125 1251.94,750.021 1255.8,749.898 1259.65,749.753 1263.5,749.588 1267.35,749.401 1271.21,749.192 1275.06,748.96 1278.91,748.704 1282.77,748.424 1286.62,748.117 1290.47,747.784 1294.32,747.422 1298.17,747.029 1302.03,746.605 1305.88,746.147 1309.73,745.653 1313.58,745.119 1317.44,744.544 1321.29,743.924 1325.14,743.255 1328.99,742.533 1332.85,741.752 1336.7,740.907 1340.55,739.99 1344.41,738.995 1348.26,737.91 1352.11,736.726 1355.96,735.428 1359.81,733.999 1363.67,732.419 1367.52,730.663 1371.37,728.697 1375.22,726.479 1379.08,723.952 1382.93,721.039 1386.78,717.632 1390.64,713.569 1394.49,708.6 1398.34,702.303 1402.19,693.889 1406.05,681.609 1409.9,660.198 1413.75,590.761 1417.6,717.555 1421.45,750.612 1425.31,769.282 1429.16,782.257 1433.01,792.154 1436.86,800.123 1440.72,806.77 1444.57,812.454 1448.42,817.407 1452.28,821.784 1456.13,825.698 1459.98,829.23 1463.83,832.444 1467.69,835.385 1471.54,838.095 1475.39,840.601 1479.24,842.931 1483.09,845.104 1486.95,847.138 1490.8,849.047 1494.65,850.845 1498.51,852.541 1502.36,854.145 1506.21,855.664 1510.06,857.107 1513.92,858.48 1517.77,859.787 1521.62,861.034 1525.47,862.225 1529.33,863.364 1533.18,864.455 1537.03,865.501 1540.88,866.504 1544.73,867.468 1548.59,868.394 1552.44,869.286 1556.29,870.144 1560.15,870.971 1564,871.769 1567.85,872.539 1571.7,873.282 1575.56,874.001 1579.41,874.695 1583.26,875.367 1587.11,876.017 1590.96,876.647 1594.82,877.257 1598.67,877.848 1602.52,878.421 1606.38,878.977 1610.23,879.516 1614.08,880.039 1617.93,880.548 1621.79,881.042 1625.64,881.521 1629.49,881.988 1633.34,882.441 1637.19,882.882 1641.05,883.311 1644.9,883.729 1648.75,884.135 1652.6,884.53 1656.46,884.915 1660.31,885.29 1664.16,885.655 1668.02,886.011 1671.87,886.357 1675.72,886.695 1679.57,887.024 1683.42,887.345 1687.28,887.657 1691.13,887.962 1694.98,888.259 1698.83,888.549 1702.69,888.832 1706.54,889.107 1710.39,889.376 1714.24,889.639 1718.1,889.894 1721.95,890.144 1725.8,890.387 1729.66,890.625 1733.51,890.856 1737.36,891.082 1741.21,891.303 1745.06,891.518 1748.92,891.727 1752.77,891.932 1756.62,892.131 1760.47,892.326 1764.33,892.516 1768.18,892.701 1772.03,892.881 1775.89,893.057 1779.74,893.228 1783.59,893.395 1787.44,893.558 1791.3,893.717 1795.15,893.871 1799,894.022 " />
</g>

<g fill="none" stroke="#00ff00" stroke-opacity="1" stroke-width="1" stroke-linecap="butt" stroke-linejoin="round" transform="matrix(0.5,0,0,0.5,-90.5,-38)"
font-family="Helvetica" font-size="20" font-weight="400" font-style="normal" 
>
<polyline fill="none" vector-effect="none" points="258,886.156 261.853,886.382 265.705,886.603 269.558,886.818 273.41,887.029 277.263,887.234 281.115,887.435 284.967,887.63 288.82,887.821 292.672,888.007 296.525,888.188 300.378,888.365 304.23,888.538 308.082,888.706 311.935,888.87 315.787,889.03 319.64,889.186 323.493,889.337 327.345,889.485 331.198,889.628 335.05,889.768 338.903,889.904 342.755,890.036 346.608,890.164 350.46,890.289 354.313,890.41 358.165,890.528 362.017,890.642 365.87,890.752 369.722,890.859 373.575,890.963 377.427,891.063 381.28,891.16 385.132,891.254 388.985,891.345 392.838,891.432 396.69,891.516 400.543,891.597 404.395,891.675 408.247,891.75 412.1,891.822 415.953,891.891 419.805,891.956 423.658,892.019 427.51,892.079 431.362,892.136 435.215,892.19 439.067,892.24 442.92,892.289 446.772,892.334 450.625,892.376 454.478,892.416 458.33,892.453 462.183,892.487 466.035,892.518 469.888,892.546 473.74,892.572 477.592,892.594 481.445,892.614 485.297,892.632 489.15,892.646 493.003,892.658 496.855,892.667 500.707,892.673 504.56,892.677 508.412,892.678 512.265,892.676 516.117,892.671 519.97,892.664 523.823,892.653 527.675,892.64 531.528,892.625 535.38,892.606 539.232,892.585 543.085,892.561 546.938,892.534 550.79,892.505 554.643,892.472 558.495,892.437 562.347,892.399 566.2,892.358 570.052,892.315 573.905,892.268 577.758,892.219 581.61,892.166 585.462,892.111 589.315,892.052 593.167,891.991 597.02,891.927 600.872,891.859 604.725,891.789 608.578,891.716 612.43,891.639 616.282,891.559 620.135,891.476 623.987,891.39 627.84,891.301 631.693,891.208 635.545,891.112 639.398,891.013 643.25,890.91 647.102,890.804 650.955,890.695 654.807,890.582 658.66,890.465 662.513,890.345 666.365,890.221 670.218,890.093 674.07,889.962 677.922,889.826 681.775,889.687 685.628,889.544 689.48,889.397 693.333,889.245 697.185,889.09 701.038,888.93 704.89,888.766 708.742,888.598 712.595,888.425 716.448,888.248 720.3,888.066 724.153,887.879 728.005,887.687 731.857,887.491 735.71,887.289 739.563,887.083 743.415,886.871 747.268,886.654 751.12,886.431 754.972,886.203 758.825,885.969 762.677,885.729 766.53,885.483 770.383,885.231 774.235,884.972 778.087,884.708 781.94,884.436 785.792,884.158 789.645,883.873 793.497,883.581 797.35,883.281 801.203,882.974 805.055,882.659 808.907,882.336 812.76,882.005 816.612,881.666 820.465,881.318 824.318,880.96 828.17,880.594 832.023,880.218 835.875,879.832 839.727,879.436 843.58,879.029 847.432,878.612 851.285,878.183 855.138,877.742 858.99,877.29 862.843,876.825 866.695,876.346 870.547,875.855 874.4,875.349 878.253,874.828 882.105,874.293 885.958,873.741 889.81,873.173 893.663,872.588 897.515,871.984 901.367,871.362 905.22,870.72 909.073,870.057 912.925,869.372 916.778,868.664 920.63,867.932 924.482,867.175 928.335,866.391 932.188,865.578 936.04,864.735 939.893,863.86 943.745,862.951 947.597,862.005 951.45,861.021 955.302,859.994 959.155,858.922 963.008,857.802 966.86,856.629 970.713,855.399 974.565,854.105 978.417,852.743 982.27,851.303 986.122,849.779 989.975,848.157 993.828,846.427 997.68,844.57 1001.53,842.564 1005.39,840.382 1009.24,837.981 1013.09,835.3 1016.94,832.238 1020.79,828.6 1024.65,823.872 1028.5,192.67 1032.35,810.742 1036.2,806.279 1040.06,801.241 1043.91,796.553 1047.76,793.622 1051.61,792.288 1055.47,791.553 1059.32,790.802 1063.17,788.521 1067.03,782.432 1070.88,776.79 1074.73,773.711 1078.58,770.172 1082.44,766.33 1086.29,769.68 1090.14,770.982 1093.99,759.772 1097.84,768.646 1101.7,771.714 1105.55,772.191 1109.4,770.151 1113.26,761.226 1117.11,751.275 1120.96,754.285 1124.81,755.082 1128.67,755.159 1132.52,754.873 1136.37,754.311 1140.22,753.428 1144.07,752.068 1147.93,749.866 1151.78,745.824 1155.63,734.164 1159.48,701.227 1163.34,711.374 1167.19,715.905 1171.04,718.909 1174.9,721.183 1178.75,723.018 1182.6,724.552 1186.45,725.864 1190.31,727 1194.16,727.994 1198.01,728.866 1201.86,729.633 1205.71,730.305 1209.57,730.89 1213.42,731.395 1217.27,731.823 1221.13,732.175 1224.98,732.45 1228.83,732.648 1232.68,732.763 1236.54,732.787 1240.39,732.71 1244.24,732.516 1248.09,732.183 1251.94,731.679 1255.8,730.955 1259.65,729.941 1263.5,728.525 1267.35,726.522 1271.21,723.599 1275.06,719.088 1278.91,711.388 1282.77,695.078 1286.62,546.382 1290.47,581.528 1294.32,591.609 1298.17,596.911 1302.03,600.216 1305.88,602.42 1309.73,603.914 1313.58,604.903 1317.44,605.502 1321.29,605.782 1325.14,605.788 1328.99,605.548 1332.85,605.079 1336.7,604.389 1340.55,603.48 1344.41,602.35 1348.26,600.989 1352.11,599.383 1355.96,597.514 1359.81,595.353 1363.67,592.865 1367.52,590.006 1371.37,586.714 1375.22,582.911 1379.08,578.49 1382.93,573.305 1386.78,567.145 1390.64,559.701 1394.49,550.488 1398.34,538.688 1402.19,522.765 1406.05,499.31 1409.9,458.03 1413.75,322.467 1417.6,565.714 1421.45,630.294 1425.31,666.39 1429.16,691.248 1433.01,710.048 1436.86,725.059 1440.72,737.481 1444.57,748.022 1448.42,757.138 1452.28,765.138 1456.13,772.242 1459.98,778.611 1463.83,784.367 1467.69,789.605 1471.54,794.399 1475.39,798.81 1479.24,802.886 1483.09,806.668 1486.95,810.189 1490.8,813.478 1494.65,816.559 1498.51,819.453 1502.36,822.177 1506.21,824.747 1510.06,827.176 1513.92,829.477 1517.77,831.66 1521.62,833.735 1525.47,835.709 1529.33,837.59 1533.18,839.385 1537.03,841.099 1540.88,842.739 1544.73,844.309 1548.59,845.814 1552.44,847.258 1556.29,848.644 1560.15,849.976 1564,851.257 1567.85,852.49 1571.7,853.678 1575.56,854.823 1579.41,855.927 1583.26,856.992 1587.11,858.021 1590.96,859.016 1594.82,859.977 1598.67,860.907 1602.52,861.807 1606.38,862.678 1610.23,863.522 1614.08,864.34 1617.93,865.133 1621.79,865.901 1625.64,866.648 1629.49,867.372 1633.34,868.075 1637.19,868.758 1641.05,869.421 1644.9,870.066 1648.75,870.693 1652.6,871.303 1656.46,871.896 1660.31,872.473 1664.16,873.034 1668.02,873.581 1671.87,874.113 1675.72,874.632 1679.57,875.137 1683.42,875.629 1687.28,876.108 1691.13,876.575 1694.98,877.031 1698.83,877.475 1702.69,877.908 1706.54,878.33 1710.39,878.742 1714.24,879.144 1718.1,879.536 1721.95,879.919 1725.8,880.293 1729.66,880.657 1733.51,881.013 1737.36,881.36 1741.21,881.699 1745.06,882.03 1748.92,882.353 1752.77,882.669 1756.62,882.977 1760.47,883.278 1764.33,883.571 1768.18,883.858 1772.03,884.138 1775.89,884.412 1779.74,884.679 1783.59,884.94 1787.44,885.195 1791.3,885.444 1795.15,885.687 1799,885.924 " />
</g>

<g fill="#ffffff" fill-opacity="1" stroke="#ffffff" stroke-opacity="1" stroke-width="1" stroke-linecap="butt" stroke-linejoin="round" transform="matrix(0.5,0,0,0.5,-90.5,-38)"
font-family="Helvetica" font-size="20" font-weight="400" font-style="normal" 
>
<polyline fill="none" vector-effect="none" points="280.008,118.893 340.089,118.893 " />
</g>

<g fill="#d9d9d9" fill-opacity="1" stroke="#d9d9d9" stroke-opacity="1" stroke-width="1" stroke-linecap="square" stroke-linejoin="bevel" transform="matrix(0.5,0,0,0.5,81.7975,19.4467)"
font-family="Helvetica" font-size="18" font-weight="400" font-style="normal" 
>
<text fill="#d9d9d9" fill-opacity="1" stroke="none" xml:space="preserve" x="0" y="-0.140625" font-family="Helvetica" font-size="18" font-weight="400" font-style="normal" 
 >velocity spectrum from</text>
</g>

<g fill="#d9d9d9" fill-opacity="1" stroke="#d9d9d9" stroke-opacity="1" stroke-width="1" stroke-linecap="square" stroke-linejoin="bevel" transform="matrix(0.5,0,0,0.5,81.7975,28.4467)"
font-family="Helvetica" font-size="18" font-weight="400" font-style="normal" 
>
<text fill="#d9d9d9" fill-opacity="1" stroke="none" xml:space="preserve" x="0" y="-0.140625" font-family="Helvetica" font-size="18" font-weight="400" font-style="normal" 
 >flat magnitude profile</text>
</g>

<g fill="#00ff00" fill-opacity="1" stroke="#00ff00" stroke-opacity="1" stroke-width="1" stroke-linecap="butt" stroke-linejoin="round" transform="matrix(0.5,0,0,0.5,-90.5,-38)"
font-family="Helvetica" font-size="18" font-weight="400" font-style="normal" 
>
<polyline fill="none" vector-effect="none" points="280.008,161.453 340.089,161.453 " />
</g>

<g fill="#d9d9d9" fill-opacity="1" stroke="#d9d9d9" stroke-opacity="1" stroke-width="1" stroke-linecap="square" stroke-linejoin="bevel" transform="matrix(0.5,0,0,0.5,81.7975,40.7267)"
font-family="Helvetica" font-size="18" font-weight="400" font-style="normal" 
>
<text fill="#d9d9d9" fill-opacity="1" stroke="none" xml:space="preserve" x="0" y="-0.140625" font-family="Helvetica" font-size="18" font-weight="400" font-style="normal" 
 >velocity spectrum from</text>
</g>

<g fill="#d9d9d9" fill-opacity="1" stroke="#d9d9d9" stroke-opacity="1" stroke-width="1" stroke-linecap="square" stroke-linejoin="bevel" transform="matrix(0.5,0,0,0.5,81.7975,49.7267)"
font-family="Helvetica" font-size="18" font-weight="400" font-style="normal" 
>
<text fill="#d9d9d9" fill-opacity="1" stroke="none" xml:space="preserve" x="0" y="-0.140625" font-family="Helvetica" font-size="18" font-weight="400" font-style="normal" 
 >velocity-dependent magnitude profile</text>
</g>

<g fill="#808080" fill-opacity="0.6" stroke="none" transform="matrix(5e-05,0,0,5e-05,-90.5,-38)"
font-family="Helvetica" font-size="18" font-weight="400" font-style="normal" 
>
<path vector-effect="none" fill-rule="evenodd" d="M2.80008e+06,1.8572e+06 L2.80008e+06,2.014e+06 L3.40089e+06,2.014e+06 L3.40089e+06,1.8572e+06 L2.80008e+06,1.8572e+06"/>
</g>

<g fill="#d9d9d9" fill-opacity="1" stroke="#d9d9d9" stroke-opacity="1" stroke-width="1" stroke-linecap="square" stroke-linejoin="bevel" transform="matrix(0.5,0,0,0.5,81.7975,61.28)"
font-family="Helvetica" font-size="18" font-weight="400" font-style="normal" 
>
<text fill="#d9d9d9" fill-opacity="1" stroke="none" xml:space="preserve" x="0" y="-0.140625" font-family="Helvetica" font-size="18" font-weight="400" font-style="normal" 
 >normalized velocity histogram</text>
</g>
</g>
</svg>
