<?xml version="1.0" encoding="UTF-8" standalone="no"?>
<svg width="141.817mm" height="140.406mm"
 viewBox="0 0 402 398"
 xmlns="http://www.w3.org/2000/svg" xmlns:xlink="http://www.w3.org/1999/xlink"  version="1.2" baseProfile="tiny">
<title>Qt SVG Document</title>
<desc>MATLAB, The MathWorks, Inc. Version 25.1.0.2973910 R2025a Update 1</desc>
<defs>
</defs>
<g fill="none" stroke="black" stroke-width="1" fill-rule="evenodd" stroke-linecap="square" stroke-linejoin="bevel" >

<g fill="#000000" fill-opacity="1" stroke="none" transform="matrix(0.5,0,0,0.5,-158,-27.5)"
font-family=".AppleSystemUIFont" font-size="13" font-weight="400" font-style="normal" 
>
<path vector-effect="none" fill-rule="evenodd" d="M315,54 L1120,54 L1120,850 L315,850 L315,54"/>
</g>

<g fill="#121212" fill-opacity="1" stroke="none" transform="matrix(5e-05,0,0,5e-05,-158,-27.5)"
font-family=".AppleSystemUIFont" font-size="13" font-weight="400" font-style="normal" 
>
<path vector-effect="none" fill-rule="evenodd" d="M3.92e+06,670000 L3.92e+06,7.92e+06 L1.117e+07,7.92e+06 L1.117e+07,670000 L3.92e+06,670000"/>
</g>

<g fill="#ffffff" fill-opacity="0.25098" stroke="#ffffff" stroke-opacity="0.25098" stroke-width="1" stroke-linecap="butt" stroke-linejoin="round" transform="matrix(0.5,0,0,0.5,-158,-27.5)"
font-family=".AppleSystemUIFont" font-size="13" font-weight="400" font-style="normal" 
>
<polyline fill="none" vector-effect="none" points="527.506,67 527.506,792 " />
<polyline fill="none" vector-effect="none" points="663.543,67 663.543,792 " />
<polyline fill="none" vector-effect="none" points="799.58,67 799.58,792 " />
<polyline fill="none" vector-effect="none" points="935.617,67 935.617,792 " />
<polyline fill="none" vector-effect="none" points="1071.65,67 1071.65,792 " />
<polyline fill="none" vector-effect="none" points="392,792 1117,792 " />
<polyline fill="none" vector-effect="none" points="392,719.5 1117,719.5 " />
<polyline fill="none" vector-effect="none" points="392,647 1117,647 " />
<polyline fill="none" vector-effect="none" points="392,574.5 1117,574.5 " />
<polyline fill="none" vector-effect="none" points="392,502 1117,502 " />
<polyline fill="none" vector-effect="none" points="392,429.5 1117,429.5 " />
<polyline fill="none" vector-effect="none" points="392,357 1117,357 " />
<polyline fill="none" vector-effect="none" points="392,284.5 1117,284.5 " />
<polyline fill="none" vector-effect="none" points="392,212 1117,212 " />
<polyline fill="none" vector-effect="none" points="392,139.5 1117,139.5 " />
<polyline fill="none" vector-effect="none" points="392,67 1117,67 " />
</g>

<g fill="#d9d9d9" fill-opacity="1" stroke="#d9d9d9" stroke-opacity="1" stroke-width="1" stroke-linecap="square" stroke-linejoin="bevel" transform="matrix(0.5,0,0,0.5,172.5,393.5)"
font-family="Helvetica" font-size="22" font-weight="400" font-style="normal" 
>
<text fill="#d9d9d9" fill-opacity="1" stroke="none" xml:space="preserve" x="0" y="-0.0625" font-family="Helvetica" font-size="22" font-weight="400" font-style="normal" 
 >spin velocity (cm/s)</text>
</g>

<g fill="#d9d9d9" fill-opacity="1" stroke="#d9d9d9" stroke-opacity="1" stroke-width="1" stroke-linecap="square" stroke-linejoin="round" transform="matrix(0.5,0,0,0.5,-158,-27.5)"
font-family="Helvetica" font-size="22" font-weight="400" font-style="normal" 
>
<polyline fill="none" vector-effect="none" points="392,792 1117,792 " />
<polyline fill="none" vector-effect="none" points="392,67 1117,67 " />
<polyline fill="none" vector-effect="none" points="527.506,792 527.506,784.75 " />
<polyline fill="none" vector-effect="none" points="527.506,74.25 527.506,67 " />
<polyline fill="none" vector-effect="none" points="663.543,792 663.543,784.75 " />
<polyline fill="none" vector-effect="none" points="663.543,74.25 663.543,67 " />
<polyline fill="none" vector-effect="none" points="799.58,792 799.58,784.75 " />
<polyline fill="none" vector-effect="none" points="799.58,74.25 799.58,67 " />
<polyline fill="none" vector-effect="none" points="935.617,792 935.617,784.75 " />
<polyline fill="none" vector-effect="none" points="935.617,74.25 935.617,67 " />
<polyline fill="none" vector-effect="none" points="1071.65,792 1071.65,784.75 " />
<polyline fill="none" vector-effect="none" points="1071.65,74.25 1071.65,67 " />
</g>

<g fill="#d9d9d9" fill-opacity="1" stroke="#d9d9d9" stroke-opacity="1" stroke-width="1" stroke-linecap="square" stroke-linejoin="bevel" transform="matrix(0.5,0,0,0.5,98.7529,380)"
font-family="Helvetica" font-size="20" font-weight="400" font-style="normal" 
>
<text fill="#d9d9d9" fill-opacity="1" stroke="none" xml:space="preserve" x="0" y="0.390625" font-family="Helvetica" font-size="20" font-weight="400" font-style="normal" 
 >0.5</text>
</g>

<g fill="#d9d9d9" fill-opacity="1" stroke="#d9d9d9" stroke-opacity="1" stroke-width="1" stroke-linecap="square" stroke-linejoin="bevel" transform="matrix(0.5,0,0,0.5,171.021,380)"
font-family="Helvetica" font-size="20" font-weight="400" font-style="normal" 
>
<text fill="#d9d9d9" fill-opacity="1" stroke="none" xml:space="preserve" x="0" y="0.390625" font-family="Helvetica" font-size="20" font-weight="400" font-style="normal" 
 >1</text>
</g>

<g fill="#d9d9d9" fill-opacity="1" stroke="#d9d9d9" stroke-opacity="1" stroke-width="1" stroke-linecap="square" stroke-linejoin="bevel" transform="matrix(0.5,0,0,0.5,234.79,380)"
font-family="Helvetica" font-size="20" font-weight="400" font-style="normal" 
>
<text fill="#d9d9d9" fill-opacity="1" stroke="none" xml:space="preserve" x="0" y="0.390625" font-family="Helvetica" font-size="20" font-weight="400" font-style="normal" 
 >1.5</text>
</g>

<g fill="#d9d9d9" fill-opacity="1" stroke="#d9d9d9" stroke-opacity="1" stroke-width="1" stroke-linecap="square" stroke-linejoin="bevel" transform="matrix(0.5,0,0,0.5,307.059,380)"
font-family="Helvetica" font-size="20" font-weight="400" font-style="normal" 
>
<text fill="#d9d9d9" fill-opacity="1" stroke="none" xml:space="preserve" x="0" y="0.390625" font-family="Helvetica" font-size="20" font-weight="400" font-style="normal" 
 >2</text>
</g>

<g fill="#d9d9d9" fill-opacity="1" stroke="#d9d9d9" stroke-opacity="1" stroke-width="1" stroke-linecap="square" stroke-linejoin="bevel" transform="matrix(0.5,0,0,0.5,370.827,380)"
font-family="Helvetica" font-size="20" font-weight="400" font-style="normal" 
>
<text fill="#d9d9d9" fill-opacity="1" stroke="none" xml:space="preserve" x="0" y="0.390625" font-family="Helvetica" font-size="20" font-weight="400" font-style="normal" 
 >2.5</text>
</g>

<g fill="#d9d9d9" fill-opacity="1" stroke="#d9d9d9" stroke-opacity="1" stroke-width="1" stroke-linecap="square" stroke-linejoin="bevel" transform="matrix(0,-0.5,0.5,0,9.5,194.5)"
font-family="Helvetica" font-size="22" font-weight="400" font-style="normal" 
>
<text fill="#d9d9d9" fill-opacity="1" stroke="none" xml:space="preserve" x="0" y="-0.0625" font-family="Helvetica" font-size="22" font-weight="400" font-style="normal" 
 >M</text>
</g>

<g fill="#d9d9d9" fill-opacity="1" stroke="#d9d9d9" stroke-opacity="1" stroke-width="1" stroke-linecap="square" stroke-linejoin="bevel" transform="matrix(0,-0.5,0.5,0,15,185.5)"
font-family="Helvetica" font-size="17" font-weight="400" font-style="normal" 
>
<text fill="#d9d9d9" fill-opacity="1" stroke="none" xml:space="preserve" x="0" y="0.078125" font-family="Helvetica" font-size="17" font-weight="400" font-style="normal" 
 >z</text>
</g>

<g fill="#d9d9d9" fill-opacity="1" stroke="#d9d9d9" stroke-opacity="1" stroke-width="1" stroke-linecap="square" stroke-linejoin="round" transform="matrix(0.5,0,0,0.5,-158,-27.5)"
font-family="Helvetica" font-size="17" font-weight="400" font-style="normal" 
>
<polyline fill="none" vector-effect="none" points="392,792 392,67 " />
<polyline fill="none" vector-effect="none" points="1117,792 1117,67 " />
<polyline fill="none" vector-effect="none" points="392,792 399.25,792 " />
<polyline fill="none" vector-effect="none" points="1109.75,792 1117,792 " />
<polyline fill="none" vector-effect="none" points="392,719.5 399.25,719.5 " />
<polyline fill="none" vector-effect="none" points="1109.75,719.5 1117,719.5 " />
<polyline fill="none" vector-effect="none" points="392,647 399.25,647 " />
<polyline fill="none" vector-effect="none" points="1109.75,647 1117,647 " />
<polyline fill="none" vector-effect="none" points="392,574.5 399.25,574.5 " />
<polyline fill="none" vector-effect="none" points="1109.75,574.5 1117,574.5 " />
<polyline fill="none" vector-effect="none" points="392,502 399.25,502 " />
<polyline fill="none" vector-effect="none" points="1109.75,502 1117,502 " />
<polyline fill="none" vector-effect="none" points="392,429.5 399.25,429.5 " />
<polyline fill="none" vector-effect="none" points="1109.75,429.5 1117,429.5 " />
<polyline fill="none" vector-effect="none" points="392,357 399.25,357 " />
<polyline fill="none" vector-effect="none" points="1109.75,357 1117,357 " />
<polyline fill="none" vector-effect="none" points="392,284.5 399.25,284.5 " />
<polyline fill="none" vector-effect="none" points="1109.75,284.5 1117,284.5 " />
<polyline fill="none" vector-effect="none" points="392,212 399.25,212 " />
<polyline fill="none" vector-effect="none" points="1109.75,212 1117,212 " />
<polyline fill="none" vector-effect="none" points="392,139.5 399.25,139.5 " />
<polyline fill="none" vector-effect="none" points="1109.75,139.5 1117,139.5 " />
<polyline fill="none" vector-effect="none" points="392,67 399.25,67 " />
<polyline fill="none" vector-effect="none" points="1109.75,67 1117,67 " />
</g>

<g fill="#d9d9d9" fill-opacity="1" stroke="#d9d9d9" stroke-opacity="1" stroke-width="1" stroke-linecap="square" stroke-linejoin="bevel" transform="matrix(0.5,0,0,0.5,28.5,371)"
font-family="Helvetica" font-size="20" font-weight="400" font-style="normal" 
>
<text fill="#d9d9d9" fill-opacity="1" stroke="none" xml:space="preserve" x="0" y="0.390625" font-family="Helvetica" font-size="20" font-weight="400" font-style="normal" 
 >0</text>
</g>

<g fill="#d9d9d9" fill-opacity="1" stroke="#d9d9d9" stroke-opacity="1" stroke-width="1" stroke-linecap="square" stroke-linejoin="bevel" transform="matrix(0.5,0,0,0.5,20,334.75)"
font-family="Helvetica" font-size="20" font-weight="400" font-style="normal" 
>
<text fill="#d9d9d9" fill-opacity="1" stroke="none" xml:space="preserve" x="0" y="0.390625" font-family="Helvetica" font-size="20" font-weight="400" font-style="normal" 
 >0.1</text>
</g>

<g fill="#d9d9d9" fill-opacity="1" stroke="#d9d9d9" stroke-opacity="1" stroke-width="1" stroke-linecap="square" stroke-linejoin="bevel" transform="matrix(0.5,0,0,0.5,20,298.5)"
font-family="Helvetica" font-size="20" font-weight="400" font-style="normal" 
>
<text fill="#d9d9d9" fill-opacity="1" stroke="none" xml:space="preserve" x="0" y="0.390625" font-family="Helvetica" font-size="20" font-weight="400" font-style="normal" 
 >0.2</text>
</g>

<g fill="#d9d9d9" fill-opacity="1" stroke="#d9d9d9" stroke-opacity="1" stroke-width="1" stroke-linecap="square" stroke-linejoin="bevel" transform="matrix(0.5,0,0,0.5,20,262.25)"
font-family="Helvetica" font-size="20" font-weight="400" font-style="normal" 
>
<text fill="#d9d9d9" fill-opacity="1" stroke="none" xml:space="preserve" x="0" y="0.390625" font-family="Helvetica" font-size="20" font-weight="400" font-style="normal" 
 >0.3</text>
</g>

<g fill="#d9d9d9" fill-opacity="1" stroke="#d9d9d9" stroke-opacity="1" stroke-width="1" stroke-linecap="square" stroke-linejoin="bevel" transform="matrix(0.5,0,0,0.5,20,226)"
font-family="Helvetica" font-size="20" font-weight="400" font-style="normal" 
>
<text fill="#d9d9d9" fill-opacity="1" stroke="none" xml:space="preserve" x="0" y="0.390625" font-family="Helvetica" font-size="20" font-weight="400" font-style="normal" 
 >0.4</text>
</g>

<g fill="#d9d9d9" fill-opacity="1" stroke="#d9d9d9" stroke-opacity="1" stroke-width="1" stroke-linecap="square" stroke-linejoin="bevel" transform="matrix(0.5,0,0,0.5,20,189.75)"
font-family="Helvetica" font-size="20" font-weight="400" font-style="normal" 
>
<text fill="#d9d9d9" fill-opacity="1" stroke="none" xml:space="preserve" x="0" y="0.390625" font-family="Helvetica" font-size="20" font-weight="400" font-style="normal" 
 >0.5</text>
</g>

<g fill="#d9d9d9" fill-opacity="1" stroke="#d9d9d9" stroke-opacity="1" stroke-width="1" stroke-linecap="square" stroke-linejoin="bevel" transform="matrix(0.5,0,0,0.5,20,153.5)"
font-family="Helvetica" font-size="20" font-weight="400" font-style="normal" 
>
<text fill="#d9d9d9" fill-opacity="1" stroke="none" xml:space="preserve" x="0" y="0.390625" font-family="Helvetica" font-size="20" font-weight="400" font-style="normal" 
 >0.6</text>
</g>

<g fill="#d9d9d9" fill-opacity="1" stroke="#d9d9d9" stroke-opacity="1" stroke-width="1" stroke-linecap="square" stroke-linejoin="bevel" transform="matrix(0.5,0,0,0.5,20,117.25)"
font-family="Helvetica" font-size="20" font-weight="400" font-style="normal" 
>
<text fill="#d9d9d9" fill-opacity="1" stroke="none" xml:space="preserve" x="0" y="0.390625" font-family="Helvetica" font-size="20" font-weight="400" font-style="normal" 
 >0.7</text>
</g>

<g fill="#d9d9d9" fill-opacity="1" stroke="#d9d9d9" stroke-opacity="1" stroke-width="1" stroke-linecap="square" stroke-linejoin="bevel" transform="matrix(0.5,0,0,0.5,20,81)"
font-family="Helvetica" font-size="20" font-weight="400" font-style="normal" 
>
<text fill="#d9d9d9" fill-opacity="1" stroke="none" xml:space="preserve" x="0" y="0.390625" font-family="Helvetica" font-size="20" font-weight="400" font-style="normal" 
 >0.8</text>
</g>

<g fill="#d9d9d9" fill-opacity="1" stroke="#d9d9d9" stroke-opacity="1" stroke-width="1" stroke-linecap="square" stroke-linejoin="bevel" transform="matrix(0.5,0,0,0.5,20,44.75)"
font-family="Helvetica" font-size="20" font-weight="400" font-style="normal" 
>
<text fill="#d9d9d9" fill-opacity="1" stroke="none" xml:space="preserve" x="0" y="0.390625" font-family="Helvetica" font-size="20" font-weight="400" font-style="normal" 
 >0.9</text>
</g>

<g fill="#d9d9d9" fill-opacity="1" stroke="#d9d9d9" stroke-opacity="1" stroke-width="1" stroke-linecap="square" stroke-linejoin="bevel" transform="matrix(0.5,0,0,0.5,28.5,8.5)"
font-family="Helvetica" font-size="20" font-weight="400" font-style="normal" 
>
<text fill="#d9d9d9" fill-opacity="1" stroke="none" xml:space="preserve" x="0" y="0.390625" font-family="Helvetica" font-size="20" font-weight="400" font-style="normal" 
 >1</text>
</g>

<g fill="none" stroke="#00ff00" stroke-opacity="1" stroke-width="1" stroke-linecap="butt" stroke-linejoin="miter" stroke-miterlimit="2" transform="matrix(0.5,0,0,0.5,-158,-27.5)"
font-family="Helvetica" font-size="20" font-weight="400" font-style="normal" 
>
<polyline fill="none" vector-effect="none" points="392,777.39 392.001,777.39 392.001,777.39 392.001,777.39 392.001,777.389 392.002,777.389 392.002,777.388 392.002,777.388 392.002,777.388 392.003,777.388 392.003,777.387 392.003,777.387 392.003,777.386 392.004,777.386 392.004,777.386 392.004,777.386 392.004,777.385 392.005,777.385 392.005,777.384 392.005,777.384 392.005,777.384 392.006,777.384 392.006,777.383 392.006,777.383 392.006,777.382 392.007,777.382 392.007,777.382 392.007,777.382 392.007,777.381 392.008,777.381 392.008,777.38 392.008,777.38 392.008,777.379 392.009,777.379 392.009,777.379 392.01,777.379 392.01,777.378 392.01,777.378 392.01,777.377 392.011,777.377 392.011,777.377 392.011,777.377 392.011,777.376 392.012,777.376 392.012,777.375 392.012,777.375 392.012,777.375 392.013,777.375 392.013,777.374 392.013,777.374 392.013,777.373 392.014,777.373 392.014,777.372 392.014,777.372 392.014,777.372 392.015,777.372 392.015,777.371 392.016,777.371 392.016,777.37 392.016,777.37 392.016,777.37 392.017,777.37 392.017,777.369 392.017,777.369 392.017,777.368 392.018,777.368 392.018,777.367 392.018,777.367 392.018,777.367 392.019,777.367 392.019,777.366 392.019,777.366 392.019,777.365 392.02,777.365 392.02,777.364 392.02,777.364 392.02,777.364 392.021,777.364 392.021,777.363 392.022,777.363 392.022,777.362 392.022,777.362 392.022,777.362 392.023,777.362 392.023,777.361 392.023,777.361 392.023,777.36 392.024,777.36 392.024,777.359 392.024,777.359 392.024,777.359 392.025,777.359 392.025,777.358 392.026,777.358 392.026,777.357 392.026,777.357 392.026,777.356 392.027,777.356 392.027,777.356 392.027,777.356 392.027,777.355 392.028,777.355 392.028,777.354 392.028,777.354 392.028,777.353 392.029,777.353 392.029,777.353 392.03,777.353 392.03,777.352 392.03,777.352 392.03,777.351 392.031,777.351 392.031,777.35 392.031,777.35 392.031,777.35 392.032,777.35 392.032,777.349 392.033,777.349 392.033,777.348 392.033,777.348 392.033,777.347 392.034,777.347 392.034,777.346 392.034,777.346 392.034,777.346 392.035,777.346 392.035,777.345 392.035,777.345 392.035,777.344 392.036,777.344 392.036,777.343 392.037,777.343 392.037,777.343 392.037,777.343 392.037,777.342 392.038,777.342 392.038,777.341 392.038,777.341 392.038,777.34 392.039,777.34 392.039,777.34 392.04,777.34 392.04,777.339 392.04,777.339 392.04,777.338 392.041,777.338 392.041,777.337 392.041,777.337 392.041,777.336 392.042,777.336 392.042,777.336 392.043,777.336 392.043,777.335 392.043,777.335 392.043,777.334 392.044,777.334 392.044,777.333 392.044,777.333 392.044,777.332 392.045,777.332 392.045,777.332 392.046,777.332 392.046,777.331 392.046,777.331 392.046,777.33 392.047,777.33 392.047,777.329 392.047,777.329 392.047,777.328 392.048,777.328 392.048,777.328 392.049,777.328 392.049,777.327 392.049,777.327 392.049,777.326 392.05,777.326 392.05,777.325 392.051,777.325 392.051,777.324 392.051,777.324 392.051,777.324 392.052,777.324 392.052,777.323 392.052,777.323 392.052,777.322 392.053,777.322 392.053,777.321 392.054,777.321 392.054,777.32 392.054,777.32 392.054,777.319 392.055,777.319 392.055,777.319 392.056,777.319 392.056,777.318 392.056,777.318 392.056,777.317 392.057,777.317 392.057,777.316 392.057,777.316 392.057,777.315 392.058,777.315 392.058,777.314 392.059,777.314 392.059,777.314 392.059,777.314 392.059,777.313 392.06,777.313 392.06,777.312 392.061,777.312 392.061,777.311 392.061,777.311 392.061,777.31 392.062,777.31 392.062,777.309 392.063,777.309 392.063,777.309 392.063,777.309 392.063,777.308 392.064,777.308 392.064,777.307 392.065,777.307 392.065,777.306 392.065,777.306 392.065,777.305 392.066,777.305 392.066,777.304 392.067,777.304 392.067,777.303 392.067,777.303 392.067,777.303 392.068,777.303 392.068,777.302 392.069,777.302 392.069,777.301 392.069,777.301 392.069,777.3 392.07,777.3 392.07,777.299 392.071,777.299 392.071,777.298 392.071,777.298 392.071,777.297 392.072,777.297 392.072,777.297 392.073,777.297 392.073,777.296 392.073,777.296 392.073,777.295 392.074,777.295 392.074,777.294 392.075,777.294 392.075,777.293 392.075,777.293 392.075,777.292 392.076,777.292 392.076,777.291 392.077,777.291 392.077,777.29 392.077,777.29 392.077,777.289 392.078,777.289 392.078,777.289 392.079,777.289 392.079,777.288 392.079,777.288 392.079,777.287 392.08,777.287 392.08,777.286 392.081,777.286 392.081,777.285 392.081,777.285 392.081,777.284 392.082,777.284 392.082,777.283 392.083,777.283 392.083,777.282 392.083,777.282 392.083,777.281 392.084,777.281 392.084,777.281 392.085,777.281 392.085,777.28 392.086,777.28 392.086,777.279 392.086,777.279 392.086,777.278 392.087,777.278 392.087,777.277 392.088,777.277 392.088,777.276 392.088,777.276 392.088,777.275 392.089,777.275 392.089,777.274 392.09,777.274 392.09,777.273 392.09,777.273 392.09,777.272 392.091,777.272 392.091,777.271 392.092,777.271 392.092,777.27 392.093,777.27 392.093,777.269 392.093,777.269 392.093,777.268 392.094,777.268 392.094,777.268 392.095,777.268 392.095,777.267 392.095,777.267 392.095,777.266 392.096,777.266 392.096,777.265 392.097,777.265 392.097,777.264 392.098,777.264 392.098,777.263 392.098,777.263 392.098,777.262 392.099,777.262 392.099,777.261 392.1,777.261 392.1,777.26 392.101,777.26 392.101,777.259 392.101,777.259 392.101,777.258 392.102,777.258 392.102,777.257 392.103,777.257 392.103,777.256 392.104,777.256 392.104,777.255 392.104,777.255 392.104,777.254 392.105,777.254 392.105,777.253 392.106,777.253 392.106,777.252 392.107,777.252 392.107,777.251 392.107,777.251 392.107,777.25 392.108,777.25 392.108,777.249 392.109,777.249 392.109,777.248 392.11,777.248 392.11,777.247 392.11,777.247 392.11,777.246 392.111,777.246 392.111,777.245 392.112,777.245 392.112,777.244 392.113,777.244 392.113,777.243 392.113,777.243 392.113,777.242 392.114,777.242 392.114,777.241 392.115,777.241 392.115,777.24 392.116,777.24 392.116,777.239 392.116,777.239 392.116,777.238 392.117,777.238 392.117,777.237 392.118,777.237 392.118,777.236 392.119,777.236 392.119,777.235 392.12,777.235 392.12,777.234 392.12,777.234 392.12,777.233 392.121,777.233 392.121,777.232 392.122,777.232 392.122,777.231 392.123,777.231 392.123,777.23 392.123,777.23 392.123,777.229 392.124,777.229 392.124,777.228 392.125,777.228 392.125,777.227 392.126,777.227 392.126,777.226 392.127,777.226 392.127,777.225 392.127,777.225 392.127,777.224 392.128,777.224 392.128,777.223 392.129,777.223 392.129,777.222 392.13,777.222 392.13,777.221 392.131,777.221 392.131,777.22 392.131,777.22 392.131,777.219 392.132,777.219 392.132,777.218 392.133,777.218 392.133,777.217 392.134,777.217 392.134,777.216 392.135,777.216 392.135,777.215 392.135,777.215 392.135,777.213 392.136,777.213 392.136,777.212 392.137,777.212 392.137,777.211 392.138,777.211 392.138,777.21 392.139,777.21 392.139,777.209 392.14,777.209 392.14,777.208 392.14,777.208 392.14,777.207 392.141,777.207 392.141,777.206 392.142,777.206 392.142,777.205 392.143,777.205 392.143,777.204 392.144,777.204 392.144,777.203 392.145,777.203 392.145,777.202 392.145,777.202 392.145,777.2 392.146,777.2 392.146,777.199 392.147,777.199 392.147,777.198 392.148,777.198 392.148,777.197 392.149,777.197 392.149,777.196 392.15,777.196 392.15,777.195 392.15,777.195 392.15,777.194 392.151,777.194 392.151,777.193 392.152,777.193 392.152,777.192 392.153,777.192 392.153,777.19 392.154,777.19 392.154,777.189 392.155,777.189 392.155,777.188 392.156,777.188 392.156,777.187 392.157,777.187 392.157,777.186 392.157,777.186 392.157,777.185 392.158,777.185 392.158,777.184 392.159,777.184 392.159,777.182 392.16,777.182 392.16,777.181 392.161,777.181 392.161,777.18 392.162,777.18 392.162,777.179 392.163,777.179 392.163,777.178 392.164,777.178 392.164,777.177 392.164,777.177 392.164,777.176 392.165,777.176 392.165,777.174 392.166,777.174 392.166,777.173 392.167,777.173 392.167,777.172 392.168,777.172 392.168,777.171 392.169,777.171 392.169,777.17 392.17,777.17 392.17,777.169 392.171,777.169 392.171,777.167 392.172,777.167 392.172,777.166 392.173,777.166 392.173,777.165 392.173,777.165 392.173,777.164 392.174,777.164 392.174,777.163 392.175,777.163 392.175,777.161 392.176,777.161 392.176,777.16 392.177,777.16 392.177,777.159 392.178,777.159 392.178,777.158 392.179,777.158 392.179,777.157 392.18,777.157 392.18,777.155 392.181,777.155 392.181,777.154 392.182,777.154 392.182,777.153 392.183,777.153 392.183,777.152 392.184,777.152 392.184,777.15 392.185,777.15 392.185,777.149 392.186,777.149 392.186,777.148 392.186,777.148 392.186,777.147 392.187,777.147 392.187,777.146 392.188,777.146 392.188,777.144 392.189,777.144 392.189,777.143 392.19,777.143 392.19,777.142 392.191,777.142 392.191,777.141 392.192,777.141 392.192,777.139 392.193,777.139 392.193,777.138 392.194,777.138 392.194,777.137 392.195,777.137 392.195,777.135 392.196,777.135 392.196,777.134 392.197,777.134 392.197,777.133 392.198,777.133 392.198,777.132 392.199,777.132 392.199,777.13 392.2,777.13 392.2,777.129 392.201,777.129 392.201,777.128 392.202,777.128 392.202,777.127 392.203,777.127 392.203,777.125 392.204,777.125 392.204,777.124 392.205,777.124 392.205,777.123 392.206,777.123 392.206,777.121 392.207,777.121 392.207,777.12 392.208,777.12 392.208,777.119 392.209,777.119 392.209,777.117 392.21,777.117 392.21,777.116 392.211,777.116 392.211,777.115 392.212,777.115 392.212,777.113 392.213,777.113 392.213,777.112 392.214,777.112 392.214,777.111 392.215,777.111 392.215,777.109 392.216,777.109 392.216,777.108 392.217,777.108 392.217,777.107 392.218,777.107 392.218,777.105 392.219,777.105 392.219,777.104 392.22,777.104 392.22,777.103 392.221,777.103 392.221,777.101 392.222,777.101 392.222,777.1 392.223,777.1 392.223,777.099 392.224,777.099 392.224,777.097 392.225,777.097 392.225,777.096 392.226,777.096 392.226,777.095 392.228,777.095 392.228,777.093 392.229,777.093 392.229,777.092 392.23,777.092 392.23,777.09 392.231,777.09 392.231,777.089 392.232,777.089 392.232,777.088 392.233,777.088 392.233,777.086 392.234,777.086 392.234,777.085 392.235,777.085 392.235,777.083 392.236,777.083 392.236,777.082 392.237,777.082 392.237,777.081 392.238,777.081 392.238,777.079 392.239,777.079 392.239,777.078 392.24,777.078 392.24,777.076 392.242,777.076 392.242,777.075 392.243,777.075 392.243,777.073 392.244,777.073 392.244,777.072 392.245,777.072 392.245,777.07 392.246,777.07 392.246,777.069 392.247,777.069 392.247,777.068 392.248,777.068 392.248,777.066 392.249,777.066 392.249,777.065 392.25,777.065 392.25,777.063 392.252,777.063 392.252,777.062 392.253,777.062 392.253,777.06 392.254,777.06 392.254,777.059 392.255,777.059 392.255,777.057 392.256,777.057 392.256,777.056 392.257,777.056 392.257,777.054 392.258,777.054 392.258,777.053 392.26,777.053 392.26,777.051 392.261,777.051 392.261,777.05 392.262,777.05 392.262,777.048 392.263,777.048 392.263,777.047 392.264,777.047 392.264,777.045 392.265,777.045 392.265,777.044 392.266,777.044 392.266,777.042 392.268,777.042 392.268,777.041 392.269,777.041 392.269,777.039 392.27,777.039 392.27,777.038 392.271,777.038 392.271,777.036 392.272,777.036 392.272,777.035 392.274,777.035 392.274,777.033 392.275,777.033 392.275,777.031 392.276,777.031 392.276,777.03 392.277,777.03 392.277,777.028 392.278,777.028 392.278,777.027 392.28,777.027 392.28,777.025 392.281,777.025 392.281,777.024 392.282,777.024 392.282,777.022 392.283,777.022 392.283,777.02 392.284,777.02 392.284,777.019 392.286,777.019 392.286,777.017 392.287,777.017 392.287,777.016 392.288,777.016 392.288,777.014 392.289,777.014 392.289,777.012 392.291,777.012 392.291,777.011 392.292,777.011 392.292,777.009 392.293,777.009 392.293,777.008 392.294,777.008 392.294,777.006 392.296,777.006 392.296,777.004 392.297,777.004 392.297,777.003 392.298,777.003 392.298,777.001 392.299,777.001 392.299,776.999 392.301,776.999 392.301,776.998 392.302,776.998 392.302,776.996 392.303,776.996 392.303,776.994 392.304,776.994 392.304,776.993 392.306,776.993 392.306,776.991 392.307,776.991 392.307,776.989 392.308,776.989 392.308,776.988 392.31,776.988 392.31,776.986 392.311,776.986 392.311,776.984 392.312,776.984 392.312,776.982 392.314,776.982 392.314,776.981 392.315,776.981 392.315,776.979 392.316,776.979 392.316,776.977 392.318,776.977 392.318,776.976 392.319,776.976 392.319,776.974 392.32,776.974 392.32,776.972 392.322,776.972 392.322,776.97 392.323,776.97 392.323,776.969 392.324,776.969 392.324,776.967 392.326,776.967 392.326,776.965 392.327,776.965 392.327,776.963 392.328,776.963 392.328,776.962 392.33,776.962 392.33,776.96 392.331,776.96 392.331,776.958 392.332,776.958 392.332,776.956 392.334,776.956 392.334,776.954 392.335,776.954 392.335,776.953 392.336,776.953 392.336,776.951 392.338,776.951 392.338,776.949 392.339,776.949 392.339,776.947 392.341,776.947 392.341,776.945 392.342,776.945 392.342,776.943 392.343,776.943 392.343,776.942 392.345,776.942 392.345,776.94 392.346,776.94 392.346,776.938 392.348,776.938 392.348,776.936 392.349,776.936 392.349,776.934 392.351,776.934 392.351,776.932 392.352,776.932 392.352,776.931 392.353,776.931 392.353,776.929 392.355,776.929 392.355,776.927 392.356,776.927 392.356,776.925 392.358,776.925 392.358,776.923 392.359,776.923 392.359,776.921 392.361,776.921 392.361,776.919 392.362,776.919 392.362,776.917 392.364,776.917 392.364,776.915 392.365,776.915 392.365,776.913 392.367,776.913 392.367,776.911 392.368,776.911 392.368,776.91 392.37,776.91 392.37,776.908 392.371,776.908 392.371,776.906 392.372,776.906 392.372,776.904 392.374,776.904 392.374,776.902 392.376,776.902 392.376,776.9 392.377,776.9 392.377,776.898 392.379,776.898 392.379,776.896 392.38,776.896 392.38,776.894 392.382,776.894 392.382,776.892 392.383,776.892 392.383,776.89 392.385,776.89 392.385,776.888 392.386,776.888 392.386,776.886 392.388,776.886 392.388,776.884 392.389,776.884 392.389,776.882 392.391,776.882 392.391,776.88 392.392,776.88 392.392,776.878 392.394,776.878 392.394,776.876 392.396,776.876 392.396,776.873 392.397,776.873 392.397,776.871 392.399,776.871 392.399,776.869 392.4,776.869 392.4,776.867 392.402,776.867 392.402,776.865 392.404,776.865 392.404,776.863 392.405,776.863 392.405,776.861 392.407,776.861 392.407,776.859 392.408,776.859 392.408,776.857 392.41,776.857 392.41,776.855 392.412,776.855 392.412,776.852 392.413,776.852 392.413,776.85 392.415,776.85 392.415,776.848 392.417,776.848 392.417,776.846 392.418,776.846 392.418,776.844 392.42,776.844 392.42,776.842 392.422,776.842 392.422,776.84 392.423,776.84 392.423,776.837 392.425,776.837 392.425,776.835 392.427,776.835 392.427,776.833 392.428,776.833 392.428,776.831 392.43,776.831 392.43,776.829 392.432,776.829 392.432,776.826 392.433,776.826 392.433,776.824 392.435,776.824 392.435,776.822 392.437,776.822 392.437,776.82 392.439,776.82 392.439,776.817 392.44,776.817 392.44,776.815 392.442,776.815 392.442,776.813 392.444,776.813 392.444,776.811 392.446,776.811 392.446,776.808 392.447,776.808 392.447,776.806 392.449,776.806 392.449,776.804 392.451,776.804 392.451,776.801 392.453,776.801 392.453,776.799 392.454,776.799 392.454,776.797 392.456,776.797 392.456,776.794 392.458,776.794 392.458,776.792 392.46,776.792 392.46,776.79 392.462,776.79 392.462,776.787 392.463,776.787 392.463,776.785 392.465,776.785 392.465,776.783 392.467,776.783 392.467,776.78 392.469,776.78 392.469,776.778 392.471,776.778 392.471,776.775 392.473,776.775 392.473,776.773 392.474,776.773 392.474,776.771 392.476,776.771 392.476,776.768 392.478,776.768 392.478,776.766 392.48,776.766 392.48,776.763 392.482,776.763 392.482,776.761 392.484,776.761 392.484,776.758 392.486,776.758 392.486,776.756 392.488,776.756 392.488,776.753 392.49,776.753 392.49,776.751 392.491,776.751 392.491,776.748 392.493,776.748 392.493,776.746 392.495,776.746 392.495,776.743 392.497,776.743 392.497,776.741 392.499,776.741 392.499,776.738 392.501,776.738 392.501,776.736 392.503,776.736 392.503,776.733 392.505,776.733 392.505,776.73 392.507,776.73 392.507,776.728 392.509,776.728 392.509,776.725 392.511,776.725 392.511,776.723 392.513,776.723 392.513,776.72 392.515,776.72 392.515,776.717 392.517,776.717 392.517,776.715 392.519,776.715 392.519,776.712 392.521,776.712 392.521,776.709 392.523,776.709 392.523,776.707 392.525,776.707 392.525,776.704 392.527,776.704 392.527,776.701 392.529,776.701 392.529,776.699 392.531,776.699 392.531,776.696 392.533,776.696 392.533,776.693 392.536,776.693 392.536,776.691 392.538,776.691 392.538,776.688 392.54,776.688 392.54,776.685 392.542,776.685 392.542,776.682 392.544,776.682 392.544,776.68 392.546,776.68 392.546,776.677 392.548,776.677 392.548,776.674 392.55,776.674 392.55,776.671 392.553,776.671 392.553,776.668 392.555,776.668 392.555,776.666 392.557,776.666 392.557,776.663 392.559,776.663 392.559,776.66 392.561,776.66 392.561,776.657 392.563,776.657 392.563,776.654 392.566,776.654 392.566,776.651 392.568,776.651 392.568,776.648 392.57,776.648 392.57,776.645 392.572,776.645 392.572,776.643 392.575,776.643 392.575,776.64 392.577,776.64 392.577,776.637 392.579,776.637 392.579,776.634 392.581,776.634 392.581,776.631 392.584,776.631 392.584,776.628 392.586,776.628 392.586,776.625 392.588,776.625 392.588,776.622 392.591,776.622 392.591,776.619 392.593,776.619 392.593,776.616 392.595,776.616 392.595,776.613 392.598,776.613 392.598,776.61 392.6,776.61 392.6,776.607 392.602,776.607 392.602,776.603 392.605,776.603 392.605,776.6 392.607,776.6 392.607,776.597 392.609,776.597 392.609,776.594 392.612,776.594 392.612,776.591 392.614,776.591 392.614,776.588 392.617,776.588 392.617,776.585 392.619,776.585 392.619,776.582 392.621,776.582 392.621,776.578 392.624,776.578 392.624,776.575 392.626,776.575 392.626,776.572 392.629,776.572 392.629,776.569 392.631,776.569 392.631,776.565 392.634,776.565 392.634,776.562 392.636,776.562 392.636,776.559 392.639,776.559 392.639,776.556 392.641,776.556 392.641,776.552 392.644,776.552 392.644,776.549 392.646,776.549 392.646,776.546 392.649,776.546 392.649,776.542 392.652,776.542 392.652,776.539 392.654,776.539 392.654,776.536 392.657,776.536 392.657,776.532 392.659,776.532 392.659,776.529 392.662,776.529 392.662,776.526 392.665,776.526 392.665,776.522 392.667,776.522 392.667,776.519 392.67,776.519 392.67,776.515 392.672,776.515 392.672,776.512 392.675,776.512 392.675,776.508 392.678,776.508 392.678,776.505 392.681,776.505 392.681,776.501 392.683,776.501 392.683,776.498 392.686,776.498 392.686,776.494 392.689,776.494 392.689,776.491 392.691,776.491 392.691,776.487 392.694,776.487 392.694,776.483 392.697,776.483 392.697,776.48 392.7,776.48 392.7,776.476 392.703,776.476 392.703,776.472 392.705,776.472 392.705,776.469 392.708,776.469 392.708,776.465 392.711,776.465 392.711,776.461 392.714,776.461 392.714,776.458 392.717,776.458 392.717,776.454 392.72,776.454 392.72,776.45 392.722,776.45 392.722,776.446 392.725,776.446 392.725,776.443 392.728,776.443 392.728,776.439 392.731,776.439 392.731,776.435 392.734,776.435 392.734,776.431 392.737,776.431 392.737,776.427 392.74,776.427 392.74,776.423 392.743,776.423 392.743,776.42 392.746,776.42 392.746,776.416 392.749,776.416 392.749,776.412 392.752,776.412 392.752,776.408 392.755,776.408 392.755,776.404 392.758,776.404 392.758,776.4 392.761,776.4 392.761,776.396 392.764,776.396 392.764,776.392 392.767,776.392 392.767,776.388 392.77,776.388 392.77,776.384 392.774,776.384 392.774,776.38 392.777,776.38 392.777,776.376 392.78,776.376 392.78,776.371 392.783,776.371 392.783,776.367 392.786,776.367 392.786,776.363 392.789,776.363 392.789,776.359 392.793,776.359 392.793,776.355 392.796,776.355 392.796,776.351 392.799,776.351 392.799,776.346 392.802,776.346 392.802,776.342 392.806,776.342 392.806,776.338 392.809,776.338 392.809,776.333 392.812,776.333 392.812,776.329 392.816,776.329 392.816,776.325 392.819,776.325 392.819,776.32 392.822,776.32 392.822,776.316 392.826,776.316 392.826,776.312 392.829,776.312 392.829,776.307 392.832,776.307 392.832,776.303 392.836,776.303 392.836,776.298 392.839,776.298 392.839,776.294 392.843,776.294 392.843,776.289 392.846,776.289 392.846,776.285 392.85,776.285 392.85,776.28 392.853,776.28 392.853,776.276 392.857,776.276 392.857,776.271 392.86,776.271 392.86,776.266 392.864,776.266 392.864,776.262 392.867,776.262 392.867,776.257 392.871,776.257 392.871,776.252 392.875,776.252 392.875,776.247 392.878,776.247 392.878,776.243 392.882,776.243 392.882,776.238 392.886,776.238 392.886,776.233 392.889,776.233 392.889,776.228 392.893,776.228 392.893,776.223 392.897,776.223 392.897,776.219 392.901,776.219 392.901,776.214 392.904,776.214 392.904,776.209 392.908,776.209 392.908,776.204 392.912,776.204 392.912,776.199 392.916,776.199 392.916,776.194 392.92,776.194 392.92,776.189 392.924,776.189 392.924,776.184 392.927,776.184 392.927,776.178 392.931,776.178 392.931,776.173 392.935,776.173 392.935,776.168 392.939,776.168 392.939,776.163 392.943,776.163 392.943,776.158 392.947,776.158 392.947,776.153 392.951,776.153 392.951,776.147 392.955,776.147 392.955,776.142 392.959,776.142 392.959,776.137 392.964,776.137 392.964,776.131 392.968,776.131 392.968,776.126 392.972,776.126 392.972,776.121 392.976,776.121 392.976,776.115 392.98,776.115 392.98,776.11 392.984,776.11 392.984,776.104 392.989,776.104 392.989,776.099 392.993,776.099 392.993,776.093 392.997,776.093 392.997,776.087 393.001,776.087 393.001,776.082 393.006,776.082 393.006,776.076 393.01,776.076 393.01,776.07 393.014,776.07 393.014,776.065 393.019,776.065 393.019,776.059 393.023,776.059 393.023,776.053 393.028,776.053 393.028,776.047 393.032,776.047 393.032,776.042 393.037,776.042 393.037,776.036 393.041,776.036 393.041,776.03 393.046,776.03 393.046,776.024 393.05,776.024 393.05,776.018 393.055,776.018 393.055,776.012 393.06,776.012 393.06,776.006 393.064,776.006 393.064,776 393.069,776 393.069,775.993 393.074,775.993 393.074,775.987 393.079,775.987 393.079,775.981 393.083,775.981 393.083,775.975 393.088,775.975 393.088,775.969 393.093,775.969 393.093,775.962 393.098,775.962 393.098,775.956 393.103,775.956 393.103,775.95 393.108,775.95 393.108,775.943 393.113,775.943 393.113,775.937 393.118,775.937 393.118,775.93 393.123,775.93 393.123,775.924 393.128,775.924 393.128,775.917 393.133,775.917 393.133,775.91 393.138,775.91 393.138,775.904 393.143,775.904 393.143,775.897 393.148,775.897 393.148,775.89 393.153,775.89 393.153,775.883 393.159,775.883 393.159,775.877 393.164,775.877 393.164,775.87 393.169,775.87 393.169,775.863 393.174,775.863 393.174,775.856 393.18,775.856 393.18,775.849 393.185,775.849 393.185,775.842 393.191,775.842 393.191,775.835 393.196,775.835 393.196,775.827 393.202,775.827 393.202,775.82 393.207,775.82 393.207,775.813 393.213,775.813 393.213,775.806 393.218,775.806 393.218,775.798 393.224,775.798 393.224,775.791 393.23,775.791 393.23,775.784 393.235,775.784 393.235,775.776 393.241,775.776 393.241,775.769 393.247,775.769 393.247,775.761 393.253,775.761 393.253,775.753 393.259,775.753 393.259,775.746 393.264,775.746 393.264,775.738 393.27,775.738 393.27,775.73 393.276,775.73 393.276,775.722 393.282,775.722 393.282,775.715 393.289,775.715 393.289,775.707 393.295,775.707 393.295,775.699 393.301,775.699 393.301,775.691 393.307,775.691 393.307,775.683 393.313,775.683 393.313,775.674 393.319,775.674 393.319,775.666 393.326,775.666 393.326,775.658 393.332,775.658 393.332,775.65 393.339,775.65 393.339,775.641 393.345,775.641 393.345,775.633 393.351,775.633 393.351,775.624 393.358,775.624 393.358,775.616 393.365,775.616 393.365,775.607 393.371,775.607 393.371,775.599 393.378,775.599 393.378,775.59 393.385,775.59 393.385,775.581 393.391,775.581 393.391,775.572 393.398,775.572 393.398,775.563 393.405,775.563 393.405,775.554 393.412,775.554 393.412,775.545 393.419,775.545 393.419,775.536 393.426,775.536 393.426,775.527 393.433,775.527 393.433,775.518 393.44,775.518 393.44,775.508 393.447,775.508 393.447,775.499 393.455,775.499 393.455,775.49 393.462,775.49 393.462,775.48 393.469,775.48 393.469,775.471 393.477,775.471 393.477,775.461 393.484,775.461 393.484,775.451 393.491,775.451 393.491,775.441 393.499,775.441 393.499,775.432 393.507,775.432 393.507,775.422 393.514,775.422 393.514,775.412 393.522,775.412 393.522,775.402 393.53,775.402 393.53,775.391 393.538,775.391 393.538,775.381 393.546,775.381 393.546,775.371 393.553,775.371 393.553,775.36 393.561,775.36 393.561,775.35 393.57,775.35 393.57,775.339 393.578,775.339 393.578,775.329 393.586,775.329 393.586,775.318 393.594,775.318 393.594,775.307 393.603,775.307 393.603,775.296 393.611,775.296 393.611,775.285 393.619,775.285 393.619,775.274 393.628,775.274 393.628,775.263 393.637,775.263 393.637,775.252 393.645,775.252 393.645,775.241 393.654,775.241 393.654,775.229 393.663,775.229 393.663,775.218 393.672,775.218 393.672,775.206 393.681,775.206 393.681,775.194 393.69,775.194 393.69,775.182 393.699,775.182 393.699,775.171 393.708,775.171 393.708,775.159 393.717,775.159 393.717,775.147 393.726,775.147 393.726,775.134 393.736,775.134 393.736,775.122 393.745,775.122 393.745,775.11 393.755,775.11 393.755,775.097 393.765,775.097 393.765,775.085 393.774,775.085 393.774,775.072 393.784,775.072 393.784,775.059 393.794,775.059 393.794,775.046 393.804,775.046 393.804,775.033 393.814,775.033 393.814,775.02 393.824,775.02 393.824,775.007 393.834,775.007 393.834,774.993 393.845,774.993 393.845,774.98 393.855,774.98 393.855,774.966 393.866,774.966 393.866,774.952 393.876,774.952 393.876,774.938 393.887,774.938 393.887,774.924 393.898,774.924 393.898,774.91 393.909,774.91 393.909,774.896 393.92,774.896 393.92,774.882 393.931,774.882 393.931,774.867 393.942,774.867 393.942,774.853 393.953,774.853 393.953,774.838 393.965,774.838 393.965,774.823 393.976,774.823 393.976,774.808 393.988,774.808 393.988,774.793 394,774.793 394,774.778 394.011,774.778 394.011,774.762 394.023,774.762 394.023,774.746 394.035,774.746 394.035,774.731 394.048,774.731 394.048,774.715 394.06,774.715 394.06,774.699 394.072,774.699 394.072,774.683 394.085,774.683 394.085,774.666 394.097,774.666 394.097,774.65 394.11,774.65 394.11,774.633 394.123,774.633 394.123,774.616 394.136,774.616 394.136,774.599 394.149,774.599 394.149,774.582 394.162,774.582 394.162,774.565 394.176,774.565 394.176,774.547 394.189,774.547 394.189,774.529 394.203,774.529 394.203,774.512 394.217,774.512 394.217,774.494 394.231,774.494 394.231,774.475 394.245,774.475 394.245,774.457 394.259,774.457 394.259,774.438 394.273,774.438 394.273,774.419 394.288,774.419 394.288,774.401 394.303,774.401 394.303,774.381 394.318,774.381 394.318,774.362 394.333,774.362 394.333,774.342 394.348,774.342 394.348,774.323 394.363,774.323 394.363,774.302 394.378,774.302 394.378,774.282 394.394,774.282 394.394,774.262 394.41,774.262 394.41,774.241 394.426,774.241 394.426,774.22 394.442,774.22 394.442,774.199 394.458,774.199 394.458,774.178 394.475,774.178 394.475,774.156 394.492,774.156 394.492,774.134 394.509,774.134 394.509,774.112 394.526,774.112 394.526,774.09 394.543,774.09 394.543,774.067 394.56,774.067 394.56,774.045 394.578,774.045 394.578,774.022 394.596,774.022 394.596,773.998 394.614,773.998 394.614,773.975 394.632,773.975 394.632,773.951 394.651,773.951 394.651,773.927 394.669,773.927 394.669,773.902 394.688,773.902 394.688,773.877 394.708,773.877 394.708,773.852 394.727,773.852 394.727,773.827 394.747,773.827 394.747,773.801 394.766,773.801 394.766,773.775 394.787,773.775 394.787,773.749 394.807,773.749 394.807,773.722 394.828,773.722 394.828,773.695 394.848,773.695 394.848,773.668 394.87,773.668 394.87,773.641 394.891,773.641 394.891,773.613 394.913,773.613 394.913,773.584 394.935,773.584 394.935,773.556 394.957,773.556 394.957,773.527 394.979,773.527 394.979,773.497 395.002,773.497 395.002,773.467 395.025,773.467 395.025,773.437 395.049,773.437 395.049,773.407 395.072,773.407 395.072,773.376 395.096,773.376 395.096,773.344 395.121,773.344 395.121,773.313 395.145,773.313 395.145,773.28 395.17,773.28 395.17,773.248 395.196,773.248 395.196,773.214 395.221,773.214 395.221,773.181 395.247,773.181 395.247,773.147 395.274,773.147 395.274,773.112 395.301,773.112 395.301,773.077 395.328,773.077 395.328,773.042 395.355,773.042 395.355,773.006 395.383,773.006 395.383,772.969 395.412,772.969 395.412,772.932 395.44,772.932 395.44,772.894 395.47,772.894 395.47,772.856 395.499,772.856 395.499,772.818 395.529,772.818 395.529,772.778 395.56,772.778 395.56,772.738 395.591,772.738 395.591,772.698 395.622,772.698 395.622,772.657 395.654,772.657 395.654,772.615 395.687,772.615 395.687,772.573 395.72,772.573 395.72,772.53 395.753,772.53 395.753,772.486 395.787,772.486 395.787,772.441 395.822,772.441 395.822,772.396 395.857,772.396 395.857,772.35 395.893,772.35 395.893,772.304 395.929,772.304 395.929,772.256 395.966,772.256 395.966,772.208 396.003,772.208 396.003,772.159 396.041,772.159 396.041,772.109 396.08,772.109 396.08,772.059 396.119,772.059 396.119,772.007 396.16,772.007 396.16,771.955 396.2,771.955 396.2,771.902 396.242,771.902 396.242,771.847 396.284,771.847 396.284,771.792 396.327,771.792 396.327,771.736 396.371,771.736 396.371,771.679 396.415,771.679 396.415,771.62 396.461,771.62 396.461,771.561 396.507,771.561 396.507,771.501 396.554,771.501 396.554,771.439 396.602,771.439 396.602,771.377 396.651,771.377 396.651,771.313 396.701,771.313 396.701,771.248 396.752,771.248 396.752,771.181 396.803,771.181 396.803,771.113 396.856,771.113 396.856,771.044 396.91,771.044 396.91,770.974 396.965,770.974 396.965,770.902 397.021,770.902 397.021,770.829 397.078,770.829 397.078,770.754 397.137,770.754 397.137,770.678 397.196,770.678 397.196,770.6 397.257,770.6 397.257,770.52 397.32,770.52 397.32,770.439 397.383,770.439 397.383,770.356 397.448,770.356 397.448,770.271 397.515,770.271 397.515,770.184 397.583,770.184 397.583,770.095 397.652,770.095 397.652,770.004 397.723,770.004 397.723,769.911 397.796,769.911 397.796,769.816 397.87,769.816 397.87,769.719 397.947,769.719 397.947,769.62 398.025,769.62 398.025,769.518 398.105,769.518 398.105,769.413 398.186,769.413 398.186,769.306 398.27,769.306 398.27,769.196 398.357,769.196 398.357,769.084 398.445,769.084 398.445,768.968 398.535,768.968 398.535,768.85 398.628,768.85 398.628,768.729 398.724,768.729 398.724,768.604 398.822,768.604 398.822,768.476 398.923,768.476 398.923,768.344 399.026,768.344 399.026,768.209 399.133,768.209 399.133,768.07 399.242,768.07 399.242,767.927 399.355,767.927 399.355,767.779 399.471,767.779 399.471,767.628 399.59,767.628 399.59,767.472 399.713,767.472 399.713,767.311 399.84,767.311 399.84,767.145 399.971,767.145 399.971,766.974 400.106,766.974 400.106,766.798 400.245,766.798 400.245,766.616 400.389,766.616 400.389,766.428 400.538,766.428 400.538,766.233 400.691,766.233 400.691,766.033 400.85,766.033 400.85,765.825 401.015,765.825 401.015,765.61 401.186,765.61 401.186,765.387 401.362,765.387 401.362,765.156 401.545,765.156 401.545,764.917 401.736,764.917 401.736,764.668 401.933,764.668 401.933,764.41 402.138,764.41 402.138,764.142 402.352,764.142 402.352,763.863 402.574,763.863 402.574,763.573 402.805,763.573 402.805,763.271 403.046,763.271 403.046,762.955 403.298,762.955 403.298,762.627 403.561,762.627 403.561,762.283 403.836,762.283 403.836,761.924 404.123,761.924 404.123,761.548 404.425,761.548 404.425,761.154 404.741,761.154 404.741,760.741 405.072,760.741 405.072,760.308 405.421,760.308 405.421,759.852 405.788,759.852 405.788,759.372 406.175,759.372 406.175,758.866 406.584,758.866 406.584,758.333 407.016,758.333 407.016,757.768 407.473,757.768 407.473,757.171 407.958,757.171 407.958,756.537 408.473,756.537 408.473,755.863 409.022,755.863 409.022,755.147 409.607,755.147 409.607,754.382 410.232,754.382 410.232,753.565 410.902,753.565 410.902,752.689 411.622,752.689 411.622,751.748 412.397,751.748 412.397,750.735 413.235,750.735 413.235,749.641 414.141,749.641 414.141,748.456 415.127,748.456 415.127,747.168 416.203,747.168 416.203,745.763 417.38,745.763 417.38,744.224 418.676,744.224 418.676,742.531 420.108,742.531 420.108,740.659 421.699,740.659 421.699,738.58 423.477,738.58 423.477,736.256 425.478,736.256 425.478,733.642 427.745,733.642 427.745,730.679 430.336,730.679 430.336,727.293 433.326,727.293 433.326,723.386 436.814,723.386 436.814,718.828 440.937,718.828 440.937,713.441 445.883,713.441 445.883,706.976 451.93,706.976 451.93,699.075 459.487,699.075 459.487,689.199 469.204,689.199 469.204,676.501 482.16,676.501 482.16,659.571 500.298,659.571 500.298,635.868 527.506,635.868 527.506,600.314 572.851,600.314 572.851,541.057 663.543,541.057 663.543,422.542 935.617,422.542 935.617,67 1117,67 1117,67 " />
</g>
</g>
</svg>
