<?xml version="1.0" encoding="UTF-8" standalone="no"?>
<svg width="130.528mm" height="128.058mm"
 viewBox="0 0 370 363"
 xmlns="http://www.w3.org/2000/svg" xmlns:xlink="http://www.w3.org/1999/xlink"  version="1.2" baseProfile="tiny">
<title>Qt SVG Document</title>
<desc>MATLAB, The MathWorks, Inc. Version 25.1.0.2973910 R2025a Update 1</desc>
<defs>
</defs>
<g fill="none" stroke="black" stroke-width="1" fill-rule="evenodd" stroke-linecap="square" stroke-linejoin="bevel" >

<g fill="#000000" fill-opacity="1" stroke="none" transform="matrix(0.757895,0,0,0.757895,-19.7053,-25.3895)"
font-family="Sans Serif" font-size="9" font-weight="400" font-style="normal" 
>
<path vector-effect="none" fill-rule="evenodd" d="M25,32 L514,32 L514,512 L25,512 L25,32"/>
</g>

<g fill="#121212" fill-opacity="1" stroke="none" transform="matrix(7.57895e-05,0,0,7.57895e-05,-19.7053,-25.3895)"
font-family="Sans Serif" font-size="9" font-weight="400" font-style="normal" 
>
<path vector-effect="none" fill-rule="evenodd" d="M760000,400000 L760000,4.72e+06 L5.08e+06,4.72e+06 L5.08e+06,400000 L760000,400000"/>
</g>

<g fill="#ffffff" fill-opacity="0.25098" stroke="#ffffff" stroke-opacity="0.25098" stroke-width="0.659722" stroke-linecap="butt" stroke-linejoin="round" transform="matrix(0.757895,0,0,0.757895,-19.7053,-25.3895)"
font-family="Sans Serif" font-size="9" font-weight="400" font-style="normal" 
>
<polyline fill="none" vector-effect="none" points="76,40 76,472 " />
<polyline fill="none" vector-effect="none" points="148,40 148,472 " />
<polyline fill="none" vector-effect="none" points="220,40 220,472 " />
<polyline fill="none" vector-effect="none" points="292,40 292,472 " />
<polyline fill="none" vector-effect="none" points="364,40 364,472 " />
<polyline fill="none" vector-effect="none" points="436,40 436,472 " />
<polyline fill="none" vector-effect="none" points="508,40 508,472 " />
<polyline fill="none" vector-effect="none" points="76,472 508,472 " />
<polyline fill="none" vector-effect="none" points="76,428.8 508,428.8 " />
<polyline fill="none" vector-effect="none" points="76,385.6 508,385.6 " />
<polyline fill="none" vector-effect="none" points="76,342.4 508,342.4 " />
<polyline fill="none" vector-effect="none" points="76,299.2 508,299.2 " />
<polyline fill="none" vector-effect="none" points="76,256 508,256 " />
<polyline fill="none" vector-effect="none" points="76,212.8 508,212.8 " />
<polyline fill="none" vector-effect="none" points="76,169.6 508,169.6 " />
<polyline fill="none" vector-effect="none" points="76,126.4 508,126.4 " />
<polyline fill="none" vector-effect="none" points="76,83.2 508,83.2 " />
<polyline fill="none" vector-effect="none" points="76,40 508,40 " />
</g>

<g fill="#d9d9d9" fill-opacity="1" stroke="#d9d9d9" stroke-opacity="1" stroke-width="1" stroke-linecap="square" stroke-linejoin="bevel" transform="matrix(0.757895,0,0,0.757895,156.505,358.558)"
font-family="Helvetica" font-size="14" font-weight="400" font-style="normal" 
>
<text fill="#d9d9d9" fill-opacity="1" stroke="none" xml:space="preserve" x="0" y="0" font-family="Helvetica" font-size="14" font-weight="400" font-style="normal" 
 >spin velocity (cm/s)</text>
</g>

<g fill="#d9d9d9" fill-opacity="1" stroke="#d9d9d9" stroke-opacity="1" stroke-width="0.659722" stroke-linecap="square" stroke-linejoin="round" transform="matrix(0.757895,0,0,0.757895,-19.7053,-25.3895)"
font-family="Helvetica" font-size="14" font-weight="400" font-style="normal" 
>
<polyline fill="none" vector-effect="none" points="76,472 508,472 " />
<polyline fill="none" vector-effect="none" points="76,40 508,40 " />
<polyline fill="none" vector-effect="none" points="76,472 76,467.68 " />
<polyline fill="none" vector-effect="none" points="76,44.32 76,40 " />
<polyline fill="none" vector-effect="none" points="148,472 148,467.68 " />
<polyline fill="none" vector-effect="none" points="148,44.32 148,40 " />
<polyline fill="none" vector-effect="none" points="220,472 220,467.68 " />
<polyline fill="none" vector-effect="none" points="220,44.32 220,40 " />
<polyline fill="none" vector-effect="none" points="292,472 292,467.68 " />
<polyline fill="none" vector-effect="none" points="292,44.32 292,40 " />
<polyline fill="none" vector-effect="none" points="364,472 364,467.68 " />
<polyline fill="none" vector-effect="none" points="364,44.32 364,40 " />
<polyline fill="none" vector-effect="none" points="436,472 436,467.68 " />
<polyline fill="none" vector-effect="none" points="436,44.32 436,40 " />
<polyline fill="none" vector-effect="none" points="508,472 508,467.68 " />
<polyline fill="none" vector-effect="none" points="508,44.32 508,40 " />
</g>

<g fill="#d9d9d9" fill-opacity="1" stroke="#d9d9d9" stroke-opacity="1" stroke-width="1" stroke-linecap="square" stroke-linejoin="bevel" transform="matrix(0.757895,0,0,0.757895,35.2421,345.432)"
font-family="Helvetica" font-size="13" font-weight="400" font-style="normal" 
>
<text fill="#d9d9d9" fill-opacity="1" stroke="none" xml:space="preserve" x="0" y="0" font-family="Helvetica" font-size="13" font-weight="400" font-style="normal" 
 >0</text>
</g>

<g fill="#d9d9d9" fill-opacity="1" stroke="#d9d9d9" stroke-opacity="1" stroke-width="1" stroke-linecap="square" stroke-linejoin="bevel" transform="matrix(0.757895,0,0,0.757895,89.8105,345.432)"
font-family="Helvetica" font-size="13" font-weight="400" font-style="normal" 
>
<text fill="#d9d9d9" fill-opacity="1" stroke="none" xml:space="preserve" x="0" y="0" font-family="Helvetica" font-size="13" font-weight="400" font-style="normal" 
 >1</text>
</g>

<g fill="#d9d9d9" fill-opacity="1" stroke="#d9d9d9" stroke-opacity="1" stroke-width="1" stroke-linecap="square" stroke-linejoin="bevel" transform="matrix(0.757895,0,0,0.757895,144.379,345.432)"
font-family="Helvetica" font-size="13" font-weight="400" font-style="normal" 
>
<text fill="#d9d9d9" fill-opacity="1" stroke="none" xml:space="preserve" x="0" y="0" font-family="Helvetica" font-size="13" font-weight="400" font-style="normal" 
 >2</text>
</g>

<g fill="#d9d9d9" fill-opacity="1" stroke="#d9d9d9" stroke-opacity="1" stroke-width="1" stroke-linecap="square" stroke-linejoin="bevel" transform="matrix(0.757895,0,0,0.757895,198.947,345.432)"
font-family="Helvetica" font-size="13" font-weight="400" font-style="normal" 
>
<text fill="#d9d9d9" fill-opacity="1" stroke="none" xml:space="preserve" x="0" y="0" font-family="Helvetica" font-size="13" font-weight="400" font-style="normal" 
 >3</text>
</g>

<g fill="#d9d9d9" fill-opacity="1" stroke="#d9d9d9" stroke-opacity="1" stroke-width="1" stroke-linecap="square" stroke-linejoin="bevel" transform="matrix(0.757895,0,0,0.757895,253.516,345.432)"
font-family="Helvetica" font-size="13" font-weight="400" font-style="normal" 
>
<text fill="#d9d9d9" fill-opacity="1" stroke="none" xml:space="preserve" x="0" y="0" font-family="Helvetica" font-size="13" font-weight="400" font-style="normal" 
 >4</text>
</g>

<g fill="#d9d9d9" fill-opacity="1" stroke="#d9d9d9" stroke-opacity="1" stroke-width="1" stroke-linecap="square" stroke-linejoin="bevel" transform="matrix(0.757895,0,0,0.757895,308.084,345.432)"
font-family="Helvetica" font-size="13" font-weight="400" font-style="normal" 
>
<text fill="#d9d9d9" fill-opacity="1" stroke="none" xml:space="preserve" x="0" y="0" font-family="Helvetica" font-size="13" font-weight="400" font-style="normal" 
 >5</text>
</g>

<g fill="#d9d9d9" fill-opacity="1" stroke="#d9d9d9" stroke-opacity="1" stroke-width="1" stroke-linecap="square" stroke-linejoin="bevel" transform="matrix(0.757895,0,0,0.757895,362.653,345.432)"
font-family="Helvetica" font-size="13" font-weight="400" font-style="normal" 
>
<text fill="#d9d9d9" fill-opacity="1" stroke="none" xml:space="preserve" x="0" y="0" font-family="Helvetica" font-size="13" font-weight="400" font-style="normal" 
 >6</text>
</g>

<g fill="#d9d9d9" fill-opacity="1" stroke="#d9d9d9" stroke-opacity="1" stroke-width="1" stroke-linecap="square" stroke-linejoin="bevel" transform="matrix(0,-0.757895,0.757895,0,9.09474,175.453)"
font-family="Helvetica" font-size="14" font-weight="400" font-style="normal" 
>
<text fill="#d9d9d9" fill-opacity="1" stroke="none" xml:space="preserve" x="0" y="0" font-family="Helvetica" font-size="14" font-weight="400" font-style="normal" 
 >M</text>
</g>

<g fill="#d9d9d9" fill-opacity="1" stroke="#d9d9d9" stroke-opacity="1" stroke-width="1" stroke-linecap="square" stroke-linejoin="bevel" transform="matrix(0,-0.757895,0.757895,0,14.4,166.358)"
font-family="Helvetica" font-size="11" font-weight="400" font-style="normal" 
>
<text fill="#d9d9d9" fill-opacity="1" stroke="none" xml:space="preserve" x="0" y="0" font-family="Helvetica" font-size="11" font-weight="400" font-style="normal" 
 >z</text>
</g>

<g fill="#d9d9d9" fill-opacity="1" stroke="#d9d9d9" stroke-opacity="1" stroke-width="0.659722" stroke-linecap="square" stroke-linejoin="round" transform="matrix(0.757895,0,0,0.757895,-19.7053,-25.3895)"
font-family="Helvetica" font-size="11" font-weight="400" font-style="normal" 
>
<polyline fill="none" vector-effect="none" points="76,472 76,40 " />
<polyline fill="none" vector-effect="none" points="508,472 508,40 " />
<polyline fill="none" vector-effect="none" points="76,472 80.32,472 " />
<polyline fill="none" vector-effect="none" points="503.68,472 508,472 " />
<polyline fill="none" vector-effect="none" points="76,428.8 80.32,428.8 " />
<polyline fill="none" vector-effect="none" points="503.68,428.8 508,428.8 " />
<polyline fill="none" vector-effect="none" points="76,385.6 80.32,385.6 " />
<polyline fill="none" vector-effect="none" points="503.68,385.6 508,385.6 " />
<polyline fill="none" vector-effect="none" points="76,342.4 80.32,342.4 " />
<polyline fill="none" vector-effect="none" points="503.68,342.4 508,342.4 " />
<polyline fill="none" vector-effect="none" points="76,299.2 80.32,299.2 " />
<polyline fill="none" vector-effect="none" points="503.68,299.2 508,299.2 " />
<polyline fill="none" vector-effect="none" points="76,256 80.32,256 " />
<polyline fill="none" vector-effect="none" points="503.68,256 508,256 " />
<polyline fill="none" vector-effect="none" points="76,212.8 80.32,212.8 " />
<polyline fill="none" vector-effect="none" points="503.68,212.8 508,212.8 " />
<polyline fill="none" vector-effect="none" points="76,169.6 80.32,169.6 " />
<polyline fill="none" vector-effect="none" points="503.68,169.6 508,169.6 " />
<polyline fill="none" vector-effect="none" points="76,126.4 80.32,126.4 " />
<polyline fill="none" vector-effect="none" points="503.68,126.4 508,126.4 " />
<polyline fill="none" vector-effect="none" points="76,83.2 80.32,83.2 " />
<polyline fill="none" vector-effect="none" points="503.68,83.2 508,83.2 " />
<polyline fill="none" vector-effect="none" points="76,40 80.32,40 " />
<polyline fill="none" vector-effect="none" points="503.68,40 508,40 " />
</g>

<g fill="#d9d9d9" fill-opacity="1" stroke="#d9d9d9" stroke-opacity="1" stroke-width="1" stroke-linecap="square" stroke-linejoin="bevel" transform="matrix(0.757895,0,0,0.757895,28.5895,335.747)"
font-family="Helvetica" font-size="13" font-weight="400" font-style="normal" 
>
<text fill="#d9d9d9" fill-opacity="1" stroke="none" xml:space="preserve" x="0" y="0" font-family="Helvetica" font-size="13" font-weight="400" font-style="normal" 
 >0</text>
</g>

<g fill="#d9d9d9" fill-opacity="1" stroke="#d9d9d9" stroke-opacity="1" stroke-width="1" stroke-linecap="square" stroke-linejoin="bevel" transform="matrix(0.757895,0,0,0.757895,20.2526,303.006)"
font-family="Helvetica" font-size="13" font-weight="400" font-style="normal" 
>
<text fill="#d9d9d9" fill-opacity="1" stroke="none" xml:space="preserve" x="0" y="0" font-family="Helvetica" font-size="13" font-weight="400" font-style="normal" 
 >0.1</text>
</g>

<g fill="#d9d9d9" fill-opacity="1" stroke="#d9d9d9" stroke-opacity="1" stroke-width="1" stroke-linecap="square" stroke-linejoin="bevel" transform="matrix(0.757895,0,0,0.757895,20.2526,270.265)"
font-family="Helvetica" font-size="13" font-weight="400" font-style="normal" 
>
<text fill="#d9d9d9" fill-opacity="1" stroke="none" xml:space="preserve" x="0" y="0" font-family="Helvetica" font-size="13" font-weight="400" font-style="normal" 
 >0.2</text>
</g>

<g fill="#d9d9d9" fill-opacity="1" stroke="#d9d9d9" stroke-opacity="1" stroke-width="1" stroke-linecap="square" stroke-linejoin="bevel" transform="matrix(0.757895,0,0,0.757895,20.2526,237.524)"
font-family="Helvetica" font-size="13" font-weight="400" font-style="normal" 
>
<text fill="#d9d9d9" fill-opacity="1" stroke="none" xml:space="preserve" x="0" y="0" font-family="Helvetica" font-size="13" font-weight="400" font-style="normal" 
 >0.3</text>
</g>

<g fill="#d9d9d9" fill-opacity="1" stroke="#d9d9d9" stroke-opacity="1" stroke-width="1" stroke-linecap="square" stroke-linejoin="bevel" transform="matrix(0.757895,0,0,0.757895,20.2526,204.783)"
font-family="Helvetica" font-size="13" font-weight="400" font-style="normal" 
>
<text fill="#d9d9d9" fill-opacity="1" stroke="none" xml:space="preserve" x="0" y="0" font-family="Helvetica" font-size="13" font-weight="400" font-style="normal" 
 >0.4</text>
</g>

<g fill="#d9d9d9" fill-opacity="1" stroke="#d9d9d9" stroke-opacity="1" stroke-width="1" stroke-linecap="square" stroke-linejoin="bevel" transform="matrix(0.757895,0,0,0.757895,20.2526,172.042)"
font-family="Helvetica" font-size="13" font-weight="400" font-style="normal" 
>
<text fill="#d9d9d9" fill-opacity="1" stroke="none" xml:space="preserve" x="0" y="0" font-family="Helvetica" font-size="13" font-weight="400" font-style="normal" 
 >0.5</text>
</g>

<g fill="#d9d9d9" fill-opacity="1" stroke="#d9d9d9" stroke-opacity="1" stroke-width="1" stroke-linecap="square" stroke-linejoin="bevel" transform="matrix(0.757895,0,0,0.757895,20.2526,139.301)"
font-family="Helvetica" font-size="13" font-weight="400" font-style="normal" 
>
<text fill="#d9d9d9" fill-opacity="1" stroke="none" xml:space="preserve" x="0" y="0" font-family="Helvetica" font-size="13" font-weight="400" font-style="normal" 
 >0.6</text>
</g>

<g fill="#d9d9d9" fill-opacity="1" stroke="#d9d9d9" stroke-opacity="1" stroke-width="1" stroke-linecap="square" stroke-linejoin="bevel" transform="matrix(0.757895,0,0,0.757895,20.2526,106.56)"
font-family="Helvetica" font-size="13" font-weight="400" font-style="normal" 
>
<text fill="#d9d9d9" fill-opacity="1" stroke="none" xml:space="preserve" x="0" y="0" font-family="Helvetica" font-size="13" font-weight="400" font-style="normal" 
 >0.7</text>
</g>

<g fill="#d9d9d9" fill-opacity="1" stroke="#d9d9d9" stroke-opacity="1" stroke-width="1" stroke-linecap="square" stroke-linejoin="bevel" transform="matrix(0.757895,0,0,0.757895,20.2526,73.8189)"
font-family="Helvetica" font-size="13" font-weight="400" font-style="normal" 
>
<text fill="#d9d9d9" fill-opacity="1" stroke="none" xml:space="preserve" x="0" y="0" font-family="Helvetica" font-size="13" font-weight="400" font-style="normal" 
 >0.8</text>
</g>

<g fill="#d9d9d9" fill-opacity="1" stroke="#d9d9d9" stroke-opacity="1" stroke-width="1" stroke-linecap="square" stroke-linejoin="bevel" transform="matrix(0.757895,0,0,0.757895,20.2526,41.0779)"
font-family="Helvetica" font-size="13" font-weight="400" font-style="normal" 
>
<text fill="#d9d9d9" fill-opacity="1" stroke="none" xml:space="preserve" x="0" y="0" font-family="Helvetica" font-size="13" font-weight="400" font-style="normal" 
 >0.9</text>
</g>

<g fill="#d9d9d9" fill-opacity="1" stroke="#d9d9d9" stroke-opacity="1" stroke-width="1" stroke-linecap="square" stroke-linejoin="bevel" transform="matrix(0.757895,0,0,0.757895,28.5895,8.33684)"
font-family="Helvetica" font-size="13" font-weight="400" font-style="normal" 
>
<text fill="#d9d9d9" fill-opacity="1" stroke="none" xml:space="preserve" x="0" y="0" font-family="Helvetica" font-size="13" font-weight="400" font-style="normal" 
 >1</text>
</g>

<g fill="none" stroke="#00ff00" stroke-opacity="1" stroke-width="0.659722" stroke-linecap="butt" stroke-linejoin="miter" stroke-miterlimit="2" transform="matrix(0.757895,0,0,0.757895,-19.7053,-25.3895)"
font-family="Helvetica" font-size="13" font-weight="400" font-style="normal" 
>
<polyline fill="none" vector-effect="none" points="76,463.708 76.4223,463.708 76.4223,462.466 76.8446,462.466 76.8446,461.231 77.2669,461.231 77.2669,459.992 77.6891,459.992 77.6891,458.782 78.1114,458.782 78.1114,457.568 78.5337,457.568 78.5337,456.275 78.956,456.275 78.956,455.061 79.3783,455.061 79.3783,453.855 79.8006,453.855 79.8006,452.558 80.2229,452.558 80.2229,451.603 80.6452,451.603 80.6452,450.04 81.0675,450.04 81.0675,449.098 81.4897,449.098 81.4897,448.016 81.912,448.016 81.912,446.76 82.3343,446.76 82.3343,445.286 82.7566,445.286 82.7566,444.449 83.1789,444.449 83.1789,443.532 83.6012,443.532 83.6012,441.408 84.0235,441.408 84.0235,440.169 84.4457,440.169 84.4457,440.169 84.868,440.169 84.868,438.784 85.2903,438.784 85.2903,437.227 85.7126,437.227 85.7126,435.461 86.1349,435.461 86.1349,435.461 86.5572,435.461 86.5572,433.444 86.9795,433.444 86.9795,433.444 87.4018,433.444 87.4018,431.116 87.8241,431.116 87.8241,431.116 88.2463,431.116 88.2463,428.399 88.6686,428.399 88.6686,428.399 89.0909,428.399 89.0909,425.19 89.5132,425.19 89.5132,425.19 89.9355,425.19 89.9355,425.19 90.3578,425.19 90.3578,425.19 90.7801,425.19 90.7801,421.338 91.2023,421.338 91.2023,421.338 91.6246,421.338 91.6246,421.338 92.0469,421.338 92.0469,416.63 92.4692,416.63 92.4692,416.63 92.8915,416.63 92.8915,416.63 93.3138,416.63 93.3138,416.63 93.7361,416.63 93.7361,416.63 94.1584,416.63 94.1584,410.745 94.5806,410.745 94.5806,410.745 95.0029,410.745 95.0029,410.745 95.4252,410.745 95.4252,410.745 95.8475,410.745 95.8475,410.745 96.2698,410.745 96.2698,410.745 96.6921,410.745 96.6921,403.179 97.1144,403.179 97.1144,403.179 97.5367,403.179 97.5367,403.179 97.9589,403.179 97.9589,403.179 98.3812,403.179 98.3812,403.179 98.8035,403.179 98.8035,403.179 99.2258,403.179 99.2258,403.179 99.6481,403.179 99.6481,403.179 100.07,403.179 100.07,393.09 100.493,393.09 100.493,393.09 100.915,393.09 100.915,393.09 101.337,393.09 101.337,393.09 101.76,393.09 101.76,393.09 102.182,393.09 102.182,393.09 102.604,393.09 102.604,393.09 103.026,393.09 103.026,393.09 103.449,393.09 103.449,393.09 103.871,393.09 103.871,393.09 104.293,393.09 104.293,393.09 104.716,393.09 104.716,393.09 105.138,393.09 105.138,378.967 105.56,378.967 105.56,378.967 105.982,378.967 105.982,378.967 106.405,378.967 106.405,378.967 106.827,378.967 106.827,378.967 107.249,378.967 107.249,378.967 107.672,378.967 107.672,378.967 108.094,378.967 108.094,378.967 108.516,378.967 108.516,378.967 108.938,378.967 108.938,378.967 109.361,378.967 109.361,378.967 109.783,378.967 109.783,378.967 110.205,378.967 110.205,378.967 110.628,378.967 110.628,378.967 111.05,378.967 111.05,378.967 111.472,378.967 111.472,378.967 111.894,378.967 111.894,378.967 112.317,378.967 112.317,357.781 112.739,357.781 112.739,357.781 113.161,357.781 113.161,357.781 113.584,357.781 113.584,357.781 114.006,357.781 114.006,357.781 114.428,357.781 114.428,357.781 114.85,357.781 114.85,357.781 115.273,357.781 115.273,357.781 115.695,357.781 115.695,357.781 116.117,357.781 116.117,357.781 116.54,357.781 116.54,357.781 116.962,357.781 116.962,357.781 117.384,357.781 117.384,357.781 117.806,357.781 117.806,357.781 118.229,357.781 118.229,357.781 118.651,357.781 118.651,357.781 119.073,357.781 119.073,357.781 119.496,357.781 119.496,357.781 119.918,357.781 119.918,357.781 120.34,357.781 120.34,357.781 120.762,357.781 120.762,357.781 121.185,357.781 121.185,357.781 121.607,357.781 121.607,357.781 122.029,357.781 122.029,357.781 122.452,357.781 122.452,357.781 122.874,357.781 122.874,357.781 123.296,357.781 123.296,357.781 123.718,357.781 123.718,357.781 124.141,357.781 124.141,322.472 124.563,322.472 124.563,322.472 124.985,322.472 124.985,322.472 125.408,322.472 125.408,322.472 125.83,322.472 125.83,322.472 126.252,322.472 126.252,322.472 126.674,322.472 126.674,322.472 127.097,322.472 127.097,322.472 127.519,322.472 127.519,322.472 127.941,322.472 127.941,322.472 128.364,322.472 128.364,322.472 128.786,322.472 128.786,322.472 129.208,322.472 129.208,322.472 129.63,322.472 129.63,322.472 130.053,322.472 130.053,322.472 130.475,322.472 130.475,322.472 130.897,322.472 130.897,322.472 131.32,322.472 131.32,322.472 131.742,322.472 131.742,322.472 132.164,322.472 132.164,322.472 132.587,322.472 132.587,322.472 133.009,322.472 133.009,322.472 133.431,322.472 133.431,322.472 133.853,322.472 133.853,322.472 134.276,322.472 134.276,322.472 134.698,322.472 134.698,322.472 135.12,322.472 135.12,322.472 135.543,322.472 135.543,322.472 135.965,322.472 135.965,322.472 136.387,322.472 136.387,322.472 136.809,322.472 136.809,322.472 137.232,322.472 137.232,322.472 137.654,322.472 137.654,322.472 138.076,322.472 138.076,322.472 138.499,322.472 138.499,322.472 138.921,322.472 138.921,322.472 139.343,322.472 139.343,322.472 139.765,322.472 139.765,322.472 140.188,322.472 140.188,322.472 140.61,322.472 140.61,322.472 141.032,322.472 141.032,322.472 141.455,322.472 141.455,322.472 141.877,322.472 141.877,322.472 142.299,322.472 142.299,322.472 142.721,322.472 142.721,322.472 143.144,322.472 143.144,322.472 143.566,322.472 143.566,322.472 143.988,322.472 143.988,322.472 144.411,322.472 144.411,322.472 144.833,322.472 144.833,322.472 145.255,322.472 145.255,322.472 145.677,322.472 145.677,322.472 146.1,322.472 146.1,322.472 146.522,322.472 146.522,322.472 146.944,322.472 146.944,322.472 147.367,322.472 147.367,322.472 147.789,322.472 147.789,322.472 148.211,322.472 148.211,251.854 148.633,251.854 148.633,251.854 149.056,251.854 149.056,251.854 149.478,251.854 149.478,251.854 149.9,251.854 149.9,251.854 150.323,251.854 150.323,251.854 150.745,251.854 150.745,251.854 151.167,251.854 151.167,251.854 151.589,251.854 151.589,251.854 152.012,251.854 152.012,251.854 152.434,251.854 152.434,251.854 152.856,251.854 152.856,251.854 153.279,251.854 153.279,251.854 153.701,251.854 153.701,251.854 154.123,251.854 154.123,251.854 154.545,251.854 154.545,251.854 154.968,251.854 154.968,251.854 155.39,251.854 155.39,251.854 155.812,251.854 155.812,251.854 156.235,251.854 156.235,251.854 156.657,251.854 156.657,251.854 157.079,251.854 157.079,251.854 157.501,251.854 157.501,251.854 157.924,251.854 157.924,251.854 158.346,251.854 158.346,251.854 158.768,251.854 158.768,251.854 159.191,251.854 159.191,251.854 159.613,251.854 159.613,251.854 160.035,251.854 160.035,251.854 160.457,251.854 160.457,251.854 160.88,251.854 160.88,251.854 161.302,251.854 161.302,251.854 161.724,251.854 161.724,251.854 162.147,251.854 162.147,251.854 162.569,251.854 162.569,251.854 162.991,251.854 162.991,251.854 163.413,251.854 163.413,251.854 163.836,251.854 163.836,251.854 164.258,251.854 164.258,251.854 164.68,251.854 164.68,251.854 165.103,251.854 165.103,251.854 165.525,251.854 165.525,251.854 165.947,251.854 165.947,251.854 166.37,251.854 166.37,251.854 166.792,251.854 166.792,251.854 167.214,251.854 167.214,251.854 167.636,251.854 167.636,251.854 168.059,251.854 168.059,251.854 168.481,251.854 168.481,251.854 168.903,251.854 168.903,251.854 169.326,251.854 169.326,251.854 169.748,251.854 169.748,251.854 170.17,251.854 170.17,251.854 170.592,251.854 170.592,251.854 171.015,251.854 171.015,251.854 171.437,251.854 171.437,251.854 171.859,251.854 171.859,251.854 172.282,251.854 172.282,251.854 172.704,251.854 172.704,251.854 173.126,251.854 173.126,251.854 173.548,251.854 173.548,251.854 173.971,251.854 173.971,251.854 174.393,251.854 174.393,251.854 174.815,251.854 174.815,251.854 175.238,251.854 175.238,251.854 175.66,251.854 175.66,251.854 176.082,251.854 176.082,251.854 176.504,251.854 176.504,251.854 176.927,251.854 176.927,251.854 177.349,251.854 177.349,251.854 177.771,251.854 177.771,251.854 178.194,251.854 178.194,251.854 178.616,251.854 178.616,251.854 179.038,251.854 179.038,251.854 179.46,251.854 179.46,251.854 179.883,251.854 179.883,251.854 180.305,251.854 180.305,251.854 180.727,251.854 180.727,251.854 181.15,251.854 181.15,251.854 181.572,251.854 181.572,251.854 181.994,251.854 181.994,251.854 182.416,251.854 182.416,251.854 182.839,251.854 182.839,251.854 183.261,251.854 183.261,251.854 183.683,251.854 183.683,251.854 184.106,251.854 184.106,251.854 184.528,251.854 184.528,251.854 184.95,251.854 184.95,251.854 185.372,251.854 185.372,251.854 185.795,251.854 185.795,251.854 186.217,251.854 186.217,251.854 186.639,251.854 186.639,251.854 187.062,251.854 187.062,251.854 187.484,251.854 187.484,251.854 187.906,251.854 187.906,251.854 188.328,251.854 188.328,251.854 188.751,251.854 188.751,251.854 189.173,251.854 189.173,251.854 189.595,251.854 189.595,251.854 190.018,251.854 190.018,251.854 190.44,251.854 190.44,251.854 190.862,251.854 190.862,251.854 191.284,251.854 191.284,251.854 191.707,251.854 191.707,251.854 192.129,251.854 192.129,251.854 192.551,251.854 192.551,251.854 192.974,251.854 192.974,251.854 193.396,251.854 193.396,251.854 193.818,251.854 193.818,251.854 194.24,251.854 194.24,251.854 194.663,251.854 194.663,251.854 195.085,251.854 195.085,251.854 195.507,251.854 195.507,251.854 195.93,251.854 195.93,251.854 196.352,251.854 196.352,251.854 196.774,251.854 196.774,251.854 197.196,251.854 197.196,251.854 197.619,251.854 197.619,251.854 198.041,251.854 198.041,251.854 198.463,251.854 198.463,251.854 198.886,251.854 198.886,251.854 199.308,251.854 199.308,251.854 199.73,251.854 199.73,251.854 200.152,251.854 200.152,251.854 200.575,251.854 200.575,251.854 200.997,251.854 200.997,251.854 201.419,251.854 201.419,251.854 201.842,251.854 201.842,251.854 202.264,251.854 202.264,251.854 202.686,251.854 202.686,251.854 203.109,251.854 203.109,251.854 203.531,251.854 203.531,251.854 203.953,251.854 203.953,251.854 204.375,251.854 204.375,251.854 204.798,251.854 204.798,251.854 205.22,251.854 205.22,251.854 205.642,251.854 205.642,251.854 206.065,251.854 206.065,251.854 206.487,251.854 206.487,251.854 206.909,251.854 206.909,251.854 207.331,251.854 207.331,251.854 207.754,251.854 207.754,251.854 208.176,251.854 208.176,251.854 208.598,251.854 208.598,251.854 209.021,251.854 209.021,251.854 209.443,251.854 209.443,251.854 209.865,251.854 209.865,251.854 210.287,251.854 210.287,251.854 210.71,251.854 210.71,251.854 211.132,251.854 211.132,251.854 211.554,251.854 211.554,251.854 211.977,251.854 211.977,251.854 212.399,251.854 212.399,251.854 212.821,251.854 212.821,251.854 213.243,251.854 213.243,251.854 213.666,251.854 213.666,251.854 214.088,251.854 214.088,251.854 214.51,251.854 214.51,251.854 214.933,251.854 214.933,251.854 215.355,251.854 215.355,251.854 215.777,251.854 215.777,251.854 216.199,251.854 216.199,251.854 216.622,251.854 216.622,251.854 217.044,251.854 217.044,251.854 217.466,251.854 217.466,251.854 217.889,251.854 217.889,251.854 218.311,251.854 218.311,251.854 218.733,251.854 218.733,251.854 219.155,251.854 219.155,251.854 219.578,251.854 219.578,251.854 220,251.854 220,40 220.422,40 220.422,40 220.845,40 220.845,40 221.267,40 221.267,40 221.689,40 221.689,40 222.111,40 222.111,40 222.534,40 222.534,40 222.956,40 222.956,40 223.378,40 223.378,40 223.801,40 223.801,40 224.223,40 224.223,40 224.645,40 224.645,40 225.067,40 225.067,40 225.49,40 225.49,40 225.912,40 225.912,40 226.334,40 226.334,40 226.757,40 226.757,40 227.179,40 227.179,40 227.601,40 227.601,40 228.023,40 228.023,40 228.446,40 228.446,40 228.868,40 228.868,40 229.29,40 229.29,40 229.713,40 229.713,40 230.135,40 230.135,40 230.557,40 230.557,40 230.979,40 230.979,40 231.402,40 231.402,40 231.824,40 231.824,40 232.246,40 232.246,40 232.669,40 232.669,40 233.091,40 233.091,40 233.513,40 233.513,40 233.935,40 233.935,40 234.358,40 234.358,40 234.78,40 234.78,40 235.202,40 235.202,40 235.625,40 235.625,40 236.047,40 236.047,40 236.469,40 236.469,40 236.891,40 236.891,40 237.314,40 237.314,40 237.736,40 237.736,40 238.158,40 238.158,40 238.581,40 238.581,40 239.003,40 239.003,40 239.425,40 239.425,40 239.848,40 239.848,40 240.27,40 240.27,40 240.692,40 240.692,40 241.114,40 241.114,40 241.537,40 241.537,40 241.959,40 241.959,40 242.381,40 242.381,40 242.804,40 242.804,40 243.226,40 243.226,40 243.648,40 243.648,40 244.07,40 244.07,40 244.493,40 244.493,40 244.915,40 244.915,40 245.337,40 245.337,40 245.76,40 245.76,40 246.182,40 246.182,40 246.604,40 246.604,40 247.026,40 247.026,40 247.449,40 247.449,40 247.871,40 247.871,40 248.293,40 248.293,40 248.716,40 248.716,40 249.138,40 249.138,40 249.56,40 249.56,40 249.982,40 249.982,40 250.405,40 250.405,40 250.827,40 250.827,40 251.249,40 251.249,40 251.672,40 251.672,40 252.094,40 252.094,40 252.516,40 252.516,40 252.938,40 252.938,40 253.361,40 253.361,40 253.783,40 253.783,40 254.205,40 254.205,40 254.628,40 254.628,40 255.05,40 255.05,40 255.472,40 255.472,40 255.894,40 255.894,40 256.317,40 256.317,40 256.739,40 256.739,40 257.161,40 257.161,40 257.584,40 257.584,40 258.006,40 258.006,40 258.428,40 258.428,40 258.85,40 258.85,40 259.273,40 259.273,40 259.695,40 259.695,40 260.117,40 260.117,40 260.54,40 260.54,40 260.962,40 260.962,40 261.384,40 261.384,40 261.806,40 261.806,40 262.229,40 262.229,40 262.651,40 262.651,40 263.073,40 263.073,40 263.496,40 263.496,40 263.918,40 263.918,40 264.34,40 264.34,40 264.762,40 264.762,40 265.185,40 265.185,40 265.607,40 265.607,40 266.029,40 266.029,40 266.452,40 266.452,40 266.874,40 266.874,40 267.296,40 267.296,40 267.718,40 267.718,40 268.141,40 268.141,40 268.563,40 268.563,40 268.985,40 268.985,40 269.408,40 269.408,40 269.83,40 269.83,40 270.252,40 270.252,40 270.674,40 270.674,40 271.097,40 271.097,40 271.519,40 271.519,40 271.941,40 271.941,40 272.364,40 272.364,40 272.786,40 272.786,40 273.208,40 273.208,40 273.63,40 273.63,40 274.053,40 274.053,40 274.475,40 274.475,40 274.897,40 274.897,40 275.32,40 275.32,40 275.742,40 275.742,40 276.164,40 276.164,40 276.587,40 276.587,40 277.009,40 277.009,40 277.431,40 277.431,40 277.853,40 277.853,40 278.276,40 278.276,40 278.698,40 278.698,40 279.12,40 279.12,40 279.543,40 279.543,40 279.965,40 279.965,40 280.387,40 280.387,40 280.809,40 280.809,40 281.232,40 281.232,40 281.654,40 281.654,40 282.076,40 282.076,40 282.499,40 282.499,40 282.921,40 282.921,40 283.343,40 283.343,40 283.765,40 283.765,40 284.188,40 284.188,40 284.61,40 284.61,40 285.032,40 285.032,40 285.455,40 285.455,40 285.877,40 285.877,40 286.299,40 286.299,40 286.721,40 286.721,40 287.144,40 287.144,40 287.566,40 287.566,40 287.988,40 287.988,40 288.411,40 288.411,40 288.833,40 288.833,40 289.255,40 289.255,40 289.677,40 289.677,40 290.1,40 290.1,40 290.522,40 290.522,40 290.944,40 290.944,40 291.367,40 291.367,40 291.789,40 291.789,40 292.211,40 292.211,40 292.633,40 292.633,40 293.056,40 293.056,40 293.478,40 293.478,40 293.9,40 293.9,40 294.323,40 294.323,40 294.745,40 294.745,40 295.167,40 295.167,40 295.589,40 295.589,40 296.012,40 296.012,40 296.434,40 296.434,40 296.856,40 296.856,40 297.279,40 297.279,40 297.701,40 297.701,40 298.123,40 298.123,40 298.545,40 298.545,40 298.968,40 298.968,40 299.39,40 299.39,40 299.812,40 299.812,40 300.235,40 300.235,40 300.657,40 300.657,40 301.079,40 301.079,40 301.501,40 301.501,40 301.924,40 301.924,40 302.346,40 302.346,40 302.768,40 302.768,40 303.191,40 303.191,40 303.613,40 303.613,40 304.035,40 304.035,40 304.457,40 304.457,40 304.88,40 304.88,40 305.302,40 305.302,40 305.724,40 305.724,40 306.147,40 306.147,40 306.569,40 306.569,40 306.991,40 306.991,40 307.413,40 307.413,40 307.836,40 307.836,40 308.258,40 308.258,40 308.68,40 308.68,40 309.103,40 309.103,40 309.525,40 309.525,40 309.947,40 309.947,40 310.37,40 310.37,40 310.792,40 310.792,40 311.214,40 311.214,40 311.636,40 311.636,40 312.059,40 312.059,40 312.481,40 312.481,40 312.903,40 312.903,40 313.326,40 313.326,40 313.748,40 313.748,40 314.17,40 314.17,40 314.592,40 314.592,40 315.015,40 315.015,40 315.437,40 315.437,40 315.859,40 315.859,40 316.282,40 316.282,40 316.704,40 316.704,40 317.126,40 317.126,40 317.548,40 317.548,40 317.971,40 317.971,40 318.393,40 318.393,40 318.815,40 318.815,40 319.238,40 319.238,40 319.66,40 319.66,40 320.082,40 320.082,40 320.504,40 320.504,40 320.927,40 320.927,40 321.349,40 321.349,40 321.771,40 321.771,40 322.194,40 322.194,40 322.616,40 322.616,40 323.038,40 323.038,40 323.46,40 323.46,40 323.883,40 323.883,40 324.305,40 324.305,40 324.727,40 324.727,40 325.15,40 325.15,40 325.572,40 325.572,40 325.994,40 325.994,40 326.416,40 326.416,40 326.839,40 326.839,40 327.261,40 327.261,40 327.683,40 327.683,40 328.106,40 328.106,40 328.528,40 328.528,40 328.95,40 328.95,40 329.372,40 329.372,40 329.795,40 329.795,40 330.217,40 330.217,40 330.639,40 330.639,40 331.062,40 331.062,40 331.484,40 331.484,40 331.906,40 331.906,40 332.328,40 332.328,40 332.751,40 332.751,40 333.173,40 333.173,40 333.595,40 333.595,40 334.018,40 334.018,40 334.44,40 334.44,40 334.862,40 334.862,40 335.284,40 335.284,40 335.707,40 335.707,40 336.129,40 336.129,40 336.551,40 336.551,40 336.974,40 336.974,40 337.396,40 337.396,40 337.818,40 337.818,40 338.24,40 338.24,40 338.663,40 338.663,40 339.085,40 339.085,40 339.507,40 339.507,40 339.93,40 339.93,40 340.352,40 340.352,40 340.774,40 340.774,40 341.196,40 341.196,40 341.619,40 341.619,40 342.041,40 342.041,40 342.463,40 342.463,40 342.886,40 342.886,40 343.308,40 343.308,40 343.73,40 343.73,40 344.152,40 344.152,40 344.575,40 344.575,40 344.997,40 344.997,40 345.419,40 345.419,40 345.842,40 345.842,40 346.264,40 346.264,40 346.686,40 346.686,40 347.108,40 347.108,40 347.531,40 347.531,40 347.953,40 347.953,40 348.375,40 348.375,40 348.798,40 348.798,40 349.22,40 349.22,40 349.642,40 349.642,40 350.065,40 350.065,40 350.487,40 350.487,40 350.909,40 350.909,40 351.331,40 351.331,40 351.754,40 351.754,40 352.176,40 352.176,40 352.598,40 352.598,40 353.021,40 353.021,40 353.443,40 353.443,40 353.865,40 353.865,40 354.287,40 354.287,40 354.71,40 354.71,40 355.132,40 355.132,40 355.554,40 355.554,40 355.977,40 355.977,40 356.399,40 356.399,40 356.821,40 356.821,40 357.243,40 357.243,40 357.666,40 357.666,40 358.088,40 358.088,40 358.51,40 358.51,40 358.933,40 358.933,40 359.355,40 359.355,40 359.777,40 359.777,40 360.199,40 360.199,40 360.622,40 360.622,40 361.044,40 361.044,40 361.466,40 361.466,40 361.889,40 361.889,40 362.311,40 362.311,40 362.733,40 362.733,40 363.155,40 363.155,40 363.578,40 363.578,40 364,40 364,40 364.422,40 364.422,40 364.845,40 364.845,40 365.267,40 365.267,40 365.689,40 365.689,40 366.111,40 366.111,40 366.534,40 366.534,40 366.956,40 366.956,40 367.378,40 367.378,40 367.801,40 367.801,40 368.223,40 368.223,40 368.645,40 368.645,40 369.067,40 369.067,40 369.49,40 369.49,40 369.912,40 369.912,40 370.334,40 370.334,40 370.757,40 370.757,40 371.179,40 371.179,40 371.601,40 371.601,40 372.023,40 372.023,40 372.446,40 372.446,40 372.868,40 372.868,40 373.29,40 373.29,40 373.713,40 373.713,40 374.135,40 374.135,40 374.557,40 374.557,40 374.979,40 374.979,40 375.402,40 375.402,40 375.824,40 375.824,40 376.246,40 376.246,40 376.669,40 376.669,40 377.091,40 377.091,40 377.513,40 377.513,40 377.935,40 377.935,40 378.358,40 378.358,40 378.78,40 378.78,40 379.202,40 379.202,40 379.625,40 379.625,40 380.047,40 380.047,40 380.469,40 380.469,40 380.891,40 380.891,40 381.314,40 381.314,40 381.736,40 381.736,40 382.158,40 382.158,40 382.581,40 382.581,40 383.003,40 383.003,40 383.425,40 383.425,40 383.848,40 383.848,40 384.27,40 384.27,40 384.692,40 384.692,40 385.114,40 385.114,40 385.537,40 385.537,40 385.959,40 385.959,40 386.381,40 386.381,40 386.804,40 386.804,40 387.226,40 387.226,40 387.648,40 387.648,40 388.07,40 388.07,40 388.493,40 388.493,40 388.915,40 388.915,40 389.337,40 389.337,40 389.76,40 389.76,40 390.182,40 390.182,40 390.604,40 390.604,40 391.026,40 391.026,40 391.449,40 391.449,40 391.871,40 391.871,40 392.293,40 392.293,40 392.716,40 392.716,40 393.138,40 393.138,40 393.56,40 393.56,40 393.982,40 393.982,40 394.405,40 394.405,40 394.827,40 394.827,40 395.249,40 395.249,40 395.672,40 395.672,40 396.094,40 396.094,40 396.516,40 396.516,40 396.938,40 396.938,40 397.361,40 397.361,40 397.783,40 397.783,40 398.205,40 398.205,40 398.628,40 398.628,40 399.05,40 399.05,40 399.472,40 399.472,40 399.894,40 399.894,40 400.317,40 400.317,40 400.739,40 400.739,40 401.161,40 401.161,40 401.584,40 401.584,40 402.006,40 402.006,40 402.428,40 402.428,40 402.85,40 402.85,40 403.273,40 403.273,40 403.695,40 403.695,40 404.117,40 404.117,40 404.54,40 404.54,40 404.962,40 404.962,40 405.384,40 405.384,40 405.806,40 405.806,40 406.229,40 406.229,40 406.651,40 406.651,40 407.073,40 407.073,40 407.496,40 407.496,40 407.918,40 407.918,40 408.34,40 408.34,40 408.762,40 408.762,40 409.185,40 409.185,40 409.607,40 409.607,40 410.029,40 410.029,40 410.452,40 410.452,40 410.874,40 410.874,40 411.296,40 411.296,40 411.718,40 411.718,40 412.141,40 412.141,40 412.563,40 412.563,40 412.985,40 412.985,40 413.408,40 413.408,40 413.83,40 413.83,40 414.252,40 414.252,40 414.674,40 414.674,40 415.097,40 415.097,40 415.519,40 415.519,40 415.941,40 415.941,40 416.364,40 416.364,40 416.786,40 416.786,40 417.208,40 417.208,40 417.63,40 417.63,40 418.053,40 418.053,40 418.475,40 418.475,40 418.897,40 418.897,40 419.32,40 419.32,40 419.742,40 419.742,40 420.164,40 420.164,40 420.587,40 420.587,40 421.009,40 421.009,40 421.431,40 421.431,40 421.853,40 421.853,40 422.276,40 422.276,40 422.698,40 422.698,40 423.12,40 423.12,40 423.543,40 423.543,40 423.965,40 423.965,40 424.387,40 424.387,40 424.809,40 424.809,40 425.232,40 425.232,40 425.654,40 425.654,40 426.076,40 426.076,40 426.499,40 426.499,40 426.921,40 426.921,40 427.343,40 427.343,40 427.765,40 427.765,40 428.188,40 428.188,40 428.61,40 428.61,40 429.032,40 429.032,40 429.455,40 429.455,40 429.877,40 429.877,40 430.299,40 430.299,40 430.721,40 430.721,40 431.144,40 431.144,40 431.566,40 431.566,40 431.988,40 431.988,40 432.411,40 432.411,40 432.833,40 432.833,40 433.255,40 433.255,40 433.677,40 433.677,40 434.1,40 434.1,40 434.522,40 434.522,40 434.944,40 434.944,40 435.367,40 435.367,40 435.789,40 435.789,40 436.211,40 436.211,40 436.633,40 436.633,40 437.056,40 437.056,40 437.478,40 437.478,40 437.9,40 437.9,40 438.323,40 438.323,40 438.745,40 438.745,40 439.167,40 439.167,40 439.589,40 439.589,40 440.012,40 440.012,40 440.434,40 440.434,40 440.856,40 440.856,40 441.279,40 441.279,40 441.701,40 441.701,40 442.123,40 442.123,40 442.545,40 442.545,40 442.968,40 442.968,40 443.39,40 443.39,40 443.812,40 443.812,40 444.235,40 444.235,40 444.657,40 444.657,40 445.079,40 445.079,40 445.501,40 445.501,40 445.924,40 445.924,40 446.346,40 446.346,40 446.768,40 446.768,40 447.191,40 447.191,40 447.613,40 447.613,40 448.035,40 448.035,40 448.457,40 448.457,40 448.88,40 448.88,40 449.302,40 449.302,40 449.724,40 449.724,40 450.147,40 450.147,40 450.569,40 450.569,40 450.991,40 450.991,40 451.413,40 451.413,40 451.836,40 451.836,40 452.258,40 452.258,40 452.68,40 452.68,40 453.103,40 453.103,40 453.525,40 453.525,40 453.947,40 453.947,40 454.37,40 454.37,40 454.792,40 454.792,40 455.214,40 455.214,40 455.636,40 455.636,40 456.059,40 456.059,40 456.481,40 456.481,40 456.903,40 456.903,40 457.326,40 457.326,40 457.748,40 457.748,40 458.17,40 458.17,40 458.592,40 458.592,40 459.015,40 459.015,40 459.437,40 459.437,40 459.859,40 459.859,40 460.282,40 460.282,40 460.704,40 460.704,40 461.126,40 461.126,40 461.548,40 461.548,40 461.971,40 461.971,40 462.393,40 462.393,40 462.815,40 462.815,40 463.238,40 463.238,40 463.66,40 463.66,40 464.082,40 464.082,40 464.504,40 464.504,40 464.927,40 464.927,40 465.349,40 465.349,40 465.771,40 465.771,40 466.194,40 466.194,40 466.616,40 466.616,40 467.038,40 467.038,40 467.46,40 467.46,40 467.883,40 467.883,40 468.305,40 468.305,40 468.727,40 468.727,40 469.15,40 469.15,40 469.572,40 469.572,40 469.994,40 469.994,40 470.416,40 470.416,40 470.839,40 470.839,40 471.261,40 471.261,40 471.683,40 471.683,40 472.106,40 472.106,40 472.528,40 472.528,40 472.95,40 472.95,40 473.372,40 473.372,40 473.795,40 473.795,40 474.217,40 474.217,40 474.639,40 474.639,40 475.062,40 475.062,40 475.484,40 475.484,40 475.906,40 475.906,40 476.328,40 476.328,40 476.751,40 476.751,40 477.173,40 477.173,40 477.595,40 477.595,40 478.018,40 478.018,40 478.44,40 478.44,40 478.862,40 478.862,40 479.284,40 479.284,40 479.707,40 479.707,40 480.129,40 480.129,40 480.551,40 480.551,40 480.974,40 480.974,40 481.396,40 481.396,40 481.818,40 481.818,40 482.24,40 482.24,40 482.663,40 482.663,40 483.085,40 483.085,40 483.507,40 483.507,40 483.93,40 483.93,40 484.352,40 484.352,40 484.774,40 484.774,40 485.196,40 485.196,40 485.619,40 485.619,40 486.041,40 486.041,40 486.463,40 486.463,40 486.886,40 486.886,40 487.308,40 487.308,40 487.73,40 487.73,40 488.152,40 488.152,40 488.575,40 488.575,40 488.997,40 488.997,40 489.419,40 489.419,40 489.842,40 489.842,40 490.264,40 490.264,40 490.686,40 490.686,40 491.109,40 491.109,40 491.531,40 491.531,40 491.953,40 491.953,40 492.375,40 492.375,40 492.798,40 492.798,40 493.22,40 493.22,40 493.642,40 493.642,40 494.065,40 494.065,40 494.487,40 494.487,40 494.909,40 494.909,40 495.331,40 495.331,40 495.754,40 495.754,40 496.176,40 496.176,40 496.598,40 496.598,40 497.021,40 497.021,40 497.443,40 497.443,40 497.865,40 497.865,40 498.287,40 498.287,40 498.71,40 498.71,40 499.132,40 499.132,40 499.554,40 499.554,40 499.977,40 499.977,40 500.399,40 500.399,40 500.821,40 500.821,40 501.243,40 501.243,40 501.666,40 501.666,40 502.088,40 502.088,40 502.51,40 502.51,40 502.933,40 502.933,40 503.355,40 503.355,40 503.777,40 503.777,40 504.199,40 504.199,40 504.622,40 504.622,40 505.044,40 505.044,40 505.466,40 505.466,40 505.889,40 505.889,40 506.311,40 506.311,40 506.733,40 506.733,40 507.155,40 507.155,40 507.578,40 507.578,40 508,40 508,40 " />
</g>
</g>
</svg>
